<?xml version="1.0" encoding="utf-8" standalone="no"?>
<!DOCTYPE svg PUBLIC "-//W3C//DTD SVG 1.1//EN"
  "http://www.w3.org/Graphics/SVG/1.1/DTD/svg11.dtd">
<!-- Created with matplotlib (https://matplotlib.org/) -->
<svg height="218.3576pt" version="1.1" viewBox="0 0 590.973997 218.3576" width="590.973997pt" xmlns="http://www.w3.org/2000/svg" xmlns:xlink="http://www.w3.org/1999/xlink">
 <metadata>
  <rdf:RDF xmlns:cc="http://creativecommons.org/ns#" xmlns:dc="http://purl.org/dc/elements/1.1/" xmlns:rdf="http://www.w3.org/1999/02/22-rdf-syntax-ns#">
   <cc:Work>
    <dc:type rdf:resource="http://purl.org/dc/dcmitype/StillImage"/>
    <dc:date>2021-01-06T13:39:16.281763</dc:date>
    <dc:format>image/svg+xml</dc:format>
    <dc:creator>
     <cc:Agent>
      <dc:title>Matplotlib v3.3.3, https://matplotlib.org/</dc:title>
     </cc:Agent>
    </dc:creator>
   </cc:Work>
  </rdf:RDF>
 </metadata>
 <defs>
  <style type="text/css">*{stroke-linecap:butt;stroke-linejoin:round;}</style>
 </defs>
 <g id="figure_1">
  <g id="patch_1">
   <path d="M 0 218.3576
L 590.973997 218.3576
L 590.973997 0
L 0 0
z
" style="fill:#ffffff;"/>
  </g>
  <g id="axes_1">
   <g id="line2d_1">
    <path clip-path="url(#pfb5680c462)" d="M 64.609197 44.2832
L 579.138597 44.2832
" style="fill:none;stroke:#000000;stroke-linecap:square;stroke-width:2;"/>
   </g>
   <g id="line2d_2">
    <path clip-path="url(#pfb5680c462)" d="M 64.609197 90.6372
L 579.138597 90.6372
" style="fill:none;stroke:#000000;stroke-linecap:square;stroke-width:2;"/>
   </g>
   <g id="line2d_3">
    <path clip-path="url(#pfb5680c462)" d="M 64.609197 136.9912
L 579.138597 136.9912
" style="fill:none;stroke:#000000;stroke-linecap:square;stroke-width:2;"/>
   </g>
   <g id="line2d_4">
    <path clip-path="url(#pfb5680c462)" d="M 64.609197 183.3452
L 579.138597 183.3452
" style="fill:none;stroke:#000000;stroke-linecap:square;stroke-width:2;"/>
   </g>
   <g id="line2d_5">
    <path clip-path="url(#pfb5680c462)" d="M 135.994357 90.6372
L 135.994357 44.2832
" style="fill:none;stroke:#6fa4ff;stroke-linecap:square;stroke-width:2;"/>
   </g>
   <g id="line2d_6">
    <path clip-path="url(#pfb5680c462)" d="M 182.348357 136.9912
L 182.348357 90.6372
" style="fill:none;stroke:#6fa4ff;stroke-linecap:square;stroke-width:2;"/>
   </g>
   <g id="line2d_7">
    <path clip-path="url(#pfb5680c462)" d="M 228.702357 183.3452
L 228.702357 136.9912
" style="fill:none;stroke:#6fa4ff;stroke-linecap:square;stroke-width:2;"/>
   </g>
   <g id="line2d_8">
    <path clip-path="url(#pfb5680c462)" d="M 275.056357 90.6372
L 275.056357 44.2832
" style="fill:none;stroke:#6fa4ff;stroke-linecap:square;stroke-width:2;"/>
   </g>
   <g id="line2d_9">
    <path clip-path="url(#pfb5680c462)" d="M 321.410357 136.9912
L 321.410357 90.6372
" style="fill:none;stroke:#6fa4ff;stroke-linecap:square;stroke-width:2;"/>
   </g>
   <g id="line2d_10">
    <path clip-path="url(#pfb5680c462)" d="M 367.764357 183.3452
L 367.764357 136.9912
" style="fill:none;stroke:#6fa4ff;stroke-linecap:square;stroke-width:2;"/>
   </g>
   <g id="line2d_11">
    <path clip-path="url(#pfb5680c462)" d="M 414.118357 90.6372
L 414.118357 44.2832
" style="fill:none;stroke:#6fa4ff;stroke-linecap:square;stroke-width:2;"/>
   </g>
   <g id="line2d_12">
    <path clip-path="url(#pfb5680c462)" d="M 460.472357 136.9912
L 460.472357 90.6372
" style="fill:none;stroke:#6fa4ff;stroke-linecap:square;stroke-width:2;"/>
   </g>
   <g id="line2d_13">
    <path clip-path="url(#pfb5680c462)" d="M 506.826357 183.3452
L 506.826357 136.9912
" style="fill:none;stroke:#6fa4ff;stroke-linecap:square;stroke-width:2;"/>
   </g>
   <g id="patch_2">
    <path clip-path="url(#pfb5680c462)" d="M 74.575307 59.34825
L 104.705407 59.34825
L 104.705407 29.21815
L 74.575307 29.21815
z
" style="fill:#bb8bff;stroke:#bb8bff;stroke-linejoin:miter;stroke-width:1.5;"/>
   </g>
   <g id="patch_3">
    <path clip-path="url(#pfb5680c462)" d="M 74.575307 105.70225
L 104.705407 105.70225
L 104.705407 75.57215
L 74.575307 75.57215
z
" style="fill:#bb8bff;stroke:#bb8bff;stroke-linejoin:miter;stroke-width:1.5;"/>
   </g>
   <g id="patch_4">
    <path clip-path="url(#pfb5680c462)" d="M 74.575307 152.05625
L 104.705407 152.05625
L 104.705407 121.92615
L 74.575307 121.92615
z
" style="fill:#bb8bff;stroke:#bb8bff;stroke-linejoin:miter;stroke-width:1.5;"/>
   </g>
   <g id="patch_5">
    <path clip-path="url(#pfb5680c462)" d="M 74.575307 198.41025
L 104.705407 198.41025
L 104.705407 168.28015
L 74.575307 168.28015
z
" style="fill:#bb8bff;stroke:#bb8bff;stroke-linejoin:miter;stroke-width:1.5;"/>
   </g>
   <g id="patch_6">
    <path clip-path="url(#pfb5680c462)" d="M 135.994357 48.802715
C 137.192947 48.802715 138.342606 48.32651 139.190137 47.47898
C 140.037668 46.631449 140.513872 45.481789 140.513872 44.2832
C 140.513872 43.084611 140.037668 41.934951 139.190137 41.08742
C 138.342606 40.23989 137.192947 39.763685 135.994357 39.763685
C 134.795768 39.763685 133.646108 40.23989 132.798578 41.08742
C 131.951047 41.934951 131.474842 43.084611 131.474842 44.2832
C 131.474842 45.481789 131.951047 46.631449 132.798578 47.47898
C 133.646108 48.32651 134.795768 48.802715 135.994357 48.802715
z
" style="fill:#6fa4ff;stroke:#6fa4ff;stroke-linejoin:miter;stroke-width:1.5;"/>
   </g>
   <g id="patch_7">
    <path clip-path="url(#pfb5680c462)" d="M 135.994357 95.156715
C 137.192947 95.156715 138.342606 94.68051 139.190137 93.83298
C 140.037668 92.985449 140.513872 91.835789 140.513872 90.6372
C 140.513872 89.438611 140.037668 88.288951 139.190137 87.44142
C 138.342606 86.59389 137.192947 86.117685 135.994357 86.117685
C 134.795768 86.117685 133.646108 86.59389 132.798578 87.44142
C 131.951047 88.288951 131.474842 89.438611 131.474842 90.6372
C 131.474842 91.835789 131.951047 92.985449 132.798578 93.83298
C 133.646108 94.68051 134.795768 95.156715 135.994357 95.156715
z
" style="fill:#6fa4ff;stroke:#6fa4ff;stroke-linejoin:miter;stroke-width:1.5;"/>
   </g>
   <g id="patch_8">
    <path clip-path="url(#pfb5680c462)" d="M 182.348357 95.156715
C 183.546947 95.156715 184.696606 94.68051 185.544137 93.83298
C 186.391668 92.985449 186.867872 91.835789 186.867872 90.6372
C 186.867872 89.438611 186.391668 88.288951 185.544137 87.44142
C 184.696606 86.59389 183.546947 86.117685 182.348357 86.117685
C 181.149768 86.117685 180.000108 86.59389 179.152578 87.44142
C 178.305047 88.288951 177.828842 89.438611 177.828842 90.6372
C 177.828842 91.835789 178.305047 92.985449 179.152578 93.83298
C 180.000108 94.68051 181.149768 95.156715 182.348357 95.156715
z
" style="fill:#6fa4ff;stroke:#6fa4ff;stroke-linejoin:miter;stroke-width:1.5;"/>
   </g>
   <g id="patch_9">
    <path clip-path="url(#pfb5680c462)" d="M 182.348357 141.510715
C 183.546947 141.510715 184.696606 141.03451 185.544137 140.18698
C 186.391668 139.339449 186.867872 138.189789 186.867872 136.9912
C 186.867872 135.792611 186.391668 134.642951 185.544137 133.79542
C 184.696606 132.94789 183.546947 132.471685 182.348357 132.471685
C 181.149768 132.471685 180.000108 132.94789 179.152578 133.79542
C 178.305047 134.642951 177.828842 135.792611 177.828842 136.9912
C 177.828842 138.189789 178.305047 139.339449 179.152578 140.18698
C 180.000108 141.03451 181.149768 141.510715 182.348357 141.510715
z
" style="fill:#6fa4ff;stroke:#6fa4ff;stroke-linejoin:miter;stroke-width:1.5;"/>
   </g>
   <g id="patch_10">
    <path clip-path="url(#pfb5680c462)" d="M 167.283307 59.34825
L 197.413407 59.34825
L 197.413407 29.21815
L 167.283307 29.21815
z
" style="fill:#bb8bff;stroke:#bb8bff;stroke-linejoin:miter;stroke-width:1.5;"/>
   </g>
   <g id="patch_11">
    <path clip-path="url(#pfb5680c462)" d="M 228.702357 141.510715
C 229.900947 141.510715 231.050606 141.03451 231.898137 140.18698
C 232.745668 139.339449 233.221872 138.189789 233.221872 136.9912
C 233.221872 135.792611 232.745668 134.642951 231.898137 133.79542
C 231.050606 132.94789 229.900947 132.471685 228.702357 132.471685
C 227.503768 132.471685 226.354108 132.94789 225.506578 133.79542
C 224.659047 134.642951 224.182842 135.792611 224.182842 136.9912
C 224.182842 138.189789 224.659047 139.339449 225.506578 140.18698
C 226.354108 141.03451 227.503768 141.510715 228.702357 141.510715
z
" style="fill:#6fa4ff;stroke:#6fa4ff;stroke-linejoin:miter;stroke-width:1.5;"/>
   </g>
   <g id="patch_12">
    <path clip-path="url(#pfb5680c462)" d="M 228.702357 187.864715
C 229.900947 187.864715 231.050606 187.38851 231.898137 186.54098
C 232.745668 185.693449 233.221872 184.543789 233.221872 183.3452
C 233.221872 182.146611 232.745668 180.996951 231.898137 180.14942
C 231.050606 179.30189 229.900947 178.825685 228.702357 178.825685
C 227.503768 178.825685 226.354108 179.30189 225.506578 180.14942
C 224.659047 180.996951 224.182842 182.146611 224.182842 183.3452
C 224.182842 184.543789 224.659047 185.693449 225.506578 186.54098
C 226.354108 187.38851 227.503768 187.864715 228.702357 187.864715
z
" style="fill:#6fa4ff;stroke:#6fa4ff;stroke-linejoin:miter;stroke-width:1.5;"/>
   </g>
   <g id="patch_13">
    <path clip-path="url(#pfb5680c462)" d="M 213.637307 105.70225
L 243.767407 105.70225
L 243.767407 75.57215
L 213.637307 75.57215
z
" style="fill:#bb8bff;stroke:#bb8bff;stroke-linejoin:miter;stroke-width:1.5;"/>
   </g>
   <g id="patch_14">
    <path clip-path="url(#pfb5680c462)" d="M 259.991307 152.05625
L 290.121407 152.05625
L 290.121407 121.92615
L 259.991307 121.92615
z
" style="fill:#bb8bff;stroke:#bb8bff;stroke-linejoin:miter;stroke-width:1.5;"/>
   </g>
   <g id="patch_15">
    <path clip-path="url(#pfb5680c462)" d="M 259.991307 198.41025
L 290.121407 198.41025
L 290.121407 168.28015
L 259.991307 168.28015
z
" style="fill:#bb8bff;stroke:#bb8bff;stroke-linejoin:miter;stroke-width:1.5;"/>
   </g>
   <g id="patch_16">
    <path clip-path="url(#pfb5680c462)" d="M 275.056357 48.802715
C 276.254947 48.802715 277.404606 48.32651 278.252137 47.47898
C 279.099668 46.631449 279.575872 45.481789 279.575872 44.2832
C 279.575872 43.084611 279.099668 41.934951 278.252137 41.08742
C 277.404606 40.23989 276.254947 39.763685 275.056357 39.763685
C 273.857768 39.763685 272.708108 40.23989 271.860578 41.08742
C 271.013047 41.934951 270.536842 43.084611 270.536842 44.2832
C 270.536842 45.481789 271.013047 46.631449 271.860578 47.47898
C 272.708108 48.32651 273.857768 48.802715 275.056357 48.802715
z
" style="fill:#6fa4ff;stroke:#6fa4ff;stroke-linejoin:miter;stroke-width:1.5;"/>
   </g>
   <g id="patch_17">
    <path clip-path="url(#pfb5680c462)" d="M 275.056357 95.156715
C 276.254947 95.156715 277.404606 94.68051 278.252137 93.83298
C 279.099668 92.985449 279.575872 91.835789 279.575872 90.6372
C 279.575872 89.438611 279.099668 88.288951 278.252137 87.44142
C 277.404606 86.59389 276.254947 86.117685 275.056357 86.117685
C 273.857768 86.117685 272.708108 86.59389 271.860578 87.44142
C 271.013047 88.288951 270.536842 89.438611 270.536842 90.6372
C 270.536842 91.835789 271.013047 92.985449 271.860578 93.83298
C 272.708108 94.68051 273.857768 95.156715 275.056357 95.156715
z
" style="fill:#6fa4ff;stroke:#6fa4ff;stroke-linejoin:miter;stroke-width:1.5;"/>
   </g>
   <g id="patch_18">
    <path clip-path="url(#pfb5680c462)" d="M 321.410357 95.156715
C 322.608947 95.156715 323.758606 94.68051 324.606137 93.83298
C 325.453668 92.985449 325.929872 91.835789 325.929872 90.6372
C 325.929872 89.438611 325.453668 88.288951 324.606137 87.44142
C 323.758606 86.59389 322.608947 86.117685 321.410357 86.117685
C 320.211768 86.117685 319.062108 86.59389 318.214578 87.44142
C 317.367047 88.288951 316.890842 89.438611 316.890842 90.6372
C 316.890842 91.835789 317.367047 92.985449 318.214578 93.83298
C 319.062108 94.68051 320.211768 95.156715 321.410357 95.156715
z
" style="fill:#6fa4ff;stroke:#6fa4ff;stroke-linejoin:miter;stroke-width:1.5;"/>
   </g>
   <g id="patch_19">
    <path clip-path="url(#pfb5680c462)" d="M 321.410357 141.510715
C 322.608947 141.510715 323.758606 141.03451 324.606137 140.18698
C 325.453668 139.339449 325.929872 138.189789 325.929872 136.9912
C 325.929872 135.792611 325.453668 134.642951 324.606137 133.79542
C 323.758606 132.94789 322.608947 132.471685 321.410357 132.471685
C 320.211768 132.471685 319.062108 132.94789 318.214578 133.79542
C 317.367047 134.642951 316.890842 135.792611 316.890842 136.9912
C 316.890842 138.189789 317.367047 139.339449 318.214578 140.18698
C 319.062108 141.03451 320.211768 141.510715 321.410357 141.510715
z
" style="fill:#6fa4ff;stroke:#6fa4ff;stroke-linejoin:miter;stroke-width:1.5;"/>
   </g>
   <g id="patch_20">
    <path clip-path="url(#pfb5680c462)" d="M 306.345307 59.34825
L 336.475407 59.34825
L 336.475407 29.21815
L 306.345307 29.21815
z
" style="fill:#bb8bff;stroke:#bb8bff;stroke-linejoin:miter;stroke-width:1.5;"/>
   </g>
   <g id="patch_21">
    <path clip-path="url(#pfb5680c462)" d="M 367.764357 141.510715
C 368.962947 141.510715 370.112606 141.03451 370.960137 140.18698
C 371.807668 139.339449 372.283872 138.189789 372.283872 136.9912
C 372.283872 135.792611 371.807668 134.642951 370.960137 133.79542
C 370.112606 132.94789 368.962947 132.471685 367.764357 132.471685
C 366.565768 132.471685 365.416108 132.94789 364.568578 133.79542
C 363.721047 134.642951 363.244842 135.792611 363.244842 136.9912
C 363.244842 138.189789 363.721047 139.339449 364.568578 140.18698
C 365.416108 141.03451 366.565768 141.510715 367.764357 141.510715
z
" style="fill:#6fa4ff;stroke:#6fa4ff;stroke-linejoin:miter;stroke-width:1.5;"/>
   </g>
   <g id="patch_22">
    <path clip-path="url(#pfb5680c462)" d="M 367.764357 187.864715
C 368.962947 187.864715 370.112606 187.38851 370.960137 186.54098
C 371.807668 185.693449 372.283872 184.543789 372.283872 183.3452
C 372.283872 182.146611 371.807668 180.996951 370.960137 180.14942
C 370.112606 179.30189 368.962947 178.825685 367.764357 178.825685
C 366.565768 178.825685 365.416108 179.30189 364.568578 180.14942
C 363.721047 180.996951 363.244842 182.146611 363.244842 183.3452
C 363.244842 184.543789 363.721047 185.693449 364.568578 186.54098
C 365.416108 187.38851 366.565768 187.864715 367.764357 187.864715
z
" style="fill:#6fa4ff;stroke:#6fa4ff;stroke-linejoin:miter;stroke-width:1.5;"/>
   </g>
   <g id="patch_23">
    <path clip-path="url(#pfb5680c462)" d="M 352.699307 105.70225
L 382.829407 105.70225
L 382.829407 75.57215
L 352.699307 75.57215
z
" style="fill:#bb8bff;stroke:#bb8bff;stroke-linejoin:miter;stroke-width:1.5;"/>
   </g>
   <g id="patch_24">
    <path clip-path="url(#pfb5680c462)" d="M 399.053307 152.05625
L 429.183407 152.05625
L 429.183407 121.92615
L 399.053307 121.92615
z
" style="fill:#bb8bff;stroke:#bb8bff;stroke-linejoin:miter;stroke-width:1.5;"/>
   </g>
   <g id="patch_25">
    <path clip-path="url(#pfb5680c462)" d="M 399.053307 198.41025
L 429.183407 198.41025
L 429.183407 168.28015
L 399.053307 168.28015
z
" style="fill:#bb8bff;stroke:#bb8bff;stroke-linejoin:miter;stroke-width:1.5;"/>
   </g>
   <g id="patch_26">
    <path clip-path="url(#pfb5680c462)" d="M 414.118357 48.802715
C 415.316947 48.802715 416.466606 48.32651 417.314137 47.47898
C 418.161668 46.631449 418.637872 45.481789 418.637872 44.2832
C 418.637872 43.084611 418.161668 41.934951 417.314137 41.08742
C 416.466606 40.23989 415.316947 39.763685 414.118357 39.763685
C 412.919768 39.763685 411.770108 40.23989 410.922578 41.08742
C 410.075047 41.934951 409.598842 43.084611 409.598842 44.2832
C 409.598842 45.481789 410.075047 46.631449 410.922578 47.47898
C 411.770108 48.32651 412.919768 48.802715 414.118357 48.802715
z
" style="fill:#6fa4ff;stroke:#6fa4ff;stroke-linejoin:miter;stroke-width:1.5;"/>
   </g>
   <g id="patch_27">
    <path clip-path="url(#pfb5680c462)" d="M 414.118357 95.156715
C 415.316947 95.156715 416.466606 94.68051 417.314137 93.83298
C 418.161668 92.985449 418.637872 91.835789 418.637872 90.6372
C 418.637872 89.438611 418.161668 88.288951 417.314137 87.44142
C 416.466606 86.59389 415.316947 86.117685 414.118357 86.117685
C 412.919768 86.117685 411.770108 86.59389 410.922578 87.44142
C 410.075047 88.288951 409.598842 89.438611 409.598842 90.6372
C 409.598842 91.835789 410.075047 92.985449 410.922578 93.83298
C 411.770108 94.68051 412.919768 95.156715 414.118357 95.156715
z
" style="fill:#6fa4ff;stroke:#6fa4ff;stroke-linejoin:miter;stroke-width:1.5;"/>
   </g>
   <g id="patch_28">
    <path clip-path="url(#pfb5680c462)" d="M 460.472357 95.156715
C 461.670947 95.156715 462.820606 94.68051 463.668137 93.83298
C 464.515668 92.985449 464.991872 91.835789 464.991872 90.6372
C 464.991872 89.438611 464.515668 88.288951 463.668137 87.44142
C 462.820606 86.59389 461.670947 86.117685 460.472357 86.117685
C 459.273768 86.117685 458.124108 86.59389 457.276578 87.44142
C 456.429047 88.288951 455.952842 89.438611 455.952842 90.6372
C 455.952842 91.835789 456.429047 92.985449 457.276578 93.83298
C 458.124108 94.68051 459.273768 95.156715 460.472357 95.156715
z
" style="fill:#6fa4ff;stroke:#6fa4ff;stroke-linejoin:miter;stroke-width:1.5;"/>
   </g>
   <g id="patch_29">
    <path clip-path="url(#pfb5680c462)" d="M 460.472357 141.510715
C 461.670947 141.510715 462.820606 141.03451 463.668137 140.18698
C 464.515668 139.339449 464.991872 138.189789 464.991872 136.9912
C 464.991872 135.792611 464.515668 134.642951 463.668137 133.79542
C 462.820606 132.94789 461.670947 132.471685 460.472357 132.471685
C 459.273768 132.471685 458.124108 132.94789 457.276578 133.79542
C 456.429047 134.642951 455.952842 135.792611 455.952842 136.9912
C 455.952842 138.189789 456.429047 139.339449 457.276578 140.18698
C 458.124108 141.03451 459.273768 141.510715 460.472357 141.510715
z
" style="fill:#6fa4ff;stroke:#6fa4ff;stroke-linejoin:miter;stroke-width:1.5;"/>
   </g>
   <g id="patch_30">
    <path clip-path="url(#pfb5680c462)" d="M 445.407307 59.34825
L 475.537407 59.34825
L 475.537407 29.21815
L 445.407307 29.21815
z
" style="fill:#bb8bff;stroke:#bb8bff;stroke-linejoin:miter;stroke-width:1.5;"/>
   </g>
   <g id="patch_31">
    <path clip-path="url(#pfb5680c462)" d="M 506.826357 141.510715
C 508.024947 141.510715 509.174606 141.03451 510.022137 140.18698
C 510.869668 139.339449 511.345872 138.189789 511.345872 136.9912
C 511.345872 135.792611 510.869668 134.642951 510.022137 133.79542
C 509.174606 132.94789 508.024947 132.471685 506.826357 132.471685
C 505.627768 132.471685 504.478108 132.94789 503.630578 133.79542
C 502.783047 134.642951 502.306842 135.792611 502.306842 136.9912
C 502.306842 138.189789 502.783047 139.339449 503.630578 140.18698
C 504.478108 141.03451 505.627768 141.510715 506.826357 141.510715
z
" style="fill:#6fa4ff;stroke:#6fa4ff;stroke-linejoin:miter;stroke-width:1.5;"/>
   </g>
   <g id="patch_32">
    <path clip-path="url(#pfb5680c462)" d="M 506.826357 187.864715
C 508.024947 187.864715 509.174606 187.38851 510.022137 186.54098
C 510.869668 185.693449 511.345872 184.543789 511.345872 183.3452
C 511.345872 182.146611 510.869668 180.996951 510.022137 180.14942
C 509.174606 179.30189 508.024947 178.825685 506.826357 178.825685
C 505.627768 178.825685 504.478108 179.30189 503.630578 180.14942
C 502.783047 180.996951 502.306842 182.146611 502.306842 183.3452
C 502.306842 184.543789 502.783047 185.693449 503.630578 186.54098
C 504.478108 187.38851 505.627768 187.864715 506.826357 187.864715
z
" style="fill:#6fa4ff;stroke:#6fa4ff;stroke-linejoin:miter;stroke-width:1.5;"/>
   </g>
   <g id="patch_33">
    <path clip-path="url(#pfb5680c462)" d="M 491.761307 105.70225
L 521.891407 105.70225
L 521.891407 75.57215
L 491.761307 75.57215
z
" style="fill:#bb8bff;stroke:#bb8bff;stroke-linejoin:miter;stroke-width:1.5;"/>
   </g>
   <g id="patch_34">
    <path clip-path="url(#pfb5680c462)" d="M 538.115307 152.05625
L 568.245407 152.05625
L 568.245407 121.92615
L 538.115307 121.92615
z
" style="fill:#bb8bff;stroke:#bb8bff;stroke-linejoin:miter;stroke-width:1.5;"/>
   </g>
   <g id="patch_35">
    <path clip-path="url(#pfb5680c462)" d="M 538.115307 198.41025
L 568.245407 198.41025
L 568.245407 168.28015
L 538.115307 168.28015
z
" style="fill:#bb8bff;stroke:#bb8bff;stroke-linejoin:miter;stroke-width:1.5;"/>
   </g>
   <g id="text_1">
    <g clip-path="url(#pfb5680c462)">
     <!-- $\mathrm{R}_\mathrm{Y}$ -->
     <g transform="translate(82.100357 43.350872)scale(0.13 -0.13)">
      <defs>
       <path d="M 44.390625 34.1875
Q 47.5625 33.109375 50.5625 29.59375
Q 53.5625 26.078125 56.59375 19.921875
L 66.609375 0
L 56 0
L 46.6875 18.703125
Q 43.0625 26.03125 39.671875 28.421875
Q 36.28125 30.8125 30.421875 30.8125
L 19.671875 30.8125
L 19.671875 0
L 9.8125 0
L 9.8125 72.90625
L 32.078125 72.90625
Q 44.578125 72.90625 50.734375 67.671875
Q 56.890625 62.453125 56.890625 51.90625
Q 56.890625 45.015625 53.6875 40.46875
Q 50.484375 35.9375 44.390625 34.1875
z
M 19.671875 64.796875
L 19.671875 38.921875
L 32.078125 38.921875
Q 39.203125 38.921875 42.84375 42.21875
Q 46.484375 45.515625 46.484375 51.90625
Q 46.484375 58.296875 42.84375 61.546875
Q 39.203125 64.796875 32.078125 64.796875
z
" id="DejaVuSans-82"/>
       <path d="M -0.203125 72.90625
L 10.40625 72.90625
L 30.609375 42.921875
L 50.6875 72.90625
L 61.28125 72.90625
L 35.5 34.71875
L 35.5 0
L 25.59375 0
L 25.59375 34.71875
z
" id="DejaVuSans-89"/>
      </defs>
      <use transform="translate(0 0.09375)" xlink:href="#DejaVuSans-82"/>
      <use transform="translate(70.439453 -16.3125)scale(0.7)" xlink:href="#DejaVuSans-89"/>
     </g>
    </g>
   </g>
   <g id="text_2">
    <g clip-path="url(#pfb5680c462)">
     <!-- θ[0] -->
     <g transform="translate(81.526607 55.52973)scale(0.08 -0.08)">
      <defs>
       <path d="M 46.140625 34.671875
L 15.046875 34.671875
Q 15.765625 20.0625 19.140625 13.875
Q 23.34375 6.25 30.609375 6.25
Q 37.9375 6.25 42 13.921875
Q 45.5625 20.65625 46.140625 34.671875
z
M 46 42.96875
Q 44.625 56.84375 42 61.71875
Q 37.796875 69.4375 30.609375 69.4375
Q 23.140625 69.4375 19.1875 61.8125
Q 16.0625 55.671875 15.140625 42.96875
z
M 30.609375 76.765625
Q 42.328125 76.765625 49.03125 66.40625
Q 55.71875 56.109375 55.71875 37.84375
Q 55.71875 19.625 49.03125 9.28125
Q 42.328125 -1.125 30.609375 -1.125
Q 18.84375 -1.125 12.203125 9.28125
Q 5.515625 19.625 5.515625 37.84375
Q 5.515625 56.109375 12.203125 66.40625
Q 18.84375 76.765625 30.609375 76.765625
z
" id="DejaVuSans-952"/>
       <path d="M 8.59375 75.984375
L 29.296875 75.984375
L 29.296875 69
L 17.578125 69
L 17.578125 -6.203125
L 29.296875 -6.203125
L 29.296875 -13.1875
L 8.59375 -13.1875
z
" id="DejaVuSans-91"/>
       <path d="M 31.78125 66.40625
Q 24.171875 66.40625 20.328125 58.90625
Q 16.5 51.421875 16.5 36.375
Q 16.5 21.390625 20.328125 13.890625
Q 24.171875 6.390625 31.78125 6.390625
Q 39.453125 6.390625 43.28125 13.890625
Q 47.125 21.390625 47.125 36.375
Q 47.125 51.421875 43.28125 58.90625
Q 39.453125 66.40625 31.78125 66.40625
z
M 31.78125 74.21875
Q 44.046875 74.21875 50.515625 64.515625
Q 56.984375 54.828125 56.984375 36.375
Q 56.984375 17.96875 50.515625 8.265625
Q 44.046875 -1.421875 31.78125 -1.421875
Q 19.53125 -1.421875 13.0625 8.265625
Q 6.59375 17.96875 6.59375 36.375
Q 6.59375 54.828125 13.0625 64.515625
Q 19.53125 74.21875 31.78125 74.21875
z
" id="DejaVuSans-48"/>
       <path d="M 30.421875 75.984375
L 30.421875 -13.1875
L 9.71875 -13.1875
L 9.71875 -6.203125
L 21.390625 -6.203125
L 21.390625 69
L 9.71875 69
L 9.71875 75.984375
z
" id="DejaVuSans-93"/>
      </defs>
      <use xlink:href="#DejaVuSans-952"/>
      <use x="61.181641" xlink:href="#DejaVuSans-91"/>
      <use x="100.195312" xlink:href="#DejaVuSans-48"/>
      <use x="163.818359" xlink:href="#DejaVuSans-93"/>
     </g>
    </g>
   </g>
   <g id="text_3">
    <g clip-path="url(#pfb5680c462)">
     <!-- $\mathrm{R}_\mathrm{Y}$ -->
     <g transform="translate(82.100357 89.704872)scale(0.13 -0.13)">
      <use transform="translate(0 0.09375)" xlink:href="#DejaVuSans-82"/>
      <use transform="translate(70.439453 -16.3125)scale(0.7)" xlink:href="#DejaVuSans-89"/>
     </g>
    </g>
   </g>
   <g id="text_4">
    <g clip-path="url(#pfb5680c462)">
     <!-- θ[1] -->
     <g transform="translate(81.526607 101.88373)scale(0.08 -0.08)">
      <defs>
       <path d="M 12.40625 8.296875
L 28.515625 8.296875
L 28.515625 63.921875
L 10.984375 60.40625
L 10.984375 69.390625
L 28.421875 72.90625
L 38.28125 72.90625
L 38.28125 8.296875
L 54.390625 8.296875
L 54.390625 0
L 12.40625 0
z
" id="DejaVuSans-49"/>
      </defs>
      <use xlink:href="#DejaVuSans-952"/>
      <use x="61.181641" xlink:href="#DejaVuSans-91"/>
      <use x="100.195312" xlink:href="#DejaVuSans-49"/>
      <use x="163.818359" xlink:href="#DejaVuSans-93"/>
     </g>
    </g>
   </g>
   <g id="text_5">
    <g clip-path="url(#pfb5680c462)">
     <!-- $\mathrm{R}_\mathrm{Y}$ -->
     <g transform="translate(82.100357 136.058872)scale(0.13 -0.13)">
      <use transform="translate(0 0.09375)" xlink:href="#DejaVuSans-82"/>
      <use transform="translate(70.439453 -16.3125)scale(0.7)" xlink:href="#DejaVuSans-89"/>
     </g>
    </g>
   </g>
   <g id="text_6">
    <g clip-path="url(#pfb5680c462)">
     <!-- θ[2] -->
     <g transform="translate(81.526607 148.23773)scale(0.08 -0.08)">
      <defs>
       <path d="M 19.1875 8.296875
L 53.609375 8.296875
L 53.609375 0
L 7.328125 0
L 7.328125 8.296875
Q 12.9375 14.109375 22.625 23.890625
Q 32.328125 33.6875 34.8125 36.53125
Q 39.546875 41.84375 41.421875 45.53125
Q 43.3125 49.21875 43.3125 52.78125
Q 43.3125 58.59375 39.234375 62.25
Q 35.15625 65.921875 28.609375 65.921875
Q 23.96875 65.921875 18.8125 64.3125
Q 13.671875 62.703125 7.8125 59.421875
L 7.8125 69.390625
Q 13.765625 71.78125 18.9375 73
Q 24.125 74.21875 28.421875 74.21875
Q 39.75 74.21875 46.484375 68.546875
Q 53.21875 62.890625 53.21875 53.421875
Q 53.21875 48.921875 51.53125 44.890625
Q 49.859375 40.875 45.40625 35.40625
Q 44.1875 33.984375 37.640625 27.21875
Q 31.109375 20.453125 19.1875 8.296875
z
" id="DejaVuSans-50"/>
      </defs>
      <use xlink:href="#DejaVuSans-952"/>
      <use x="61.181641" xlink:href="#DejaVuSans-91"/>
      <use x="100.195312" xlink:href="#DejaVuSans-50"/>
      <use x="163.818359" xlink:href="#DejaVuSans-93"/>
     </g>
    </g>
   </g>
   <g id="text_7">
    <g clip-path="url(#pfb5680c462)">
     <!-- $\mathrm{R}_\mathrm{Y}$ -->
     <g transform="translate(82.100357 182.412872)scale(0.13 -0.13)">
      <use transform="translate(0 0.09375)" xlink:href="#DejaVuSans-82"/>
      <use transform="translate(70.439453 -16.3125)scale(0.7)" xlink:href="#DejaVuSans-89"/>
     </g>
    </g>
   </g>
   <g id="text_8">
    <g clip-path="url(#pfb5680c462)">
     <!-- θ[3] -->
     <g transform="translate(81.526607 194.59173)scale(0.08 -0.08)">
      <defs>
       <path d="M 40.578125 39.3125
Q 47.65625 37.796875 51.625 33
Q 55.609375 28.21875 55.609375 21.1875
Q 55.609375 10.40625 48.1875 4.484375
Q 40.765625 -1.421875 27.09375 -1.421875
Q 22.515625 -1.421875 17.65625 -0.515625
Q 12.796875 0.390625 7.625 2.203125
L 7.625 11.71875
Q 11.71875 9.328125 16.59375 8.109375
Q 21.484375 6.890625 26.8125 6.890625
Q 36.078125 6.890625 40.9375 10.546875
Q 45.796875 14.203125 45.796875 21.1875
Q 45.796875 27.640625 41.28125 31.265625
Q 36.765625 34.90625 28.71875 34.90625
L 20.21875 34.90625
L 20.21875 43.015625
L 29.109375 43.015625
Q 36.375 43.015625 40.234375 45.921875
Q 44.09375 48.828125 44.09375 54.296875
Q 44.09375 59.90625 40.109375 62.90625
Q 36.140625 65.921875 28.71875 65.921875
Q 24.65625 65.921875 20.015625 65.03125
Q 15.375 64.15625 9.8125 62.3125
L 9.8125 71.09375
Q 15.4375 72.65625 20.34375 73.4375
Q 25.25 74.21875 29.59375 74.21875
Q 40.828125 74.21875 47.359375 69.109375
Q 53.90625 64.015625 53.90625 55.328125
Q 53.90625 49.265625 50.4375 45.09375
Q 46.96875 40.921875 40.578125 39.3125
z
" id="DejaVuSans-51"/>
      </defs>
      <use xlink:href="#DejaVuSans-952"/>
      <use x="61.181641" xlink:href="#DejaVuSans-91"/>
      <use x="100.195312" xlink:href="#DejaVuSans-51"/>
      <use x="163.818359" xlink:href="#DejaVuSans-93"/>
     </g>
    </g>
   </g>
   <g id="text_9">
    <g clip-path="url(#pfb5680c462)">
     <!-- $\mathrm{R}_\mathrm{Y}$ -->
     <g transform="translate(174.808357 43.350872)scale(0.13 -0.13)">
      <use transform="translate(0 0.09375)" xlink:href="#DejaVuSans-82"/>
      <use transform="translate(70.439453 -16.3125)scale(0.7)" xlink:href="#DejaVuSans-89"/>
     </g>
    </g>
   </g>
   <g id="text_10">
    <g clip-path="url(#pfb5680c462)">
     <!-- θ[4] -->
     <g transform="translate(174.234607 55.52973)scale(0.08 -0.08)">
      <defs>
       <path d="M 37.796875 64.3125
L 12.890625 25.390625
L 37.796875 25.390625
z
M 35.203125 72.90625
L 47.609375 72.90625
L 47.609375 25.390625
L 58.015625 25.390625
L 58.015625 17.1875
L 47.609375 17.1875
L 47.609375 0
L 37.796875 0
L 37.796875 17.1875
L 4.890625 17.1875
L 4.890625 26.703125
z
" id="DejaVuSans-52"/>
      </defs>
      <use xlink:href="#DejaVuSans-952"/>
      <use x="61.181641" xlink:href="#DejaVuSans-91"/>
      <use x="100.195312" xlink:href="#DejaVuSans-52"/>
      <use x="163.818359" xlink:href="#DejaVuSans-93"/>
     </g>
    </g>
   </g>
   <g id="text_11">
    <g clip-path="url(#pfb5680c462)">
     <!-- $\mathrm{R}_\mathrm{Y}$ -->
     <g transform="translate(221.162357 89.704872)scale(0.13 -0.13)">
      <use transform="translate(0 0.09375)" xlink:href="#DejaVuSans-82"/>
      <use transform="translate(70.439453 -16.3125)scale(0.7)" xlink:href="#DejaVuSans-89"/>
     </g>
    </g>
   </g>
   <g id="text_12">
    <g clip-path="url(#pfb5680c462)">
     <!-- θ[5] -->
     <g transform="translate(220.588607 101.88373)scale(0.08 -0.08)">
      <defs>
       <path d="M 10.796875 72.90625
L 49.515625 72.90625
L 49.515625 64.59375
L 19.828125 64.59375
L 19.828125 46.734375
Q 21.96875 47.46875 24.109375 47.828125
Q 26.265625 48.1875 28.421875 48.1875
Q 40.625 48.1875 47.75 41.5
Q 54.890625 34.8125 54.890625 23.390625
Q 54.890625 11.625 47.5625 5.09375
Q 40.234375 -1.421875 26.90625 -1.421875
Q 22.3125 -1.421875 17.546875 -0.640625
Q 12.796875 0.140625 7.71875 1.703125
L 7.71875 11.625
Q 12.109375 9.234375 16.796875 8.0625
Q 21.484375 6.890625 26.703125 6.890625
Q 35.15625 6.890625 40.078125 11.328125
Q 45.015625 15.765625 45.015625 23.390625
Q 45.015625 31 40.078125 35.4375
Q 35.15625 39.890625 26.703125 39.890625
Q 22.75 39.890625 18.8125 39.015625
Q 14.890625 38.140625 10.796875 36.28125
z
" id="DejaVuSans-53"/>
      </defs>
      <use xlink:href="#DejaVuSans-952"/>
      <use x="61.181641" xlink:href="#DejaVuSans-91"/>
      <use x="100.195312" xlink:href="#DejaVuSans-53"/>
      <use x="163.818359" xlink:href="#DejaVuSans-93"/>
     </g>
    </g>
   </g>
   <g id="text_13">
    <g clip-path="url(#pfb5680c462)">
     <!-- $\mathrm{R}_\mathrm{Y}$ -->
     <g transform="translate(267.516357 136.058872)scale(0.13 -0.13)">
      <use transform="translate(0 0.09375)" xlink:href="#DejaVuSans-82"/>
      <use transform="translate(70.439453 -16.3125)scale(0.7)" xlink:href="#DejaVuSans-89"/>
     </g>
    </g>
   </g>
   <g id="text_14">
    <g clip-path="url(#pfb5680c462)">
     <!-- θ[6] -->
     <g transform="translate(266.942607 148.23773)scale(0.08 -0.08)">
      <defs>
       <path d="M 33.015625 40.375
Q 26.375 40.375 22.484375 35.828125
Q 18.609375 31.296875 18.609375 23.390625
Q 18.609375 15.53125 22.484375 10.953125
Q 26.375 6.390625 33.015625 6.390625
Q 39.65625 6.390625 43.53125 10.953125
Q 47.40625 15.53125 47.40625 23.390625
Q 47.40625 31.296875 43.53125 35.828125
Q 39.65625 40.375 33.015625 40.375
z
M 52.59375 71.296875
L 52.59375 62.3125
Q 48.875 64.0625 45.09375 64.984375
Q 41.3125 65.921875 37.59375 65.921875
Q 27.828125 65.921875 22.671875 59.328125
Q 17.53125 52.734375 16.796875 39.40625
Q 19.671875 43.65625 24.015625 45.921875
Q 28.375 48.1875 33.59375 48.1875
Q 44.578125 48.1875 50.953125 41.515625
Q 57.328125 34.859375 57.328125 23.390625
Q 57.328125 12.15625 50.6875 5.359375
Q 44.046875 -1.421875 33.015625 -1.421875
Q 20.359375 -1.421875 13.671875 8.265625
Q 6.984375 17.96875 6.984375 36.375
Q 6.984375 53.65625 15.1875 63.9375
Q 23.390625 74.21875 37.203125 74.21875
Q 40.921875 74.21875 44.703125 73.484375
Q 48.484375 72.75 52.59375 71.296875
z
" id="DejaVuSans-54"/>
      </defs>
      <use xlink:href="#DejaVuSans-952"/>
      <use x="61.181641" xlink:href="#DejaVuSans-91"/>
      <use x="100.195312" xlink:href="#DejaVuSans-54"/>
      <use x="163.818359" xlink:href="#DejaVuSans-93"/>
     </g>
    </g>
   </g>
   <g id="text_15">
    <g clip-path="url(#pfb5680c462)">
     <!-- $\mathrm{R}_\mathrm{Y}$ -->
     <g transform="translate(267.516357 182.412872)scale(0.13 -0.13)">
      <use transform="translate(0 0.09375)" xlink:href="#DejaVuSans-82"/>
      <use transform="translate(70.439453 -16.3125)scale(0.7)" xlink:href="#DejaVuSans-89"/>
     </g>
    </g>
   </g>
   <g id="text_16">
    <g clip-path="url(#pfb5680c462)">
     <!-- θ[7] -->
     <g transform="translate(266.942607 194.59173)scale(0.08 -0.08)">
      <defs>
       <path d="M 8.203125 72.90625
L 55.078125 72.90625
L 55.078125 68.703125
L 28.609375 0
L 18.3125 0
L 43.21875 64.59375
L 8.203125 64.59375
z
" id="DejaVuSans-55"/>
      </defs>
      <use xlink:href="#DejaVuSans-952"/>
      <use x="61.181641" xlink:href="#DejaVuSans-91"/>
      <use x="100.195312" xlink:href="#DejaVuSans-55"/>
      <use x="163.818359" xlink:href="#DejaVuSans-93"/>
     </g>
    </g>
   </g>
   <g id="text_17">
    <g clip-path="url(#pfb5680c462)">
     <!-- $\mathrm{R}_\mathrm{Y}$ -->
     <g transform="translate(313.870357 43.350872)scale(0.13 -0.13)">
      <use transform="translate(0 0.09375)" xlink:href="#DejaVuSans-82"/>
      <use transform="translate(70.439453 -16.3125)scale(0.7)" xlink:href="#DejaVuSans-89"/>
     </g>
    </g>
   </g>
   <g id="text_18">
    <g clip-path="url(#pfb5680c462)">
     <!-- θ[8] -->
     <g transform="translate(313.296607 55.52973)scale(0.08 -0.08)">
      <defs>
       <path d="M 31.78125 34.625
Q 24.75 34.625 20.71875 30.859375
Q 16.703125 27.09375 16.703125 20.515625
Q 16.703125 13.921875 20.71875 10.15625
Q 24.75 6.390625 31.78125 6.390625
Q 38.8125 6.390625 42.859375 10.171875
Q 46.921875 13.96875 46.921875 20.515625
Q 46.921875 27.09375 42.890625 30.859375
Q 38.875 34.625 31.78125 34.625
z
M 21.921875 38.8125
Q 15.578125 40.375 12.03125 44.71875
Q 8.5 49.078125 8.5 55.328125
Q 8.5 64.0625 14.71875 69.140625
Q 20.953125 74.21875 31.78125 74.21875
Q 42.671875 74.21875 48.875 69.140625
Q 55.078125 64.0625 55.078125 55.328125
Q 55.078125 49.078125 51.53125 44.71875
Q 48 40.375 41.703125 38.8125
Q 48.828125 37.15625 52.796875 32.3125
Q 56.78125 27.484375 56.78125 20.515625
Q 56.78125 9.90625 50.3125 4.234375
Q 43.84375 -1.421875 31.78125 -1.421875
Q 19.734375 -1.421875 13.25 4.234375
Q 6.78125 9.90625 6.78125 20.515625
Q 6.78125 27.484375 10.78125 32.3125
Q 14.796875 37.15625 21.921875 38.8125
z
M 18.3125 54.390625
Q 18.3125 48.734375 21.84375 45.5625
Q 25.390625 42.390625 31.78125 42.390625
Q 38.140625 42.390625 41.71875 45.5625
Q 45.3125 48.734375 45.3125 54.390625
Q 45.3125 60.0625 41.71875 63.234375
Q 38.140625 66.40625 31.78125 66.40625
Q 25.390625 66.40625 21.84375 63.234375
Q 18.3125 60.0625 18.3125 54.390625
z
" id="DejaVuSans-56"/>
      </defs>
      <use xlink:href="#DejaVuSans-952"/>
      <use x="61.181641" xlink:href="#DejaVuSans-91"/>
      <use x="100.195312" xlink:href="#DejaVuSans-56"/>
      <use x="163.818359" xlink:href="#DejaVuSans-93"/>
     </g>
    </g>
   </g>
   <g id="text_19">
    <g clip-path="url(#pfb5680c462)">
     <!-- $\mathrm{R}_\mathrm{Y}$ -->
     <g transform="translate(360.224357 89.704872)scale(0.13 -0.13)">
      <use transform="translate(0 0.09375)" xlink:href="#DejaVuSans-82"/>
      <use transform="translate(70.439453 -16.3125)scale(0.7)" xlink:href="#DejaVuSans-89"/>
     </g>
    </g>
   </g>
   <g id="text_20">
    <g clip-path="url(#pfb5680c462)">
     <!-- θ[9] -->
     <g transform="translate(359.650607 101.88373)scale(0.08 -0.08)">
      <defs>
       <path d="M 10.984375 1.515625
L 10.984375 10.5
Q 14.703125 8.734375 18.5 7.8125
Q 22.3125 6.890625 25.984375 6.890625
Q 35.75 6.890625 40.890625 13.453125
Q 46.046875 20.015625 46.78125 33.40625
Q 43.953125 29.203125 39.59375 26.953125
Q 35.25 24.703125 29.984375 24.703125
Q 19.046875 24.703125 12.671875 31.3125
Q 6.296875 37.9375 6.296875 49.421875
Q 6.296875 60.640625 12.9375 67.421875
Q 19.578125 74.21875 30.609375 74.21875
Q 43.265625 74.21875 49.921875 64.515625
Q 56.59375 54.828125 56.59375 36.375
Q 56.59375 19.140625 48.40625 8.859375
Q 40.234375 -1.421875 26.421875 -1.421875
Q 22.703125 -1.421875 18.890625 -0.6875
Q 15.09375 0.046875 10.984375 1.515625
z
M 30.609375 32.421875
Q 37.25 32.421875 41.125 36.953125
Q 45.015625 41.5 45.015625 49.421875
Q 45.015625 57.28125 41.125 61.84375
Q 37.25 66.40625 30.609375 66.40625
Q 23.96875 66.40625 20.09375 61.84375
Q 16.21875 57.28125 16.21875 49.421875
Q 16.21875 41.5 20.09375 36.953125
Q 23.96875 32.421875 30.609375 32.421875
z
" id="DejaVuSans-57"/>
      </defs>
      <use xlink:href="#DejaVuSans-952"/>
      <use x="61.181641" xlink:href="#DejaVuSans-91"/>
      <use x="100.195312" xlink:href="#DejaVuSans-57"/>
      <use x="163.818359" xlink:href="#DejaVuSans-93"/>
     </g>
    </g>
   </g>
   <g id="text_21">
    <g clip-path="url(#pfb5680c462)">
     <!-- $\mathrm{R}_\mathrm{Y}$ -->
     <g transform="translate(406.578357 136.058872)scale(0.13 -0.13)">
      <use transform="translate(0 0.09375)" xlink:href="#DejaVuSans-82"/>
      <use transform="translate(70.439453 -16.3125)scale(0.7)" xlink:href="#DejaVuSans-89"/>
     </g>
    </g>
   </g>
   <g id="text_22">
    <g clip-path="url(#pfb5680c462)">
     <!-- θ[10] -->
     <g transform="translate(403.459607 148.23773)scale(0.08 -0.08)">
      <use xlink:href="#DejaVuSans-952"/>
      <use x="61.181641" xlink:href="#DejaVuSans-91"/>
      <use x="100.195312" xlink:href="#DejaVuSans-49"/>
      <use x="163.818359" xlink:href="#DejaVuSans-48"/>
      <use x="227.441406" xlink:href="#DejaVuSans-93"/>
     </g>
    </g>
   </g>
   <g id="text_23">
    <g clip-path="url(#pfb5680c462)">
     <!-- $\mathrm{R}_\mathrm{Y}$ -->
     <g transform="translate(406.578357 182.412872)scale(0.13 -0.13)">
      <use transform="translate(0 0.09375)" xlink:href="#DejaVuSans-82"/>
      <use transform="translate(70.439453 -16.3125)scale(0.7)" xlink:href="#DejaVuSans-89"/>
     </g>
    </g>
   </g>
   <g id="text_24">
    <g clip-path="url(#pfb5680c462)">
     <!-- θ[11] -->
     <g transform="translate(403.459607 194.59173)scale(0.08 -0.08)">
      <use xlink:href="#DejaVuSans-952"/>
      <use x="61.181641" xlink:href="#DejaVuSans-91"/>
      <use x="100.195312" xlink:href="#DejaVuSans-49"/>
      <use x="163.818359" xlink:href="#DejaVuSans-49"/>
      <use x="227.441406" xlink:href="#DejaVuSans-93"/>
     </g>
    </g>
   </g>
   <g id="text_25">
    <g clip-path="url(#pfb5680c462)">
     <!-- $\mathrm{R}_\mathrm{Y}$ -->
     <g transform="translate(452.932357 43.350872)scale(0.13 -0.13)">
      <use transform="translate(0 0.09375)" xlink:href="#DejaVuSans-82"/>
      <use transform="translate(70.439453 -16.3125)scale(0.7)" xlink:href="#DejaVuSans-89"/>
     </g>
    </g>
   </g>
   <g id="text_26">
    <g clip-path="url(#pfb5680c462)">
     <!-- θ[12] -->
     <g transform="translate(449.813607 55.52973)scale(0.08 -0.08)">
      <use xlink:href="#DejaVuSans-952"/>
      <use x="61.181641" xlink:href="#DejaVuSans-91"/>
      <use x="100.195312" xlink:href="#DejaVuSans-49"/>
      <use x="163.818359" xlink:href="#DejaVuSans-50"/>
      <use x="227.441406" xlink:href="#DejaVuSans-93"/>
     </g>
    </g>
   </g>
   <g id="text_27">
    <g clip-path="url(#pfb5680c462)">
     <!-- $\mathrm{R}_\mathrm{Y}$ -->
     <g transform="translate(499.286357 89.704872)scale(0.13 -0.13)">
      <use transform="translate(0 0.09375)" xlink:href="#DejaVuSans-82"/>
      <use transform="translate(70.439453 -16.3125)scale(0.7)" xlink:href="#DejaVuSans-89"/>
     </g>
    </g>
   </g>
   <g id="text_28">
    <g clip-path="url(#pfb5680c462)">
     <!-- θ[13] -->
     <g transform="translate(496.167607 101.88373)scale(0.08 -0.08)">
      <use xlink:href="#DejaVuSans-952"/>
      <use x="61.181641" xlink:href="#DejaVuSans-91"/>
      <use x="100.195312" xlink:href="#DejaVuSans-49"/>
      <use x="163.818359" xlink:href="#DejaVuSans-51"/>
      <use x="227.441406" xlink:href="#DejaVuSans-93"/>
     </g>
    </g>
   </g>
   <g id="text_29">
    <g clip-path="url(#pfb5680c462)">
     <!-- $\mathrm{R}_\mathrm{Y}$ -->
     <g transform="translate(545.640357 136.058872)scale(0.13 -0.13)">
      <use transform="translate(0 0.09375)" xlink:href="#DejaVuSans-82"/>
      <use transform="translate(70.439453 -16.3125)scale(0.7)" xlink:href="#DejaVuSans-89"/>
     </g>
    </g>
   </g>
   <g id="text_30">
    <g clip-path="url(#pfb5680c462)">
     <!-- θ[14] -->
     <g transform="translate(542.521607 148.23773)scale(0.08 -0.08)">
      <use xlink:href="#DejaVuSans-952"/>
      <use x="61.181641" xlink:href="#DejaVuSans-91"/>
      <use x="100.195312" xlink:href="#DejaVuSans-49"/>
      <use x="163.818359" xlink:href="#DejaVuSans-52"/>
      <use x="227.441406" xlink:href="#DejaVuSans-93"/>
     </g>
    </g>
   </g>
   <g id="text_31">
    <g clip-path="url(#pfb5680c462)">
     <!-- $\mathrm{R}_\mathrm{Y}$ -->
     <g transform="translate(545.640357 182.412872)scale(0.13 -0.13)">
      <use transform="translate(0 0.09375)" xlink:href="#DejaVuSans-82"/>
      <use transform="translate(70.439453 -16.3125)scale(0.7)" xlink:href="#DejaVuSans-89"/>
     </g>
    </g>
   </g>
   <g id="text_32">
    <g clip-path="url(#pfb5680c462)">
     <!-- θ[15] -->
     <g transform="translate(542.521607 194.59173)scale(0.08 -0.08)">
      <use xlink:href="#DejaVuSans-952"/>
      <use x="61.181641" xlink:href="#DejaVuSans-91"/>
      <use x="100.195312" xlink:href="#DejaVuSans-49"/>
      <use x="163.818359" xlink:href="#DejaVuSans-53"/>
      <use x="227.441406" xlink:href="#DejaVuSans-93"/>
     </g>
    </g>
   </g>
   <g id="text_33">
    <g clip-path="url(#pfb5680c462)">
     <!-- ${q}_{0}$ -->
     <g transform="translate(37.300897 48.734177)scale(0.1625 -0.1625)">
      <defs>
       <path d="M 41.703125 8.203125
Q 38.09375 3.46875 33.171875 1.015625
Q 28.265625 -1.421875 22.3125 -1.421875
Q 14.015625 -1.421875 9.296875 4.171875
Q 4.59375 9.765625 4.59375 19.578125
Q 4.59375 27.484375 7.5 34.859375
Q 10.40625 42.234375 15.828125 48.09375
Q 19.34375 51.90625 23.90625 53.953125
Q 28.46875 56 33.5 56
Q 39.546875 56 43.453125 53.609375
Q 47.359375 51.21875 49.125 46.390625
L 50.6875 54.59375
L 59.71875 54.59375
L 45.125 -20.609375
L 36.078125 -20.609375
z
M 13.921875 20.90625
Q 13.921875 13.671875 16.9375 9.890625
Q 19.96875 6.109375 25.6875 6.109375
Q 34.1875 6.109375 40.1875 14.234375
Q 46.1875 22.359375 46.1875 33.984375
Q 46.1875 41.015625 43.078125 44.75
Q 39.984375 48.484375 34.1875 48.484375
Q 29.9375 48.484375 26.3125 46.5
Q 22.703125 44.53125 20.015625 40.71875
Q 17.1875 36.71875 15.546875 31.34375
Q 13.921875 25.984375 13.921875 20.90625
z
" id="DejaVuSans-Oblique-113"/>
      </defs>
      <use xlink:href="#DejaVuSans-Oblique-113"/>
      <use transform="translate(63.476562 -16.40625)scale(0.7)" xlink:href="#DejaVuSans-48"/>
     </g>
    </g>
   </g>
   <g id="text_34">
    <g clip-path="url(#pfb5680c462)">
     <!-- ${q}_{1}$ -->
     <g transform="translate(37.300897 95.088177)scale(0.1625 -0.1625)">
      <use xlink:href="#DejaVuSans-Oblique-113"/>
      <use transform="translate(63.476562 -16.40625)scale(0.7)" xlink:href="#DejaVuSans-49"/>
     </g>
    </g>
   </g>
   <g id="text_35">
    <g clip-path="url(#pfb5680c462)">
     <!-- ${q}_{2}$ -->
     <g transform="translate(37.300897 141.442177)scale(0.1625 -0.1625)">
      <use xlink:href="#DejaVuSans-Oblique-113"/>
      <use transform="translate(63.476562 -16.40625)scale(0.7)" xlink:href="#DejaVuSans-50"/>
     </g>
    </g>
   </g>
   <g id="text_36">
    <g clip-path="url(#pfb5680c462)">
     <!-- ${q}_{3}$ -->
     <g transform="translate(37.300897 187.796177)scale(0.1625 -0.1625)">
      <use xlink:href="#DejaVuSans-Oblique-113"/>
      <use transform="translate(63.476562 -16.40625)scale(0.7)" xlink:href="#DejaVuSans-51"/>
     </g>
    </g>
   </g>
  </g>
 </g>
 <defs>
  <clipPath id="pfb5680c462">
   <rect height="203.9576" width="576.573997" x="7.2" y="7.2"/>
  </clipPath>
 </defs>
</svg>
