<?xml version="1.0" encoding="UTF-8" standalone="no"?>
<svg
   xmlns:dc="http://purl.org/dc/elements/1.1/"
   xmlns:cc="http://creativecommons.org/ns#"
   xmlns:rdf="http://www.w3.org/1999/02/22-rdf-syntax-ns#"
   xmlns:svg="http://www.w3.org/2000/svg"
   xmlns="http://www.w3.org/2000/svg"
   xmlns:xlink="http://www.w3.org/1999/xlink"
   xmlns:sodipodi="http://sodipodi.sourceforge.net/DTD/sodipodi-0.dtd"
   xmlns:inkscape="http://www.inkscape.org/namespaces/inkscape"
   height="345.6pt"
   version="1.1"
   viewBox="0 0 460.8 345.6"
   width="460.8pt"
   id="svg409"
   sodipodi:docname="convergence_max_cut_vqe_ideal.svg"
   inkscape:version="1.0.1 (3bc2e813f5, 2020-09-07)">
  <sodipodi:namedview
     pagecolor="#ffffff"
     bordercolor="#666666"
     borderopacity="1"
     objecttolerance="10"
     gridtolerance="10"
     guidetolerance="10"
     inkscape:pageopacity="0"
     inkscape:pageshadow="2"
     inkscape:window-width="1920"
     inkscape:window-height="1042"
     id="namedview411"
     showgrid="false"
     inkscape:zoom="1.7013889"
     inkscape:cx="163.49387"
     inkscape:cy="230.4"
     inkscape:window-x="0"
     inkscape:window-y="18"
     inkscape:window-maximized="0"
     inkscape:current-layer="axes_1" />
  <metadata
     id="metadata2">
    <rdf:RDF>
      <cc:Work>
        <dc:type
           rdf:resource="http://purl.org/dc/dcmitype/StillImage" />
        <dc:date>2021-01-08T18:09:25.753569</dc:date>
        <dc:format>image/svg+xml</dc:format>
        <dc:creator>
          <cc:Agent>
            <dc:title>Matplotlib v3.3.3, https://matplotlib.org/</dc:title>
          </cc:Agent>
        </dc:creator>
      </cc:Work>
    </rdf:RDF>
  </metadata>
  <defs
     id="defs6">
    <style
       type="text/css"
       id="style4">*{stroke-linecap:butt;stroke-linejoin:round;}</style>
  </defs>
  <g
     id="figure_1">
    <g
       id="axes_1">
      <g
         id="PolyCollection_1">
        <path
           clip-path="url(#pa131517c7b)"
           d="M 73.832727 120.743878  L 73.832727 120.743878  L 74.157707 124.900834  L 74.482686 94.540175  L 74.807666 70.473908  L 75.132645 118.831982  L 75.457625 98.641688  L 75.782604 156.401194  L 76.107584 53.568  L 76.432563 91.712726  L 76.757543 148.984654  L 77.082523 154.179068  L 77.407502 225.212431  L 77.732482 225.3385  L 78.057461 236.634772  L 78.382441 188.794715  L 78.70742 223.99964  L 79.0324 159.820737  L 79.357379 215.874547  L 79.682359 234.324649  L 80.007338 265.825562  L 80.332318 237.004002  L 80.657297 250.550895  L 80.982277 171.343368  L 81.307256 192.75335  L 81.632236 242.037968  L 81.957215 192.076952  L 82.282195 261.773766  L 82.607174 234.119663  L 82.932154 260.422727  L 83.257133 214.902262  L 83.582113 234.250392  L 83.907093 243.910412  L 84.232072 255.302093  L 84.557052 205.946334  L 84.882031 251.325663  L 85.207011 230.481356  L 85.53199 227.548943  L 85.85697 271.594022  L 86.181949 277.775168  L 86.506929 256.319624  L 86.831908 277.549889  L 87.156888 263.852637  L 87.481867 265.333986  L 87.806847 266.712835  L 88.131826 252.431613  L 88.456806 266.037944  L 88.781785 278.507028  L 89.106765 273.694471  L 89.431744 277.558585  L 89.756724 270.982201  L 90.081704 279.029692  L 90.406683 269.017697  L 90.731663 269.171833  L 91.056642 278.325405  L 91.381622 273.034572  L 91.706601 290.789489  L 92.031581 290.508001  L 92.35656 283.856287  L 92.68154 291.520068  L 93.006519 281.893156  L 93.331499 288.655787  L 93.656478 287.203411  L 93.981458 288.654248  L 94.306437 290.331876  L 94.631417 291.893567  L 94.956396 291.106553  L 95.281376 290.676381  L 95.606355 291.739749  L 95.931335 281.022865  L 96.256314 290.814523  L 96.581294 287.066453  L 96.906274 291.275049  L 97.231253 291.311188  L 97.556233 292.127286  L 97.881212 288.285284  L 98.206192 291.682099  L 98.531171 287.015348  L 98.856151 293.302536  L 99.18113 290.19665  L 99.50611 293.67025  L 99.831089 289.628409  L 100.156069 293.498193  L 100.481048 292.200024  L 100.806028 292.801029  L 101.131007 290.283863  L 101.455987 292.190765  L 101.780966 292.162756  L 102.105946 293.488375  L 102.430925 293.33094  L 102.755905 291.742817  L 103.080885 293.593027  L 103.405864 293.354862  L 103.730844 293.459944  L 104.055823 290.613061  L 104.380803 293.613286  L 104.705782 293.716775  L 105.030762 293.431516  L 105.355741 291.680031  L 105.680721 293.536772  L 106.0057 291.910339  L 106.33068 293.801657  L 106.655659 293.685573  L 106.980639 293.365182  L 107.305618 292.872814  L 107.630598 293.546536  L 107.955577 293.05673  L 108.280557 294.080665  L 108.605536 293.930008  L 108.930516 293.858184  L 109.255495 292.881019  L 109.580475 293.903408  L 109.905455 292.856395  L 110.230434 293.531295  L 110.555414 293.028682  L 110.880393 294.036266  L 111.205373 294.083234  L 111.530352 293.796068  L 111.855332 294.080578  L 112.180311 293.600151  L 112.505291 294.013236  L 112.83027 293.94355  L 113.15525 294.08212  L 113.480229 293.960826  L 113.805209 293.889014  L 114.130188 294.040901  L 114.455168 294.113812  L 114.780147 293.698379  L 115.105127 294.130141  L 115.430106 294.4932  L 115.755086 294.426549  L 116.080066 294.395431  L 116.405045 294.378019  L 116.730025 294.311387  L 117.055004 294.253719  L 117.379984 294.536295  L 117.704963 294.591581  L 118.029943 294.456779  L 118.354922 294.469536  L 118.679902 294.200812  L 119.004881 294.671221  L 119.329861 294.52402  L 119.65484 294.817344  L 119.97982 294.621905  L 120.304799 294.701051  L 120.629779 294.860856  L 120.954758 294.681433  L 121.279738 294.696732  L 121.604717 294.817106  L 121.929697 294.80597  L 122.254676 294.808528  L 122.579656 294.828585  L 122.904636 294.714738  L 123.229615 294.791145  L 123.554595 294.679469  L 123.879574 294.859989  L 124.204554 294.874876  L 124.529533 294.856114  L 124.854513 294.874792  L 125.179492 294.793732  L 125.504472 294.842457  L 125.829451 294.848479  L 126.154431 294.607058  L 126.47941 294.800256  L 126.80439 294.658086  L 127.129369 294.899678  L 127.454349 294.875526  L 127.779328 294.786573  L 128.104308 294.778323  L 128.429287 294.944499  L 128.754267 294.920572  L 129.079247 295.034225  L 129.404226 294.980014  L 129.729206 294.964314  L 130.054185 294.959203  L 130.379165 295.093996  L 130.704144 295.088693  L 131.029124 294.991101  L 131.354103 295.089299  L 131.679083 295.08026  L 132.004062 295.031379  L 132.329042 295.085709  L 132.654021 295.057245  L 132.979001 294.884287  L 133.30398 295.085915  L 133.62896 295.056682  L 133.953939 295.068127  L 134.278919 295.014032  L 134.603898 295.060954  L 134.928878 295.092124  L 135.253857 295.075708  L 135.578837 295.096864  L 135.903817 295.041737  L 136.228796 295.113384  L 136.553776 295.096469  L 136.878755 295.164288  L 137.203735 295.162447  L 137.528714 295.135092  L 137.853694 295.085016  L 138.178673 295.145674  L 138.503653 295.102823  L 138.828632 295.124594  L 139.153612 295.201371  L 139.478591 295.158466  L 139.803571 295.202657  L 140.12855 295.18799  L 140.45353 295.204821  L 140.778509 295.164724  L 141.103489 295.190624  L 141.428468 295.133811  L 141.753448 295.163285  L 142.078428 295.116297  L 142.403407 295.193497  L 142.728387 295.196883  L 143.053366 295.204567  L 143.378346 295.190044  L 143.703325 295.174179  L 144.028305 295.211817  L 144.353284 295.212832  L 144.678264 295.211123  L 145.003243 295.219561  L 145.328223 295.224621  L 145.653202 295.180193  L 145.978182 295.217335  L 146.303161 295.217207  L 146.628141 295.212679  L 146.95312 295.234223  L 147.2781 295.244526  L 147.603079 295.235742  L 147.928059 295.235553  L 148.253038 295.233009  L 148.578018 295.241008  L 148.902998 295.221569  L 149.227977 295.236704  L 149.552957 295.245997  L 149.877936 295.248771  L 150.202916 295.248786  L 150.527895 295.249349  L 150.852875 295.232287  L 151.177854 295.241641  L 151.502834 295.24528  L 151.827813 295.252257  L 152.152793 295.233251  L 152.477772 295.253965  L 152.802752 295.236516  L 153.127731 295.244853  L 153.452711 295.250945  L 153.77769 295.244065  L 154.10267 295.245975  L 154.427649 295.251476  L 154.752629 295.256273  L 155.077609 295.240494  L 155.402588 295.256682  L 155.727568 295.226602  L 156.052547 295.276069  L 156.377527 295.2615  L 156.702506 295.269972  L 157.027486 295.281557  L 157.352465 295.279516  L 157.677445 295.265761  L 158.002424 295.290269  L 158.327404 295.259686  L 158.652383 295.305492  L 158.977363 295.279004  L 159.302342 295.307046  L 159.627322 295.296586  L 159.952301 295.30518  L 160.277281 295.309649  L 160.60226 295.308294  L 160.92724 295.267874  L 161.252219 295.302976  L 161.577199 295.269603  L 161.902179 295.302157  L 162.227158 295.317267  L 162.552138 295.312385  L 162.877117 295.328108  L 163.202097 295.324331  L 163.527076 295.332454  L 163.852056 295.338886  L 164.177035 295.242495  L 164.502015 295.327985  L 164.826994 295.345285  L 165.151974 295.338282  L 165.476953 295.354438  L 165.801933 295.353704  L 166.126912 295.343733  L 166.451892 295.360114  L 166.776871 295.358148  L 167.101851 295.358527  L 167.42683 295.315978  L 167.75181 295.34808  L 168.07679 295.337156  L 168.401769 295.363569  L 168.726749 295.36081  L 169.051728 295.360708  L 169.376708 295.363697  L 169.701687 295.365159  L 170.026667 295.367175  L 170.351646 295.366997  L 170.676626 295.368421  L 171.001605 295.362919  L 171.326585 295.368192  L 171.651564 295.370318  L 171.976544 295.366638  L 172.301523 295.380562  L 172.626503 295.36066  L 172.951482 295.377771  L 173.276462 295.371282  L 173.601441 295.387748  L 173.926421 295.377457  L 174.2514 295.384774  L 174.57638 295.389776  L 174.90136 295.387608  L 175.226339 295.386065  L 175.551319 295.378656  L 175.876298 295.39456  L 176.201278 295.388958  L 176.526257 295.390584  L 176.851237 295.394683  L 177.176216 295.373936  L 177.501196 295.395794  L 177.826175 295.391286  L 178.151155 295.394244  L 178.476134 295.370125  L 178.801114 295.384599  L 179.126093 295.392344  L 179.451073 295.388879  L 179.776052 295.402243  L 180.101032 295.397522  L 180.426011 295.408217  L 180.750991 295.408569  L 181.075971 295.37452  L 181.40095 295.399165  L 181.72593 295.398355  L 182.050909 295.401243  L 182.375889 295.38726  L 182.700868 295.410217  L 183.025848 295.40624  L 183.350827 295.415625  L 183.675807 295.407853  L 184.000786 295.414056  L 184.325766 295.406617  L 184.650745 295.415357  L 184.975725 295.405129  L 185.300704 295.416199  L 185.625684 295.406228  L 185.950663 295.411909  L 186.275643 295.404895  L 186.600622 295.411361  L 186.925602 295.413444  L 187.250581 295.410188  L 187.575561 295.412192  L 187.900541 295.420918  L 188.22552 295.42044  L 188.5505 295.419512  L 188.875479 295.418776  L 189.200459 295.41631  L 189.525438 295.418892  L 189.850418 295.41969  L 190.175397 295.41889  L 190.500377 295.411425  L 190.825356 295.421621  L 191.150336 295.418084  L 191.475315 295.419557  L 191.800295 295.423008  L 192.125274 295.422981  L 192.450254 295.418707  L 192.775233 295.420429  L 193.100213 295.426412  L 193.425192 295.424126  L 193.750172 295.421049  L 194.075152 295.427423  L 194.400131 295.429884  L 194.725111 295.429391  L 195.05009 295.425387  L 195.37507 295.43129  L 195.700049 295.429601  L 196.025029 295.430562  L 196.350008 295.432861  L 196.674988 295.43248  L 196.999967 295.431776  L 197.324947 295.434808  L 197.649926 295.428981  L 197.974906 295.432555  L 198.299885 295.432306  L 198.624865 295.433816  L 198.949844 295.434901  L 199.274824 295.432866  L 199.599803 295.433259  L 199.924783 295.436348  L 200.249762 295.43482  L 200.574742 295.434226  L 200.899722 295.433243  L 201.224701 295.435892  L 201.549681 295.433711  L 201.87466 295.436282  L 202.19964 295.432625  L 202.524619 295.434915  L 202.849599 295.435326  L 203.174578 295.435628  L 203.499558 295.436223  L 203.824537 295.437606  L 204.149517 295.435406  L 204.474496 295.437675  L 204.799476 295.436923  L 205.124455 295.437113  L 205.449435 295.437437  L 205.774414 295.439546  L 206.099394 295.438727  L 206.424373 295.439487  L 206.749353 295.440002  L 207.074333 295.439516  L 207.399312 295.441122  L 207.724292 295.441153  L 208.049271 295.44103  L 208.374251 295.440316  L 208.69923 295.441629  L 209.02421 295.440887  L 209.349189 295.441895  L 209.674169 295.442162  L 209.999148 295.43834  L 210.324128 295.442973  L 210.649107 295.443834  L 210.974087 295.4435  L 211.299066 295.444786  L 211.624046 295.445892  L 211.949025 295.444042  L 212.274005 295.445966  L 212.598984 295.447891  L 212.923964 295.44533  L 213.248943 295.448356  L 213.573923 295.44965  L 213.898903 295.448749  L 214.223882 295.449436  L 214.548862 295.449477  L 214.873841 295.450156  L 215.198821 295.449427  L 215.5238 295.449054  L 215.84878 295.449378  L 216.173759 295.449608  L 216.498739 295.450021  L 216.823718 295.450657  L 217.148698 295.451738  L 217.473677 295.452731  L 217.798657 295.452791  L 218.123636 295.452795  L 218.448616 295.453375  L 218.773595 295.45199  L 219.098575 295.453657  L 219.423554 295.452931  L 219.748534 295.453966  L 220.073514 295.454647  L 220.398493 295.45448  L 220.723473 295.455969  L 221.048452 295.448879  L 221.373432 295.456151  L 221.698411 295.453397  L 222.023391 295.456427  L 222.34837 295.454976  L 222.67335 295.456561  L 222.998329 295.457214  L 223.323309 295.457175  L 223.648288 295.458879  L 223.973268 295.458405  L 224.298247 295.458913  L 224.623227 295.45844  L 224.948206 295.456147  L 225.273186 295.458794  L 225.598165 295.455904  L 225.923145 295.45928  L 226.248124 295.459277  L 226.573104 295.459248  L 226.898084 295.458337  L 227.223063 295.459593  L 227.548043 295.457782  L 227.873022 295.459851  L 228.198002 295.458008  L 228.522981 295.459396  L 228.847961 295.46074  L 229.17294 295.462827  L 229.49792 295.46189  L 229.822899 295.462585  L 230.147879 295.462544  L 230.472858 295.46238  L 230.797838 295.462305  L 231.122817 295.462611  L 231.447797 295.462005  L 231.772776 295.462255  L 232.097756 295.463033  L 232.422735 295.463649  L 232.747715 295.464847  L 233.072695 295.464928  L 233.397674 295.465727  L 233.722654 295.466852  L 234.047633 295.466351  L 234.372613 295.466261  L 234.697592 295.465481  L 235.022572 295.465589  L 235.347551 295.466149  L 235.672531 295.466741  L 235.99751 295.466301  L 236.32249 295.466814  L 236.647469 295.467372  L 236.972449 295.465476  L 237.297428 295.466406  L 237.622408 295.467089  L 237.947387 295.468242  L 238.272367 295.467602  L 238.597346 295.468055  L 238.922326 295.468045  L 239.247305 295.468007  L 239.572285 295.468143  L 239.897265 295.468204  L 240.222244 295.467943  L 240.547224 295.467047  L 240.872203 295.468398  L 241.197183 295.467051  L 241.522162 295.467895  L 241.847142 295.468668  L 242.172121 295.468605  L 242.497101 295.466902  L 242.82208 295.468325  L 243.14706 295.46837  L 243.472039 295.468005  L 243.797019 295.465936  L 244.121998 295.469047  L 244.446978 295.469256  L 244.771957 295.469682  L 245.096937 295.467059  L 245.421916 295.469709  L 245.746896 295.467628  L 246.071876 295.468392  L 246.396855 295.470052  L 246.721835 295.46925  L 247.046814 295.469994  L 247.371794 295.468622  L 247.696773 295.469104  L 248.021753 295.469288  L 248.346732 295.470715  L 248.671712 295.470547  L 248.996691 295.469891  L 249.321671 295.470535  L 249.64665 295.47035  L 249.97163 295.470749  L 250.296609 295.471341  L 250.621589 295.471062  L 250.946568 295.470334  L 251.271548 295.471204  L 251.596527 295.470319  L 251.921507 295.471024  L 252.246486 295.469577  L 252.571466 295.472231  L 252.896446 295.472542  L 253.221425 295.473235  L 253.546405 295.471902  L 253.871384 295.473193  L 254.196364 295.473255  L 254.521343 295.473811  L 254.846323 295.473437  L 255.171302 295.473776  L 255.496282 295.474036  L 255.821261 295.473886  L 256.146241 295.472323  L 256.47122 295.474157  L 256.7962 295.474184  L 257.121179 295.473792  L 257.446159 295.473737  L 257.771138 295.474199  L 258.096118 295.474091  L 258.421097 295.47338  L 258.746077 295.473788  L 259.071057 295.474532  L 259.396036 295.473563  L 259.721016 295.473514  L 260.045995 295.474017  L 260.370975 295.474568  L 260.695954 295.473416  L 261.020934 295.474407  L 261.345913 295.473921  L 261.670893 295.474435  L 261.995872 295.472513  L 262.320852 295.474592  L 262.645831 295.474369  L 262.970811 295.474099  L 263.29579 295.474836  L 263.62077 295.474413  L 263.945749 295.475061  L 264.270729 295.47538  L 264.595708 295.475767  L 264.920688 295.475366  L 265.245667 295.476024  L 265.570647 295.475844  L 265.895627 295.474062  L 266.220606 295.476274  L 266.545586 295.476129  L 266.870565 295.475947  L 267.195545 295.47577  L 267.520524 295.476156  L 267.845504 295.476352  L 268.170483 295.474231  L 268.495463 295.475375  L 268.820442 295.476373  L 269.145422 295.475118  L 269.470401 295.476285  L 269.795381 295.476101  L 270.12036 295.476189  L 270.44534 295.476059  L 270.770319 295.476355  L 271.095299 295.476151  L 271.420278 295.476549  L 271.745258 295.475981  L 272.070238 295.476243  L 272.395217 295.475362  L 272.720197 295.476231  L 273.045176 295.476178  L 273.370156 295.476223  L 273.695135 295.476786  L 274.020115 295.476693  L 274.345094 295.476647  L 274.670074 295.476968  L 274.995053 295.477044  L 275.320033 295.476354  L 275.645012 295.477094  L 275.969992 295.477374  L 276.294971 295.477348  L 276.619951 295.477677  L 276.94493 295.477764  L 277.26991 295.477547  L 277.594889 295.477499  L 277.919869 295.477984  L 278.244848 295.477653  L 278.569828 295.477698  L 278.894808 295.478049  L 279.219787 295.477972  L 279.544767 295.478324  L 279.869746 295.478454  L 280.194726 295.478439  L 280.519705 295.478395  L 280.844685 295.478256  L 281.169664 295.478465  L 281.494644 295.478318  L 281.819623 295.478177  L 282.144603 295.478593  L 282.469582 295.478623  L 282.794562 295.479041  L 283.119541 295.478861  L 283.444521 295.478897  L 283.7695 295.478906  L 284.09448 295.478983  L 284.419459 295.479018  L 284.744439 295.478534  L 285.069419 295.479262  L 285.394398 295.479285  L 285.719378 295.478928  L 286.044357 295.479663  L 286.369337 295.479957  L 286.694316 295.479828  L 287.019296 295.479981  L 287.344275 295.480178  L 287.669255 295.480044  L 287.994234 295.480291  L 288.319214 295.480222  L 288.644193 295.480071  L 288.969173 295.480792  L 289.294152 295.480391  L 289.619132 295.480747  L 289.944111 295.480856  L 290.269091 295.480872  L 290.59407 295.480349  L 290.91905 295.480795  L 291.244029 295.481173  L 291.569009 295.481362  L 291.893989 295.481318  L 292.218968 295.481235  L 292.543948 295.481271  L 292.868927 295.481409  L 293.193907 295.481782  L 293.518886 295.481794  L 293.843866 295.482044  L 294.168845 295.482066  L 294.493825 295.481918  L 294.818804 295.482065  L 295.143784 295.482134  L 295.468763 295.482245  L 295.793743 295.482107  L 296.118722 295.482231  L 296.443702 295.482237  L 296.768681 295.481966  L 297.093661 295.482138  L 297.41864 295.481862  L 297.74362 295.482304  L 298.0686 295.481961  L 298.393579 295.48229  L 298.718559 295.481703  L 299.043538 295.482436  L 299.368518 295.481557  L 299.693497 295.482132  L 300.018477 295.482334  L 300.343456 295.482453  L 300.668436 295.482364  L 300.993415 295.482568  L 301.318395 295.482755  L 301.643374 295.482916  L 301.968354 295.482705  L 302.293333 295.482924  L 302.618313 295.48265  L 302.943292 295.482726  L 303.268272 295.482684  L 303.593251 295.483055  L 303.918231 295.48301  L 304.24321 295.482939  L 304.56819 295.483001  L 304.89317 295.483094  L 305.218149 295.483167  L 305.543129 295.483124  L 305.868108 295.483429  L 306.193088 295.483303  L 306.518067 295.483437  L 306.843047 295.483018  L 307.168026 295.483414  L 307.493006 295.48342  L 307.817985 295.483326  L 308.142965 295.483127  L 308.467944 295.483416  L 308.792924 295.483414  L 309.117903 295.483509  L 309.442883 295.483103  L 309.767862 295.483765  L 310.092842 295.48348  L 310.417821 295.48375  L 310.742801 295.48369  L 311.067781 295.483747  L 311.39276 295.48367  L 311.71774 295.483617  L 312.042719 295.48378  L 312.367699 295.483564  L 312.692678 295.48379  L 313.017658 295.483849  L 313.342637 295.483867  L 313.667617 295.483923  L 313.992596 295.483919  L 314.317576 295.483871  L 314.642555 295.483994  L 314.967535 295.483971  L 315.292514 295.483908  L 315.617494 295.483927  L 315.942473 295.484033  L 316.267453 295.484112  L 316.592432 295.484181  L 316.917412 295.484352  L 317.242391 295.484339  L 317.567371 295.484356  L 317.892351 295.484326  L 318.21733 295.484301  L 318.54231 295.484159  L 318.867289 295.484347  L 319.192269 295.484267  L 319.517248 295.484348  L 319.842228 295.484246  L 320.167207 295.484315  L 320.492187 295.484313  L 320.817166 295.484422  L 321.142146 295.484494  L 321.467125 295.48449  L 321.792105 295.484393  L 322.117084 295.484347  L 322.442064 295.484668  L 322.767043 295.484701  L 323.092023 295.484794  L 323.417002 295.484816  L 323.741982 295.484801  L 324.066962 295.484817  L 324.391941 295.484806  L 324.716921 295.484841  L 325.0419 295.484646  L 325.36688 295.484756  L 325.691859 295.484935  L 326.016839 295.484896  L 326.341818 295.48503  L 326.666798 295.484996  L 326.991777 295.484976  L 327.316757 295.484965  L 327.641736 295.48508  L 327.966716 295.485077  L 328.291695 295.485036  L 328.616675 295.485063  L 328.941654 295.484964  L 329.266634 295.48509  L 329.591613 295.485032  L 329.916593 295.485093  L 330.241572 295.485062  L 330.566552 295.485095  L 330.891532 295.484978  L 331.216511 295.484972  L 331.541491 295.48517  L 331.86647 295.485164  L 332.19145 295.48503  L 332.516429 295.485233  L 332.841409 295.485133  L 333.166388 295.485168  L 333.491368 295.485231  L 333.816347 295.48511  L 334.141327 295.485322  L 334.466306 295.485208  L 334.791286 295.485313  L 335.116265 295.485526  L 335.441245 295.485518  L 335.766224 295.485535  L 336.091204 295.485512  L 336.416183 295.485517  L 336.741163 295.485597  L 337.066143 295.485524  L 337.391122 295.485682  L 337.716102 295.48566  L 338.041081 295.485664  L 338.366061 295.4857  L 338.69104 295.485788  L 339.01602 295.48576  L 339.340999 295.485798  L 339.665979 295.4859  L 339.990958 295.485898  L 340.315938 295.485873  L 340.640917 295.485519  L 340.965897 295.485866  L 341.290876 295.485881  L 341.615856 295.485892  L 341.940835 295.486029  L 342.265815 295.486004  L 342.590794 295.486027  L 342.915774 295.486002  L 343.240753 295.485982  L 343.565733 295.485873  L 343.890713 295.485985  L 344.215692 295.485957  L 344.540672 295.486029  L 344.865651 295.486037  L 345.190631 295.486027  L 345.51561 295.485954  L 345.84059 295.486019  L 346.165569 295.485953  L 346.490549 295.48605  L 346.815528 295.485919  L 347.140508 295.486087  L 347.465487 295.486129  L 347.790467 295.486148  L 348.115446 295.486218  L 348.440426 295.486248  L 348.765405 295.48622  L 349.090385 295.486136  L 349.415364 295.486234  L 349.740344 295.486234  L 350.065324 295.486211  L 350.390303 295.48612  L 350.715283 295.48615  L 351.040262 295.486337  L 351.365242 295.486377  L 351.690221 295.486282  L 352.015201 295.486354  L 352.34018 295.486379  L 352.66516 295.486382  L 352.990139 295.486342  L 353.315119 295.486357  L 353.640098 295.486323  L 353.965078 295.486371  L 354.290057 295.486355  L 354.615037 295.486382  L 354.940016 295.486343  L 355.264996 295.486402  L 355.589975 295.486144  L 355.914955 295.486413  L 356.239934 295.486367  L 356.564914 295.486359  L 356.889894 295.486546  L 357.214873 295.486441  L 357.539853 295.48656  L 357.864832 295.486631  L 358.189812 295.486567  L 358.514791 295.486671  L 358.839771 295.486686  L 359.16475 295.486482  L 359.48973 295.486764  L 359.814709 295.48685  L 360.139689 295.486833  L 360.464668 295.486696  L 360.789648 295.486848  L 361.114627 295.486856  L 361.439607 295.486884  L 361.764586 295.486777  L 362.089566 295.486895  L 362.414545 295.486894  L 362.739525 295.486907  L 363.064505 295.486916  L 363.389484 295.486928  L 363.714464 295.486939  L 364.039443 295.486882  L 364.364423 295.48694  L 364.689402 295.486947  L 365.014382 295.486768  L 365.339361 295.486915  L 365.664341 295.48701  L 365.98932 295.486871  L 366.3143 295.487072  L 366.639279 295.487072  L 366.964259 295.487061  L 367.289238 295.487048  L 367.614218 295.486725  L 367.939197 295.487156  L 368.264177 295.487241  L 368.589156 295.487253  L 368.914136 295.487274  L 369.239115 295.48726  L 369.564095 295.487263  L 369.889075 295.487267  L 370.214054 295.48727  L 370.539034 295.48728  L 370.864013 295.487274  L 371.188993 295.487233  L 371.513972 295.487204  L 371.838952 295.487279  L 372.163931 295.487205  L 372.488911 295.487272  L 372.81389 295.486952  L 373.13887 295.487292  L 373.463849 295.487308  L 373.788829 295.487157  L 374.113808 295.487408  L 374.438788 295.487485  L 374.763767 295.487364  L 375.088747 295.487484  L 375.413726 295.487313  L 375.738706 295.487474  L 376.063686 295.487428  L 376.388665 295.48734  L 376.713645 295.487526  L 377.038624 295.487536  L 377.363604 295.487592  L 377.688583 295.487649  L 378.013563 295.487562  L 378.338542 295.487601  L 378.663522 295.487662  L 378.988501 295.487657  L 379.313481 295.487652  L 379.63846 295.487631  L 379.96344 295.487664  L 380.288419 295.487664  L 380.613399 295.487633  L 380.938378 295.487624  L 381.263358 295.487444  L 381.588337 295.487646  L 381.913317 295.487634  L 382.238296 295.487669  L 382.563276 295.487527  L 382.888256 295.487744  L 383.213235 295.48774  L 383.538215 295.48773  L 383.863194 295.487655  L 384.188174 295.487738  L 384.513153 295.487713  L 384.838133 295.487751  L 385.163112 295.487668  L 385.488092 295.487758  L 385.813071 295.48763  L 386.138051 295.48773  L 386.46303 295.487725  L 386.78801 295.48772  L 387.112989 295.487769  L 387.437969 295.487776  L 387.762948 295.487779  L 388.087928 295.487769  L 388.412907 295.48777  L 388.737887 295.487772  L 389.062867 295.487766  L 389.387846 295.487815  L 389.712826 295.48779  L 390.037805 295.487815  L 390.362785 295.487859  L 390.687764 295.487869  L 391.012744 295.487863  L 391.337723 295.487867  L 391.662703 295.487896  L 391.987682 295.487902  L 392.312662 295.487904  L 392.637641 295.487907  L 392.962621 295.487929  L 393.2876 295.487904  L 393.61258 295.487925  L 393.937559 295.487929  L 394.262539 295.487929  L 394.587518 295.48792  L 394.912498 295.487924  L 395.237477 295.487916  L 395.562457 295.487947  L 395.887437 295.487966  L 396.212416 295.487961  L 396.537396 295.487943  L 396.862375 295.487971  L 397.187355 295.487978  L 397.512334 295.487948  L 397.837314 295.487956  L 398.162293 295.487974  L 398.487273 295.488  L 398.487273 295.488  L 398.487273 295.488  L 398.162293 295.487974  L 397.837314 295.487956  L 397.512334 295.487948  L 397.187355 295.487978  L 396.862375 295.487971  L 396.537396 295.487943  L 396.212416 295.487961  L 395.887437 295.487966  L 395.562457 295.487947  L 395.237477 295.487916  L 394.912498 295.487924  L 394.587518 295.48792  L 394.262539 295.487929  L 393.937559 295.487929  L 393.61258 295.487925  L 393.2876 295.487904  L 392.962621 295.487929  L 392.637641 295.487907  L 392.312662 295.487904  L 391.987682 295.487902  L 391.662703 295.487896  L 391.337723 295.487867  L 391.012744 295.487863  L 390.687764 295.487869  L 390.362785 295.487859  L 390.037805 295.487815  L 389.712826 295.48779  L 389.387846 295.487815  L 389.062867 295.487766  L 388.737887 295.487772  L 388.412907 295.48777  L 388.087928 295.487769  L 387.762948 295.487779  L 387.437969 295.487776  L 387.112989 295.487769  L 386.78801 295.48772  L 386.46303 295.487725  L 386.138051 295.48773  L 385.813071 295.48763  L 385.488092 295.487758  L 385.163112 295.487668  L 384.838133 295.487751  L 384.513153 295.487713  L 384.188174 295.487738  L 383.863194 295.487655  L 383.538215 295.48773  L 383.213235 295.48774  L 382.888256 295.487744  L 382.563276 295.487527  L 382.238296 295.487669  L 381.913317 295.487634  L 381.588337 295.487646  L 381.263358 295.487444  L 380.938378 295.487624  L 380.613399 295.487633  L 380.288419 295.487664  L 379.96344 295.487664  L 379.63846 295.487631  L 379.313481 295.487652  L 378.988501 295.487657  L 378.663522 295.487662  L 378.338542 295.487601  L 378.013563 295.487562  L 377.688583 295.487649  L 377.363604 295.487592  L 377.038624 295.487536  L 376.713645 295.487526  L 376.388665 295.48734  L 376.063686 295.487428  L 375.738706 295.487474  L 375.413726 295.487313  L 375.088747 295.487484  L 374.763767 295.487364  L 374.438788 295.487485  L 374.113808 295.487408  L 373.788829 295.487157  L 373.463849 295.487308  L 373.13887 295.487292  L 372.81389 295.486952  L 372.488911 295.487272  L 372.163931 295.487205  L 371.838952 295.487279  L 371.513972 295.487204  L 371.188993 295.487233  L 370.864013 295.487274  L 370.539034 295.48728  L 370.214054 295.48727  L 369.889075 295.487267  L 369.564095 295.487263  L 369.239115 295.48726  L 368.914136 295.487274  L 368.589156 295.487253  L 368.264177 295.487241  L 367.939197 295.487156  L 367.614218 295.486725  L 367.289238 295.487048  L 366.964259 295.487061  L 366.639279 295.487072  L 366.3143 295.487072  L 365.98932 295.486871  L 365.664341 295.48701  L 365.339361 295.486915  L 365.014382 295.486768  L 364.689402 295.486947  L 364.364423 295.48694  L 364.039443 295.486882  L 363.714464 295.486939  L 363.389484 295.486928  L 363.064505 295.486916  L 362.739525 295.486907  L 362.414545 295.486894  L 362.089566 295.486895  L 361.764586 295.486777  L 361.439607 295.486884  L 361.114627 295.486856  L 360.789648 295.486848  L 360.464668 295.486696  L 360.139689 295.486833  L 359.814709 295.48685  L 359.48973 295.486764  L 359.16475 295.486482  L 358.839771 295.486686  L 358.514791 295.486671  L 358.189812 295.486567  L 357.864832 295.486631  L 357.539853 295.48656  L 357.214873 295.486441  L 356.889894 295.486546  L 356.564914 295.486359  L 356.239934 295.486367  L 355.914955 295.486413  L 355.589975 295.486144  L 355.264996 295.486402  L 354.940016 295.486343  L 354.615037 295.486382  L 354.290057 295.486355  L 353.965078 295.486371  L 353.640098 295.486323  L 353.315119 295.486357  L 352.990139 295.486342  L 352.66516 295.486382  L 352.34018 295.486379  L 352.015201 295.486354  L 351.690221 295.486282  L 351.365242 295.486377  L 351.040262 295.486337  L 350.715283 295.48615  L 350.390303 295.48612  L 350.065324 295.486211  L 349.740344 295.486234  L 349.415364 295.486234  L 349.090385 295.486136  L 348.765405 295.48622  L 348.440426 295.486248  L 348.115446 295.486218  L 347.790467 295.486148  L 347.465487 295.486129  L 347.140508 295.486087  L 346.815528 295.485919  L 346.490549 295.48605  L 346.165569 295.485953  L 345.84059 295.486019  L 345.51561 295.485954  L 345.190631 295.486027  L 344.865651 295.486037  L 344.540672 295.486029  L 344.215692 295.485957  L 343.890713 295.485985  L 343.565733 295.485873  L 343.240753 295.485982  L 342.915774 295.486002  L 342.590794 295.486027  L 342.265815 295.486004  L 341.940835 295.486029  L 341.615856 295.485892  L 341.290876 295.485881  L 340.965897 295.485866  L 340.640917 295.485519  L 340.315938 295.485873  L 339.990958 295.485898  L 339.665979 295.4859  L 339.340999 295.485798  L 339.01602 295.48576  L 338.69104 295.485788  L 338.366061 295.4857  L 338.041081 295.485664  L 337.716102 295.48566  L 337.391122 295.485682  L 337.066143 295.485524  L 336.741163 295.485597  L 336.416183 295.485517  L 336.091204 295.485512  L 335.766224 295.485535  L 335.441245 295.485518  L 335.116265 295.485526  L 334.791286 295.485313  L 334.466306 295.485208  L 334.141327 295.485322  L 333.816347 295.48511  L 333.491368 295.485231  L 333.166388 295.485168  L 332.841409 295.485133  L 332.516429 295.485233  L 332.19145 295.48503  L 331.86647 295.485164  L 331.541491 295.48517  L 331.216511 295.484972  L 330.891532 295.484978  L 330.566552 295.485095  L 330.241572 295.485062  L 329.916593 295.485093  L 329.591613 295.485032  L 329.266634 295.48509  L 328.941654 295.484964  L 328.616675 295.485063  L 328.291695 295.485036  L 327.966716 295.485077  L 327.641736 295.48508  L 327.316757 295.484965  L 326.991777 295.484976  L 326.666798 295.484996  L 326.341818 295.48503  L 326.016839 295.484896  L 325.691859 295.484935  L 325.36688 295.484756  L 325.0419 295.484646  L 324.716921 295.484841  L 324.391941 295.484806  L 324.066962 295.484817  L 323.741982 295.484801  L 323.417002 295.484816  L 323.092023 295.484794  L 322.767043 295.484701  L 322.442064 295.484668  L 322.117084 295.484347  L 321.792105 295.484393  L 321.467125 295.48449  L 321.142146 295.484494  L 320.817166 295.484422  L 320.492187 295.484313  L 320.167207 295.484315  L 319.842228 295.484246  L 319.517248 295.484348  L 319.192269 295.484267  L 318.867289 295.484347  L 318.54231 295.484159  L 318.21733 295.484301  L 317.892351 295.484326  L 317.567371 295.484356  L 317.242391 295.484339  L 316.917412 295.484352  L 316.592432 295.484181  L 316.267453 295.484112  L 315.942473 295.484033  L 315.617494 295.483927  L 315.292514 295.483908  L 314.967535 295.483971  L 314.642555 295.483994  L 314.317576 295.483871  L 313.992596 295.483919  L 313.667617 295.483923  L 313.342637 295.483867  L 313.017658 295.483849  L 312.692678 295.48379  L 312.367699 295.483564  L 312.042719 295.48378  L 311.71774 295.483617  L 311.39276 295.48367  L 311.067781 295.483747  L 310.742801 295.48369  L 310.417821 295.48375  L 310.092842 295.48348  L 309.767862 295.483765  L 309.442883 295.483103  L 309.117903 295.483509  L 308.792924 295.483414  L 308.467944 295.483416  L 308.142965 295.483127  L 307.817985 295.483326  L 307.493006 295.48342  L 307.168026 295.483414  L 306.843047 295.483018  L 306.518067 295.483437  L 306.193088 295.483303  L 305.868108 295.483429  L 305.543129 295.483124  L 305.218149 295.483167  L 304.89317 295.483094  L 304.56819 295.483001  L 304.24321 295.482939  L 303.918231 295.48301  L 303.593251 295.483055  L 303.268272 295.482684  L 302.943292 295.482726  L 302.618313 295.48265  L 302.293333 295.482924  L 301.968354 295.482705  L 301.643374 295.482916  L 301.318395 295.482755  L 300.993415 295.482568  L 300.668436 295.482364  L 300.343456 295.482453  L 300.018477 295.482334  L 299.693497 295.482132  L 299.368518 295.481557  L 299.043538 295.482436  L 298.718559 295.481703  L 298.393579 295.48229  L 298.0686 295.481961  L 297.74362 295.482304  L 297.41864 295.481862  L 297.093661 295.482138  L 296.768681 295.481966  L 296.443702 295.482237  L 296.118722 295.482231  L 295.793743 295.482107  L 295.468763 295.482245  L 295.143784 295.482134  L 294.818804 295.482065  L 294.493825 295.481918  L 294.168845 295.482066  L 293.843866 295.482044  L 293.518886 295.481794  L 293.193907 295.481782  L 292.868927 295.481409  L 292.543948 295.481271  L 292.218968 295.481235  L 291.893989 295.481318  L 291.569009 295.481362  L 291.244029 295.481173  L 290.91905 295.480795  L 290.59407 295.480349  L 290.269091 295.480872  L 289.944111 295.480856  L 289.619132 295.480747  L 289.294152 295.480391  L 288.969173 295.480792  L 288.644193 295.480071  L 288.319214 295.480222  L 287.994234 295.480291  L 287.669255 295.480044  L 287.344275 295.480178  L 287.019296 295.479981  L 286.694316 295.479828  L 286.369337 295.479957  L 286.044357 295.479663  L 285.719378 295.478928  L 285.394398 295.479285  L 285.069419 295.479262  L 284.744439 295.478534  L 284.419459 295.479018  L 284.09448 295.478983  L 283.7695 295.478906  L 283.444521 295.478897  L 283.119541 295.478861  L 282.794562 295.479041  L 282.469582 295.478623  L 282.144603 295.478593  L 281.819623 295.478177  L 281.494644 295.478318  L 281.169664 295.478465  L 280.844685 295.478256  L 280.519705 295.478395  L 280.194726 295.478439  L 279.869746 295.478454  L 279.544767 295.478324  L 279.219787 295.477972  L 278.894808 295.478049  L 278.569828 295.477698  L 278.244848 295.477653  L 277.919869 295.477984  L 277.594889 295.477499  L 277.26991 295.477547  L 276.94493 295.477764  L 276.619951 295.477677  L 276.294971 295.477348  L 275.969992 295.477374  L 275.645012 295.477094  L 275.320033 295.476354  L 274.995053 295.477044  L 274.670074 295.476968  L 274.345094 295.476647  L 274.020115 295.476693  L 273.695135 295.476786  L 273.370156 295.476223  L 273.045176 295.476178  L 272.720197 295.476231  L 272.395217 295.475362  L 272.070238 295.476243  L 271.745258 295.475981  L 271.420278 295.476549  L 271.095299 295.476151  L 270.770319 295.476355  L 270.44534 295.476059  L 270.12036 295.476189  L 269.795381 295.476101  L 269.470401 295.476285  L 269.145422 295.475118  L 268.820442 295.476373  L 268.495463 295.475375  L 268.170483 295.474231  L 267.845504 295.476352  L 267.520524 295.476156  L 267.195545 295.47577  L 266.870565 295.475947  L 266.545586 295.476129  L 266.220606 295.476274  L 265.895627 295.474062  L 265.570647 295.475844  L 265.245667 295.476024  L 264.920688 295.475366  L 264.595708 295.475767  L 264.270729 295.47538  L 263.945749 295.475061  L 263.62077 295.474413  L 263.29579 295.474836  L 262.970811 295.474099  L 262.645831 295.474369  L 262.320852 295.474592  L 261.995872 295.472513  L 261.670893 295.474435  L 261.345913 295.473921  L 261.020934 295.474407  L 260.695954 295.473416  L 260.370975 295.474568  L 260.045995 295.474017  L 259.721016 295.473514  L 259.396036 295.473563  L 259.071057 295.474532  L 258.746077 295.473788  L 258.421097 295.47338  L 258.096118 295.474091  L 257.771138 295.474199  L 257.446159 295.473737  L 257.121179 295.473792  L 256.7962 295.474184  L 256.47122 295.474157  L 256.146241 295.472323  L 255.821261 295.473886  L 255.496282 295.474036  L 255.171302 295.473776  L 254.846323 295.473437  L 254.521343 295.473811  L 254.196364 295.473255  L 253.871384 295.473193  L 253.546405 295.471902  L 253.221425 295.473235  L 252.896446 295.472542  L 252.571466 295.472231  L 252.246486 295.469577  L 251.921507 295.471024  L 251.596527 295.470319  L 251.271548 295.471204  L 250.946568 295.470334  L 250.621589 295.471062  L 250.296609 295.471341  L 249.97163 295.470749  L 249.64665 295.47035  L 249.321671 295.470535  L 248.996691 295.469891  L 248.671712 295.470547  L 248.346732 295.470715  L 248.021753 295.469288  L 247.696773 295.469104  L 247.371794 295.468622  L 247.046814 295.469994  L 246.721835 295.46925  L 246.396855 295.470052  L 246.071876 295.468392  L 245.746896 295.467628  L 245.421916 295.469709  L 245.096937 295.467059  L 244.771957 295.469682  L 244.446978 295.469256  L 244.121998 295.469047  L 243.797019 295.465936  L 243.472039 295.468005  L 243.14706 295.46837  L 242.82208 295.468325  L 242.497101 295.466902  L 242.172121 295.468605  L 241.847142 295.468668  L 241.522162 295.467895  L 241.197183 295.467051  L 240.872203 295.468398  L 240.547224 295.467047  L 240.222244 295.467943  L 239.897265 295.468204  L 239.572285 295.468143  L 239.247305 295.468007  L 238.922326 295.468045  L 238.597346 295.468055  L 238.272367 295.467602  L 237.947387 295.468242  L 237.622408 295.467089  L 237.297428 295.466406  L 236.972449 295.465476  L 236.647469 295.467372  L 236.32249 295.466814  L 235.99751 295.466301  L 235.672531 295.466741  L 235.347551 295.466149  L 235.022572 295.465589  L 234.697592 295.465481  L 234.372613 295.466261  L 234.047633 295.466351  L 233.722654 295.466852  L 233.397674 295.465727  L 233.072695 295.464928  L 232.747715 295.464847  L 232.422735 295.463649  L 232.097756 295.463033  L 231.772776 295.462255  L 231.447797 295.462005  L 231.122817 295.462611  L 230.797838 295.462305  L 230.472858 295.46238  L 230.147879 295.462544  L 229.822899 295.462585  L 229.49792 295.46189  L 229.17294 295.462827  L 228.847961 295.46074  L 228.522981 295.459396  L 228.198002 295.458008  L 227.873022 295.459851  L 227.548043 295.457782  L 227.223063 295.459593  L 226.898084 295.458337  L 226.573104 295.459248  L 226.248124 295.459277  L 225.923145 295.45928  L 225.598165 295.455904  L 225.273186 295.458794  L 224.948206 295.456147  L 224.623227 295.45844  L 224.298247 295.458913  L 223.973268 295.458405  L 223.648288 295.458879  L 223.323309 295.457175  L 222.998329 295.457214  L 222.67335 295.456561  L 222.34837 295.454976  L 222.023391 295.456427  L 221.698411 295.453397  L 221.373432 295.456151  L 221.048452 295.448879  L 220.723473 295.455969  L 220.398493 295.45448  L 220.073514 295.454647  L 219.748534 295.453966  L 219.423554 295.452931  L 219.098575 295.453657  L 218.773595 295.45199  L 218.448616 295.453375  L 218.123636 295.452795  L 217.798657 295.452791  L 217.473677 295.452731  L 217.148698 295.451738  L 216.823718 295.450657  L 216.498739 295.450021  L 216.173759 295.449608  L 215.84878 295.449378  L 215.5238 295.449054  L 215.198821 295.449427  L 214.873841 295.450156  L 214.548862 295.449477  L 214.223882 295.449436  L 213.898903 295.448749  L 213.573923 295.44965  L 213.248943 295.448356  L 212.923964 295.44533  L 212.598984 295.447891  L 212.274005 295.445966  L 211.949025 295.444042  L 211.624046 295.445892  L 211.299066 295.444786  L 210.974087 295.4435  L 210.649107 295.443834  L 210.324128 295.442973  L 209.999148 295.43834  L 209.674169 295.442162  L 209.349189 295.441895  L 209.02421 295.440887  L 208.69923 295.441629  L 208.374251 295.440316  L 208.049271 295.44103  L 207.724292 295.441153  L 207.399312 295.441122  L 207.074333 295.439516  L 206.749353 295.440002  L 206.424373 295.439487  L 206.099394 295.438727  L 205.774414 295.439546  L 205.449435 295.437437  L 205.124455 295.437113  L 204.799476 295.436923  L 204.474496 295.437675  L 204.149517 295.435406  L 203.824537 295.437606  L 203.499558 295.436223  L 203.174578 295.435628  L 202.849599 295.435326  L 202.524619 295.434915  L 202.19964 295.432625  L 201.87466 295.436282  L 201.549681 295.433711  L 201.224701 295.435892  L 200.899722 295.433243  L 200.574742 295.434226  L 200.249762 295.43482  L 199.924783 295.436348  L 199.599803 295.433259  L 199.274824 295.432866  L 198.949844 295.434901  L 198.624865 295.433816  L 198.299885 295.432306  L 197.974906 295.432555  L 197.649926 295.428981  L 197.324947 295.434808  L 196.999967 295.431776  L 196.674988 295.43248  L 196.350008 295.432861  L 196.025029 295.430562  L 195.700049 295.429601  L 195.37507 295.43129  L 195.05009 295.425387  L 194.725111 295.429391  L 194.400131 295.429884  L 194.075152 295.427423  L 193.750172 295.421049  L 193.425192 295.424126  L 193.100213 295.426412  L 192.775233 295.420429  L 192.450254 295.418707  L 192.125274 295.422981  L 191.800295 295.423008  L 191.475315 295.419557  L 191.150336 295.418084  L 190.825356 295.421621  L 190.500377 295.411425  L 190.175397 295.41889  L 189.850418 295.41969  L 189.525438 295.418892  L 189.200459 295.41631  L 188.875479 295.418776  L 188.5505 295.419512  L 188.22552 295.42044  L 187.900541 295.420918  L 187.575561 295.412192  L 187.250581 295.410188  L 186.925602 295.413444  L 186.600622 295.411361  L 186.275643 295.404895  L 185.950663 295.411909  L 185.625684 295.406228  L 185.300704 295.416199  L 184.975725 295.405129  L 184.650745 295.415357  L 184.325766 295.406617  L 184.000786 295.414056  L 183.675807 295.407853  L 183.350827 295.415625  L 183.025848 295.40624  L 182.700868 295.410217  L 182.375889 295.38726  L 182.050909 295.401243  L 181.72593 295.398355  L 181.40095 295.399165  L 181.075971 295.37452  L 180.750991 295.408569  L 180.426011 295.408217  L 180.101032 295.397522  L 179.776052 295.402243  L 179.451073 295.388879  L 179.126093 295.392344  L 178.801114 295.384599  L 178.476134 295.370125  L 178.151155 295.394244  L 177.826175 295.391286  L 177.501196 295.395794  L 177.176216 295.373936  L 176.851237 295.394683  L 176.526257 295.390584  L 176.201278 295.388958  L 175.876298 295.39456  L 175.551319 295.378656  L 175.226339 295.386065  L 174.90136 295.387608  L 174.57638 295.389776  L 174.2514 295.384774  L 173.926421 295.377457  L 173.601441 295.387748  L 173.276462 295.371282  L 172.951482 295.377771  L 172.626503 295.36066  L 172.301523 295.380562  L 171.976544 295.366638  L 171.651564 295.370318  L 171.326585 295.368192  L 171.001605 295.362919  L 170.676626 295.368421  L 170.351646 295.366997  L 170.026667 295.367175  L 169.701687 295.365159  L 169.376708 295.363697  L 169.051728 295.360708  L 168.726749 295.36081  L 168.401769 295.363569  L 168.07679 295.337156  L 167.75181 295.34808  L 167.42683 295.315978  L 167.101851 295.358527  L 166.776871 295.358148  L 166.451892 295.360114  L 166.126912 295.343733  L 165.801933 295.353704  L 165.476953 295.354438  L 165.151974 295.338282  L 164.826994 295.345285  L 164.502015 295.327985  L 164.177035 295.242495  L 163.852056 295.338886  L 163.527076 295.332454  L 163.202097 295.324331  L 162.877117 295.328108  L 162.552138 295.312385  L 162.227158 295.317267  L 161.902179 295.302157  L 161.577199 295.269603  L 161.252219 295.302976  L 160.92724 295.267874  L 160.60226 295.308294  L 160.277281 295.309649  L 159.952301 295.30518  L 159.627322 295.296586  L 159.302342 295.307046  L 158.977363 295.279004  L 158.652383 295.305492  L 158.327404 295.259686  L 158.002424 295.290269  L 157.677445 295.265761  L 157.352465 295.279516  L 157.027486 295.281557  L 156.702506 295.269972  L 156.377527 295.2615  L 156.052547 295.276069  L 155.727568 295.226602  L 155.402588 295.256682  L 155.077609 295.240494  L 154.752629 295.256273  L 154.427649 295.251476  L 154.10267 295.245975  L 153.77769 295.244065  L 153.452711 295.250945  L 153.127731 295.244853  L 152.802752 295.236516  L 152.477772 295.253965  L 152.152793 295.233251  L 151.827813 295.252257  L 151.502834 295.24528  L 151.177854 295.241641  L 150.852875 295.232287  L 150.527895 295.249349  L 150.202916 295.248786  L 149.877936 295.248771  L 149.552957 295.245997  L 149.227977 295.236704  L 148.902998 295.221569  L 148.578018 295.241008  L 148.253038 295.233009  L 147.928059 295.235553  L 147.603079 295.235742  L 147.2781 295.244526  L 146.95312 295.234223  L 146.628141 295.212679  L 146.303161 295.217207  L 145.978182 295.217335  L 145.653202 295.180193  L 145.328223 295.224621  L 145.003243 295.219561  L 144.678264 295.211123  L 144.353284 295.212832  L 144.028305 295.211817  L 143.703325 295.174179  L 143.378346 295.190044  L 143.053366 295.204567  L 142.728387 295.196883  L 142.403407 295.193497  L 142.078428 295.116297  L 141.753448 295.163285  L 141.428468 295.133811  L 141.103489 295.190624  L 140.778509 295.164724  L 140.45353 295.204821  L 140.12855 295.18799  L 139.803571 295.202657  L 139.478591 295.158466  L 139.153612 295.201371  L 138.828632 295.124594  L 138.503653 295.102823  L 138.178673 295.145674  L 137.853694 295.085016  L 137.528714 295.135092  L 137.203735 295.162447  L 136.878755 295.164288  L 136.553776 295.096469  L 136.228796 295.113384  L 135.903817 295.041737  L 135.578837 295.096864  L 135.253857 295.075708  L 134.928878 295.092124  L 134.603898 295.060954  L 134.278919 295.014032  L 133.953939 295.068127  L 133.62896 295.056682  L 133.30398 295.085915  L 132.979001 294.884287  L 132.654021 295.057245  L 132.329042 295.085709  L 132.004062 295.031379  L 131.679083 295.08026  L 131.354103 295.089299  L 131.029124 294.991101  L 130.704144 295.088693  L 130.379165 295.093996  L 130.054185 294.959203  L 129.729206 294.964314  L 129.404226 294.980014  L 129.079247 295.034225  L 128.754267 294.920572  L 128.429287 294.944499  L 128.104308 294.778323  L 127.779328 294.786573  L 127.454349 294.875526  L 127.129369 294.899678  L 126.80439 294.658086  L 126.47941 294.800256  L 126.154431 294.607058  L 125.829451 294.848479  L 125.504472 294.842457  L 125.179492 294.793732  L 124.854513 294.874792  L 124.529533 294.856114  L 124.204554 294.874876  L 123.879574 294.859989  L 123.554595 294.679469  L 123.229615 294.791145  L 122.904636 294.714738  L 122.579656 294.828585  L 122.254676 294.808528  L 121.929697 294.80597  L 121.604717 294.817106  L 121.279738 294.696732  L 120.954758 294.681433  L 120.629779 294.860856  L 120.304799 294.701051  L 119.97982 294.621905  L 119.65484 294.817344  L 119.329861 294.52402  L 119.004881 294.671221  L 118.679902 294.200812  L 118.354922 294.469536  L 118.029943 294.456779  L 117.704963 294.591581  L 117.379984 294.536295  L 117.055004 294.253719  L 116.730025 294.311387  L 116.405045 294.378019  L 116.080066 294.395431  L 115.755086 294.426549  L 115.430106 294.4932  L 115.105127 294.130141  L 114.780147 293.698379  L 114.455168 294.113812  L 114.130188 294.040901  L 113.805209 293.889014  L 113.480229 293.960826  L 113.15525 294.08212  L 112.83027 293.94355  L 112.505291 294.013236  L 112.180311 293.600151  L 111.855332 294.080578  L 111.530352 293.796068  L 111.205373 294.083234  L 110.880393 294.036266  L 110.555414 293.028682  L 110.230434 293.531295  L 109.905455 292.856395  L 109.580475 293.903408  L 109.255495 292.881019  L 108.930516 293.858184  L 108.605536 293.930008  L 108.280557 294.080665  L 107.955577 293.05673  L 107.630598 293.546536  L 107.305618 292.872814  L 106.980639 293.365182  L 106.655659 293.685573  L 106.33068 293.801657  L 106.0057 291.910339  L 105.680721 293.536772  L 105.355741 291.680031  L 105.030762 293.431516  L 104.705782 293.716775  L 104.380803 293.613286  L 104.055823 290.613061  L 103.730844 293.459944  L 103.405864 293.354862  L 103.080885 293.593027  L 102.755905 291.742817  L 102.430925 293.33094  L 102.105946 293.488375  L 101.780966 292.162756  L 101.455987 292.190765  L 101.131007 290.283863  L 100.806028 292.801029  L 100.481048 292.200024  L 100.156069 293.498193  L 99.831089 289.628409  L 99.50611 293.67025  L 99.18113 290.19665  L 98.856151 293.302536  L 98.531171 287.015348  L 98.206192 291.682099  L 97.881212 288.285284  L 97.556233 292.127286  L 97.231253 291.311188  L 96.906274 291.275049  L 96.581294 287.066453  L 96.256314 290.814523  L 95.931335 281.022865  L 95.606355 291.739749  L 95.281376 290.676381  L 94.956396 291.106553  L 94.631417 291.893567  L 94.306437 290.331876  L 93.981458 288.654248  L 93.656478 287.203411  L 93.331499 288.655787  L 93.006519 281.893156  L 92.68154 291.520068  L 92.35656 283.856287  L 92.031581 290.508001  L 91.706601 290.789489  L 91.381622 273.034572  L 91.056642 278.325405  L 90.731663 269.171833  L 90.406683 269.017697  L 90.081704 279.029692  L 89.756724 270.982201  L 89.431744 277.558585  L 89.106765 273.694471  L 88.781785 278.507028  L 88.456806 266.037944  L 88.131826 252.431613  L 87.806847 266.712835  L 87.481867 265.333986  L 87.156888 263.852637  L 86.831908 277.549889  L 86.506929 256.319624  L 86.181949 277.775168  L 85.85697 271.594022  L 85.53199 227.548943  L 85.207011 230.481356  L 84.882031 251.325663  L 84.557052 205.946334  L 84.232072 255.302093  L 83.907093 243.910412  L 83.582113 234.250392  L 83.257133 214.902262  L 82.932154 260.422727  L 82.607174 234.119663  L 82.282195 261.773766  L 81.957215 192.076952  L 81.632236 242.037968  L 81.307256 192.75335  L 80.982277 171.343368  L 80.657297 250.550895  L 80.332318 237.004002  L 80.007338 265.825562  L 79.682359 234.324649  L 79.357379 215.874547  L 79.0324 159.820737  L 78.70742 223.99964  L 78.382441 188.794715  L 78.057461 236.634772  L 77.732482 225.3385  L 77.407502 225.212431  L 77.082523 154.179068  L 76.757543 148.984654  L 76.432563 91.712726  L 76.107584 53.568  L 75.782604 156.401194  L 75.457625 98.641688  L 75.132645 118.831982  L 74.807666 70.473908  L 74.482686 94.540175  L 74.157707 124.900834  L 73.832727 120.743878  z "
           style="fill:#1f77b4;fill-opacity:0.5;"
           id="path14" />
      </g>
      <g
         id="matplotlib.axis_1">
        <g
           id="xtick_1">
          <g
             id="line2d_1">
            <path
               clip-path="url(#pa131517c7b)"
               d="M 73.832727 307.584  L 73.832727 41.472  "
               style="fill:none;stroke:#b0b0b0;stroke-linecap:square;stroke-width:0.8;"
               id="path17" />
          </g>
          <g
             id="line2d_2">
            <defs
               id="defs21">
              <path
                 d="M 0 0  L 0 3.5  "
                 id="m4f772a0946"
                 style="stroke:#000000;stroke-width:0.8;" />
            </defs>
            <g
               id="g25">
              <use
                 style="stroke:#000000;stroke-width:0.8;"
                 x="73.832727"
                 xlink:href="#m4f772a0946"
                 y="307.584"
                 id="use23" />
            </g>
          </g>
          <g
             id="text_1">
            <!-- 0 -->
            <g
               transform="translate(70.651477 322.182437)scale(0.1 -0.1)"
               id="g33">
              <defs
                 id="defs29">
                <path
                   d="M 31.78125 66.40625  Q 24.171875 66.40625 20.328125 58.90625  Q 16.5 51.421875 16.5 36.375  Q 16.5 21.390625 20.328125 13.890625  Q 24.171875 6.390625 31.78125 6.390625  Q 39.453125 6.390625 43.28125 13.890625  Q 47.125 21.390625 47.125 36.375  Q 47.125 51.421875 43.28125 58.90625  Q 39.453125 66.40625 31.78125 66.40625  z M 31.78125 74.21875  Q 44.046875 74.21875 50.515625 64.515625  Q 56.984375 54.828125 56.984375 36.375  Q 56.984375 17.96875 50.515625 8.265625  Q 44.046875 -1.421875 31.78125 -1.421875  Q 19.53125 -1.421875 13.0625 8.265625  Q 6.59375 17.96875 6.59375 36.375  Q 6.59375 54.828125 13.0625 64.515625  Q 19.53125 74.21875 31.78125 74.21875  z "
                   id="DejaVuSans-48" />
              </defs>
              <use
                 xlink:href="#DejaVuSans-48"
                 id="use31" />
            </g>
          </g>
        </g>
        <g
           id="xtick_2">
          <g
             id="line2d_3">
            <path
               clip-path="url(#pa131517c7b)"
               d="M 138.828632 307.584  L 138.828632 41.472  "
               style="fill:none;stroke:#b0b0b0;stroke-linecap:square;stroke-width:0.8;"
               id="path37" />
          </g>
          <g
             id="line2d_4">
            <g
               id="g42">
              <use
                 style="stroke:#000000;stroke-width:0.8;"
                 x="138.828632"
                 xlink:href="#m4f772a0946"
                 y="307.584"
                 id="use40" />
            </g>
          </g>
          <g
             id="text_2">
            <!-- 200 -->
            <g
               transform="translate(129.284882 322.182437)scale(0.1 -0.1)"
               id="g54">
              <defs
                 id="defs46">
                <path
                   d="M 19.1875 8.296875  L 53.609375 8.296875  L 53.609375 0  L 7.328125 0  L 7.328125 8.296875  Q 12.9375 14.109375 22.625 23.890625  Q 32.328125 33.6875 34.8125 36.53125  Q 39.546875 41.84375 41.421875 45.53125  Q 43.3125 49.21875 43.3125 52.78125  Q 43.3125 58.59375 39.234375 62.25  Q 35.15625 65.921875 28.609375 65.921875  Q 23.96875 65.921875 18.8125 64.3125  Q 13.671875 62.703125 7.8125 59.421875  L 7.8125 69.390625  Q 13.765625 71.78125 18.9375 73  Q 24.125 74.21875 28.421875 74.21875  Q 39.75 74.21875 46.484375 68.546875  Q 53.21875 62.890625 53.21875 53.421875  Q 53.21875 48.921875 51.53125 44.890625  Q 49.859375 40.875 45.40625 35.40625  Q 44.1875 33.984375 37.640625 27.21875  Q 31.109375 20.453125 19.1875 8.296875  z "
                   id="DejaVuSans-50" />
              </defs>
              <use
                 xlink:href="#DejaVuSans-50"
                 id="use48" />
              <use
                 x="63.623047"
                 xlink:href="#DejaVuSans-48"
                 id="use50" />
              <use
                 x="127.246094"
                 xlink:href="#DejaVuSans-48"
                 id="use52" />
            </g>
          </g>
        </g>
        <g
           id="xtick_3">
          <g
             id="line2d_5">
            <path
               clip-path="url(#pa131517c7b)"
               d="M 203.824537 307.584  L 203.824537 41.472  "
               style="fill:none;stroke:#b0b0b0;stroke-linecap:square;stroke-width:0.8;"
               id="path58" />
          </g>
          <g
             id="line2d_6">
            <g
               id="g63">
              <use
                 style="stroke:#000000;stroke-width:0.8;"
                 x="203.824537"
                 xlink:href="#m4f772a0946"
                 y="307.584"
                 id="use61" />
            </g>
          </g>
          <g
             id="text_3">
            <!-- 400 -->
            <g
               transform="translate(194.280787 322.182437)scale(0.1 -0.1)"
               id="g75">
              <defs
                 id="defs67">
                <path
                   d="M 37.796875 64.3125  L 12.890625 25.390625  L 37.796875 25.390625  z M 35.203125 72.90625  L 47.609375 72.90625  L 47.609375 25.390625  L 58.015625 25.390625  L 58.015625 17.1875  L 47.609375 17.1875  L 47.609375 0  L 37.796875 0  L 37.796875 17.1875  L 4.890625 17.1875  L 4.890625 26.703125  z "
                   id="DejaVuSans-52" />
              </defs>
              <use
                 xlink:href="#DejaVuSans-52"
                 id="use69" />
              <use
                 x="63.623047"
                 xlink:href="#DejaVuSans-48"
                 id="use71" />
              <use
                 x="127.246094"
                 xlink:href="#DejaVuSans-48"
                 id="use73" />
            </g>
          </g>
        </g>
        <g
           id="xtick_4">
          <g
             id="line2d_7">
            <path
               clip-path="url(#pa131517c7b)"
               d="M 268.820442 307.584  L 268.820442 41.472  "
               style="fill:none;stroke:#b0b0b0;stroke-linecap:square;stroke-width:0.8;"
               id="path79" />
          </g>
          <g
             id="line2d_8">
            <g
               id="g84">
              <use
                 style="stroke:#000000;stroke-width:0.8;"
                 x="268.820442"
                 xlink:href="#m4f772a0946"
                 y="307.584"
                 id="use82" />
            </g>
          </g>
          <g
             id="text_4">
            <!-- 600 -->
            <g
               transform="translate(259.276692 322.182437)scale(0.1 -0.1)"
               id="g96">
              <defs
                 id="defs88">
                <path
                   d="M 33.015625 40.375  Q 26.375 40.375 22.484375 35.828125  Q 18.609375 31.296875 18.609375 23.390625  Q 18.609375 15.53125 22.484375 10.953125  Q 26.375 6.390625 33.015625 6.390625  Q 39.65625 6.390625 43.53125 10.953125  Q 47.40625 15.53125 47.40625 23.390625  Q 47.40625 31.296875 43.53125 35.828125  Q 39.65625 40.375 33.015625 40.375  z M 52.59375 71.296875  L 52.59375 62.3125  Q 48.875 64.0625 45.09375 64.984375  Q 41.3125 65.921875 37.59375 65.921875  Q 27.828125 65.921875 22.671875 59.328125  Q 17.53125 52.734375 16.796875 39.40625  Q 19.671875 43.65625 24.015625 45.921875  Q 28.375 48.1875 33.59375 48.1875  Q 44.578125 48.1875 50.953125 41.515625  Q 57.328125 34.859375 57.328125 23.390625  Q 57.328125 12.15625 50.6875 5.359375  Q 44.046875 -1.421875 33.015625 -1.421875  Q 20.359375 -1.421875 13.671875 8.265625  Q 6.984375 17.96875 6.984375 36.375  Q 6.984375 53.65625 15.1875 63.9375  Q 23.390625 74.21875 37.203125 74.21875  Q 40.921875 74.21875 44.703125 73.484375  Q 48.484375 72.75 52.59375 71.296875  z "
                   id="DejaVuSans-54" />
              </defs>
              <use
                 xlink:href="#DejaVuSans-54"
                 id="use90" />
              <use
                 x="63.623047"
                 xlink:href="#DejaVuSans-48"
                 id="use92" />
              <use
                 x="127.246094"
                 xlink:href="#DejaVuSans-48"
                 id="use94" />
            </g>
          </g>
        </g>
        <g
           id="xtick_5">
          <g
             id="line2d_9">
            <path
               clip-path="url(#pa131517c7b)"
               d="M 333.816347 307.584  L 333.816347 41.472  "
               style="fill:none;stroke:#b0b0b0;stroke-linecap:square;stroke-width:0.8;"
               id="path100" />
          </g>
          <g
             id="line2d_10">
            <g
               id="g105">
              <use
                 style="stroke:#000000;stroke-width:0.8;"
                 x="333.816347"
                 xlink:href="#m4f772a0946"
                 y="307.584"
                 id="use103" />
            </g>
          </g>
          <g
             id="text_5">
            <!-- 800 -->
            <g
               transform="translate(324.272597 322.182437)scale(0.1 -0.1)"
               id="g117">
              <defs
                 id="defs109">
                <path
                   d="M 31.78125 34.625  Q 24.75 34.625 20.71875 30.859375  Q 16.703125 27.09375 16.703125 20.515625  Q 16.703125 13.921875 20.71875 10.15625  Q 24.75 6.390625 31.78125 6.390625  Q 38.8125 6.390625 42.859375 10.171875  Q 46.921875 13.96875 46.921875 20.515625  Q 46.921875 27.09375 42.890625 30.859375  Q 38.875 34.625 31.78125 34.625  z M 21.921875 38.8125  Q 15.578125 40.375 12.03125 44.71875  Q 8.5 49.078125 8.5 55.328125  Q 8.5 64.0625 14.71875 69.140625  Q 20.953125 74.21875 31.78125 74.21875  Q 42.671875 74.21875 48.875 69.140625  Q 55.078125 64.0625 55.078125 55.328125  Q 55.078125 49.078125 51.53125 44.71875  Q 48 40.375 41.703125 38.8125  Q 48.828125 37.15625 52.796875 32.3125  Q 56.78125 27.484375 56.78125 20.515625  Q 56.78125 9.90625 50.3125 4.234375  Q 43.84375 -1.421875 31.78125 -1.421875  Q 19.734375 -1.421875 13.25 4.234375  Q 6.78125 9.90625 6.78125 20.515625  Q 6.78125 27.484375 10.78125 32.3125  Q 14.796875 37.15625 21.921875 38.8125  z M 18.3125 54.390625  Q 18.3125 48.734375 21.84375 45.5625  Q 25.390625 42.390625 31.78125 42.390625  Q 38.140625 42.390625 41.71875 45.5625  Q 45.3125 48.734375 45.3125 54.390625  Q 45.3125 60.0625 41.71875 63.234375  Q 38.140625 66.40625 31.78125 66.40625  Q 25.390625 66.40625 21.84375 63.234375  Q 18.3125 60.0625 18.3125 54.390625  z "
                   id="DejaVuSans-56" />
              </defs>
              <use
                 xlink:href="#DejaVuSans-56"
                 id="use111" />
              <use
                 x="63.623047"
                 xlink:href="#DejaVuSans-48"
                 id="use113" />
              <use
                 x="127.246094"
                 xlink:href="#DejaVuSans-48"
                 id="use115" />
            </g>
          </g>
        </g>
        <g
           id="xtick_6">
          <g
             id="line2d_11">
            <path
               clip-path="url(#pa131517c7b)"
               d="M 398.812252 307.584  L 398.812252 41.472  "
               style="fill:none;stroke:#b0b0b0;stroke-linecap:square;stroke-width:0.8;"
               id="path121" />
          </g>
          <g
             id="line2d_12">
            <g
               id="g126">
              <use
                 style="stroke:#000000;stroke-width:0.8;"
                 x="398.812252"
                 xlink:href="#m4f772a0946"
                 y="307.584"
                 id="use124" />
            </g>
          </g>
          <g
             id="text_6">
            <!-- 1000 -->
            <g
               transform="translate(386.087252 322.182437)scale(0.1 -0.1)"
               id="g140">
              <defs
                 id="defs130">
                <path
                   d="M 12.40625 8.296875  L 28.515625 8.296875  L 28.515625 63.921875  L 10.984375 60.40625  L 10.984375 69.390625  L 28.421875 72.90625  L 38.28125 72.90625  L 38.28125 8.296875  L 54.390625 8.296875  L 54.390625 0  L 12.40625 0  z "
                   id="DejaVuSans-49" />
              </defs>
              <use
                 xlink:href="#DejaVuSans-49"
                 id="use132" />
              <use
                 x="63.623047"
                 xlink:href="#DejaVuSans-48"
                 id="use134" />
              <use
                 x="127.246094"
                 xlink:href="#DejaVuSans-48"
                 id="use136" />
              <use
                 x="190.869141"
                 xlink:href="#DejaVuSans-48"
                 id="use138" />
            </g>
          </g>
        </g>
        <g
           id="text_7">
          <!-- $iteration$ -->
          <g
             transform="translate(215.01 335.860562)scale(0.1 -0.1)"
             id="g171">
            <defs
               id="defs151">
              <path
                 d="M 18.3125 75.984375  L 27.296875 75.984375  L 25.09375 64.59375  L 16.109375 64.59375  z M 14.203125 54.6875  L 23.1875 54.6875  L 12.5 0  L 3.515625 0  z "
                 id="DejaVuSans-Oblique-105" />
              <path
                 d="M 42.28125 54.6875  L 40.921875 47.703125  L 23 47.703125  L 17.1875 18.015625  Q 16.890625 16.359375 16.75 15.234375  Q 16.609375 14.109375 16.609375 13.484375  Q 16.609375 10.359375 18.484375 8.9375  Q 20.359375 7.515625 24.515625 7.515625  L 33.59375 7.515625  L 32.078125 0  L 23.484375 0  Q 15.484375 0 11.546875 3.125  Q 7.625 6.25 7.625 12.59375  Q 7.625 13.71875 7.765625 15.0625  Q 7.90625 16.40625 8.203125 18.015625  L 14.015625 47.703125  L 6.390625 47.703125  L 7.8125 54.6875  L 15.28125 54.6875  L 18.3125 70.21875  L 27.296875 70.21875  L 24.3125 54.6875  z "
                 id="DejaVuSans-Oblique-116" />
              <path
                 d="M 48.09375 32.234375  Q 48.25 33.015625 48.3125 33.84375  Q 48.390625 34.671875 48.390625 35.5  Q 48.390625 41.453125 44.890625 44.921875  Q 41.40625 48.390625 35.40625 48.390625  Q 28.71875 48.390625 23.578125 44.15625  Q 18.453125 39.9375 15.828125 32.171875  z M 55.90625 25.203125  L 14.109375 25.203125  Q 13.8125 23.34375 13.71875 22.265625  Q 13.625 21.1875 13.625 20.40625  Q 13.625 13.625 17.796875 9.90625  Q 21.96875 6.203125 29.59375 6.203125  Q 35.453125 6.203125 40.671875 7.515625  Q 45.90625 8.84375 50.390625 11.375  L 48.6875 2.484375  Q 43.84375 0.53125 38.6875 -0.4375  Q 33.546875 -1.421875 28.21875 -1.421875  Q 16.84375 -1.421875 10.71875 4.015625  Q 4.59375 9.46875 4.59375 19.484375  Q 4.59375 28.03125 7.640625 35.375  Q 10.6875 42.71875 16.609375 48.484375  Q 20.40625 52.09375 25.65625 54.046875  Q 30.90625 56 36.8125 56  Q 46.09375 56 51.578125 50.4375  Q 57.078125 44.875 57.078125 35.5  Q 57.078125 33.25 56.78125 30.6875  Q 56.5 28.125 55.90625 25.203125  z "
                 id="DejaVuSans-Oblique-101" />
              <path
                 d="M 44.578125 46.390625  Q 43.21875 47.125 41.453125 47.515625  Q 39.703125 47.90625 37.703125 47.90625  Q 30.515625 47.90625 25.140625 42.453125  Q 19.78125 37.015625 18.015625 27.875  L 12.5 0  L 3.515625 0  L 14.203125 54.6875  L 23.1875 54.6875  L 21.484375 46.1875  Q 25.046875 50.921875 30 53.453125  Q 34.96875 56 40.578125 56  Q 42.046875 56 43.453125 55.828125  Q 44.875 55.671875 46.296875 55.28125  z "
                 id="DejaVuSans-Oblique-114" />
              <path
                 d="M 53.71875 31.203125  L 47.609375 0  L 38.625 0  L 40.28125 8.296875  Q 36.328125 3.421875 31.265625 1  Q 26.21875 -1.421875 20.015625 -1.421875  Q 13.03125 -1.421875 8.5625 2.84375  Q 4.109375 7.125 4.109375 13.8125  Q 4.109375 23.390625 11.75 28.953125  Q 19.390625 34.515625 32.8125 34.515625  L 45.3125 34.515625  L 45.796875 36.921875  Q 45.90625 37.3125 45.953125 37.765625  Q 46 38.234375 46 39.203125  Q 46 43.5625 42.453125 45.96875  Q 38.921875 48.390625 32.515625 48.390625  Q 28.125 48.390625 23.5 47.265625  Q 18.890625 46.140625 14.015625 43.890625  L 15.578125 52.203125  Q 20.65625 54.109375 25.515625 55.046875  Q 30.375 56 34.90625 56  Q 44.578125 56 49.625 51.796875  Q 54.6875 47.609375 54.6875 39.59375  Q 54.6875 37.984375 54.4375 35.8125  Q 54.203125 33.640625 53.71875 31.203125  z M 44 27.484375  L 35.015625 27.484375  Q 23.96875 27.484375 18.671875 24.53125  Q 13.375 21.578125 13.375 15.375  Q 13.375 11.078125 16.078125 8.640625  Q 18.796875 6.203125 23.578125 6.203125  Q 30.90625 6.203125 36.375 11.453125  Q 41.84375 16.703125 43.609375 25.484375  z "
                 id="DejaVuSans-Oblique-97" />
              <path
                 d="M 25.390625 -1.421875  Q 15.765625 -1.421875 10.171875 4.515625  Q 4.59375 10.453125 4.59375 20.703125  Q 4.59375 26.65625 6.515625 32.828125  Q 8.453125 39.015625 11.53125 43.21875  Q 16.359375 49.75 22.3125 52.875  Q 28.265625 56 35.796875 56  Q 45.125 56 50.859375 50.1875  Q 56.59375 44.390625 56.59375 35.015625  Q 56.59375 28.515625 54.6875 22.0625  Q 52.78125 15.625 49.703125 11.375  Q 44.921875 4.828125 38.96875 1.703125  Q 33.015625 -1.421875 25.390625 -1.421875  z M 13.921875 21  Q 13.921875 13.578125 17.015625 9.890625  Q 20.125 6.203125 26.421875 6.203125  Q 35.453125 6.203125 41.375 14.078125  Q 47.3125 21.96875 47.3125 34.078125  Q 47.3125 41.15625 44.140625 44.765625  Q 40.96875 48.390625 34.8125 48.390625  Q 29.734375 48.390625 25.78125 46.015625  Q 21.828125 43.65625 18.703125 38.8125  Q 16.40625 35.203125 15.15625 30.5625  Q 13.921875 25.921875 13.921875 21  z "
                 id="DejaVuSans-Oblique-111" />
              <path
                 d="M 55.71875 33.015625  L 49.3125 0  L 40.28125 0  L 46.6875 32.671875  Q 47.125 34.96875 47.359375 36.71875  Q 47.609375 38.484375 47.609375 39.5  Q 47.609375 43.609375 45.015625 45.890625  Q 42.4375 48.1875 37.796875 48.1875  Q 30.5625 48.1875 25.34375 43.375  Q 20.125 38.578125 18.5 30.328125  L 12.5 0  L 3.515625 0  L 14.109375 54.6875  L 23.09375 54.6875  L 21.296875 46.09375  Q 25.046875 50.828125 30.3125 53.40625  Q 35.59375 56 41.40625 56  Q 48.640625 56 52.609375 52.09375  Q 56.59375 48.1875 56.59375 41.109375  Q 56.59375 39.359375 56.375 37.359375  Q 56.15625 35.359375 55.71875 33.015625  z "
                 id="DejaVuSans-Oblique-110" />
            </defs>
            <use
               transform="translate(0 0.015625)"
               xlink:href="#DejaVuSans-Oblique-105"
               id="use153" />
            <use
               transform="translate(27.783203 0.015625)"
               xlink:href="#DejaVuSans-Oblique-116"
               id="use155" />
            <use
               transform="translate(66.992188 0.015625)"
               xlink:href="#DejaVuSans-Oblique-101"
               id="use157" />
            <use
               transform="translate(128.515625 0.015625)"
               xlink:href="#DejaVuSans-Oblique-114"
               id="use159" />
            <use
               transform="translate(169.628906 0.015625)"
               xlink:href="#DejaVuSans-Oblique-97"
               id="use161" />
            <use
               transform="translate(230.908203 0.015625)"
               xlink:href="#DejaVuSans-Oblique-116"
               id="use163" />
            <use
               transform="translate(270.117188 0.015625)"
               xlink:href="#DejaVuSans-Oblique-105"
               id="use165" />
            <use
               transform="translate(297.900391 0.015625)"
               xlink:href="#DejaVuSans-Oblique-111"
               id="use167" />
            <use
               transform="translate(359.082031 0.015625)"
               xlink:href="#DejaVuSans-Oblique-110"
               id="use169" />
          </g>
        </g>
      </g>
      <g
         id="matplotlib.axis_2">
        <g
           id="ytick_1">
          <g
             id="line2d_13">
            <path
               clip-path="url(#pa131517c7b)"
               d="M 57.6 295.488816  L 414.72 295.488816  "
               style="fill:none;stroke:#b0b0b0;stroke-linecap:square;stroke-width:0.8;"
               id="path175" />
          </g>
          <g
             id="line2d_14">
            <defs
               id="defs179">
              <path
                 d="M 0 0  L -3.5 0  "
                 id="m4437eb974f"
                 style="stroke:#000000;stroke-width:0.8;" />
            </defs>
            <g
               id="g183">
              <use
                 style="stroke:#000000;stroke-width:0.8;"
                 x="57.6"
                 xlink:href="#m4437eb974f"
                 y="295.488816"
                 id="use181" />
            </g>
          </g>
          <g
             id="text_8">
            <!-- 4.00 -->
            <g
               transform="translate(19.954687 299.288035)scale(0.1 -0.1)"
               id="g200">
              <defs
                 id="defs188">
                <path
                   d="M 10.59375 35.5  L 73.1875 35.5  L 73.1875 27.203125  L 10.59375 27.203125  z "
                   id="DejaVuSans-8722" />
                <path
                   d="M 10.6875 12.40625  L 21 12.40625  L 21 0  L 10.6875 0  z "
                   id="DejaVuSans-46" />
              </defs>
              <use
                 xlink:href="#DejaVuSans-8722"
                 id="use190" />
              <use
                 x="83.789062"
                 xlink:href="#DejaVuSans-52"
                 id="use192" />
              <use
                 x="147.412109"
                 xlink:href="#DejaVuSans-46"
                 id="use194" />
              <use
                 x="179.199219"
                 xlink:href="#DejaVuSans-48"
                 id="use196" />
              <use
                 x="242.822266"
                 xlink:href="#DejaVuSans-48"
                 id="use198" />
            </g>
          </g>
        </g>
        <g
           id="ytick_2">
          <g
             id="line2d_15">
            <path
               clip-path="url(#pa131517c7b)"
               d="M 57.6 262.205701  L 414.72 262.205701  "
               style="fill:none;stroke:#b0b0b0;stroke-linecap:square;stroke-width:0.8;"
               id="path204" />
          </g>
          <g
             id="line2d_16">
            <g
               id="g209">
              <use
                 style="stroke:#000000;stroke-width:0.8;"
                 x="57.6"
                 xlink:href="#m4437eb974f"
                 y="262.205701"
                 id="use207" />
            </g>
          </g>
          <g
             id="text_9">
            <!-- 3.75 -->
            <g
               transform="translate(19.954687 266.00492)scale(0.1 -0.1)"
               id="g227">
              <defs
                 id="defs215">
                <path
                   d="M 40.578125 39.3125  Q 47.65625 37.796875 51.625 33  Q 55.609375 28.21875 55.609375 21.1875  Q 55.609375 10.40625 48.1875 4.484375  Q 40.765625 -1.421875 27.09375 -1.421875  Q 22.515625 -1.421875 17.65625 -0.515625  Q 12.796875 0.390625 7.625 2.203125  L 7.625 11.71875  Q 11.71875 9.328125 16.59375 8.109375  Q 21.484375 6.890625 26.8125 6.890625  Q 36.078125 6.890625 40.9375 10.546875  Q 45.796875 14.203125 45.796875 21.1875  Q 45.796875 27.640625 41.28125 31.265625  Q 36.765625 34.90625 28.71875 34.90625  L 20.21875 34.90625  L 20.21875 43.015625  L 29.109375 43.015625  Q 36.375 43.015625 40.234375 45.921875  Q 44.09375 48.828125 44.09375 54.296875  Q 44.09375 59.90625 40.109375 62.90625  Q 36.140625 65.921875 28.71875 65.921875  Q 24.65625 65.921875 20.015625 65.03125  Q 15.375 64.15625 9.8125 62.3125  L 9.8125 71.09375  Q 15.4375 72.65625 20.34375 73.4375  Q 25.25 74.21875 29.59375 74.21875  Q 40.828125 74.21875 47.359375 69.109375  Q 53.90625 64.015625 53.90625 55.328125  Q 53.90625 49.265625 50.4375 45.09375  Q 46.96875 40.921875 40.578125 39.3125  z "
                   id="DejaVuSans-51" />
                <path
                   d="M 8.203125 72.90625  L 55.078125 72.90625  L 55.078125 68.703125  L 28.609375 0  L 18.3125 0  L 43.21875 64.59375  L 8.203125 64.59375  z "
                   id="DejaVuSans-55" />
                <path
                   d="M 10.796875 72.90625  L 49.515625 72.90625  L 49.515625 64.59375  L 19.828125 64.59375  L 19.828125 46.734375  Q 21.96875 47.46875 24.109375 47.828125  Q 26.265625 48.1875 28.421875 48.1875  Q 40.625 48.1875 47.75 41.5  Q 54.890625 34.8125 54.890625 23.390625  Q 54.890625 11.625 47.5625 5.09375  Q 40.234375 -1.421875 26.90625 -1.421875  Q 22.3125 -1.421875 17.546875 -0.640625  Q 12.796875 0.140625 7.71875 1.703125  L 7.71875 11.625  Q 12.109375 9.234375 16.796875 8.0625  Q 21.484375 6.890625 26.703125 6.890625  Q 35.15625 6.890625 40.078125 11.328125  Q 45.015625 15.765625 45.015625 23.390625  Q 45.015625 31 40.078125 35.4375  Q 35.15625 39.890625 26.703125 39.890625  Q 22.75 39.890625 18.8125 39.015625  Q 14.890625 38.140625 10.796875 36.28125  z "
                   id="DejaVuSans-53" />
              </defs>
              <use
                 xlink:href="#DejaVuSans-8722"
                 id="use217" />
              <use
                 x="83.789062"
                 xlink:href="#DejaVuSans-51"
                 id="use219" />
              <use
                 x="147.412109"
                 xlink:href="#DejaVuSans-46"
                 id="use221" />
              <use
                 x="179.199219"
                 xlink:href="#DejaVuSans-55"
                 id="use223" />
              <use
                 x="242.822266"
                 xlink:href="#DejaVuSans-53"
                 id="use225" />
            </g>
          </g>
        </g>
        <g
           id="ytick_3">
          <g
             id="line2d_17">
            <path
               clip-path="url(#pa131517c7b)"
               d="M 57.6 228.922586  L 414.72 228.922586  "
               style="fill:none;stroke:#b0b0b0;stroke-linecap:square;stroke-width:0.8;"
               id="path231" />
          </g>
          <g
             id="line2d_18">
            <g
               id="g236">
              <use
                 style="stroke:#000000;stroke-width:0.8;"
                 x="57.6"
                 xlink:href="#m4437eb974f"
                 y="228.922586"
                 id="use234" />
            </g>
          </g>
          <g
             id="text_10">
            <!-- 3.50 -->
            <g
               transform="translate(19.954687 232.721805)scale(0.1 -0.1)"
               id="g249">
              <use
                 xlink:href="#DejaVuSans-8722"
                 id="use239" />
              <use
                 x="83.789062"
                 xlink:href="#DejaVuSans-51"
                 id="use241" />
              <use
                 x="147.412109"
                 xlink:href="#DejaVuSans-46"
                 id="use243" />
              <use
                 x="179.199219"
                 xlink:href="#DejaVuSans-53"
                 id="use245" />
              <use
                 x="242.822266"
                 xlink:href="#DejaVuSans-48"
                 id="use247" />
            </g>
          </g>
        </g>
        <g
           id="ytick_4">
          <g
             id="line2d_19">
            <path
               clip-path="url(#pa131517c7b)"
               d="M 57.6 195.639471  L 414.72 195.639471  "
               style="fill:none;stroke:#b0b0b0;stroke-linecap:square;stroke-width:0.8;"
               id="path253" />
          </g>
          <g
             id="line2d_20">
            <g
               id="g258">
              <use
                 style="stroke:#000000;stroke-width:0.8;"
                 x="57.6"
                 xlink:href="#m4437eb974f"
                 y="195.639471"
                 id="use256" />
            </g>
          </g>
          <g
             id="text_11">
            <!-- 3.25 -->
            <g
               transform="translate(19.954687 199.43869)scale(0.1 -0.1)"
               id="g271">
              <use
                 xlink:href="#DejaVuSans-8722"
                 id="use261" />
              <use
                 x="83.789062"
                 xlink:href="#DejaVuSans-51"
                 id="use263" />
              <use
                 x="147.412109"
                 xlink:href="#DejaVuSans-46"
                 id="use265" />
              <use
                 x="179.199219"
                 xlink:href="#DejaVuSans-50"
                 id="use267" />
              <use
                 x="242.822266"
                 xlink:href="#DejaVuSans-53"
                 id="use269" />
            </g>
          </g>
        </g>
        <g
           id="ytick_5">
          <g
             id="line2d_21">
            <path
               clip-path="url(#pa131517c7b)"
               d="M 57.6 162.356356  L 414.72 162.356356  "
               style="fill:none;stroke:#b0b0b0;stroke-linecap:square;stroke-width:0.8;"
               id="path275" />
          </g>
          <g
             id="line2d_22">
            <g
               id="g280">
              <use
                 style="stroke:#000000;stroke-width:0.8;"
                 x="57.6"
                 xlink:href="#m4437eb974f"
                 y="162.356356"
                 id="use278" />
            </g>
          </g>
          <g
             id="text_12">
            <!-- 3.00 -->
            <g
               transform="translate(19.954687 166.155575)scale(0.1 -0.1)"
               id="g293">
              <use
                 xlink:href="#DejaVuSans-8722"
                 id="use283" />
              <use
                 x="83.789062"
                 xlink:href="#DejaVuSans-51"
                 id="use285" />
              <use
                 x="147.412109"
                 xlink:href="#DejaVuSans-46"
                 id="use287" />
              <use
                 x="179.199219"
                 xlink:href="#DejaVuSans-48"
                 id="use289" />
              <use
                 x="242.822266"
                 xlink:href="#DejaVuSans-48"
                 id="use291" />
            </g>
          </g>
        </g>
        <g
           id="ytick_6">
          <g
             id="line2d_23">
            <path
               clip-path="url(#pa131517c7b)"
               d="M 57.6 129.073241  L 414.72 129.073241  "
               style="fill:none;stroke:#b0b0b0;stroke-linecap:square;stroke-width:0.8;"
               id="path297" />
          </g>
          <g
             id="line2d_24">
            <g
               id="g302">
              <use
                 style="stroke:#000000;stroke-width:0.8;"
                 x="57.6"
                 xlink:href="#m4437eb974f"
                 y="129.073241"
                 id="use300" />
            </g>
          </g>
          <g
             id="text_13">
            <!-- 2.75 -->
            <g
               transform="translate(19.954687 132.87246)scale(0.1 -0.1)"
               id="g315">
              <use
                 xlink:href="#DejaVuSans-8722"
                 id="use305" />
              <use
                 x="83.789062"
                 xlink:href="#DejaVuSans-50"
                 id="use307" />
              <use
                 x="147.412109"
                 xlink:href="#DejaVuSans-46"
                 id="use309" />
              <use
                 x="179.199219"
                 xlink:href="#DejaVuSans-55"
                 id="use311" />
              <use
                 x="242.822266"
                 xlink:href="#DejaVuSans-53"
                 id="use313" />
            </g>
          </g>
        </g>
        <g
           id="ytick_7">
          <g
             id="line2d_25">
            <path
               clip-path="url(#pa131517c7b)"
               d="M 57.6 95.790126  L 414.72 95.790126  "
               style="fill:none;stroke:#b0b0b0;stroke-linecap:square;stroke-width:0.8;"
               id="path319" />
          </g>
          <g
             id="line2d_26">
            <g
               id="g324">
              <use
                 style="stroke:#000000;stroke-width:0.8;"
                 x="57.6"
                 xlink:href="#m4437eb974f"
                 y="95.790126"
                 id="use322" />
            </g>
          </g>
          <g
             id="text_14">
            <!-- 2.50 -->
            <g
               transform="translate(19.954687 99.589345)scale(0.1 -0.1)"
               id="g337">
              <use
                 xlink:href="#DejaVuSans-8722"
                 id="use327" />
              <use
                 x="83.789062"
                 xlink:href="#DejaVuSans-50"
                 id="use329" />
              <use
                 x="147.412109"
                 xlink:href="#DejaVuSans-46"
                 id="use331" />
              <use
                 x="179.199219"
                 xlink:href="#DejaVuSans-53"
                 id="use333" />
              <use
                 x="242.822266"
                 xlink:href="#DejaVuSans-48"
                 id="use335" />
            </g>
          </g>
        </g>
        <g
           id="ytick_8">
          <g
             id="line2d_27">
            <path
               clip-path="url(#pa131517c7b)"
               d="M 57.6 62.507011  L 414.72 62.507011  "
               style="fill:none;stroke:#b0b0b0;stroke-linecap:square;stroke-width:0.8;"
               id="path341" />
          </g>
          <g
             id="line2d_28">
            <g
               id="g346">
              <use
                 style="stroke:#000000;stroke-width:0.8;"
                 x="57.6"
                 xlink:href="#m4437eb974f"
                 y="62.507011"
                 id="use344" />
            </g>
          </g>
          <g
             id="text_15">
            <!-- 2.25 -->
            <g
               transform="translate(19.954687 66.30623)scale(0.1 -0.1)"
               id="g359">
              <use
                 xlink:href="#DejaVuSans-8722"
                 id="use349" />
              <use
                 x="83.789062"
                 xlink:href="#DejaVuSans-50"
                 id="use351" />
              <use
                 x="147.412109"
                 xlink:href="#DejaVuSans-46"
                 id="use353" />
              <use
                 x="179.199219"
                 xlink:href="#DejaVuSans-50"
                 id="use355" />
              <use
                 x="242.822266"
                 xlink:href="#DejaVuSans-53"
                 id="use357" />
            </g>
          </g>
        </g>
        <g
           id="text_16">
          <!-- $\langle H_{\mathrm{MC}} \rangle$ -->
          <g
             transform="translate(13.875 187.828)rotate(-90)scale(0.1 -0.1)"
             id="g380">
            <defs
               id="defs368">
              <path
                 d="M 8.9375 31.34375  L 22.703125 75.875  L 31 75.875  L 17.234375 31.34375  L 31 -13.1875  L 22.703125 -13.1875  z "
                 id="DejaVuSans-10216" />
              <path
                 d="M 16.890625 72.90625  L 26.8125 72.90625  L 21 43.015625  L 56.78125 43.015625  L 62.59375 72.90625  L 72.515625 72.90625  L 58.296875 0  L 48.390625 0  L 55.171875 34.71875  L 19.390625 34.71875  L 12.59375 0  L 2.6875 0  z "
                 id="DejaVuSans-Oblique-72" />
              <path
                 d="M 9.8125 72.90625  L 24.515625 72.90625  L 43.109375 23.296875  L 61.8125 72.90625  L 76.515625 72.90625  L 76.515625 0  L 66.890625 0  L 66.890625 64.015625  L 48.09375 14.015625  L 38.1875 14.015625  L 19.390625 64.015625  L 19.390625 0  L 9.8125 0  z "
                 id="DejaVuSans-77" />
              <path
                 d="M 64.40625 67.28125  L 64.40625 56.890625  Q 59.421875 61.53125 53.78125 63.8125  Q 48.140625 66.109375 41.796875 66.109375  Q 29.296875 66.109375 22.65625 58.46875  Q 16.015625 50.828125 16.015625 36.375  Q 16.015625 21.96875 22.65625 14.328125  Q 29.296875 6.6875 41.796875 6.6875  Q 48.140625 6.6875 53.78125 8.984375  Q 59.421875 11.28125 64.40625 15.921875  L 64.40625 5.609375  Q 59.234375 2.09375 53.4375 0.328125  Q 47.65625 -1.421875 41.21875 -1.421875  Q 24.65625 -1.421875 15.125 8.703125  Q 5.609375 18.84375 5.609375 36.375  Q 5.609375 53.953125 15.125 64.078125  Q 24.65625 74.21875 41.21875 74.21875  Q 47.75 74.21875 53.53125 72.484375  Q 59.328125 70.75 64.40625 67.28125  z "
                 id="DejaVuSans-67" />
              <path
                 d="M 30.078125 31.34375  L 16.3125 -13.1875  L 8.015625 -13.1875  L 21.78125 31.34375  L 8.015625 75.875  L 16.3125 75.875  z "
                 id="DejaVuSans-10217" />
            </defs>
            <use
               transform="translate(0 0.125)"
               xlink:href="#DejaVuSans-10216"
               id="use370" />
            <use
               transform="translate(39.013672 0.125)"
               xlink:href="#DejaVuSans-Oblique-72"
               id="use372" />
            <use
               transform="translate(114.208984 -16.28125)scale(0.7)"
               xlink:href="#DejaVuSans-77"
               id="use374" />
            <use
               transform="translate(174.604492 -16.28125)scale(0.7)"
               xlink:href="#DejaVuSans-67"
               id="use376" />
            <use
               transform="translate(226.21582 0.125)"
               xlink:href="#DejaVuSans-10217"
               id="use378" />
          </g>
        </g>
      </g>
      <g
         id="line2d_29">
        <path
           clip-path="url(#pa131517c7b)"
           d="M 73.832727 120.743878  L 74.157707 124.900834  L 74.807666 70.473908  L 75.132645 118.831982  L 75.457625 98.641688  L 75.782604 156.401194  L 76.107584 53.568  L 76.432563 91.712726  L 76.757543 148.984654  L 77.082523 154.179068  L 77.407502 225.212431  L 77.732482 225.3385  L 78.057461 236.634772  L 78.382441 188.794715  L 78.70742 223.99964  L 79.0324 159.820737  L 79.357379 215.874547  L 79.682359 234.324649  L 80.007338 265.825562  L 80.332318 237.004002  L 80.657297 250.550895  L 80.982277 171.343368  L 81.307256 192.75335  L 81.632236 242.037968  L 81.957215 192.076952  L 82.282195 261.773766  L 82.607174 234.119663  L 82.932154 260.422727  L 83.257133 214.902262  L 83.582113 234.250392  L 84.232072 255.302093  L 84.557052 205.946334  L 84.882031 251.325663  L 85.207011 230.481356  L 85.53199 227.548943  L 85.85697 271.594022  L 86.181949 277.775168  L 86.506929 256.319624  L 86.831908 277.549889  L 87.156888 263.852637  L 87.806847 266.712835  L 88.131826 252.431613  L 88.781785 278.507028  L 89.106765 273.694471  L 89.431744 277.558585  L 89.756724 270.982201  L 90.081704 279.029692  L 90.406683 269.017697  L 90.731663 269.171833  L 91.056642 278.325405  L 91.381622 273.034572  L 91.706601 290.789489  L 92.031581 290.508001  L 92.35656 283.856287  L 92.68154 291.520068  L 93.006519 281.893156  L 93.331499 288.655787  L 93.656478 287.203411  L 94.631417 291.893567  L 94.956396 291.106553  L 95.281376 290.676381  L 95.606355 291.739749  L 95.931335 281.022865  L 96.256314 290.814523  L 96.581294 287.066453  L 96.906274 291.275049  L 97.231253 291.311188  L 97.556233 292.127286  L 97.881212 288.285284  L 98.206192 291.682099  L 98.531171 287.015348  L 98.856151 293.302536  L 99.18113 290.19665  L 99.50611 293.67025  L 99.831089 289.628409  L 100.156069 293.498193  L 100.481048 292.200024  L 100.806028 292.801029  L 101.131007 290.283863  L 101.455987 292.190765  L 101.780966 292.162756  L 102.105946 293.488375  L 102.430925 293.33094  L 102.755905 291.742817  L 103.080885 293.593027  L 103.405864 293.354862  L 103.730844 293.459944  L 104.055823 290.613061  L 104.380803 293.613286  L 104.705782 293.716775  L 105.030762 293.431516  L 105.355741 291.680031  L 105.680721 293.536772  L 106.0057 291.910339  L 106.33068 293.801657  L 106.655659 293.685573  L 106.980639 293.365182  L 107.305618 292.872814  L 107.630598 293.546536  L 107.955577 293.05673  L 108.280557 294.080665  L 108.930516 293.858184  L 109.255495 292.881019  L 109.580475 293.903408  L 109.905455 292.856395  L 110.230434 293.531295  L 110.555414 293.028682  L 110.880393 294.036266  L 111.205373 294.083234  L 111.530352 293.796068  L 111.855332 294.080578  L 112.180311 293.600151  L 112.505291 294.013236  L 112.83027 293.94355  L 113.15525 294.08212  L 113.805209 293.889014  L 114.455168 294.113812  L 114.780147 293.698379  L 115.430106 294.4932  L 117.055004 294.253719  L 117.379984 294.536295  L 117.704963 294.591581  L 118.029943 294.456779  L 118.354922 294.469536  L 118.679902 294.200812  L 119.004881 294.671221  L 119.329861 294.52402  L 119.65484 294.817344  L 119.97982 294.621905  L 120.629779 294.860856  L 120.954758 294.681433  L 123.229615 294.791145  L 123.554595 294.679469  L 123.879574 294.859989  L 124.854513 294.874792  L 125.179492 294.793732  L 125.829451 294.848479  L 126.154431 294.607058  L 126.47941 294.800256  L 126.80439 294.658086  L 127.129369 294.899678  L 128.104308 294.778323  L 128.429287 294.944499  L 128.754267 294.920572  L 129.079247 295.034225  L 130.054185 294.959203  L 130.379165 295.093996  L 132.654021 295.057245  L 132.979001 294.884287  L 133.30398 295.085915  L 134.603898 295.060954  L 135.578837 295.096864  L 135.903817 295.041737  L 136.878755 295.164288  L 146.628141 295.212679  L 148.578018 295.241008  L 150.202916 295.248786  L 351.365242 295.486377  L 398.487273 295.488  L 398.487273 295.488  "
           style="fill:none;stroke:#1f77b4;stroke-linecap:square;stroke-width:1.5;"
           id="path384" />
      </g>
      <g
         id="line2d_30">
        <path
           clip-path="url(#pa131517c7b)"
           d="M 57.6 295.488816  L 414.72 295.488816  "
           style="fill:none;stroke:#ff7f0e;stroke-linecap:square;stroke-width:1.5;"
           id="path387" />
      </g>
      <g
         id="patch_3">
        <path
           d="M 57.6 307.584  L 57.6 41.472  "
           style="fill:none;stroke:#000000;stroke-linecap:square;stroke-linejoin:miter;stroke-width:0.8;"
           id="path390" />
      </g>
      <g
         id="patch_4">
        <path
           d="M 414.72 307.584  L 414.72 41.472  "
           style="fill:none;stroke:#000000;stroke-linecap:square;stroke-linejoin:miter;stroke-width:0.8;"
           id="path393" />
      </g>
      <g
         id="patch_5">
        <path
           d="M 57.6 307.584  L 414.72 307.584  "
           style="fill:none;stroke:#000000;stroke-linecap:square;stroke-linejoin:miter;stroke-width:0.8;"
           id="path396" />
      </g>
      <g
         id="patch_6">
        <path
           d="M 57.6 41.472  L 414.72 41.472  "
           style="fill:none;stroke:#000000;stroke-linecap:square;stroke-linejoin:miter;stroke-width:0.8;"
           id="path399" />
      </g>
    </g>
  </g>
  <defs
     id="defs407">
    <clipPath
       id="pa131517c7b">
      <rect
         height="266.112"
         width="357.12"
         x="57.6"
         y="41.472"
         id="rect404" />
    </clipPath>
  </defs>
</svg>
