<?xml version="1.0" encoding="UTF-8" standalone="no"?>
<svg
   xmlns:dc="http://purl.org/dc/elements/1.1/"
   xmlns:cc="http://creativecommons.org/ns#"
   xmlns:rdf="http://www.w3.org/1999/02/22-rdf-syntax-ns#"
   xmlns:svg="http://www.w3.org/2000/svg"
   xmlns="http://www.w3.org/2000/svg"
   xmlns:xlink="http://www.w3.org/1999/xlink"
   xmlns:sodipodi="http://sodipodi.sourceforge.net/DTD/sodipodi-0.dtd"
   xmlns:inkscape="http://www.inkscape.org/namespaces/inkscape"
   height="294.9292pt"
   version="1.1"
   viewBox="0 0 408.84501 294.92919"
   width="408.845pt"
   id="svg409"
   sodipodi:docname="convergence_max_cut_vqe_ideal.svg"
   inkscape:version="1.0.1 (3bc2e813f5, 2020-09-07)">
  <sodipodi:namedview
     pagecolor="#ffffff"
     bordercolor="#666666"
     borderopacity="1"
     objecttolerance="10"
     gridtolerance="10"
     guidetolerance="10"
     inkscape:pageopacity="0"
     inkscape:pageshadow="2"
     inkscape:window-width="1920"
     inkscape:window-height="1042"
     id="namedview411"
     showgrid="false"
     inkscape:zoom="1.7013889"
     inkscape:cx="155.1272"
     inkscape:cy="175.63733"
     inkscape:window-x="0"
     inkscape:window-y="18"
     inkscape:window-maximized="0"
     inkscape:current-layer="axes_1"
     inkscape:document-rotation="0" />
  <metadata
     id="metadata2">
    <rdf:RDF>
      <cc:Work>
        <dc:type
           rdf:resource="http://purl.org/dc/dcmitype/StillImage" />
        <dc:date>2021-01-08T18:09:25.753569</dc:date>
        <dc:format>image/svg+xml</dc:format>
        <dc:creator>
          <cc:Agent>
            <dc:title>Matplotlib v3.3.3, https://matplotlib.org/</dc:title>
          </cc:Agent>
        </dc:creator>
      </cc:Work>
    </rdf:RDF>
  </metadata>
  <defs
     id="defs6">
    <style
       type="text/css"
       id="style4">*{stroke-linecap:butt;stroke-linejoin:round;}</style>
  </defs>
  <g
     id="figure_1"
     transform="translate(-6.275,-41.072)">
    <g
       id="axes_1">
      <g
         id="PolyCollection_1">
        <path
           clip-path="url(#pa131517c7b)"
           d="m 73.832727,120.74388 v 0 l 0.32498,4.15695 0.324979,-30.360655 0.32498,-24.066267 0.324979,48.358072 0.32498,-20.190292 0.324979,57.759502 0.32498,-102.83319 0.324979,38.144726 0.32498,57.271924 0.32498,5.19442 0.324979,71.03336 0.32498,0.12607 0.324979,11.29627 0.32498,-47.84006 0.324979,35.20493 0.32498,-64.1789 0.324979,56.05381 0.32498,18.4501 0.324979,31.50091 0.32498,-28.82156 0.324979,13.54689 0.32498,-79.20752 0.324979,21.40998 0.32498,49.28462 0.324979,-49.96102 0.32498,69.69682 0.324979,-27.65411 0.32498,26.30307 0.324979,-45.52047 0.32498,19.34813 0.32498,9.66002 0.324979,11.39168 0.32498,-49.35576 0.324979,45.37933 0.32498,-20.8443 0.324979,-2.93242 0.32498,44.04508 0.324979,6.18115 0.32498,-21.45555 0.324979,21.23027 0.32498,-13.69725 0.324979,1.48135 0.32498,1.37884 0.324979,-14.28122 0.32498,13.60633 0.324979,12.46909 0.32498,-4.81256 0.324979,3.86411 0.32498,-6.57638 0.32498,8.04749 0.324979,-10.01199 0.32498,0.15413 0.324979,9.15357 0.32498,-5.29083 0.324979,17.75492 0.32498,-0.28149 0.324979,-6.65171 0.32498,7.66378 0.324979,-9.62691 0.32498,6.76263 0.324979,-1.45238 0.32498,1.45084 0.324979,1.67763 0.32498,1.56169 0.324979,-0.78702 0.32498,-0.43017 0.324979,1.06337 0.32498,-10.71688 0.324979,9.79165 0.32498,-3.74807 0.32498,4.2086 0.324979,0.0361 0.32498,0.8161 0.324979,-3.84201 0.32498,3.39682 0.324979,-4.66675 0.32498,6.28719 0.324979,-3.10589 0.32498,3.4736 0.324979,-4.04184 0.324981,3.86978 0.32498,-1.29817 0.32498,0.60101 0.32498,-2.51717 0.32498,1.9069 0.32498,-0.028 0.32498,1.32562 0.32498,-0.15744 0.32498,-1.58812 0.32497,1.85021 0.32498,-0.23817 0.32498,0.10508 0.32498,-2.84688 0.32498,3.00023 0.32498,0.10348 0.32498,-0.28525 0.32498,-1.75149 0.32498,1.85674 0.32498,-1.62643 0.32498,1.89132 0.32498,-0.11609 0.32498,-0.32039 0.32498,-0.49237 0.32498,0.67373 0.32498,-0.48981 0.32498,1.02393 0.32498,-0.15065 0.32498,-0.0718 0.32497,-0.97716 0.32499,1.02239 0.32498,-1.04701 0.32497,0.67489 0.32498,-0.50261 0.32498,1.00759 0.32498,0.047 0.32498,-0.28716 0.32498,0.28451 0.32498,-0.48043 0.32498,0.41309 0.32498,-0.0697 0.32498,0.13857 0.32498,-0.12129 0.32498,-0.0718 0.32498,0.15189 0.32498,0.0729 0.32498,-0.41543 0.32498,0.43176 0.32498,0.36306 0.32498,-0.0666 0.32498,-0.0311 0.32498,-0.0174 0.32497,-0.0666 0.32498,-0.0577 0.32498,0.28257 0.32498,0.0553 0.32498,-0.1348 0.32498,0.0128 0.32498,-0.26873 0.32498,0.47041 0.32498,-0.1472 0.32498,0.29332 0.32498,-0.19543 0.32498,0.0791 0.32498,0.15981 0.32498,-0.17943 0.32498,0.0153 0.32498,0.12038 0.32498,-0.0111 0.32498,0.003 0.32498,0.02 0.32498,-0.11384 0.32497,0.0764 0.32499,-0.11167 0.32497,0.18052 0.32498,0.0149 0.32498,-0.0188 0.32498,0.0187 0.32498,-0.0811 0.32498,0.0487 0.32498,0.006 0.32498,-0.24142 0.32498,0.1932 0.32498,-0.14217 0.32498,0.24159 0.32498,-0.0241 0.32498,-0.089 0.32498,-0.008 0.32498,0.16618 0.32498,-0.0239 0.32498,0.11365 0.32498,-0.0542 0.32498,-0.0157 0.32497,-0.005 0.32498,0.1348 0.32498,-0.005 0.32498,-0.0976 0.32498,0.0982 0.32498,-0.009 0.32498,-0.0489 0.32498,0.0543 0.32498,-0.0285 0.32498,-0.17296 0.32498,0.20162 0.32498,-0.0292 0.32498,0.0115 0.32498,-0.0541 0.32498,0.0469 0.32498,0.0312 0.32498,-0.0164 0.32498,0.0211 0.32498,-0.0551 0.32498,0.0716 0.32498,-0.0169 0.32497,0.0678 0.32498,-0.002 0.32498,-0.0274 0.32498,-0.0501 0.32498,0.0607 0.32498,-0.0428 0.32498,0.0218 0.32498,0.0768 0.32498,-0.0429 0.32498,0.0442 0.32498,-0.0147 0.32498,0.0168 0.32498,-0.0401 0.32498,0.0259 0.32498,-0.0568 0.32498,0.0295 0.32498,-0.047 0.32498,0.0772 0.32498,0.003 0.32498,0.008 0.32498,-0.0145 0.32497,-0.0159 0.32498,0.0376 0.32498,10e-4 0.32498,-0.002 0.32498,0.008 0.32498,0.005 0.32498,-0.0444 0.32498,0.0371 0.32498,-1.2e-4 0.32498,-0.005 0.32498,0.0215 0.32498,0.0103 0.32498,-0.009 0.32498,-1.9e-4 0.32498,-0.003 0.32498,0.008 0.32498,-0.0194 0.32498,0.0151 0.32498,0.009 0.32498,0.003 0.32498,2e-5 0.32497,5.6e-4 0.32498,-0.0171 0.32498,0.009 0.32498,0.004 0.32498,0.007 0.32498,-0.019 0.32498,0.0207 0.32498,-0.0174 0.32498,0.008 0.32498,0.006 0.32498,-0.007 0.32498,0.002 0.32498,0.006 0.32498,0.005 0.32498,-0.0158 0.32498,0.0162 0.32498,-0.0301 0.32498,0.0495 0.32498,-0.0146 0.32498,0.008 0.32498,0.0116 0.32497,-0.002 0.32498,-0.0138 0.32498,0.0245 0.32498,-0.0306 0.32498,0.0458 0.32498,-0.0265 0.32498,0.0281 0.32498,-0.0105 0.32498,0.009 0.32498,0.004 0.32498,-10e-4 0.32498,-0.0404 0.32498,0.0351 0.32498,-0.0334 0.32498,0.0326 0.32498,0.0151 0.32498,-0.005 0.32498,0.0157 0.32498,-0.004 0.32498,0.008 0.32498,0.006 0.32497,-0.0964 0.32498,0.0855 0.32498,0.0173 0.32498,-0.007 0.32498,0.0162 0.32498,-7.4e-4 0.32498,-0.01 0.32498,0.0164 0.32498,-0.002 0.32498,3.8e-4 0.32498,-0.0425 0.32498,0.0321 0.32498,-0.0109 0.32498,0.0264 0.32498,-0.003 0.32498,-10e-5 0.32498,0.003 0.32498,0.001 0.32498,0.002 0.32498,-1.7e-4 0.32498,10e-4 0.32497,-0.006 0.32498,0.005 0.32498,0.002 0.32498,-0.004 0.32498,0.0139 0.32498,-0.0199 0.32498,0.0171 0.32498,-0.006 0.32498,0.0165 0.32498,-0.0103 0.32498,0.007 0.32498,0.005 0.32498,-0.002 0.32498,-0.002 0.32498,-0.007 0.32498,0.0159 0.32498,-0.006 0.32498,0.002 0.32498,0.004 0.32498,-0.0207 0.32498,0.0218 0.32497,-0.004 0.32498,0.003 0.32498,-0.0241 0.32498,0.0145 0.32498,0.008 0.32498,-0.003 0.32498,0.0134 0.32498,-0.005 0.32498,0.0107 0.32498,3.5e-4 0.32498,-0.034 0.32498,0.0246 0.32498,-8.1e-4 0.32498,0.003 0.32498,-0.014 0.32498,0.023 0.32498,-0.004 0.32498,0.009 0.32498,-0.008 0.32498,0.006 0.32498,-0.007 0.32497,0.009 0.32498,-0.0102 0.32498,0.0111 0.32498,-0.01 0.32498,0.006 0.32498,-0.007 0.32498,0.006 0.32498,0.002 0.32498,-0.003 0.32498,0.002 0.32498,0.009 0.32498,-4.8e-4 0.32498,-9.3e-4 0.32498,-7.3e-4 0.32498,-0.002 0.32498,0.003 0.32498,8e-4 0.32498,-8e-4 0.32498,-0.007 0.32498,0.0102 0.32498,-0.004 0.32497,10e-4 0.32498,0.003 0.32498,-3e-5 0.32498,-0.004 0.32498,0.002 0.32498,0.006 0.32498,-0.002 0.32498,-0.003 0.32498,0.006 0.32498,0.002 0.32498,-4.9e-4 0.32498,-0.004 0.32498,0.006 0.32498,-0.002 0.32498,9.6e-4 0.32498,0.002 0.32498,-3.8e-4 0.32498,-7e-4 0.32498,0.003 0.32498,-0.006 0.32498,0.004 0.32497,-2.4e-4 0.32498,0.002 0.32498,10e-4 0.32498,-0.002 0.32498,3.9e-4 0.32498,0.003 0.32498,-0.002 0.32498,-5.9e-4 0.32498,-9.9e-4 0.32498,0.003 0.32498,-0.002 0.32498,0.003 0.32498,-0.004 0.32498,0.002 0.32498,4.2e-4 0.32498,3e-4 0.32498,5.9e-4 0.32498,10e-4 0.32498,-0.002 0.32498,0.002 0.32498,-7.6e-4 0.32497,1.9e-4 0.32498,3.3e-4 0.32498,0.002 0.32498,-8.2e-4 0.32498,7.6e-4 0.32498,5.1e-4 0.32498,-4.8e-4 0.32498,0.002 0.32498,3e-5 0.32498,-1.2e-4 0.32498,-7.1e-4 0.32498,0.001 0.32498,-7.4e-4 0.32498,10e-4 0.32498,2.7e-4 0.32498,-0.004 0.32498,0.005 0.32498,8.6e-4 0.32498,-3.3e-4 0.32498,0.001 0.32498,10e-4 0.32497,-0.002 0.32498,0.002 0.32498,0.002 0.32498,-0.003 0.32498,0.003 0.32498,10e-4 0.32498,-9e-4 0.32498,6.9e-4 0.32498,4e-5 0.32498,6.8e-4 0.32498,-7.3e-4 0.32498,-3.8e-4 0.32498,3.3e-4 0.32498,2.3e-4 0.32498,4.1e-4 0.32498,6.4e-4 0.32498,0.001 0.32498,9.9e-4 0.32498,6e-5 h 0.32498 l 0.32498,5.8e-4 0.32497,-10e-4 0.32498,0.002 0.32498,-7.3e-4 0.32498,10e-4 0.32498,6.8e-4 0.32498,-1.7e-4 0.32498,10e-4 0.32498,-0.007 0.32498,0.007 0.32498,-0.003 0.32498,0.003 0.32498,-10e-4 0.32498,0.002 0.32498,6.5e-4 0.32498,-4e-5 0.32498,0.002 0.32498,-4.7e-4 0.32498,5e-4 0.32498,-4.7e-4 0.32498,-0.002 0.32498,0.003 0.32497,-0.003 0.32498,0.003 h 0.32498 l 0.32498,-3e-5 0.32498,-9.1e-4 0.32498,10e-4 0.32498,-0.002 0.32498,0.002 0.32498,-0.002 0.32498,10e-4 0.32498,10e-4 0.32498,0.002 0.32498,-9.4e-4 0.32498,6.9e-4 0.32498,-4e-5 0.32498,-1.6e-4 0.32498,-7e-5 0.32498,3e-4 0.32498,-6.1e-4 0.32498,2.6e-4 0.32498,7.7e-4 0.32497,6.2e-4 0.32498,10e-4 0.32498,8e-5 0.32498,8e-4 0.32498,0.001 0.32498,-5e-4 0.32498,-9e-5 0.32498,-7.8e-4 0.32498,1.1e-4 0.32498,5.6e-4 0.32498,5.9e-4 0.32498,-4.4e-4 0.32498,5.1e-4 0.32498,5.6e-4 0.32498,-0.002 0.32498,9.3e-4 0.32498,6.8e-4 0.32498,0.001 0.32498,-6.4e-4 0.32498,4.5e-4 h 0.32498 l 0.32497,-4e-5 0.32498,1.3e-4 0.32498,6e-5 0.32498,-2.6e-4 0.32498,-8.9e-4 0.32498,10e-4 0.32498,-10e-4 0.32498,8.4e-4 0.32498,7.8e-4 0.32498,-6e-5 0.32498,-0.002 0.32498,0.001 0.32498,5e-5 0.32498,-3.7e-4 0.32498,-0.002 0.32498,0.003 0.32498,2.1e-4 0.32498,4.2e-4 0.32498,-0.003 0.32498,0.003 0.32498,-0.002 0.32498,7.6e-4 0.32497,0.002 0.32498,-8e-4 0.32498,7.4e-4 0.32498,-10e-4 0.32498,4.8e-4 0.32498,1.9e-4 0.32498,0.001 0.32498,-1.6e-4 0.32498,-6.6e-4 0.32498,6.4e-4 0.32498,-1.8e-4 0.32498,4e-4 0.32498,5.9e-4 0.32498,-2.8e-4 0.32498,-7.3e-4 0.32498,8.7e-4 0.32498,-8.8e-4 0.32498,7e-4 0.32498,-0.001 0.32498,0.003 0.32498,3.1e-4 0.32497,6.9e-4 0.32498,-0.001 0.32498,0.001 0.32498,6e-5 0.32498,5.6e-4 0.32498,-3.7e-4 0.32498,3.4e-4 0.32498,2.6e-4 0.32498,-1.5e-4 0.32498,-0.002 0.32498,0.002 0.32498,2e-5 0.32498,-3.9e-4 0.32498,-5e-5 0.32498,4.6e-4 0.32498,-1.1e-4 0.32498,-7.1e-4 0.32498,4.1e-4 0.32498,7.4e-4 0.32498,-9.7e-4 0.32498,-5e-5 0.32497,5.1e-4 0.32498,5.5e-4 0.32498,-10e-4 0.32498,9.9e-4 0.32498,-4.9e-4 0.32498,5.2e-4 0.32498,-0.002 0.32498,0.002 0.32498,-2.2e-4 0.32498,-2.7e-4 0.32498,7.4e-4 0.32498,-4.3e-4 0.32498,6.5e-4 0.32498,3.2e-4 0.32498,3.9e-4 0.32498,-4e-4 0.32498,6.5e-4 0.32498,-1.8e-4 0.32498,-0.002 0.32498,0.002 0.32498,-1.4e-4 0.32497,-1.8e-4 0.32498,-1.8e-4 0.32498,3.9e-4 0.32498,1.9e-4 0.32498,-0.002 0.32498,0.001 0.32498,10e-4 0.32498,-10e-4 0.32498,10e-4 0.32498,-1.9e-4 0.32498,9e-5 0.32498,-1.3e-4 0.32498,2.9e-4 0.32498,-2e-4 0.32498,4e-4 0.32498,-5.7e-4 0.32498,2.6e-4 0.32498,-8.8e-4 0.32498,8.7e-4 0.32498,-5e-5 0.32498,4e-5 0.32497,5.7e-4 0.32498,-10e-5 0.32498,-4e-5 0.32498,3.2e-4 0.32498,7e-5 0.32498,-6.9e-4 0.32498,7.4e-4 0.32498,2.8e-4 0.32498,-2e-5 0.32498,3.3e-4 0.32498,8e-5 0.32498,-2.1e-4 0.32498,-5e-5 0.32498,4.8e-4 0.32498,-3.3e-4 0.32498,5e-5 0.32498,3.5e-4 0.32498,-8e-5 0.32498,3.5e-4 0.32498,1.3e-4 0.32498,-10e-6 0.32497,-5e-5 0.32499,-1.3e-4 0.32497,2.1e-4 0.32498,-1.5e-4 0.32498,-1.4e-4 0.32498,4.1e-4 0.32498,3e-5 0.32498,4.2e-4 0.32498,-1.8e-4 0.32498,4e-5 0.32498,10e-6 0.32498,7e-5 0.32498,4e-5 0.32498,-4.9e-4 0.32498,7.3e-4 0.32498,2e-5 0.32498,-3.5e-4 0.32498,7.3e-4 0.32498,3e-4 0.32498,-1.3e-4 0.32498,1.5e-4 0.32497,2e-4 0.32499,-1.4e-4 0.32497,2.5e-4 0.32498,-7e-5 0.32498,-1.5e-4 0.32498,7.2e-4 0.32498,-4e-4 0.32498,3.6e-4 0.32498,1.1e-4 0.32498,10e-6 0.32498,-5.2e-4 0.32498,4.4e-4 0.32498,3.8e-4 0.32498,1.9e-4 0.32498,-4e-5 0.32498,-8e-5 0.32498,3e-5 0.32498,1.4e-4 0.32498,3.7e-4 0.32498,10e-6 0.32498,2.5e-4 0.32497,3e-5 0.32499,-1.5e-4 0.32497,1.4e-4 0.32498,7e-5 0.32498,1.1e-4 0.32498,-1.3e-4 0.32498,1.2e-4 0.32498,10e-6 0.32498,-2.7e-4 0.32498,1.7e-4 0.32498,-2.8e-4 0.32498,4.4e-4 0.32498,-3.4e-4 0.32498,3.3e-4 0.32498,-5.9e-4 0.32498,7.4e-4 0.32498,-8.8e-4 0.32498,5.7e-4 0.32498,2e-4 0.32498,1.2e-4 0.32498,-9e-5 0.32498,2.1e-4 0.32497,1.8e-4 0.32498,1.7e-4 0.32498,-2.2e-4 0.32498,2.2e-4 0.32498,-2.7e-4 0.32498,8e-5 0.32498,-5e-5 0.32498,3.7e-4 0.32498,-4e-5 0.32498,-7e-5 0.32498,6e-5 0.32498,9e-5 0.32498,8e-5 0.32498,-5e-5 0.32498,3.1e-4 0.32498,-1.3e-4 0.32498,1.4e-4 0.32498,-4.2e-4 0.32498,3.9e-4 0.32498,1e-5 0.32498,-9e-5 0.32497,-2e-4 0.32498,2.9e-4 0.32498,-1e-5 0.32498,1e-4 0.32498,-4.1e-4 0.32498,6.6e-4 0.32498,-2.8e-4 0.32498,2.7e-4 0.32498,-6e-5 0.32498,6e-5 0.32498,-8e-5 0.32498,-5e-5 0.32498,1.6e-4 0.32498,-2.2e-4 0.32498,2.3e-4 0.32498,6e-5 0.32498,2e-5 0.32498,5e-5 h 0.32498 l 0.32498,-5e-5 0.32498,1.2e-4 0.32497,-2e-5 0.32498,-6e-5 0.32498,2e-5 0.32498,1e-4 0.32498,8e-5 0.32498,7e-5 0.32498,1.7e-4 0.32498,-10e-6 0.32498,2e-5 0.32498,-3e-5 0.32498,-3e-5 0.32498,-1.4e-4 0.32498,1.9e-4 0.32498,-8e-5 0.32498,8e-5 0.32498,-10e-5 0.32498,6e-5 h 0.32498 l 0.32498,1.1e-4 0.32498,7e-5 h 0.32497 l 0.32498,-10e-5 0.32498,-4e-5 0.32498,3.2e-4 0.32498,3e-5 0.32498,9e-5 0.32498,3e-5 0.32498,-2e-5 0.32498,2e-5 0.32498,-1e-5 0.32498,3e-5 0.32498,-1.9e-4 0.32498,1.1e-4 0.32498,1.7e-4 0.32498,-3e-5 0.32498,1.3e-4 0.32498,-3e-5 0.32498,-2e-5 0.32498,-2e-5 0.32498,1.2e-4 h 0.32498 l 0.32497,-4e-5 0.32498,2e-5 0.32498,-1e-4 0.32498,1.3e-4 0.32498,-6e-5 0.32498,6e-5 0.32498,-3e-5 0.32498,3e-5 0.32498,-1.1e-4 0.32498,-10e-6 0.32498,2e-4 0.32498,-10e-6 0.32498,-1.3e-4 0.32498,2e-4 0.32498,-10e-5 0.32498,4e-5 0.32498,6e-5 0.32498,-1.2e-4 0.32498,2.1e-4 0.32498,-1.1e-4 0.32498,1e-4 0.32497,2.2e-4 0.32498,-10e-6 0.32498,2e-5 0.32498,-3e-5 0.32498,10e-6 0.32498,8e-5 0.32498,-8e-5 0.32498,1.6e-4 0.32498,-2e-5 h 0.32498 l 0.32498,4e-5 0.32498,9e-5 0.32498,-3e-5 0.32498,4e-5 0.32498,1e-4 h 0.32498 l 0.32498,-3e-5 0.32498,-3.5e-4 0.32498,3.5e-4 0.32498,10e-6 0.32498,10e-6 0.32497,1.4e-4 0.32498,-3e-5 0.32498,3e-5 0.32498,-3e-5 0.32498,-2e-5 0.32498,-1.1e-4 0.32498,1.2e-4 0.32498,-3e-5 0.32498,7e-5 0.32498,10e-6 0.32498,-10e-6 0.32498,-8e-5 0.32498,7e-5 0.32498,-7e-5 0.32498,1e-4 0.32498,-1.3e-4 0.32498,1.7e-4 0.32498,4e-5 0.32498,2e-5 0.32498,7e-5 0.32498,3e-5 0.32497,-3e-5 0.32499,-8e-5 0.32497,9e-5 h 0.32498 l 0.32498,-2e-5 0.32498,-9e-5 0.32498,3e-5 0.32498,1.9e-4 0.32498,4e-5 0.32498,-10e-5 0.32498,7e-5 0.32498,3e-5 h 0.32498 l 0.32498,-4e-5 0.32498,2e-5 0.32498,-4e-5 0.32498,5e-5 0.32498,-2e-5 0.32498,3e-5 0.32498,-4e-5 0.32498,6e-5 0.32497,-2.6e-4 0.32499,2.7e-4 0.32497,-4e-5 0.32498,-1e-5 0.32498,1.9e-4 0.32498,-1.1e-4 0.32498,1.2e-4 0.32498,7e-5 0.32498,-6e-5 0.32498,10e-5 0.32498,2e-5 0.32498,-2.1e-4 0.32498,2.8e-4 0.32498,9e-5 0.32498,-2e-5 0.32498,-1.3e-4 0.32498,1.5e-4 0.32498,1e-5 0.32498,2e-5 0.32498,-10e-5 0.32498,1.1e-4 h 0.32497 l 0.32499,2e-5 0.32497,10e-6 0.32498,1e-5 0.32498,10e-6 0.32498,-6e-5 0.32498,6e-5 0.32498,1e-5 0.32498,-1.8e-4 0.32498,1.4e-4 0.32498,10e-5 0.32498,-1.4e-4 0.32498,2e-4 h 0.32498 l 0.32498,-1e-5 0.32498,-10e-6 0.32498,-3.3e-4 0.32498,4.4e-4 0.32498,8e-5 0.32498,1e-5 0.32498,2e-5 0.32498,-1e-5 h 0.32497 l 0.32498,1e-5 h 0.32498 l 0.32498,10e-6 0.32498,-10e-6 0.32498,-4e-5 0.32498,-3e-5 0.32498,8e-5 0.32498,-7e-5 0.32498,6e-5 0.32498,-3.2e-4 0.32498,3.4e-4 0.32498,2e-5 0.32498,-1.5e-4 0.32498,2.5e-4 0.32498,7e-5 0.32498,-1.2e-4 0.32498,1.2e-4 0.32498,-1.7e-4 0.32498,1.6e-4 0.32498,-4e-5 0.32497,-9e-5 0.32498,1.9e-4 0.32498,1e-5 0.32498,5e-5 0.32498,6e-5 0.32498,-9e-5 0.32498,4e-5 0.32498,6e-5 h 0.32498 l 0.32498,-10e-6 0.32498,-2e-5 0.32498,3e-5 h 0.32498 l 0.32498,-3e-5 0.32498,-1e-5 0.32498,-1.8e-4 0.32498,2.1e-4 0.32498,-2e-5 0.32498,4e-5 0.32498,-1.4e-4 0.32498,2.1e-4 h 0.32497 l 0.32498,-1e-5 0.32498,-7e-5 0.32498,8e-5 0.32498,-3e-5 0.32498,4e-5 0.32498,-8e-5 0.32498,9e-5 0.32498,-1.3e-4 0.32498,10e-5 0.32498,-10e-6 h 0.32498 l 0.32498,5e-5 0.32498,10e-6 h 0.32498 l 0.32498,-10e-6 h 0.32498 0.32498 0.32498 l 0.32498,4e-5 0.32498,-2e-5 0.32497,2e-5 0.32498,5e-5 0.32498,10e-6 0.32498,-10e-6 0.32498,10e-6 0.32498,3e-5 h 0.32498 0.32498 l 0.32498,10e-6 0.32498,2e-5 0.32498,-3e-5 0.32498,3e-5 h 0.32498 0.32498 l 0.32498,-10e-6 h 0.32498 0.32498 l 0.32498,3e-5 0.32498,2e-5 0.32498,-1e-5 0.32498,-2e-5 0.32497,3e-5 0.32499,10e-6 0.32497,-3e-5 0.32498,10e-6 0.32498,1e-5 0.32498,3e-5 v 0 0 l -0.32498,-3e-5 -0.32498,-1e-5 -0.32498,-10e-6 -0.32497,3e-5 -0.32499,-10e-6 -0.32497,-3e-5 -0.32498,2e-5 -0.32498,1e-5 -0.32498,-2e-5 -0.32498,-3e-5 h -0.32498 -0.32498 l -0.32498,10e-6 h -0.32498 -0.32498 l -0.32498,-3e-5 -0.32498,3e-5 -0.32498,-2e-5 -0.32498,-10e-6 h -0.32498 -0.32498 l -0.32498,-3e-5 -0.32498,-10e-6 -0.32498,10e-6 -0.32498,-10e-6 -0.32498,-5e-5 -0.32497,-2e-5 -0.32498,2e-5 -0.32498,-4e-5 h -0.32498 -0.32498 -0.32498 l -0.32498,10e-6 h -0.32498 l -0.32498,-10e-6 -0.32498,-5e-5 h -0.32498 l -0.32498,10e-6 -0.32498,-10e-5 -0.32498,1.3e-4 -0.32498,-9e-5 -0.32498,8e-5 -0.32498,-4e-5 -0.32498,3e-5 -0.32498,-8e-5 -0.32498,7e-5 -0.32498,1e-5 h -0.32497 l -0.32498,-2.1e-4 -0.32498,1.4e-4 -0.32498,-4e-5 -0.32498,2e-5 -0.32498,-2.1e-4 -0.32498,1.8e-4 -0.32498,1e-5 -0.32498,3e-5 h -0.32498 l -0.32498,-3e-5 -0.32498,2e-5 -0.32498,10e-6 h -0.32498 l -0.32498,-6e-5 -0.32498,-4e-5 -0.32498,9e-5 -0.32498,-6e-5 -0.32498,-5e-5 -0.32498,-1e-5 -0.32498,-1.9e-4 -0.32497,9e-5 -0.32498,4e-5 -0.32498,-1.6e-4 -0.32498,1.7e-4 -0.32498,-1.2e-4 -0.32498,1.2e-4 -0.32498,-7e-5 -0.32498,-2.5e-4 -0.32498,1.5e-4 -0.32498,-2e-5 -0.32498,-3.4e-4 -0.32498,3.2e-4 -0.32498,-6e-5 -0.32498,7e-5 -0.32498,-8e-5 -0.32498,3e-5 -0.32498,4e-5 -0.32498,10e-6 -0.32498,-10e-6 h -0.32498 l -0.32498,-1e-5 h -0.32497 l -0.32498,1e-5 -0.32498,-2e-5 -0.32498,-1e-5 -0.32498,-8e-5 -0.32498,-4.4e-4 -0.32498,3.3e-4 -0.32498,10e-6 -0.32498,1e-5 h -0.32498 l -0.32498,-2e-4 -0.32498,1.4e-4 -0.32498,-10e-5 -0.32498,-1.4e-4 -0.32498,1.8e-4 -0.32498,-1e-5 -0.32498,-6e-5 -0.32498,6e-5 -0.32498,-10e-6 -0.32498,-1e-5 -0.32497,-10e-6 -0.32499,-2e-5 h -0.32497 l -0.32498,-1.1e-4 -0.32498,10e-5 -0.32498,-2e-5 -0.32498,-1e-5 -0.32498,-1.5e-4 -0.32498,1.3e-4 -0.32498,2e-5 -0.32498,-9e-5 -0.32498,-2.8e-4 -0.32498,2.1e-4 -0.32498,-2e-5 -0.32498,-10e-5 -0.32498,6e-5 -0.32498,-7e-5 -0.32498,-1.2e-4 -0.32498,1.1e-4 -0.32498,-1.9e-4 -0.32498,1e-5 -0.32497,4e-5 -0.32499,-2.7e-4 -0.32497,2.6e-4 -0.32498,-6e-5 -0.32498,4e-5 -0.32498,-3e-5 -0.32498,2e-5 -0.32498,-5e-5 -0.32498,4e-5 -0.32498,-2e-5 -0.32498,4e-5 h -0.32498 l -0.32498,-3e-5 -0.32498,-7e-5 -0.32498,10e-5 -0.32498,-4e-5 -0.32498,-1.9e-4 -0.32498,-3e-5 -0.32498,9e-5 -0.32498,2e-5 h -0.32498 l -0.32497,-9e-5 -0.32499,8e-5 -0.32497,3e-5 -0.32498,-3e-5 -0.32498,-7e-5 -0.32498,-2e-5 -0.32498,-4e-5 -0.32498,-1.7e-4 -0.32498,1.3e-4 -0.32498,-1e-4 -0.32498,7e-5 -0.32498,-7e-5 -0.32498,8e-5 -0.32498,10e-6 -0.32498,-10e-6 -0.32498,-7e-5 -0.32498,3e-5 -0.32498,-1.2e-4 -0.32498,1.1e-4 -0.32498,2e-5 -0.32498,3e-5 -0.32498,-3e-5 -0.32498,3e-5 -0.32497,-1.4e-4 -0.32498,-10e-6 -0.32498,-10e-6 -0.32498,-3.5e-4 -0.32498,3.5e-4 -0.32498,3e-5 h -0.32498 l -0.32498,-1e-4 -0.32498,-4e-5 -0.32498,3e-5 -0.32498,-9e-5 -0.32498,-4e-5 h -0.32498 l -0.32498,2e-5 -0.32498,-1.6e-4 -0.32498,8e-5 -0.32498,-8e-5 -0.32498,-10e-6 -0.32498,3e-5 -0.32498,-2e-5 -0.32498,10e-6 -0.32497,-2.2e-4 -0.32498,-1e-4 -0.32498,1.1e-4 -0.32498,-2.1e-4 -0.32498,1.2e-4 -0.32498,-6e-5 -0.32498,-4e-5 -0.32498,10e-5 -0.32498,-2e-4 -0.32498,1.3e-4 -0.32498,10e-6 -0.32498,-2e-4 -0.32498,10e-6 -0.32498,1.1e-4 -0.32498,-3e-5 -0.32498,3e-5 -0.32498,-6e-5 -0.32498,6e-5 -0.32498,-1.3e-4 -0.32498,1e-4 -0.32498,-2e-5 -0.32497,4e-5 h -0.32498 l -0.32498,-1.2e-4 -0.32498,2e-5 -0.32498,2e-5 -0.32498,3e-5 -0.32498,-1.3e-4 -0.32498,3e-5 -0.32498,-1.7e-4 -0.32498,-1.1e-4 -0.32498,1.9e-4 -0.32498,-3e-5 -0.32498,1e-5 -0.32498,-2e-5 -0.32498,2e-5 -0.32498,-3e-5 -0.32498,-9e-5 -0.32498,-3e-5 -0.32498,-3.2e-4 -0.32498,4e-5 -0.32498,10e-5 h -0.32497 l -0.32498,-7e-5 -0.32498,-1.1e-4 h -0.32498 l -0.32498,-6e-5 -0.32498,10e-5 -0.32498,-8e-5 -0.32498,8e-5 -0.32498,-1.9e-4 -0.32498,1.4e-4 -0.32498,3e-5 -0.32498,3e-5 -0.32498,-2e-5 -0.32498,10e-6 -0.32498,-1.7e-4 -0.32498,-7e-5 -0.32498,-8e-5 -0.32498,-1e-4 -0.32498,-2e-5 -0.32498,6e-5 -0.32497,2e-5 -0.32498,-1.2e-4 -0.32498,5e-5 h -0.32498 l -0.32498,-5e-5 -0.32498,-2e-5 -0.32498,-6e-5 -0.32498,-2.3e-4 -0.32498,2.2e-4 -0.32498,-1.6e-4 -0.32498,5e-5 -0.32498,8e-5 -0.32498,-6e-5 -0.32498,6e-5 -0.32498,-2.7e-4 -0.32498,2.8e-4 -0.32498,-6.6e-4 -0.32498,4.1e-4 -0.32498,-1e-4 -0.32498,1e-5 -0.32498,-2.9e-4 -0.32497,2e-4 -0.32498,9e-5 -0.32498,-1e-5 -0.32498,-3.9e-4 -0.32498,4.2e-4 -0.32498,-1.4e-4 -0.32498,1.3e-4 -0.32498,-3.1e-4 -0.32498,5e-5 -0.32498,-8e-5 -0.32498,-9e-5 -0.32498,-6e-5 -0.32498,7e-5 -0.32498,4e-5 -0.32498,-3.7e-4 -0.32498,5e-5 -0.32498,-8e-5 -0.32498,2.7e-4 -0.32498,-2.2e-4 -0.32498,2.2e-4 -0.32498,-1.7e-4 -0.32497,-1.8e-4 -0.32498,-2.1e-4 -0.32498,9e-5 -0.32498,-1.2e-4 -0.32498,-2e-4 -0.32498,-5.7e-4 -0.32498,8.8e-4 -0.32498,-7.4e-4 -0.32498,5.9e-4 -0.32498,-3.3e-4 -0.32498,3.4e-4 -0.32498,-4.4e-4 -0.32498,2.8e-4 -0.32498,-1.7e-4 -0.32498,2.7e-4 -0.32498,-10e-6 -0.32498,-1.2e-4 -0.32498,1.3e-4 -0.32498,-1.1e-4 -0.32498,-7e-5 -0.32497,-1.4e-4 -0.32499,1.5e-4 -0.32497,-3e-5 -0.32498,-2.5e-4 -0.32498,-10e-6 -0.32498,-3.7e-4 -0.32498,-1.4e-4 -0.32498,-3e-5 -0.32498,8e-5 -0.32498,4e-5 -0.32498,-1.9e-4 -0.32498,-3.8e-4 -0.32498,-4.4e-4 -0.32498,5.2e-4 -0.32498,-10e-6 -0.32498,-1.1e-4 -0.32498,-3.6e-4 -0.32498,4e-4 -0.32498,-7.2e-4 -0.32498,1.5e-4 -0.32498,7e-5 -0.32497,-2.5e-4 -0.32499,1.4e-4 -0.32497,-2e-4 -0.32498,-1.5e-4 -0.32498,1.3e-4 -0.32498,-3e-4 -0.32498,-7.3e-4 -0.32498,3.5e-4 -0.32498,-2e-5 -0.32498,-7.3e-4 -0.32498,4.9e-4 -0.32498,-4e-5 -0.32498,-7e-5 -0.32498,-10e-6 -0.32498,-4e-5 -0.32498,1.8e-4 -0.32498,-4.2e-4 -0.32498,-3e-5 -0.32498,-4.1e-4 -0.32498,1.4e-4 -0.32498,1.5e-4 -0.32497,-2.1e-4 -0.32499,1.3e-4 -0.32497,5e-5 -0.32498,10e-6 -0.32498,-1.3e-4 -0.32498,-3.5e-4 -0.32498,8e-5 -0.32498,-3.5e-4 -0.32498,-5e-5 -0.32498,3.3e-4 -0.32498,-4.8e-4 -0.32498,5e-5 -0.32498,2.1e-4 -0.32498,-8e-5 -0.32498,-3.3e-4 -0.32498,2e-5 -0.32498,-2.8e-4 -0.32498,-7.4e-4 -0.32498,6.9e-4 -0.32498,-7e-5 -0.32498,-3.2e-4 -0.32498,4e-5 -0.32498,10e-5 -0.32497,-5.7e-4 -0.32498,-4e-5 -0.32498,5e-5 -0.32498,-8.7e-4 -0.32498,8.8e-4 -0.32498,-2.6e-4 -0.32498,5.7e-4 -0.32498,-4e-4 -0.32498,2e-4 -0.32498,-2.9e-4 -0.32498,1.3e-4 -0.32498,-9e-5 -0.32498,1.9e-4 -0.32498,-10e-4 -0.32498,10e-4 -0.32498,-10e-4 -0.32498,-0.001 -0.32498,0.002 -0.32498,-1.9e-4 -0.32498,-3.9e-4 -0.32498,1.8e-4 -0.32497,1.8e-4 -0.32498,1.4e-4 -0.32498,-0.002 -0.32498,0.002 -0.32498,1.8e-4 -0.32498,-6.5e-4 -0.32498,4e-4 -0.32498,-3.9e-4 -0.32498,-3.2e-4 -0.32498,-6.5e-4 -0.32498,4.3e-4 -0.32498,-7.4e-4 -0.32498,2.7e-4 -0.32498,2.2e-4 -0.32498,-0.002 -0.32498,0.002 -0.32498,-5.2e-4 -0.32498,4.9e-4 -0.32498,-9.9e-4 -0.32498,10e-4 -0.32498,-5.5e-4 -0.32497,-5.1e-4 -0.32498,5e-5 -0.32498,9.7e-4 -0.32498,-7.4e-4 -0.32498,-4.1e-4 -0.32498,7.1e-4 -0.32498,1.1e-4 -0.32498,-4.6e-4 -0.32498,5e-5 -0.32498,3.9e-4 -0.32498,-2e-5 -0.32498,-0.002 -0.32498,0.002 -0.32498,1.5e-4 -0.32498,-2.6e-4 -0.32498,-3.4e-4 -0.32498,3.7e-4 -0.32498,-5.6e-4 -0.32498,-6e-5 -0.32498,-0.001 -0.32498,0.001 -0.32497,-6.9e-4 -0.32498,-3.1e-4 -0.32498,-0.003 -0.32498,0.001 -0.32498,-7e-4 -0.32498,8.8e-4 -0.32498,-8.7e-4 -0.32498,7.3e-4 -0.32498,2.8e-4 -0.32498,-5.9e-4 -0.32498,-4e-4 -0.32498,1.8e-4 -0.32498,-6.4e-4 -0.32498,6.6e-4 -0.32498,1.6e-4 -0.32498,-0.001 -0.32498,-1.9e-4 -0.32498,-4.8e-4 -0.32498,10e-4 -0.32498,-7.4e-4 -0.32498,8e-4 -0.32497,-0.002 -0.32498,-7.6e-4 -0.32498,0.002 -0.32498,-0.003 -0.32498,0.003 -0.32498,-4.2e-4 -0.32498,-2.1e-4 -0.32498,-0.003 -0.32498,0.002 -0.32498,3.7e-4 -0.32498,-5e-5 -0.32498,-0.001 -0.32498,0.002 -0.32498,6e-5 -0.32498,-7.8e-4 -0.32498,-8.4e-4 -0.32498,10e-4 -0.32498,-10e-4 -0.32498,8.9e-4 -0.32498,2.6e-4 -0.32498,-6e-5 -0.32498,-1.3e-4 -0.32497,4e-5 h -0.32498 l -0.32498,-4.5e-4 -0.32498,6.4e-4 -0.32498,-0.001 -0.32498,-6.8e-4 -0.32498,-9.3e-4 -0.32498,0.002 -0.32498,-5.6e-4 -0.32498,-5.1e-4 -0.32498,4.4e-4 -0.32498,-5.9e-4 -0.32498,-5.6e-4 -0.32498,-1.1e-4 -0.32498,7.8e-4 -0.32498,9e-5 -0.32498,5e-4 -0.32498,-0.001 -0.32498,-8e-4 -0.32498,-8e-5 -0.32498,-10e-4 -0.32497,-6.2e-4 -0.32498,-7.7e-4 -0.32498,-2.6e-4 -0.32498,6.1e-4 -0.32498,-3e-4 -0.32498,7e-5 -0.32498,1.6e-4 -0.32498,4e-5 -0.32498,-6.9e-4 -0.32498,9.4e-4 -0.32498,-0.002 -0.32498,-10e-4 -0.32498,-10e-4 -0.32498,0.002 -0.32498,-0.002 -0.32498,0.002 -0.32498,-10e-4 -0.32498,9.1e-4 -0.32498,3e-5 h -0.32498 l -0.32498,-0.003 -0.32497,0.003 -0.32498,-0.003 -0.32498,0.002 -0.32498,4.7e-4 -0.32498,-5e-4 -0.32498,4.7e-4 -0.32498,-0.002 -0.32498,4e-5 -0.32498,-6.5e-4 -0.32498,-0.002 -0.32498,10e-4 -0.32498,-0.003 -0.32498,0.003 -0.32498,-0.007 -0.32498,0.007 -0.32498,-10e-4 -0.32498,1.7e-4 -0.32498,-6.8e-4 -0.32498,-10e-4 -0.32498,7.3e-4 -0.32498,-0.002 -0.32497,10e-4 -0.32498,-5.8e-4 h -0.32498 l -0.32498,-6e-5 -0.32498,-9.9e-4 -0.32498,-0.001 -0.32498,-6.4e-4 -0.32498,-4.1e-4 -0.32498,-2.3e-4 -0.32498,-3.3e-4 -0.32498,3.8e-4 -0.32498,7.3e-4 -0.32498,-6.8e-4 -0.32498,-4e-5 -0.32498,-6.9e-4 -0.32498,9e-4 -0.32498,-10e-4 -0.32498,-0.003 -0.32498,0.003 -0.32498,-0.002 -0.32498,-0.002 -0.32497,0.002 -0.32498,-10e-4 -0.32498,-0.001 -0.32498,3.3e-4 -0.32498,-8.6e-4 -0.32498,-0.005 -0.32498,0.004 -0.32498,-2.7e-4 -0.32498,-10e-4 -0.32498,7.4e-4 -0.32498,-0.001 -0.32498,7.1e-4 -0.32498,1.2e-4 -0.32498,-3e-5 -0.32498,-0.002 -0.32498,4.8e-4 -0.32498,-5.1e-4 -0.32498,-7.6e-4 -0.32498,8.2e-4 -0.32498,-0.002 -0.32498,-3.3e-4 -0.32497,-1.9e-4 -0.32498,7.6e-4 -0.32498,-0.002 -0.32498,0.002 -0.32498,-10e-4 -0.32498,-5.9e-4 -0.32498,-3e-4 -0.32498,-4.2e-4 -0.32498,-0.002 -0.32498,0.004 -0.32498,-0.003 -0.32498,0.002 -0.32498,-0.003 -0.32498,9.9e-4 -0.32498,5.9e-4 -0.32498,0.002 -0.32498,-0.003 -0.32498,-3.9e-4 -0.32498,0.002 -0.32498,-10e-4 -0.32498,-0.002 -0.32497,2.4e-4 -0.32498,-0.004 -0.32498,0.006 -0.32498,-0.003 -0.32498,7e-4 -0.32498,3.8e-4 -0.32498,-0.002 -0.32498,-9.6e-4 -0.32498,0.002 -0.32498,-0.006 -0.32498,0.004 -0.32498,4.9e-4 -0.32498,-0.002 -0.32498,-0.006 -0.32498,0.003 -0.32498,0.002 -0.32498,-0.006 -0.32498,-0.002 -0.32498,0.004 -0.32498,3e-5 -0.32498,-0.003 -0.32497,-10e-4 -0.32498,0.004 -0.32498,-0.0102 -0.32498,0.007 -0.32498,8e-4 -0.32498,-8e-4 -0.32498,-0.003 -0.32498,0.002 -0.32498,7.3e-4 -0.32498,9.3e-4 -0.32498,4.8e-4 -0.32498,-0.009 -0.32498,-0.002 -0.32498,0.003 -0.32498,-0.002 -0.32498,-0.006 -0.32498,0.007 -0.32498,-0.006 -0.32498,0.01 -0.32498,-0.0111 -0.32498,0.0102 -0.32497,-0.009 -0.32498,0.007 -0.32498,-0.006 -0.32498,0.008 -0.32498,-0.009 -0.32498,0.004 -0.32498,-0.023 -0.32498,0.014 -0.32498,-0.003 -0.32498,8.1e-4 -0.32498,-0.0246 -0.32498,0.034 -0.32498,-3.5e-4 -0.32498,-0.0107 -0.32498,0.005 -0.32498,-0.0134 -0.32498,0.003 -0.32498,-0.008 -0.32498,-0.0145 -0.32498,0.0241 -0.32498,-0.003 -0.32497,0.004 -0.32498,-0.0218 -0.32498,0.0207 -0.32498,-0.004 -0.32498,-0.002 -0.32498,0.006 -0.32498,-0.0159 -0.32498,0.007 -0.32498,0.002 -0.32498,0.002 -0.32498,-0.005 -0.32498,-0.007 -0.32498,0.0103 -0.32498,-0.0165 -0.32498,0.006 -0.32498,-0.0171 -0.32498,0.0199 -0.32498,-0.0139 -0.32498,0.004 -0.32498,-0.002 -0.32498,-0.005 -0.32497,0.006 -0.32498,-10e-4 -0.32498,1.7e-4 -0.32498,-0.002 -0.32498,-0.001 -0.32498,-0.003 -0.32498,10e-5 -0.32498,0.003 -0.32498,-0.0264 -0.32498,0.0109 -0.32498,-0.0321 -0.32498,0.0425 -0.32498,-3.8e-4 -0.32498,0.002 -0.32498,-0.0164 -0.32498,0.01 -0.32498,7.4e-4 -0.32498,-0.0162 -0.32498,0.007 -0.32498,-0.0173 -0.32498,-0.0855 -0.32497,0.0964 -0.32498,-0.006 -0.32498,-0.008 -0.32498,0.004 -0.32498,-0.0157 -0.32498,0.005 -0.32498,-0.0151 -0.32498,-0.0326 -0.32498,0.0334 -0.32498,-0.0351 -0.32498,0.0404 -0.32498,10e-4 -0.32498,-0.004 -0.32498,-0.009 -0.32498,0.0105 -0.32498,-0.0281 -0.32498,0.0265 -0.32498,-0.0458 -0.32498,0.0306 -0.32498,-0.0245 -0.32498,0.0138 -0.32497,0.002 -0.32498,-0.0116 -0.32498,-0.008 -0.32498,0.0146 -0.32498,-0.0495 -0.32498,0.0301 -0.32498,-0.0162 -0.32498,0.0158 -0.32498,-0.005 -0.32498,-0.006 -0.32498,-0.002 -0.32498,0.007 -0.32498,-0.006 -0.32498,-0.008 -0.32498,0.0174 -0.32498,-0.0207 -0.32498,0.019 -0.32498,-0.007 -0.32498,-0.004 -0.32498,-0.009 -0.32498,0.0171 -0.32497,-5.6e-4 -0.32498,-2e-5 -0.32498,-0.003 -0.32498,-0.009 -0.32498,-0.0151 -0.32498,0.0194 -0.32498,-0.008 -0.32498,0.003 -0.32498,1.9e-4 -0.32498,0.009 -0.32498,-0.0103 -0.32498,-0.0215 -0.32498,0.005 -0.32498,1.2e-4 -0.32498,-0.0371 -0.32498,0.0444 -0.32498,-0.005 -0.32498,-0.008 -0.32498,0.002 -0.32498,-10e-4 -0.32498,-0.0376 -0.32497,0.0159 -0.32498,0.0145 -0.32498,-0.008 -0.32498,-0.003 -0.32498,-0.0772 -0.32498,0.047 -0.32498,-0.0295 -0.32498,0.0568 -0.32498,-0.0259 -0.32498,0.0401 -0.32498,-0.0168 -0.32498,0.0147 -0.32498,-0.0442 -0.32498,0.0429 -0.32498,-0.0768 -0.32498,-0.0218 -0.32498,0.0428 -0.32498,-0.0607 -0.32498,0.0501 -0.32498,0.0274 -0.32498,0.002 -0.32497,-0.0678 -0.32498,0.0169 -0.32498,-0.0716 -0.32498,0.0551 -0.32498,-0.0211 -0.32498,0.0164 -0.32498,-0.0312 -0.32498,-0.0469 -0.32498,0.0541 -0.32498,-0.0115 -0.32498,0.0292 -0.32498,-0.20162 -0.32498,0.17296 -0.32498,0.0285 -0.32498,-0.0543 -0.32498,0.0489 -0.32498,0.009 -0.32498,-0.0982 -0.32498,0.0976 -0.32498,0.005 -0.32498,-0.1348 -0.32497,0.005 -0.32498,0.0157 -0.32498,0.0542 -0.32498,-0.11365 -0.32498,0.0239 -0.32498,-0.16618 -0.32498,0.008 -0.32498,0.089 -0.32498,0.0241 -0.32498,-0.24159 -0.32498,0.14217 -0.32498,-0.1932 -0.32498,0.24142 -0.32498,-0.006 -0.32498,-0.0487 -0.32498,0.0811 -0.32498,-0.0187 -0.32498,0.0188 -0.32498,-0.0149 -0.32497,-0.18052 -0.32499,0.11167 -0.32497,-0.0764 -0.32498,0.11384 -0.32498,-0.02 -0.32498,-0.003 -0.32498,0.0111 -0.32498,-0.12038 -0.32498,-0.0153 -0.32498,0.17943 -0.32498,-0.15981 -0.32498,-0.0791 -0.32498,0.19543 -0.32498,-0.29332 -0.32498,0.1472 -0.32498,-0.47041 -0.32498,0.26873 -0.32498,-0.0128 -0.32498,0.1348 -0.32498,-0.0553 -0.32498,-0.28257 -0.32498,0.0577 -0.32497,0.0666 -0.32498,0.0174 -0.32498,0.0311 -0.32498,0.0666 -0.32498,-0.36306 -0.32498,-0.43176 -0.32498,0.41543 -0.32498,-0.0729 -0.32498,-0.15189 -0.32498,0.0718 -0.32498,0.12129 -0.32498,-0.13857 -0.32498,0.0697 -0.32498,-0.41309 -0.32498,0.48043 -0.32498,-0.28451 -0.32498,0.28716 -0.32498,-0.047 -0.32498,-1.00759 -0.32498,0.50261 -0.32497,-0.67489 -0.32498,1.04701 -0.32499,-1.02239 -0.32497,0.97716 -0.32498,0.0718 -0.32498,0.15065 -0.32498,-1.02393 -0.32498,0.48981 -0.32498,-0.67373 -0.32498,0.49237 -0.32498,0.32039 -0.32498,0.11609 -0.32498,-1.89132 -0.32498,1.62643 -0.32498,-1.85674 -0.32498,1.75149 -0.32498,0.28525 -0.32498,-0.10348 -0.32498,-3.00023 -0.32498,2.84688 -0.32498,-0.10508 -0.32498,0.23817 -0.32497,-1.85021 -0.32498,1.58812 -0.32498,0.15744 -0.32498,-1.32562 -0.32498,0.028 -0.32498,-1.9069 -0.32498,2.51717 -0.32498,-0.60101 -0.32498,1.29817 -0.324981,-3.86978 -0.324979,4.04184 -0.32498,-3.4736 -0.324979,3.10589 -0.32498,-6.28719 -0.324979,4.66675 -0.32498,-3.39682 -0.324979,3.84201 -0.32498,-0.8161 -0.324979,-0.0361 -0.32498,-4.2086 -0.32498,3.74807 -0.324979,-9.79165 -0.32498,10.71688 -0.324979,-1.06337 -0.32498,0.43017 -0.324979,0.78702 -0.32498,-1.56169 -0.324979,-1.67763 -0.32498,-1.45084 -0.324979,1.45238 -0.32498,-6.76263 -0.324979,9.62691 -0.32498,-7.66378 -0.324979,6.65171 -0.32498,0.28149 -0.324979,-17.75492 -0.32498,5.29083 -0.324979,-9.15357 -0.32498,-0.15413 -0.324979,10.01199 -0.32498,-8.04749 -0.32498,6.57638 -0.324979,-3.86411 -0.32498,4.81256 -0.324979,-12.46909 -0.32498,-13.60633 -0.324979,14.28122 -0.32498,-1.37884 -0.324979,-1.48135 -0.32498,13.69725 -0.324979,-21.23027 -0.32498,21.45555 -0.324979,-6.18115 -0.32498,-44.04508 -0.324979,2.93242 -0.32498,20.8443 -0.324979,-45.37933 -0.32498,49.35576 -0.324979,-11.39168 -0.32498,-9.66002 -0.32498,-19.34813 -0.324979,45.52047 -0.32498,-26.30307 -0.324979,27.65411 -0.32498,-69.69682 -0.324979,49.96102 -0.32498,-49.28462 -0.324979,-21.40998 -0.32498,79.20752 -0.324979,-13.54689 -0.32498,28.82156 -0.324979,-31.50091 -0.32498,-18.4501 -0.324979,-56.05381 -0.32498,64.1789 -0.324979,-35.20493 -0.32498,47.84006 -0.324979,-11.29627 -0.32498,-0.12607 -0.324979,-71.03336 -0.32498,-5.19442 L 76.432563,91.712726 76.107584,53.568 75.782604,156.40119 75.457625,98.641688 75.132645,118.83198 74.807666,70.473908 74.482686,94.540175 74.157707,124.90083 Z"
           style="fill:#1f77b4;fill-opacity:0.5"
           id="path14" />
      </g>
      <g
         id="matplotlib.axis_1">
        <g
           id="xtick_1">
          <g
             id="line2d_1">
            <path
               clip-path="url(#pa131517c7b)"
               d="M 73.832727,307.584 V 41.472"
               style="fill:none;stroke:#b0b0b0;stroke-width:0.8;stroke-linecap:square"
               id="path17" />
          </g>
          <g
             id="line2d_2">
            <defs
               id="defs21">
              <path
                 d="M 0,0 V 3.5"
                 id="m4f772a0946"
                 style="stroke:#000000;stroke-width:0.8" />
            </defs>
            <g
               id="g25">
              <use
                 style="stroke:#000000;stroke-width:0.8"
                 x="73.832726"
                 xlink:href="#m4f772a0946"
                 y="307.58401"
                 id="use23"
                 width="100%"
                 height="100%" />
            </g>
          </g>
          <g
             id="text_1">
            <!-- 0 -->
            <g
               transform="matrix(0.1,0,0,-0.1,70.651477,322.18244)"
               id="g33">
              <defs
                 id="defs29">
                <path
                   d="m 31.78125,66.40625 q -7.609375,0 -11.453125,-7.5 Q 16.5,51.421875 16.5,36.375 q 0,-14.984375 3.828125,-22.484375 3.84375,-7.5 11.453125,-7.5 7.671875,0 11.5,7.5 3.84375,7.5 3.84375,22.484375 0,15.046875 -3.84375,22.53125 -3.828125,7.5 -11.5,7.5 z m 0,7.8125 q 12.265625,0 18.734375,-9.703125 6.46875,-9.6875 6.46875,-28.140625 0,-18.40625 -6.46875,-28.109375 -6.46875,-9.6875 -18.734375,-9.6875 -12.25,0 -18.71875,9.6875 Q 6.59375,17.96875 6.59375,36.375 q 0,18.453125 6.46875,28.140625 6.46875,9.703125 18.71875,9.703125 z"
                   id="DejaVuSans-48" />
              </defs>
              <use
                 xlink:href="#DejaVuSans-48"
                 id="use31"
                 x="0"
                 y="0"
                 width="100%"
                 height="100%" />
            </g>
          </g>
        </g>
        <g
           id="xtick_2">
          <g
             id="line2d_3">
            <path
               clip-path="url(#pa131517c7b)"
               d="M 138.82863,307.584 V 41.472"
               style="fill:none;stroke:#b0b0b0;stroke-width:0.8;stroke-linecap:square"
               id="path37" />
          </g>
          <g
             id="line2d_4">
            <g
               id="g42">
              <use
                 style="stroke:#000000;stroke-width:0.8"
                 x="138.82863"
                 xlink:href="#m4f772a0946"
                 y="307.58401"
                 id="use40"
                 width="100%"
                 height="100%" />
            </g>
          </g>
          <g
             id="text_2">
            <!-- 200 -->
            <g
               transform="matrix(0.1,0,0,-0.1,129.28488,322.18244)"
               id="g54">
              <defs
                 id="defs46">
                <path
                   d="M 19.1875,8.296875 H 53.609375 V 0 H 7.328125 v 8.296875 q 5.609375,5.8125 15.296875,15.59375 9.703125,9.796875 12.1875,12.640625 4.734375,5.3125 6.609375,9 1.890625,3.6875 1.890625,7.25 0,5.8125 -4.078125,9.46875 -4.078125,3.671875 -10.625,3.671875 -4.640625,0 -9.796875,-1.609375 -5.140625,-1.609375 -11,-4.890625 v 9.96875 Q 13.765625,71.78125 18.9375,73 q 5.1875,1.21875 9.484375,1.21875 11.328125,0 18.0625,-5.671875 6.734375,-5.65625 6.734375,-15.125 0,-4.5 -1.6875,-8.53125 Q 49.859375,40.875 45.40625,35.40625 44.1875,33.984375 37.640625,27.21875 31.109375,20.453125 19.1875,8.296875 Z"
                   id="DejaVuSans-50" />
              </defs>
              <use
                 xlink:href="#DejaVuSans-50"
                 id="use48"
                 x="0"
                 y="0"
                 width="100%"
                 height="100%" />
              <use
                 x="63.623047"
                 xlink:href="#DejaVuSans-48"
                 id="use50"
                 y="0"
                 width="100%"
                 height="100%" />
              <use
                 x="127.24609"
                 xlink:href="#DejaVuSans-48"
                 id="use52"
                 y="0"
                 width="100%"
                 height="100%" />
            </g>
          </g>
        </g>
        <g
           id="xtick_3">
          <g
             id="line2d_5">
            <path
               clip-path="url(#pa131517c7b)"
               d="M 203.82454,307.584 V 41.472"
               style="fill:none;stroke:#b0b0b0;stroke-width:0.8;stroke-linecap:square"
               id="path58" />
          </g>
          <g
             id="line2d_6">
            <g
               id="g63">
              <use
                 style="stroke:#000000;stroke-width:0.8"
                 x="203.82454"
                 xlink:href="#m4f772a0946"
                 y="307.58401"
                 id="use61"
                 width="100%"
                 height="100%" />
            </g>
          </g>
          <g
             id="text_3">
            <!-- 400 -->
            <g
               transform="matrix(0.1,0,0,-0.1,194.28079,322.18244)"
               id="g75">
              <defs
                 id="defs67">
                <path
                   d="M 37.796875,64.3125 12.890625,25.390625 h 24.90625 z m -2.59375,8.59375 h 12.40625 V 25.390625 h 10.40625 V 17.1875 H 47.609375 V 0 h -9.8125 V 17.1875 H 4.890625 v 9.515625 z"
                   id="DejaVuSans-52" />
              </defs>
              <use
                 xlink:href="#DejaVuSans-52"
                 id="use69"
                 x="0"
                 y="0"
                 width="100%"
                 height="100%" />
              <use
                 x="63.623047"
                 xlink:href="#DejaVuSans-48"
                 id="use71"
                 y="0"
                 width="100%"
                 height="100%" />
              <use
                 x="127.24609"
                 xlink:href="#DejaVuSans-48"
                 id="use73"
                 y="0"
                 width="100%"
                 height="100%" />
            </g>
          </g>
        </g>
        <g
           id="xtick_4">
          <g
             id="line2d_7">
            <path
               clip-path="url(#pa131517c7b)"
               d="M 268.82044,307.584 V 41.472"
               style="fill:none;stroke:#b0b0b0;stroke-width:0.8;stroke-linecap:square"
               id="path79" />
          </g>
          <g
             id="line2d_8">
            <g
               id="g84">
              <use
                 style="stroke:#000000;stroke-width:0.8"
                 x="268.82043"
                 xlink:href="#m4f772a0946"
                 y="307.58401"
                 id="use82"
                 width="100%"
                 height="100%" />
            </g>
          </g>
          <g
             id="text_4">
            <!-- 600 -->
            <g
               transform="matrix(0.1,0,0,-0.1,259.27669,322.18244)"
               id="g96">
              <defs
                 id="defs88">
                <path
                   d="m 33.015625,40.375 q -6.640625,0 -10.53125,-4.546875 -3.875,-4.53125 -3.875,-12.4375 0,-7.859375 3.875,-12.4375 3.890625,-4.5625 10.53125,-4.5625 6.640625,0 10.515625,4.5625 3.875,4.578125 3.875,12.4375 0,7.90625 -3.875,12.4375 Q 39.65625,40.375 33.015625,40.375 Z M 52.59375,71.296875 V 62.3125 q -3.71875,1.75 -7.5,2.671875 -3.78125,0.9375 -7.5,0.9375 -9.765625,0 -14.921875,-6.59375 -5.140625,-6.59375 -5.875,-19.921875 2.875,4.25 7.21875,6.515625 4.359375,2.265625 9.578125,2.265625 10.984375,0 17.359375,-6.671875 6.375,-6.65625 6.375,-18.125 0,-11.234375 -6.640625,-18.03125 -6.640625,-6.78125 -17.671875,-6.78125 -12.65625,0 -19.34375,9.6875 -6.6875,9.703125 -6.6875,28.109375 0,17.28125 8.203125,27.5625 8.203125,10.28125 22.015625,10.28125 3.71875,0 7.5,-0.734375 3.78125,-0.734375 7.890625,-2.1875 z"
                   id="DejaVuSans-54" />
              </defs>
              <use
                 xlink:href="#DejaVuSans-54"
                 id="use90"
                 x="0"
                 y="0"
                 width="100%"
                 height="100%" />
              <use
                 x="63.623047"
                 xlink:href="#DejaVuSans-48"
                 id="use92"
                 y="0"
                 width="100%"
                 height="100%" />
              <use
                 x="127.24609"
                 xlink:href="#DejaVuSans-48"
                 id="use94"
                 y="0"
                 width="100%"
                 height="100%" />
            </g>
          </g>
        </g>
        <g
           id="xtick_5">
          <g
             id="line2d_9">
            <path
               clip-path="url(#pa131517c7b)"
               d="M 333.81635,307.584 V 41.472"
               style="fill:none;stroke:#b0b0b0;stroke-width:0.8;stroke-linecap:square"
               id="path100" />
          </g>
          <g
             id="line2d_10">
            <g
               id="g105">
              <use
                 style="stroke:#000000;stroke-width:0.8"
                 x="333.81635"
                 xlink:href="#m4f772a0946"
                 y="307.58401"
                 id="use103"
                 width="100%"
                 height="100%" />
            </g>
          </g>
          <g
             id="text_5">
            <!-- 800 -->
            <g
               transform="matrix(0.1,0,0,-0.1,324.2726,322.18244)"
               id="g117">
              <defs
                 id="defs109">
                <path
                   d="m 31.78125,34.625 q -7.03125,0 -11.0625,-3.765625 -4.015625,-3.765625 -4.015625,-10.34375 0,-6.59375 4.015625,-10.359375 4.03125,-3.765625 11.0625,-3.765625 7.03125,0 11.078125,3.78125 4.0625,3.796875 4.0625,10.34375 0,6.578125 -4.03125,10.34375 Q 38.875,34.625 31.78125,34.625 Z m -9.859375,4.1875 Q 15.578125,40.375 12.03125,44.71875 8.5,49.078125 8.5,55.328125 q 0,8.734375 6.21875,13.8125 6.234375,5.078125 17.0625,5.078125 10.890625,0 17.09375,-5.078125 6.203125,-5.078125 6.203125,-13.8125 0,-6.25 -3.546875,-10.609375 Q 48,40.375 41.703125,38.8125 q 7.125,-1.65625 11.09375,-6.5 3.984375,-4.828125 3.984375,-11.796875 0,-10.609375 -6.46875,-16.28125 -6.46875,-5.65625 -18.53125,-5.65625 -12.046875,0 -18.53125,5.65625 -6.46875,5.671875 -6.46875,16.28125 0,6.96875 4,11.796875 4.015625,4.84375 11.140625,6.5 z M 18.3125,54.390625 q 0,-5.65625 3.53125,-8.828125 3.546875,-3.171875 9.9375,-3.171875 6.359375,0 9.9375,3.171875 3.59375,3.171875 3.59375,8.828125 0,5.671875 -3.59375,8.84375 -3.578125,3.171875 -9.9375,3.171875 -6.390625,0 -9.9375,-3.171875 Q 18.3125,60.0625 18.3125,54.390625 Z"
                   id="DejaVuSans-56" />
              </defs>
              <use
                 xlink:href="#DejaVuSans-56"
                 id="use111"
                 x="0"
                 y="0"
                 width="100%"
                 height="100%" />
              <use
                 x="63.623047"
                 xlink:href="#DejaVuSans-48"
                 id="use113"
                 y="0"
                 width="100%"
                 height="100%" />
              <use
                 x="127.24609"
                 xlink:href="#DejaVuSans-48"
                 id="use115"
                 y="0"
                 width="100%"
                 height="100%" />
            </g>
          </g>
        </g>
        <g
           id="xtick_6">
          <g
             id="line2d_11">
            <path
               clip-path="url(#pa131517c7b)"
               d="M 398.81225,307.584 V 41.472"
               style="fill:none;stroke:#b0b0b0;stroke-width:0.8;stroke-linecap:square"
               id="path121" />
          </g>
          <g
             id="line2d_12">
            <g
               id="g126">
              <use
                 style="stroke:#000000;stroke-width:0.8"
                 x="398.81226"
                 xlink:href="#m4f772a0946"
                 y="307.58401"
                 id="use124"
                 width="100%"
                 height="100%" />
            </g>
          </g>
          <g
             id="text_6">
            <!-- 1000 -->
            <g
               transform="matrix(0.1,0,0,-0.1,386.08725,322.18244)"
               id="g140">
              <defs
                 id="defs130">
                <path
                   d="m 12.40625,8.296875 h 16.109375 v 55.625 L 10.984375,60.40625 v 8.984375 l 17.4375,3.515625 H 38.28125 V 8.296875 H 54.390625 V 0 H 12.40625 Z"
                   id="DejaVuSans-49" />
              </defs>
              <use
                 xlink:href="#DejaVuSans-49"
                 id="use132"
                 x="0"
                 y="0"
                 width="100%"
                 height="100%" />
              <use
                 x="63.623047"
                 xlink:href="#DejaVuSans-48"
                 id="use134"
                 y="0"
                 width="100%"
                 height="100%" />
              <use
                 x="127.24609"
                 xlink:href="#DejaVuSans-48"
                 id="use136"
                 y="0"
                 width="100%"
                 height="100%" />
              <use
                 x="190.86914"
                 xlink:href="#DejaVuSans-48"
                 id="use138"
                 y="0"
                 width="100%"
                 height="100%" />
            </g>
          </g>
        </g>
        <g
           id="text_7">
          <!-- $iteration$ -->
          <g
             transform="matrix(0.1,0,0,-0.1,215.01,335.86056)"
             id="g171">
            <defs
               id="defs151">
              <path
                 d="m 18.3125,75.984375 h 8.984375 L 25.09375,64.59375 H 16.109375 Z M 14.203125,54.6875 H 23.1875 L 12.5,0 H 3.515625 Z"
                 id="DejaVuSans-Oblique-105" />
              <path
                 d="M 42.28125,54.6875 40.921875,47.703125 H 23 l -5.8125,-29.6875 q -0.296875,-1.65625 -0.4375,-2.78125 -0.140625,-1.125 -0.140625,-1.75 0,-3.125 1.875,-4.546875 1.875,-1.421875 6.03125,-1.421875 H 33.59375 L 32.078125,0 h -8.59375 q -8,0 -11.9375,3.125 Q 7.625,6.25 7.625,12.59375 q 0,1.125 0.140625,2.46875 0.140625,1.34375 0.4375,2.953125 l 5.8125,29.6875 h -7.625 L 7.8125,54.6875 h 7.46875 l 3.03125,15.53125 h 8.984375 L 24.3125,54.6875 Z"
                 id="DejaVuSans-Oblique-116" />
              <path
                 d="m 48.09375,32.234375 q 0.15625,0.78125 0.21875,1.609375 0.07813,0.828125 0.07813,1.65625 0,5.953125 -3.5,9.421875 -3.484375,3.46875 -9.484375,3.46875 -6.6875,0 -11.828125,-4.234375 -5.125,-4.21875 -7.75,-11.984375 z m 7.8125,-7.03125 H 14.109375 Q 13.8125,23.34375 13.71875,22.265625 13.625,21.1875 13.625,20.40625 q 0,-6.78125 4.171875,-10.5 4.171875,-3.703125 11.796875,-3.703125 5.859375,0 11.078125,1.3125 5.234375,1.328125 9.71875,3.859375 L 48.6875,2.484375 q -4.84375,-1.953125 -10,-2.921875 -5.140625,-0.984375 -10.46875,-0.984375 -11.375,0 -17.5,5.4375 -6.125,5.453125 -6.125,15.46875 0,8.546875 3.046875,15.890625 3.046875,7.34375 8.96875,13.109375 3.796875,3.609375 9.046875,5.5625 Q 30.90625,56 36.8125,56 q 9.28125,0 14.765625,-5.5625 5.5,-5.5625 5.5,-14.9375 0,-2.25 -0.296875,-4.8125 Q 56.5,28.125 55.90625,25.203125 Z"
                 id="DejaVuSans-Oblique-101" />
              <path
                 d="m 44.578125,46.390625 q -1.359375,0.734375 -3.125,1.125 -1.75,0.390625 -3.75,0.390625 -7.1875,0 -12.5625,-5.453125 -5.359375,-5.4375 -7.125,-14.578125 L 12.5,0 H 3.515625 l 10.6875,54.6875 H 23.1875 l -1.703125,-8.5 Q 25.046875,50.921875 30,53.453125 34.96875,56 40.578125,56 q 1.46875,0 2.875,-0.171875 1.421875,-0.15625 2.84375,-0.546875 z"
                 id="DejaVuSans-Oblique-114" />
              <path
                 d="M 53.71875,31.203125 47.609375,0 H 38.625 l 1.65625,8.296875 Q 36.328125,3.421875 31.265625,1 26.21875,-1.421875 20.015625,-1.421875 13.03125,-1.421875 8.5625,2.84375 4.109375,7.125 4.109375,13.8125 q 0,9.578125 7.640625,15.140625 7.640625,5.5625 21.0625,5.5625 h 12.5 l 0.484375,2.40625 q 0.109375,0.390625 0.15625,0.84375 Q 46,38.234375 46,39.203125 q 0,4.359375 -3.546875,6.765625 -3.53125,2.421875 -9.9375,2.421875 -4.390625,0 -9.015625,-1.125 -4.609375,-1.125 -9.484375,-3.375 l 1.5625,8.3125 q 5.078125,1.90625 9.9375,2.84375 Q 30.375,56 34.90625,56 q 9.671875,0 14.71875,-4.203125 5.0625,-4.1875 5.0625,-12.203125 0,-1.609375 -0.25,-3.78125 -0.234375,-2.171875 -0.71875,-4.609375 z M 44,27.484375 h -8.984375 q -11.046875,0 -16.34375,-2.953125 Q 13.375,21.578125 13.375,15.375 q 0,-4.296875 2.703125,-6.734375 2.71875,-2.4375 7.5,-2.4375 7.328125,0 12.796875,5.25 5.46875,5.25 7.234375,14.03125 z"
                 id="DejaVuSans-Oblique-97" />
              <path
                 d="m 25.390625,-1.421875 q -9.625,0 -15.21875,5.9375 -5.578125,5.9375 -5.578125,16.1875 0,5.953125 1.921875,12.125 1.9375,6.1875 5.015625,10.390625 Q 16.359375,49.75 22.3125,52.875 28.265625,56 35.796875,56 q 9.328125,0 15.0625,-5.8125 5.734375,-5.796875 5.734375,-15.171875 0,-6.5 -1.90625,-12.953125 Q 52.78125,15.625 49.703125,11.375 44.921875,4.828125 38.96875,1.703125 q -5.953125,-3.125 -13.578125,-3.125 z M 13.921875,21 q 0,-7.421875 3.09375,-11.109375 3.109375,-3.6875 9.40625,-3.6875 9.03125,0 14.953125,7.875 5.9375,7.890625 5.9375,20 0,7.078125 -3.171875,10.6875 -3.171875,3.625 -9.328125,3.625 -5.078125,0 -9.03125,-2.375 Q 21.828125,43.65625 18.703125,38.8125 16.40625,35.203125 15.15625,30.5625 13.921875,25.921875 13.921875,21 Z"
                 id="DejaVuSans-Oblique-111" />
              <path
                 d="M 55.71875,33.015625 49.3125,0 h -9.03125 l 6.40625,32.671875 q 0.4375,2.296875 0.671875,4.046875 0.25,1.765625 0.25,2.78125 0,4.109375 -2.59375,6.390625 Q 42.4375,48.1875 37.796875,48.1875 30.5625,48.1875 25.34375,43.375 20.125,38.578125 18.5,30.328125 L 12.5,0 H 3.515625 l 10.59375,54.6875 h 8.984375 l -1.796875,-8.59375 q 3.75,4.734375 9.015625,7.3125 Q 35.59375,56 41.40625,56 q 7.234375,0 11.203125,-3.90625 3.984375,-3.90625 3.984375,-10.984375 0,-1.75 -0.21875,-3.75 -0.21875,-2 -0.65625,-4.34375 z"
                 id="DejaVuSans-Oblique-110" />
            </defs>
            <use
               transform="translate(0,0.015625)"
               xlink:href="#DejaVuSans-Oblique-105"
               id="use153"
               x="0"
               y="0"
               width="100%"
               height="100%" />
            <use
               transform="translate(27.783203,0.015625)"
               xlink:href="#DejaVuSans-Oblique-116"
               id="use155"
               x="0"
               y="0"
               width="100%"
               height="100%" />
            <use
               transform="translate(66.992188,0.015625)"
               xlink:href="#DejaVuSans-Oblique-101"
               id="use157"
               x="0"
               y="0"
               width="100%"
               height="100%" />
            <use
               transform="translate(128.51562,0.015625)"
               xlink:href="#DejaVuSans-Oblique-114"
               id="use159"
               x="0"
               y="0"
               width="100%"
               height="100%" />
            <use
               transform="translate(169.62891,0.015625)"
               xlink:href="#DejaVuSans-Oblique-97"
               id="use161"
               x="0"
               y="0"
               width="100%"
               height="100%" />
            <use
               transform="translate(230.9082,0.015625)"
               xlink:href="#DejaVuSans-Oblique-116"
               id="use163"
               x="0"
               y="0"
               width="100%"
               height="100%" />
            <use
               transform="translate(270.11719,0.015625)"
               xlink:href="#DejaVuSans-Oblique-105"
               id="use165"
               x="0"
               y="0"
               width="100%"
               height="100%" />
            <use
               transform="translate(297.90039,0.015625)"
               xlink:href="#DejaVuSans-Oblique-111"
               id="use167"
               x="0"
               y="0"
               width="100%"
               height="100%" />
            <use
               transform="translate(359.08203,0.015625)"
               xlink:href="#DejaVuSans-Oblique-110"
               id="use169"
               x="0"
               y="0"
               width="100%"
               height="100%" />
          </g>
        </g>
      </g>
      <g
         id="matplotlib.axis_2">
        <g
           id="ytick_1">
          <g
             id="line2d_13">
            <path
               clip-path="url(#pa131517c7b)"
               d="M 57.6,295.48882 H 414.72"
               style="fill:none;stroke:#b0b0b0;stroke-width:0.8;stroke-linecap:square"
               id="path175" />
          </g>
          <g
             id="line2d_14">
            <defs
               id="defs179">
              <path
                 d="M 0,0 H -3.5"
                 id="m4437eb974f"
                 style="stroke:#000000;stroke-width:0.8" />
            </defs>
            <g
               id="g183">
              <use
                 style="stroke:#000000;stroke-width:0.8"
                 x="57.599998"
                 xlink:href="#m4437eb974f"
                 y="295.48883"
                 id="use181"
                 width="100%"
                 height="100%" />
            </g>
          </g>
          <g
             id="text_8">
            <!-- 4.00 -->
            <g
               transform="matrix(0.1,0,0,-0.1,19.954687,299.28803)"
               id="g200">
              <defs
                 id="defs188">
                <path
                   d="M 10.59375,35.5 H 73.1875 V 27.203125 H 10.59375 Z"
                   id="DejaVuSans-8722" />
                <path
                   d="M 10.6875,12.40625 H 21 V 0 H 10.6875 Z"
                   id="DejaVuSans-46" />
              </defs>
              <use
                 xlink:href="#DejaVuSans-8722"
                 id="use190"
                 x="0"
                 y="0"
                 width="100%"
                 height="100%" />
              <use
                 x="83.789062"
                 xlink:href="#DejaVuSans-52"
                 id="use192"
                 y="0"
                 width="100%"
                 height="100%" />
              <use
                 x="147.41211"
                 xlink:href="#DejaVuSans-46"
                 id="use194"
                 y="0"
                 width="100%"
                 height="100%" />
              <use
                 x="179.19922"
                 xlink:href="#DejaVuSans-48"
                 id="use196"
                 y="0"
                 width="100%"
                 height="100%" />
              <use
                 x="242.82227"
                 xlink:href="#DejaVuSans-48"
                 id="use198"
                 y="0"
                 width="100%"
                 height="100%" />
            </g>
          </g>
        </g>
        <g
           id="ytick_2">
          <g
             id="line2d_15">
            <path
               clip-path="url(#pa131517c7b)"
               d="M 57.6,262.2057 H 414.72"
               style="fill:none;stroke:#b0b0b0;stroke-width:0.8;stroke-linecap:square"
               id="path204" />
          </g>
          <g
             id="line2d_16">
            <g
               id="g209">
              <use
                 style="stroke:#000000;stroke-width:0.8"
                 x="57.599998"
                 xlink:href="#m4437eb974f"
                 y="262.20569"
                 id="use207"
                 width="100%"
                 height="100%" />
            </g>
          </g>
          <g
             id="text_9">
            <!-- 3.75 -->
            <g
               transform="matrix(0.1,0,0,-0.1,19.954687,266.00492)"
               id="g227">
              <defs
                 id="defs215">
                <path
                   d="M 40.578125,39.3125 Q 47.65625,37.796875 51.625,33 q 3.984375,-4.78125 3.984375,-11.8125 0,-10.78125 -7.421875,-16.703125 -7.421875,-5.90625 -21.09375,-5.90625 -4.578125,0 -9.4375,0.90625 -4.859375,0.90625 -10.03125,2.71875 v 9.515625 q 4.09375,-2.390625 8.96875,-3.609375 4.890625,-1.21875 10.21875,-1.21875 9.265625,0 14.125,3.65625 4.859375,3.65625 4.859375,10.640625 0,6.453125 -4.515625,10.078125 -4.515625,3.640625 -12.5625,3.640625 h -8.5 v 8.109375 h 8.890625 q 7.265625,0 11.125,2.90625 3.859375,2.90625 3.859375,8.375 0,5.609375 -3.984375,8.609375 -3.96875,3.015625 -11.390625,3.015625 -4.0625,0 -8.703125,-0.890625 Q 15.375,64.15625 9.8125,62.3125 v 8.78125 q 5.625,1.5625 10.53125,2.34375 4.90625,0.78125 9.25,0.78125 11.234375,0 17.765625,-5.109375 6.546875,-5.09375 6.546875,-13.78125 0,-6.0625 -3.46875,-10.234375 -3.46875,-4.171875 -9.859375,-5.78125 z"
                   id="DejaVuSans-51" />
                <path
                   d="m 8.203125,72.90625 h 46.875 V 68.703125 L 28.609375,0 H 18.3125 L 43.21875,64.59375 H 8.203125 Z"
                   id="DejaVuSans-55" />
                <path
                   d="m 10.796875,72.90625 h 38.71875 v -8.3125 h -29.6875 V 46.734375 q 2.140625,0.734375 4.28125,1.09375 2.15625,0.359375 4.3125,0.359375 Q 40.625,48.1875 47.75,41.5 54.890625,34.8125 54.890625,23.390625 54.890625,11.625 47.5625,5.09375 40.234375,-1.421875 26.90625,-1.421875 q -4.59375,0 -9.359375,0.78125 -4.75,0.78125 -9.828125,2.34375 V 11.625 q 4.390625,-2.390625 9.078125,-3.5625 4.6875,-1.171875 9.90625,-1.171875 8.453125,0 13.375,4.4375 4.9375,4.4375 4.9375,12.0625 0,7.609375 -4.9375,12.046875 -4.921875,4.453125 -13.375,4.453125 -3.953125,0 -7.890625,-0.875 -3.921875,-0.875 -8.015625,-2.734375 z"
                   id="DejaVuSans-53" />
              </defs>
              <use
                 xlink:href="#DejaVuSans-8722"
                 id="use217"
                 x="0"
                 y="0"
                 width="100%"
                 height="100%" />
              <use
                 x="83.789062"
                 xlink:href="#DejaVuSans-51"
                 id="use219"
                 y="0"
                 width="100%"
                 height="100%" />
              <use
                 x="147.41211"
                 xlink:href="#DejaVuSans-46"
                 id="use221"
                 y="0"
                 width="100%"
                 height="100%" />
              <use
                 x="179.19922"
                 xlink:href="#DejaVuSans-55"
                 id="use223"
                 y="0"
                 width="100%"
                 height="100%" />
              <use
                 x="242.82227"
                 xlink:href="#DejaVuSans-53"
                 id="use225"
                 y="0"
                 width="100%"
                 height="100%" />
            </g>
          </g>
        </g>
        <g
           id="ytick_3">
          <g
             id="line2d_17">
            <path
               clip-path="url(#pa131517c7b)"
               d="M 57.6,228.92259 H 414.72"
               style="fill:none;stroke:#b0b0b0;stroke-width:0.8;stroke-linecap:square"
               id="path231" />
          </g>
          <g
             id="line2d_18">
            <g
               id="g236">
              <use
                 style="stroke:#000000;stroke-width:0.8"
                 x="57.599998"
                 xlink:href="#m4437eb974f"
                 y="228.92259"
                 id="use234"
                 width="100%"
                 height="100%" />
            </g>
          </g>
          <g
             id="text_10">
            <!-- 3.50 -->
            <g
               transform="matrix(0.1,0,0,-0.1,19.954687,232.7218)"
               id="g249">
              <use
                 xlink:href="#DejaVuSans-8722"
                 id="use239"
                 x="0"
                 y="0"
                 width="100%"
                 height="100%" />
              <use
                 x="83.789062"
                 xlink:href="#DejaVuSans-51"
                 id="use241"
                 y="0"
                 width="100%"
                 height="100%" />
              <use
                 x="147.41211"
                 xlink:href="#DejaVuSans-46"
                 id="use243"
                 y="0"
                 width="100%"
                 height="100%" />
              <use
                 x="179.19922"
                 xlink:href="#DejaVuSans-53"
                 id="use245"
                 y="0"
                 width="100%"
                 height="100%" />
              <use
                 x="242.82227"
                 xlink:href="#DejaVuSans-48"
                 id="use247"
                 y="0"
                 width="100%"
                 height="100%" />
            </g>
          </g>
        </g>
        <g
           id="ytick_4">
          <g
             id="line2d_19">
            <path
               clip-path="url(#pa131517c7b)"
               d="M 57.6,195.63947 H 414.72"
               style="fill:none;stroke:#b0b0b0;stroke-width:0.8;stroke-linecap:square"
               id="path253" />
          </g>
          <g
             id="line2d_20">
            <g
               id="g258">
              <use
                 style="stroke:#000000;stroke-width:0.8"
                 x="57.599998"
                 xlink:href="#m4437eb974f"
                 y="195.63947"
                 id="use256"
                 width="100%"
                 height="100%" />
            </g>
          </g>
          <g
             id="text_11">
            <!-- 3.25 -->
            <g
               transform="matrix(0.1,0,0,-0.1,19.954687,199.43869)"
               id="g271">
              <use
                 xlink:href="#DejaVuSans-8722"
                 id="use261"
                 x="0"
                 y="0"
                 width="100%"
                 height="100%" />
              <use
                 x="83.789062"
                 xlink:href="#DejaVuSans-51"
                 id="use263"
                 y="0"
                 width="100%"
                 height="100%" />
              <use
                 x="147.41211"
                 xlink:href="#DejaVuSans-46"
                 id="use265"
                 y="0"
                 width="100%"
                 height="100%" />
              <use
                 x="179.19922"
                 xlink:href="#DejaVuSans-50"
                 id="use267"
                 y="0"
                 width="100%"
                 height="100%" />
              <use
                 x="242.82227"
                 xlink:href="#DejaVuSans-53"
                 id="use269"
                 y="0"
                 width="100%"
                 height="100%" />
            </g>
          </g>
        </g>
        <g
           id="ytick_5">
          <g
             id="line2d_21">
            <path
               clip-path="url(#pa131517c7b)"
               d="M 57.6,162.35636 H 414.72"
               style="fill:none;stroke:#b0b0b0;stroke-width:0.8;stroke-linecap:square"
               id="path275" />
          </g>
          <g
             id="line2d_22">
            <g
               id="g280">
              <use
                 style="stroke:#000000;stroke-width:0.8"
                 x="57.599998"
                 xlink:href="#m4437eb974f"
                 y="162.35635"
                 id="use278"
                 width="100%"
                 height="100%" />
            </g>
          </g>
          <g
             id="text_12">
            <!-- 3.00 -->
            <g
               transform="matrix(0.1,0,0,-0.1,19.954687,166.15557)"
               id="g293">
              <use
                 xlink:href="#DejaVuSans-8722"
                 id="use283"
                 x="0"
                 y="0"
                 width="100%"
                 height="100%" />
              <use
                 x="83.789062"
                 xlink:href="#DejaVuSans-51"
                 id="use285"
                 y="0"
                 width="100%"
                 height="100%" />
              <use
                 x="147.41211"
                 xlink:href="#DejaVuSans-46"
                 id="use287"
                 y="0"
                 width="100%"
                 height="100%" />
              <use
                 x="179.19922"
                 xlink:href="#DejaVuSans-48"
                 id="use289"
                 y="0"
                 width="100%"
                 height="100%" />
              <use
                 x="242.82227"
                 xlink:href="#DejaVuSans-48"
                 id="use291"
                 y="0"
                 width="100%"
                 height="100%" />
            </g>
          </g>
        </g>
        <g
           id="ytick_6">
          <g
             id="line2d_23">
            <path
               clip-path="url(#pa131517c7b)"
               d="M 57.6,129.07324 H 414.72"
               style="fill:none;stroke:#b0b0b0;stroke-width:0.8;stroke-linecap:square"
               id="path297" />
          </g>
          <g
             id="line2d_24">
            <g
               id="g302">
              <use
                 style="stroke:#000000;stroke-width:0.8"
                 x="57.599998"
                 xlink:href="#m4437eb974f"
                 y="129.07324"
                 id="use300"
                 width="100%"
                 height="100%" />
            </g>
          </g>
          <g
             id="text_13">
            <!-- 2.75 -->
            <g
               transform="matrix(0.1,0,0,-0.1,19.954687,132.87246)"
               id="g315">
              <use
                 xlink:href="#DejaVuSans-8722"
                 id="use305"
                 x="0"
                 y="0"
                 width="100%"
                 height="100%" />
              <use
                 x="83.789062"
                 xlink:href="#DejaVuSans-50"
                 id="use307"
                 y="0"
                 width="100%"
                 height="100%" />
              <use
                 x="147.41211"
                 xlink:href="#DejaVuSans-46"
                 id="use309"
                 y="0"
                 width="100%"
                 height="100%" />
              <use
                 x="179.19922"
                 xlink:href="#DejaVuSans-55"
                 id="use311"
                 y="0"
                 width="100%"
                 height="100%" />
              <use
                 x="242.82227"
                 xlink:href="#DejaVuSans-53"
                 id="use313"
                 y="0"
                 width="100%"
                 height="100%" />
            </g>
          </g>
        </g>
        <g
           id="ytick_7">
          <g
             id="line2d_25">
            <path
               clip-path="url(#pa131517c7b)"
               d="M 57.6,95.790126 H 414.72"
               style="fill:none;stroke:#b0b0b0;stroke-width:0.8;stroke-linecap:square"
               id="path319" />
          </g>
          <g
             id="line2d_26">
            <g
               id="g324">
              <use
                 style="stroke:#000000;stroke-width:0.8"
                 x="57.599998"
                 xlink:href="#m4437eb974f"
                 y="95.790123"
                 id="use322"
                 width="100%"
                 height="100%" />
            </g>
          </g>
          <g
             id="text_14">
            <!-- 2.50 -->
            <g
               transform="matrix(0.1,0,0,-0.1,19.954687,99.589345)"
               id="g337">
              <use
                 xlink:href="#DejaVuSans-8722"
                 id="use327"
                 x="0"
                 y="0"
                 width="100%"
                 height="100%" />
              <use
                 x="83.789062"
                 xlink:href="#DejaVuSans-50"
                 id="use329"
                 y="0"
                 width="100%"
                 height="100%" />
              <use
                 x="147.41211"
                 xlink:href="#DejaVuSans-46"
                 id="use331"
                 y="0"
                 width="100%"
                 height="100%" />
              <use
                 x="179.19922"
                 xlink:href="#DejaVuSans-53"
                 id="use333"
                 y="0"
                 width="100%"
                 height="100%" />
              <use
                 x="242.82227"
                 xlink:href="#DejaVuSans-48"
                 id="use335"
                 y="0"
                 width="100%"
                 height="100%" />
            </g>
          </g>
        </g>
        <g
           id="ytick_8">
          <g
             id="line2d_27">
            <path
               clip-path="url(#pa131517c7b)"
               d="M 57.6,62.507011 H 414.72"
               style="fill:none;stroke:#b0b0b0;stroke-width:0.8;stroke-linecap:square"
               id="path341" />
          </g>
          <g
             id="line2d_28">
            <g
               id="g346">
              <use
                 style="stroke:#000000;stroke-width:0.8"
                 x="57.599998"
                 xlink:href="#m4437eb974f"
                 y="62.507011"
                 id="use344"
                 width="100%"
                 height="100%" />
            </g>
          </g>
          <g
             id="text_15">
            <!-- 2.25 -->
            <g
               transform="matrix(0.1,0,0,-0.1,19.954687,66.30623)"
               id="g359">
              <use
                 xlink:href="#DejaVuSans-8722"
                 id="use349"
                 x="0"
                 y="0"
                 width="100%"
                 height="100%" />
              <use
                 x="83.789062"
                 xlink:href="#DejaVuSans-50"
                 id="use351"
                 y="0"
                 width="100%"
                 height="100%" />
              <use
                 x="147.41211"
                 xlink:href="#DejaVuSans-46"
                 id="use353"
                 y="0"
                 width="100%"
                 height="100%" />
              <use
                 x="179.19922"
                 xlink:href="#DejaVuSans-50"
                 id="use355"
                 y="0"
                 width="100%"
                 height="100%" />
              <use
                 x="242.82227"
                 xlink:href="#DejaVuSans-53"
                 id="use357"
                 y="0"
                 width="100%"
                 height="100%" />
            </g>
          </g>
        </g>
        <g
           id="text_16">
          <!-- $\langle H_{\mathrm{MC}} \rangle$ -->
          <g
             transform="matrix(0,-0.1,-0.1,0,13.875,187.828)"
             id="g380">
            <defs
               id="defs368">
              <path
                 d="M 8.9375,31.34375 22.703125,75.875 H 31 L 17.234375,31.34375 31,-13.1875 h -8.296875 z"
                 id="DejaVuSans-10216" />
              <path
                 d="M 16.890625,72.90625 H 26.8125 L 21,43.015625 h 35.78125 l 5.8125,29.890625 h 9.921875 L 58.296875,0 h -9.90625 l 6.78125,34.71875 H 19.390625 L 12.59375,0 H 2.6875 Z"
                 id="DejaVuSans-Oblique-72" />
              <path
                 d="M 9.8125,72.90625 H 24.515625 L 43.109375,23.296875 61.8125,72.90625 H 76.515625 V 0 h -9.625 v 64.015625 l -18.796875,-50 H 38.1875 l -18.796875,50 V 0 H 9.8125 Z"
                 id="DejaVuSans-77" />
              <path
                 d="M 64.40625,67.28125 V 56.890625 q -4.984375,4.640625 -10.625,6.921875 -5.640625,2.296875 -11.984375,2.296875 -12.5,0 -19.140625,-7.640625 -6.640625,-7.640625 -6.640625,-22.09375 0,-14.40625 6.640625,-22.046875 Q 29.296875,6.6875 41.796875,6.6875 q 6.34375,0 11.984375,2.296875 5.640625,2.296875 10.625,6.9375 V 5.609375 Q 59.234375,2.09375 53.4375,0.328125 q -5.78125,-1.75 -12.21875,-1.75 -16.5625,0 -26.09375,10.125 Q 5.609375,18.84375 5.609375,36.375 q 0,17.578125 9.515625,27.703125 9.53125,10.140625 26.09375,10.140625 6.53125,0 12.3125,-1.734375 5.796875,-1.734375 10.875,-5.203125 z"
                 id="DejaVuSans-67" />
              <path
                 d="M 30.078125,31.34375 16.3125,-13.1875 H 8.015625 L 21.78125,31.34375 8.015625,75.875 H 16.3125 Z"
                 id="DejaVuSans-10217" />
            </defs>
            <use
               transform="translate(0,0.125)"
               xlink:href="#DejaVuSans-10216"
               id="use370"
               x="0"
               y="0"
               width="100%"
               height="100%" />
            <use
               transform="translate(39.013672,0.125)"
               xlink:href="#DejaVuSans-Oblique-72"
               id="use372"
               x="0"
               y="0"
               width="100%"
               height="100%" />
            <use
               transform="matrix(0.7,0,0,0.7,114.20898,-16.28125)"
               xlink:href="#DejaVuSans-77"
               id="use374"
               x="0"
               y="0"
               width="100%"
               height="100%" />
            <use
               transform="matrix(0.7,0,0,0.7,174.60449,-16.28125)"
               xlink:href="#DejaVuSans-67"
               id="use376"
               x="0"
               y="0"
               width="100%"
               height="100%" />
            <use
               transform="translate(226.21582,0.125)"
               xlink:href="#DejaVuSans-10217"
               id="use378"
               x="0"
               y="0"
               width="100%"
               height="100%" />
          </g>
        </g>
      </g>
      <g
         id="line2d_29">
        <path
           clip-path="url(#pa131517c7b)"
           d="m 73.832727,120.74388 0.32498,4.15695 0.649959,-54.426922 0.324979,48.358072 0.32498,-20.190292 0.324979,57.759502 0.32498,-102.83319 0.324979,38.144726 0.32498,57.271924 0.32498,5.19442 0.324979,71.03336 0.32498,0.12607 0.324979,11.29627 0.32498,-47.84006 0.324979,35.20493 0.32498,-64.1789 0.324979,56.05381 0.32498,18.4501 0.324979,31.50091 0.32498,-28.82156 0.324979,13.54689 0.32498,-79.20752 0.324979,21.40998 0.32498,49.28462 0.324979,-49.96102 0.32498,69.69682 0.324979,-27.65411 0.32498,26.30307 0.324979,-45.52047 0.32498,19.34813 0.649959,21.0517 0.32498,-49.35576 0.324979,45.37933 0.32498,-20.8443 0.324979,-2.93242 0.32498,44.04508 0.324979,6.18115 0.32498,-21.45555 0.324979,21.23027 0.32498,-13.69725 0.649959,2.86019 0.324979,-14.28122 0.649959,26.07542 0.32498,-4.81256 0.324979,3.86411 0.32498,-6.57638 0.32498,8.04749 0.324979,-10.01199 0.32498,0.15413 0.324979,9.15357 0.32498,-5.29083 0.324979,17.75492 0.32498,-0.28149 0.324979,-6.65171 0.32498,7.66378 0.324979,-9.62691 0.32498,6.76263 0.324979,-1.45238 0.974939,4.69016 0.324979,-0.78702 0.32498,-0.43017 0.324979,1.06337 0.32498,-10.71688 0.324979,9.79165 0.32498,-3.74807 0.32498,4.2086 0.324979,0.0361 0.32498,0.8161 0.324979,-3.84201 0.32498,3.39682 0.324979,-4.66675 0.32498,6.28719 0.324979,-3.10589 0.32498,3.4736 0.324979,-4.04184 0.324981,3.86978 0.32498,-1.29817 0.32498,0.60101 0.32498,-2.51717 0.32498,1.9069 0.32498,-0.028 0.32498,1.32562 0.32498,-0.15744 0.32498,-1.58812 0.32497,1.85021 0.32498,-0.23817 0.32498,0.10508 0.32498,-2.84688 0.32498,3.00023 0.32498,0.10348 0.32498,-0.28525 0.32498,-1.75149 0.32498,1.85674 0.32498,-1.62643 0.32498,1.89132 0.32498,-0.11609 0.32498,-0.32039 0.32498,-0.49237 0.32498,0.67373 0.32498,-0.48981 0.32498,1.02393 0.64996,-0.22248 0.32497,-0.97716 0.32499,1.02239 0.32498,-1.04701 0.32497,0.67489 0.32498,-0.50261 0.32498,1.00759 0.32498,0.047 0.32498,-0.28716 0.32498,0.28451 0.32498,-0.48043 0.32498,0.41309 0.32498,-0.0697 0.32498,0.13857 0.64996,-0.19311 0.64996,0.2248 0.32498,-0.41543 0.64996,0.79482 1.62489,-0.23948 0.32498,0.28257 0.32498,0.0553 0.32498,-0.1348 0.32498,0.0128 0.32498,-0.26873 0.32498,0.47041 0.32498,-0.1472 0.32498,0.29332 0.32498,-0.19543 0.64996,0.23895 0.32498,-0.17943 2.27485,0.10971 0.32499,-0.11167 0.32497,0.18052 0.97494,0.0148 0.32498,-0.0811 0.64996,0.0548 0.32498,-0.24142 0.32498,0.1932 0.32498,-0.14217 0.32498,0.24159 0.97494,-0.12136 0.32498,0.16618 0.32498,-0.0239 0.32498,0.11365 0.97493,-0.075 0.32498,0.1348 2.27486,-0.0367 0.32498,-0.17296 0.32498,0.20162 1.29992,-0.025 0.97494,0.0359 0.32498,-0.0551 0.97493,0.12255 9.74939,0.0484 1.94988,0.0283 1.6249,0.008 201.16232,0.23759 47.12203,0.002 v 0"
           style="fill:none;stroke:#1f77b4;stroke-width:1.5;stroke-linecap:square"
           id="path384" />
      </g>
      <g
         id="line2d_30">
        <path
           clip-path="url(#pa131517c7b)"
           d="M 57.6,295.48882 H 414.72"
           style="fill:none;stroke:#ff7f0e;stroke-width:1.5;stroke-linecap:square"
           id="path387" />
      </g>
      <g
         id="patch_3">
        <path
           d="M 57.6,307.584 V 41.472"
           style="fill:none;stroke:#000000;stroke-width:0.8;stroke-linecap:square;stroke-linejoin:miter"
           id="path390" />
      </g>
      <g
         id="patch_4">
        <path
           d="M 414.72,307.584 V 41.472"
           style="fill:none;stroke:#000000;stroke-width:0.8;stroke-linecap:square;stroke-linejoin:miter"
           id="path393" />
      </g>
      <g
         id="patch_5">
        <path
           d="M 57.6,307.584 H 414.72"
           style="fill:none;stroke:#000000;stroke-width:0.8;stroke-linecap:square;stroke-linejoin:miter"
           id="path396" />
      </g>
      <g
         id="patch_6">
        <path
           d="M 57.6,41.472 H 414.72"
           style="fill:none;stroke:#000000;stroke-width:0.8;stroke-linecap:square;stroke-linejoin:miter"
           id="path399" />
      </g>
    </g>
  </g>
  <defs
     id="defs407">
    <clipPath
       id="pa131517c7b">
      <rect
         height="266.112"
         width="357.12"
         x="57.599998"
         y="41.472"
         id="rect404" />
    </clipPath>
  </defs>
</svg>
