<?xml version="1.0" encoding="UTF-8" standalone="no"?>
<svg
   xmlns:dc="http://purl.org/dc/elements/1.1/"
   xmlns:cc="http://creativecommons.org/ns#"
   xmlns:rdf="http://www.w3.org/1999/02/22-rdf-syntax-ns#"
   xmlns:svg="http://www.w3.org/2000/svg"
   xmlns="http://www.w3.org/2000/svg"
   xmlns:xlink="http://www.w3.org/1999/xlink"
   xmlns:sodipodi="http://sodipodi.sourceforge.net/DTD/sodipodi-0.dtd"
   xmlns:inkscape="http://www.inkscape.org/namespaces/inkscape"
   height="294.9292pt"
   version="1.1"
   viewBox="0 0 402.48249 294.92919"
   width="402.48248pt"
   id="svg371"
   sodipodi:docname="convergence_max_cut_qaoa_ideal.svg"
   inkscape:version="1.0.1 (3bc2e813f5, 2020-09-07)">
  <sodipodi:namedview
     pagecolor="#ffffff"
     bordercolor="#666666"
     borderopacity="1"
     objecttolerance="10"
     gridtolerance="10"
     guidetolerance="10"
     inkscape:pageopacity="0"
     inkscape:pageshadow="2"
     inkscape:window-width="1920"
     inkscape:window-height="1042"
     id="namedview373"
     showgrid="false"
     inkscape:zoom="1.7013889"
     inkscape:cx="146.64387"
     inkscape:cy="175.63733"
     inkscape:window-x="0"
     inkscape:window-y="18"
     inkscape:window-maximized="0"
     inkscape:current-layer="legend_1"
     inkscape:document-rotation="0" />
  <metadata
     id="metadata2">
    <rdf:RDF>
      <cc:Work>
        <dc:type
           rdf:resource="http://purl.org/dc/dcmitype/StillImage" />
        <dc:date>2021-01-08T18:00:37.464398</dc:date>
        <dc:format>image/svg+xml</dc:format>
        <dc:creator>
          <cc:Agent>
            <dc:title>Matplotlib v3.3.3, https://matplotlib.org/</dc:title>
          </cc:Agent>
        </dc:creator>
      </cc:Work>
    </rdf:RDF>
  </metadata>
  <defs
     id="defs6">
    <style
       type="text/css"
       id="style4">*{stroke-linecap:butt;stroke-linejoin:round;}</style>
  </defs>
  <g
     id="figure_1"
     transform="translate(-12.6375,-41.072)">
    <g
       id="patch_1" />
    <g
       id="axes_1">
      <g
         id="patch_2" />
      <g
         id="PolyCollection_1">
        <path
           clip-path="url(#pf65174b20a)"
           d="m 73.832727,180.42189 v 0 l 0.497937,-61.26319 0.497936,69.80643 0.497937,-82.63052 0.497936,70.03989 0.497936,-33.81992 0.497937,34.84626 0.497936,-30.91554 0.497937,2.95324 0.497936,52.20429 0.497936,-18.39681 0.497937,-83.327417 0.497936,150.169347 0.497937,-140.7243 0.497936,140.40907 0.497937,-145.60306 0.497936,91.70406 0.497936,-139.143349 0.497937,153.140259 0.497936,23.81257 0.497937,-29.38853 0.497936,14.50119 0.497936,-8.25482 0.497937,40.38499 0.497936,-59.78951 0.497937,64.72703 0.497936,-4.54013 0.497937,11.84548 0.497936,-68.04793 0.497936,28.03074 0.497937,-169.58371 0.497936,166.6023 0.497937,-6.88733 0.497936,11.367 0.497937,-86.90669 0.497936,129.34387 0.497936,-77.97219 0.497937,74.07335 0.497936,-78.31994 0.497937,67.54809 0.497936,5.89007 0.497936,6.80856 0.497937,-1.49864 0.497936,-39.00083 0.497937,41.1872 0.497936,-9.22241 0.497937,2.79551 0.497936,-53.15515 0.497936,51.42055 0.497937,10.13191 0.497936,-8.62271 0.497937,0.48703 0.497936,-8.85918 0.497939,16.05604 0.49793,-4.97949 0.49794,0.11981 0.49794,7.85545 0.49793,-2.16077 0.49794,6.19226 0.49794,0.22075 0.49793,-0.6262 0.49794,-0.73051 0.49794,-0.68171 0.49793,-0.5626 0.49794,4.94774 0.49793,-0.9766 0.49794,-0.18437 0.49794,3.22785 0.49793,-1.89492 0.49794,8.05463 0.49794,-0.78253 0.49793,0.10381 0.49794,1.0892 0.49794,0.35796 0.49793,-0.25196 0.49794,0.086 0.49793,-3.72387 0.49794,4.27066 0.49794,-0.78296 0.49793,0.84208 0.49794,-0.16192 0.49794,-0.31221 0.49793,-2.5466 0.49794,2.51743 0.49794,-1.02 0.49793,1.14192 0.49794,-0.3595 0.49794,-0.006 0.49793,-0.30481 0.49794,0.912 0.49793,-0.39605 0.49794,0.87315 0.49794,0.0752 0.49793,0.86189 0.49794,0.26126 0.49794,8.1e-4 0.49793,-0.0949 0.49794,-0.45399 0.49794,1.26846 0.49793,-0.10871 0.49794,0.0805 0.49794,-0.18165 0.49793,0.56712 0.49794,-0.88473 0.49794,1.8544 0.49793,-0.58453 0.49794,-0.22359 0.49793,0.89178 0.49794,-0.0177 0.49794,-0.43311 0.49793,0.28396 0.49794,-1.11641 0.49794,0.9772 0.49793,0.7635 0.49794,-0.12834 0.49794,-0.0419 0.49793,-0.31072 0.49794,0.67877 0.49793,0.15312 0.49794,-0.40994 0.49794,0.82267 0.49793,0.3822 0.49794,-0.83961 0.49794,0.31423 0.49793,1.27226 0.49794,-0.16086 0.49794,0.0362 0.49793,-0.21256 0.49794,0.31889 0.49794,0.16982 0.49793,-0.38138 0.49794,-0.25987 0.49793,0.55314 0.49794,-0.13887 0.49794,0.0327 0.49793,0.002 0.49794,0.18092 0.49794,-0.91535 0.49793,1.04112 0.49794,0.0871 0.49794,-0.91003 0.49793,1.68955 0.49794,-0.97122 0.49793,0.9111 0.49794,0.20567 0.49794,0.0263 0.49793,0.29918 0.49794,-0.0679 0.49794,0.2965 0.49793,-0.27139 0.49794,0.35024 0.49794,-0.0209 0.49793,0.0769 0.49794,0.0109 0.49794,-0.62523 0.49793,0.59623 0.49794,-0.92808 0.49793,0.93552 0.49794,0.0195 0.49794,-0.11552 0.49793,-0.38626 0.49794,0.51239 0.49794,-0.87811 0.49793,0.7129 0.49794,0.325 0.49794,-0.11594 0.49793,0.18824 0.49794,-0.10943 0.49794,0.0455 0.49793,0.20058 0.49794,-0.29891 0.49793,0.33588 0.49794,0.12337 0.49794,-0.08 0.49793,0.15034 0.49794,0.0121 0.49794,-0.0215 0.49793,-0.1996 0.49794,0.0673 0.49794,0.128 0.49793,0.0707 0.49794,0.0913 0.49794,-0.0683 0.49793,0.12709 0.49794,0.0452 0.49793,-0.0386 0.49794,0.063 0.49794,-0.14662 0.49793,0.14514 0.49794,-0.50781 0.49794,0.53392 0.49793,0.0673 0.49794,0.005 0.49794,0.0111 0.49793,-0.0358 0.49794,-0.13967 0.49793,0.15972 0.49794,-0.14745 0.49794,0.0946 0.49793,-0.15258 0.49794,0.28113 0.49794,0.0537 0.49793,-0.16842 0.49794,0.19143 0.49794,-0.004 0.49793,-0.0583 0.49794,-2.1e-4 0.49794,-0.0687 0.49793,0.1159 0.49794,-0.13818 0.49793,0.11633 0.49794,0.0429 0.49794,0.0794 0.49793,-0.0163 0.49794,0.025 0.49794,-0.0103 0.49793,-0.0116 0.49794,0.0201 0.49794,0.0151 0.49793,-0.0971 0.49794,0.0892 0.49794,0.0345 0.49793,-0.0158 0.49794,-0.006 0.49793,-0.008 0.49794,0.0665 0.49794,-0.0383 0.49793,0.0467 0.49794,-0.0341 0.49794,-0.0335 0.49793,0.14336 0.49794,-0.0251 0.49794,0.0118 0.49793,0.0192 0.49794,-0.006 0.49794,0.003 0.49793,-0.004 0.49794,0.0236 0.49793,-0.017 0.49794,-0.061 0.49794,0.0487 0.49793,0.007 0.49794,0.0419 0.49794,-0.0412 0.49793,0.0475 0.49794,-0.006 0.49794,0.0116 0.49793,0.0125 0.49794,-0.0137 0.49794,-0.0915 0.49793,0.095 0.49794,-0.0154 0.49793,0.0354 0.49794,0.007 0.49794,-0.003 0.49793,2.6e-4 0.49794,0.007 0.49794,0.005 0.49793,0.007 0.49794,0.002 0.49794,-0.001 0.49793,-0.0179 0.49794,0.0179 0.49794,0.002 0.49793,0.0154 0.49794,0.005 0.49793,0.002 0.49794,0.002 0.49794,0.003 0.49793,-0.0117 0.49794,0.0152 0.49794,-0.008 0.49793,0.007 0.49794,-0.0117 0.49794,0.0157 0.49793,-0.0214 0.49794,0.0138 0.49793,0.0177 0.49794,-0.0374 0.49794,0.0307 0.49793,0.009 0.49794,-0.0117 0.49794,-0.007 0.49793,0.0234 0.49794,0.0177 0.49794,-0.0109 0.49793,0.009 0.49794,-0.003 0.49794,0.007 0.49793,-0.002 0.49794,0.002 0.49793,2.3e-4 0.49794,-0.005 0.49794,0.004 0.49793,0.002 0.49794,-0.0106 0.49794,-0.004 0.49793,0.0172 0.49794,0.005 0.49794,10e-6 0.49793,3.5e-4 0.49794,-0.0165 0.49794,0.0153 0.49793,0.0118 0.49794,-0.001 0.49793,0.002 0.49794,8.1e-4 0.49794,-6e-4 0.49793,0.001 0.49794,5.2e-4 0.49794,10e-4 0.49793,-9e-5 0.49794,-0.003 0.49794,0.002 0.49793,-0.008 0.49794,0.007 0.49794,0.009 0.49793,-10e-4 0.49794,0.002 0.49793,5.1e-4 0.49794,-8e-5 0.49794,-0.0111 0.49793,0.0107 0.49794,0.004 0.49794,0.004 0.49793,3.9e-4 0.49794,8e-5 0.49794,-0.002 0.49793,5.1e-4 0.49794,10e-4 0.49794,-0.004 0.49793,0.004 0.49794,0.002 0.49793,-0.005 0.49794,0.0107 0.49794,0.002 0.49793,-9.4e-4 0.49794,0.002 0.49794,5e-4 0.49793,-6.3e-4 0.49794,2.1e-4 0.49794,-4.1e-4 0.49793,-6.3e-4 0.49794,1.4e-4 0.49794,-0.008 0.49793,0.009 0.49794,0.002 0.49793,-0.002 0.49794,0.003 0.49794,-5.1e-4 0.49793,-0.006 0.49794,0.005 0.49794,-0.005 0.49793,0.005 0.49794,0.007 0.49794,-0.002 0.49793,0.002 0.49794,-4.9e-4 0.49793,-7.9e-4 0.49794,-6e-5 0.49794,10e-4 0.49793,5.1e-4 0.49794,9e-5 0.49794,-9e-5 0.49793,-3e-4 0.49794,5.8e-4 0.49794,-10e-4 0.49793,0.003 0.49794,-10e-4 0.49794,10e-4 0.49793,0.001 0.49794,-1.9e-4 0.49793,-4e-5 0.49794,-6.7e-4 0.49794,10e-4 0.49793,-1.8e-4 0.49794,4.1e-4 0.49794,-4e-4 0.49793,5.6e-4 0.49794,-2.7e-4 0.49794,7.3e-4 0.49793,-4e-5 0.49794,1.3e-4 0.49794,-4.8e-4 0.49793,-2.2e-4 0.49794,4.4e-4 0.49793,0.001 0.49794,-5.9e-4 0.49794,-0.002 0.49793,0.004 0.49794,-6e-5 0.49794,2e-4 0.49793,5.4e-4 0.49794,-1.1e-4 0.49794,-0.001 0.49793,0.001 0.49794,1.8e-4 0.49794,-1.1e-4 0.49793,-9.3e-4 0.49794,9.2e-4 0.49793,6.9e-4 0.49794,-1.2e-4 0.49794,-8e-5 0.49793,2.2e-4 0.49794,10e-4 0.49794,-5.8e-4 0.49793,2.8e-4 0.49794,8.2e-4 0.49794,5.7e-4 0.49793,-0.001 0.49794,0.001 0.49794,-3.6e-4 0.49793,2.9e-4 0.49794,-1.9e-4 0.49793,1.3e-4 0.49794,-4.2e-4 0.49794,5.2e-4 0.49793,1e-5 0.49794,4e-5 0.49794,4.3e-4 0.49793,-1.1e-4 0.49794,-6.4e-4 0.49794,9.1e-4 0.49793,2.7e-4 0.49794,-9e-5 0.49794,-2.5e-4 0.49793,7.8e-4 0.49794,-2.4e-4 0.49794,1.5e-4 0.49793,2.1e-4 0.49794,-2e-5 0.49793,10e-6 0.49794,-6e-5 0.49794,-8e-5 0.49793,10e-5 0.49794,-1.3e-4 0.49794,2.2e-4 0.49793,1.6e-4 0.49794,-3.2e-4 0.49793,4e-4 0.49794,-8e-5 0.49794,1.1e-4 0.49793,-5.4e-4 0.49794,4.5e-4 0.49794,-7e-5 0.49793,1.5e-4 0.49794,-7e-5 0.49794,1.3e-4 0.49793,2e-5 0.49794,4e-5 0.49794,-3e-5 0.49793,3e-5 h 0.49794 0.49793 l 0.49794,2e-5 h 0.49794 l 0.49793,-4e-5 0.49794,-10e-6 0.49794,7e-5 0.49793,1.9e-4 0.49794,4e-5 0.49794,-3e-5 0.49793,4e-5 0.49794,-4e-5 0.49794,7e-5 0.49793,-9e-5 0.49794,1.2e-4 0.49793,3e-5 0.49794,-1e-5 0.49794,1e-4 h 0.49793 l 0.49794,-1e-5 0.49794,2e-5 0.49793,2e-5 0.49794,-2e-5 0.49794,-4e-5 0.49793,8e-5 0.49794,-2e-5 0.49794,-2e-5 0.49793,1.1e-4 0.49794,2e-5 0.49793,10e-6 0.49794,-10e-6 0.49794,-10e-6 0.49793,-1e-5 0.49794,1e-5 0.49794,-1e-5 0.49793,1e-5 0.49794,-1e-5 0.49794,3e-5 0.49793,1.1e-4 0.49794,2e-5 h 0.49794 l 0.49793,1e-5 0.49794,-1e-5 0.49794,-10e-6 0.49793,2e-5 0.49794,-1.1e-4 0.49793,1.1e-4 0.49794,6e-5 0.49794,5e-5 h 0.49793 0.49794 0.49794 l 0.49793,-2e-5 0.49794,2e-5 0.49793,-2e-5 h 0.49794 l 0.49794,-1.4e-4 0.49794,1.7e-4 0.49793,3e-5 h 0.49794 l 0.49793,2e-5 0.49794,-5e-5 0.49794,8e-5 0.49793,-4e-5 0.49794,5e-5 h 0.49794 0.49793 l 0.49794,-7e-5 0.49793,4e-5 0.49794,2e-5 0.49794,-3e-5 0.49793,8e-5 0.49794,-1e-5 h 0.49794 l 0.49793,-2e-5 0.49794,-2e-5 0.49794,3e-5 0.49793,4e-5 0.49794,3e-5 0.49794,10e-6 h 0.49793 0.49794 0.49793 l 0.49794,-10e-6 h 0.49794 l 0.49793,-10e-6 0.49794,2e-5 0.49794,-10e-6 h 0.49793 l 0.49794,2e-5 0.49794,-1e-5 0.49793,4e-5 0.49794,3e-5 h 0.49794 l 0.49793,10e-6 h 0.49794 0.49793 l 0.49794,10e-6 h 0.49794 0.49793 l 0.49794,1e-5 0.49794,10e-6 h 0.49793 0.49794 l 0.49794,1e-5 h 0.49793 0.49794 0.49794 0.49793 l 0.49794,10e-6 0.49794,1e-5 h 0.49793 l 0.49794,-3e-5 0.49793,7e-5 h 0.49794 0.49794 l 0.49793,1e-5 0.49794,-1e-5 0.49794,1e-5 h 0.49793 l 0.49794,-2e-5 0.49794,2e-5 0.49793,10e-6 0.49794,-10e-6 0.49794,-2e-5 0.49793,2e-5 0.49794,3e-5 h 0.49793 l 0.49794,3e-5 h 0.49794 0.49793 l 0.49794,-1e-5 0.49794,1e-5 0.49793,2e-5 h 0.49794 0.49793 l 0.49794,-2e-5 0.49794,2e-5 0.49793,1e-5 h 0.49794 0.49794 0.49793 l 0.49794,10e-6 h 0.49794 0.49793 l 0.49794,-2e-5 0.49794,4e-5 h 0.49793 0.49794 l 0.49793,1e-5 0.49794,-1e-5 h 0.49794 l 0.49793,1e-5 h 0.49794 0.49794 0.49793 0.49794 l 0.49794,-1e-5 0.49793,1e-5 0.49794,10e-6 h 0.49794 0.49793 l 0.49794,-10e-6 0.49793,10e-6 h 0.49794 l 0.49794,1e-5 h 0.49793 0.49794 l 0.49794,10e-6 h 0.49793 0.49794 0.49794 0.49793 0.49794 0.49794 0.49793 0.49794 l 0.49793,-10e-6 0.49794,2e-5 0.49794,1e-5 h 0.49793 0.49794 l 0.49794,10e-6 0.49793,-2e-5 0.49794,2e-5 0.49794,1e-5 h 0.49793 0.49794 0.49794 0.49793 l 0.49794,-1e-5 0.49794,1e-5 0.49793,-1e-5 0.49794,1e-5 h 0.49793 0.49794 l 0.49794,-2e-5 0.49793,2e-5 h 0.49794 0.49794 0.49793 v 0 0 h -0.49793 -0.49794 -0.49794 l -0.49793,-2e-5 -0.49794,2e-5 h -0.49794 -0.49793 l -0.49794,-1e-5 -0.49793,1e-5 -0.49794,-1e-5 -0.49794,1e-5 h -0.49793 -0.49794 -0.49794 -0.49793 l -0.49794,-1e-5 -0.49794,-2e-5 -0.49793,2e-5 -0.49794,-10e-6 h -0.49794 -0.49793 l -0.49794,-1e-5 -0.49794,-2e-5 -0.49793,10e-6 h -0.49794 -0.49793 -0.49794 -0.49794 -0.49793 -0.49794 -0.49794 -0.49793 l -0.49794,-10e-6 h -0.49794 -0.49793 l -0.49794,-1e-5 h -0.49794 l -0.49793,-10e-6 -0.49794,10e-6 h -0.49793 -0.49794 l -0.49794,-10e-6 -0.49793,-1e-5 -0.49794,1e-5 h -0.49794 -0.49793 -0.49794 -0.49794 l -0.49793,-1e-5 h -0.49794 l -0.49794,1e-5 -0.49793,-1e-5 h -0.49794 -0.49793 l -0.49794,-4e-5 -0.49794,2e-5 h -0.49793 -0.49794 l -0.49794,-10e-6 h -0.49793 -0.49794 -0.49794 l -0.49793,-1e-5 -0.49794,-2e-5 -0.49794,2e-5 h -0.49793 -0.49794 l -0.49793,-2e-5 -0.49794,-1e-5 -0.49794,1e-5 h -0.49793 -0.49794 l -0.49794,-3e-5 h -0.49793 l -0.49794,-3e-5 -0.49793,-2e-5 -0.49794,2e-5 -0.49794,10e-6 -0.49793,-10e-6 -0.49794,-2e-5 -0.49794,2e-5 h -0.49793 l -0.49794,-1e-5 -0.49794,1e-5 -0.49793,-1e-5 h -0.49794 -0.49794 l -0.49793,-7e-5 -0.49794,3e-5 H 353.673 l -0.49794,-1e-5 -0.49794,-10e-6 h -0.49793 -0.49794 -0.49794 -0.49793 l -0.49794,-1e-5 h -0.49794 -0.49793 l -0.49794,-10e-6 -0.49794,-1e-5 h -0.49793 -0.49794 l -0.49794,-10e-6 h -0.49793 -0.49794 l -0.49793,-10e-6 h -0.49794 l -0.49794,-3e-5 -0.49793,-4e-5 -0.49794,1e-5 -0.49794,-2e-5 h -0.49793 l -0.49794,10e-6 -0.49794,-2e-5 -0.49793,10e-6 h -0.49794 l -0.49794,10e-6 h -0.49793 -0.49794 -0.49793 l -0.49794,-10e-6 -0.49794,-3e-5 -0.49793,-4e-5 -0.49794,-3e-5 -0.49794,2e-5 -0.49793,2e-5 h -0.49794 l -0.49794,1e-5 -0.49793,-8e-5 -0.49794,3e-5 -0.49794,-2e-5 -0.49793,-4e-5 -0.49794,7e-5 h -0.49793 -0.49794 l -0.49794,-5e-5 -0.49793,4e-5 -0.49794,-8e-5 -0.49794,5e-5 -0.49793,-2e-5 h -0.49794 l -0.49793,-3e-5 -0.49794,-1.7e-4 -0.49794,1.4e-4 h -0.49794 l -0.49793,2e-5 -0.49794,-2e-5 -0.49793,2e-5 h -0.49794 -0.49794 -0.49793 l -0.49794,-5e-5 -0.49794,-6e-5 -0.49793,-1.1e-4 -0.49794,1.1e-4 -0.49793,-2e-5 -0.49794,10e-6 -0.49794,1e-5 -0.49793,-1e-5 h -0.49794 l -0.49794,-2e-5 -0.49793,-1.1e-4 -0.49794,-3e-5 -0.49794,1e-5 -0.49793,-1e-5 -0.49794,1e-5 -0.49794,-1e-5 -0.49793,1e-5 -0.49794,10e-6 -0.49794,10e-6 -0.49793,-10e-6 -0.49794,-2e-5 -0.49793,-1.1e-4 -0.49794,2e-5 -0.49794,2e-5 -0.49793,-8e-5 -0.49794,4e-5 -0.49794,2e-5 -0.49793,-2e-5 -0.49794,-2e-5 -0.49794,1e-5 h -0.49793 l -0.49794,-1e-4 -0.49794,1e-5 -0.49793,-3e-5 -0.49794,-1.2e-4 -0.49793,9e-5 -0.49794,-7e-5 -0.49794,4e-5 -0.49793,-4e-5 -0.49794,3e-5 -0.49794,-4e-5 -0.49793,-1.9e-4 -0.49794,-7e-5 -0.49794,10e-6 -0.49793,4e-5 h -0.49794 l -0.49794,-2e-5 h -0.49793 -0.49794 l -0.49793,-3e-5 -0.49794,3e-5 -0.49794,-4e-5 -0.49793,-2e-5 -0.49794,-1.3e-4 -0.49794,7e-5 -0.49793,-1.5e-4 -0.49794,7e-5 -0.49794,-4.5e-4 -0.49793,5.4e-4 -0.49794,-1.1e-4 -0.49794,8e-5 -0.49793,-4e-4 -0.49794,3.2e-4 -0.49793,-1.6e-4 -0.49794,-2.2e-4 -0.49794,1.3e-4 -0.49793,-10e-5 -0.49794,8e-5 -0.49794,6e-5 -0.49793,-10e-6 -0.49794,2e-5 -0.49793,-2.1e-4 -0.49794,-1.5e-4 -0.49794,2.4e-4 -0.49793,-7.8e-4 -0.49794,2.5e-4 -0.49794,9e-5 -0.49793,-2.7e-4 -0.49794,-9.1e-4 -0.49794,6.4e-4 -0.49793,1.1e-4 -0.49794,-4.3e-4 -0.49794,-4e-5 -0.49793,-1e-5 -0.49794,-5.2e-4 -0.49794,4.2e-4 -0.49793,-1.3e-4 -0.49794,1.9e-4 -0.49793,-2.9e-4 -0.49794,3.6e-4 -0.49794,-0.001 -0.49793,0.001 -0.49794,-5.7e-4 -0.49794,-8.2e-4 -0.49793,-2.8e-4 -0.49794,5.8e-4 -0.49794,-10e-4 -0.49793,-2.2e-4 -0.49794,8e-5 -0.49794,1.2e-4 -0.49793,-6.9e-4 -0.49794,-9.2e-4 -0.49793,9.3e-4 -0.49794,1.1e-4 -0.49794,-1.8e-4 -0.49793,-0.001 -0.49794,0.001 -0.49794,1.1e-4 -0.49793,-5.4e-4 -0.49794,-2e-4 -0.49794,6e-5 -0.49793,-0.004 -0.49794,0.002 -0.49794,5.9e-4 -0.49793,-0.001 -0.49794,-4.4e-4 -0.49793,2.2e-4 -0.49794,4.8e-4 -0.49794,-1.3e-4 -0.49793,4e-5 -0.49794,-7.3e-4 -0.49794,2.7e-4 -0.49793,-5.6e-4 -0.49794,4e-4 -0.49794,-4.1e-4 -0.49793,1.8e-4 -0.49794,-10e-4 -0.49794,6.7e-4 -0.49793,4e-5 -0.49794,1.9e-4 -0.49793,-0.001 -0.49794,-10e-4 -0.49794,10e-4 -0.49793,-0.003 -0.49794,10e-4 -0.49794,-5.8e-4 -0.49793,3e-4 -0.49794,9e-5 -0.49794,-9e-5 -0.49793,-5.1e-4 -0.49794,-10e-4 -0.49794,6e-5 -0.49793,7.9e-4 -0.49794,4.9e-4 -0.49793,-0.002 -0.49794,0.002 -0.49794,-0.007 -0.49793,-0.005 -0.49794,0.005 -0.49794,-0.005 -0.49793,0.006 -0.49794,5.1e-4 -0.49794,-0.003 -0.49793,0.002 -0.49794,-0.002 -0.49793,-0.009 -0.49794,0.008 -0.49794,-1.4e-4 -0.49793,6.3e-4 -0.49794,4.1e-4 -0.49794,-2.1e-4 -0.49793,6.3e-4 -0.49794,-5e-4 -0.49794,-0.002 -0.49793,9.4e-4 -0.49794,-0.002 -0.49794,-0.0107 -0.49793,0.005 -0.49794,-0.002 -0.49793,-0.004 -0.49794,0.004 -0.49794,-10e-4 -0.49793,-5.1e-4 -0.49794,0.002 -0.49794,-8e-5 -0.49793,-3.9e-4 -0.49794,-0.004 -0.49794,-0.004 -0.49793,-0.0107 -0.49794,0.0111 -0.49794,8e-5 -0.49793,-5.1e-4 -0.49794,-0.002 -0.49793,10e-4 -0.49794,-0.009 -0.49794,-0.007 -0.49793,0.008 -0.49794,-0.002 -0.49794,0.003 -0.49793,9e-5 -0.49794,-10e-4 -0.49794,-5.2e-4 -0.49793,-0.001 -0.49794,6e-4 -0.49794,-8.1e-4 -0.49793,-0.002 -0.49794,0.001 -0.49793,-0.0118 -0.49794,-0.0153 -0.49794,0.0165 -0.49793,-3.5e-4 -0.49794,-10e-6 -0.49794,-0.005 -0.49793,-0.0172 -0.49794,0.004 -0.49794,0.0106 -0.49793,-0.002 -0.49794,-0.004 -0.49794,0.005 -0.49793,-2.3e-4 -0.49794,-0.002 -0.49793,0.002 -0.49794,-0.007 -0.49794,0.003 -0.49793,-0.009 -0.49794,0.0109 -0.49794,-0.0177 -0.49793,-0.0234 -0.49794,0.007 -0.49794,0.0117 -0.49793,-0.009 -0.49794,-0.0307 -0.49794,0.0374 -0.49793,-0.0177 -0.49794,-0.0138 -0.49793,0.0214 -0.49794,-0.0157 -0.49794,0.0117 -0.49793,-0.007 -0.49794,0.008 -0.49794,-0.0152 -0.49793,0.0117 -0.49794,-0.003 -0.49794,-0.002 -0.49793,-0.002 -0.49794,-0.005 -0.49793,-0.0154 -0.49794,-0.002 -0.49794,-0.0179 -0.49793,0.0179 -0.49794,0.001 -0.49794,-0.002 -0.49793,-0.007 -0.49794,-0.005 -0.49794,-0.007 -0.49793,-2.6e-4 -0.49794,0.003 -0.49794,-0.007 -0.49793,-0.0354 -0.49794,0.0154 -0.49793,-0.095 -0.49794,0.0915 -0.49794,0.0137 -0.49793,-0.0125 -0.49794,-0.0116 -0.49794,0.006 -0.49793,-0.0475 -0.49794,0.0412 -0.49794,-0.0419 -0.49793,-0.007 -0.49794,-0.0487 -0.49794,0.061 -0.49793,0.017 -0.49794,-0.0236 -0.49793,0.004 -0.49794,-0.003 -0.49794,0.006 -0.49793,-0.0192 -0.49794,-0.0118 -0.49794,0.0251 -0.49793,-0.14336 -0.49794,0.0335 -0.49794,0.0341 -0.49793,-0.0467 -0.49794,0.0383 -0.49794,-0.0665 -0.49793,0.008 -0.49794,0.006 -0.49793,0.0158 -0.49794,-0.0345 -0.49794,-0.0892 -0.49793,0.0971 -0.49794,-0.0151 -0.49794,-0.0201 -0.49793,0.0116 -0.49794,0.0103 -0.49794,-0.025 -0.49793,0.0163 -0.49794,-0.0794 -0.49794,-0.0429 -0.49793,-0.11633 -0.49794,0.13818 -0.49793,-0.1159 -0.49794,0.0687 -0.49794,2.1e-4 -0.49793,0.0583 -0.49794,0.004 -0.49794,-0.19143 -0.49793,0.16842 -0.49794,-0.0537 -0.49794,-0.28113 -0.49793,0.15258 -0.49794,-0.0946 -0.49794,0.14745 -0.49793,-0.15972 -0.49794,0.13967 -0.49793,0.0358 -0.49794,-0.0111 -0.49794,-0.005 -0.49793,-0.0673 -0.49794,-0.53392 -0.49794,0.50781 -0.49793,-0.14514 -0.49794,0.14662 -0.49794,-0.063 -0.49793,0.0386 -0.49794,-0.0452 -0.49793,-0.12709 -0.49794,0.0683 -0.49794,-0.0913 -0.49793,-0.0707 -0.49794,-0.128 -0.49794,-0.0673 -0.49793,0.1996 -0.49794,0.0215 -0.49794,-0.0121 -0.49793,-0.15034 -0.49794,0.08 -0.49794,-0.12337 -0.49793,-0.33588 -0.49794,0.29891 -0.49793,-0.20058 -0.49794,-0.0455 -0.49794,0.10943 -0.49793,-0.18824 -0.49794,0.11594 -0.49794,-0.325 -0.49793,-0.7129 -0.49794,0.87811 -0.49794,-0.51239 -0.49793,0.38626 -0.49794,0.11552 -0.49794,-0.0195 -0.49793,-0.93552 -0.49794,0.92808 -0.49793,-0.59623 -0.49794,0.62523 -0.49794,-0.0109 -0.49793,-0.0769 -0.49794,0.0209 -0.49794,-0.35024 -0.49793,0.27139 -0.49794,-0.2965 -0.49794,0.0679 -0.49793,-0.29918 -0.49794,-0.0263 -0.49794,-0.20567 -0.49793,-0.9111 -0.49794,0.97122 -0.49793,-1.68955 -0.49794,0.91003 -0.49794,-0.0871 -0.49793,-1.04112 -0.49794,0.91535 -0.49794,-0.18092 -0.49793,-0.002 -0.49794,-0.0327 -0.49794,0.13887 -0.49793,-0.55314 -0.49794,0.25987 -0.49793,0.38138 -0.49794,-0.16982 -0.49794,-0.31889 -0.49793,0.21256 -0.49794,-0.0362 -0.49794,0.16086 -0.49793,-1.27226 -0.49794,-0.31423 -0.49794,0.83961 -0.49793,-0.3822 -0.49794,-0.82267 -0.49794,0.40994 -0.49793,-0.15312 -0.49794,-0.67877 -0.49793,0.31072 -0.49794,0.0419 -0.49794,0.12834 -0.49793,-0.7635 -0.49794,-0.9772 -0.49794,1.11641 -0.49793,-0.28396 -0.49794,0.43311 -0.49794,0.0177 -0.49793,-0.89178 -0.49794,0.22359 -0.49793,0.58453 -0.49794,-1.8544 -0.49794,0.88473 -0.49793,-0.56712 -0.49794,0.18165 -0.49794,-0.0805 -0.49793,0.10871 -0.49794,-1.26846 -0.49794,0.45399 -0.49793,0.0949 -0.49794,-8.1e-4 -0.49794,-0.26126 -0.49793,-0.86189 -0.49794,-0.0752 -0.49794,-0.87315 -0.49793,0.39605 -0.49794,-0.912 -0.49793,0.30481 -0.49794,0.006 -0.49794,0.3595 -0.49793,-1.14192 -0.49794,1.02 -0.49794,-2.51743 -0.49793,2.5466 -0.49794,0.31221 -0.49794,0.16192 -0.49793,-0.84208 -0.49794,0.78296 -0.49794,-4.27066 -0.49793,3.72387 -0.49794,-0.086 -0.49793,0.25196 -0.49794,-0.35796 -0.49794,-1.0892 -0.49793,-0.10381 -0.49794,0.78253 -0.49794,-8.05463 -0.49793,1.89492 -0.49794,-3.22785 -0.49794,0.18437 -0.49793,0.9766 -0.49794,-4.94774 -0.49793,0.5626 -0.49794,0.68171 -0.49794,0.73051 -0.49793,0.6262 -0.49794,-0.22075 -0.49794,-6.19226 -0.49793,2.16077 -0.49794,-7.85545 -0.49794,-0.11981 -0.49793,4.97949 -0.497939,-16.05604 -0.497936,8.85918 -0.497937,-0.48703 -0.497936,8.62271 -0.497937,-10.13191 -0.497936,-51.42055 -0.497936,53.15515 -0.497937,-2.79551 -0.497936,9.22241 -0.497937,-41.1872 -0.497936,39.00083 -0.497937,1.49864 -0.497936,-6.80856 -0.497936,-5.89007 -0.497937,-67.54809 -0.497936,78.31994 -0.497937,-74.07335 -0.497936,77.97219 -0.497936,-129.34387 -0.497937,86.90669 -0.497936,-11.367 -0.497937,6.88733 -0.497936,-166.6023 -0.497937,169.58371 -0.497936,-28.03074 -0.497936,68.04793 -0.497937,-11.84548 -0.497936,4.54013 -0.497937,-64.72703 -0.497936,59.78951 -0.497937,-40.38499 -0.497936,8.25482 L 83.791456,204.29467 83.293519,233.6832 82.795583,209.87063 82.297646,56.730371 81.79971,195.87372 81.301774,104.16966 80.803837,249.77272 80.305901,109.36365 79.807964,250.08795 79.310028,99.918603 78.812091,183.24602 78.314155,201.64283 77.816219,149.43854 77.318282,146.4853 76.820346,177.40084 76.322409,142.55458 75.824473,176.3745 75.326537,106.33461 74.8286,188.96513 74.330664,119.1587 Z"
           style="fill:#1f77b4;fill-opacity:0.5"
           id="path14" />
      </g>
      <g
         id="matplotlib.axis_1">
        <g
           id="xtick_1">
          <g
             id="line2d_1">
            <path
               clip-path="url(#pf65174b20a)"
               d="M 73.832727,307.584 V 41.472"
               style="fill:none;stroke:#b0b0b0;stroke-width:0.8;stroke-linecap:square"
               id="path17" />
          </g>
          <g
             id="line2d_2">
            <defs
               id="defs21">
              <path
                 d="M 0,0 V 3.5"
                 id="m34e410ffc7"
                 style="stroke:#000000;stroke-width:0.8" />
            </defs>
            <g
               id="g25">
              <use
                 style="stroke:#000000;stroke-width:0.8"
                 x="73.832726"
                 xlink:href="#m34e410ffc7"
                 y="307.58401"
                 id="use23"
                 width="100%"
                 height="100%" />
            </g>
          </g>
          <g
             id="text_1">
            <!-- 0 -->
            <g
               transform="matrix(0.1,0,0,-0.1,70.651477,322.18244)"
               id="g33">
              <defs
                 id="defs29">
                <path
                   d="m 31.78125,66.40625 q -7.609375,0 -11.453125,-7.5 Q 16.5,51.421875 16.5,36.375 q 0,-14.984375 3.828125,-22.484375 3.84375,-7.5 11.453125,-7.5 7.671875,0 11.5,7.5 3.84375,7.5 3.84375,22.484375 0,15.046875 -3.84375,22.53125 -3.828125,7.5 -11.5,7.5 z m 0,7.8125 q 12.265625,0 18.734375,-9.703125 6.46875,-9.6875 6.46875,-28.140625 0,-18.40625 -6.46875,-28.109375 -6.46875,-9.6875 -18.734375,-9.6875 -12.25,0 -18.71875,9.6875 Q 6.59375,17.96875 6.59375,36.375 q 0,18.453125 6.46875,28.140625 6.46875,9.703125 18.71875,9.703125 z"
                   id="DejaVuSans-48" />
              </defs>
              <use
                 xlink:href="#DejaVuSans-48"
                 id="use31"
                 x="0"
                 y="0"
                 width="100%"
                 height="100%" />
            </g>
          </g>
        </g>
        <g
           id="xtick_2">
          <g
             id="line2d_3">
            <path
               clip-path="url(#pf65174b20a)"
               d="M 123.62637,307.584 V 41.472"
               style="fill:none;stroke:#b0b0b0;stroke-width:0.8;stroke-linecap:square"
               id="path37" />
          </g>
          <g
             id="line2d_4">
            <g
               id="g42">
              <use
                 style="stroke:#000000;stroke-width:0.8"
                 x="123.62637"
                 xlink:href="#m34e410ffc7"
                 y="307.58401"
                 id="use40"
                 width="100%"
                 height="100%" />
            </g>
          </g>
          <g
             id="text_2">
            <!-- 100 -->
            <g
               transform="matrix(0.1,0,0,-0.1,114.08262,322.18244)"
               id="g54">
              <defs
                 id="defs46">
                <path
                   d="m 12.40625,8.296875 h 16.109375 v 55.625 L 10.984375,60.40625 v 8.984375 l 17.4375,3.515625 H 38.28125 V 8.296875 H 54.390625 V 0 H 12.40625 Z"
                   id="DejaVuSans-49" />
              </defs>
              <use
                 xlink:href="#DejaVuSans-49"
                 id="use48"
                 x="0"
                 y="0"
                 width="100%"
                 height="100%" />
              <use
                 x="63.623047"
                 xlink:href="#DejaVuSans-48"
                 id="use50"
                 y="0"
                 width="100%"
                 height="100%" />
              <use
                 x="127.24609"
                 xlink:href="#DejaVuSans-48"
                 id="use52"
                 y="0"
                 width="100%"
                 height="100%" />
            </g>
          </g>
        </g>
        <g
           id="xtick_3">
          <g
             id="line2d_5">
            <path
               clip-path="url(#pf65174b20a)"
               d="M 173.42001,307.584 V 41.472"
               style="fill:none;stroke:#b0b0b0;stroke-width:0.8;stroke-linecap:square"
               id="path58" />
          </g>
          <g
             id="line2d_6">
            <g
               id="g63">
              <use
                 style="stroke:#000000;stroke-width:0.8"
                 x="173.42001"
                 xlink:href="#m34e410ffc7"
                 y="307.58401"
                 id="use61"
                 width="100%"
                 height="100%" />
            </g>
          </g>
          <g
             id="text_3">
            <!-- 200 -->
            <g
               transform="matrix(0.1,0,0,-0.1,163.87626,322.18244)"
               id="g75">
              <defs
                 id="defs67">
                <path
                   d="M 19.1875,8.296875 H 53.609375 V 0 H 7.328125 v 8.296875 q 5.609375,5.8125 15.296875,15.59375 9.703125,9.796875 12.1875,12.640625 4.734375,5.3125 6.609375,9 1.890625,3.6875 1.890625,7.25 0,5.8125 -4.078125,9.46875 -4.078125,3.671875 -10.625,3.671875 -4.640625,0 -9.796875,-1.609375 -5.140625,-1.609375 -11,-4.890625 v 9.96875 Q 13.765625,71.78125 18.9375,73 q 5.1875,1.21875 9.484375,1.21875 11.328125,0 18.0625,-5.671875 6.734375,-5.65625 6.734375,-15.125 0,-4.5 -1.6875,-8.53125 Q 49.859375,40.875 45.40625,35.40625 44.1875,33.984375 37.640625,27.21875 31.109375,20.453125 19.1875,8.296875 Z"
                   id="DejaVuSans-50" />
              </defs>
              <use
                 xlink:href="#DejaVuSans-50"
                 id="use69"
                 x="0"
                 y="0"
                 width="100%"
                 height="100%" />
              <use
                 x="63.623047"
                 xlink:href="#DejaVuSans-48"
                 id="use71"
                 y="0"
                 width="100%"
                 height="100%" />
              <use
                 x="127.24609"
                 xlink:href="#DejaVuSans-48"
                 id="use73"
                 y="0"
                 width="100%"
                 height="100%" />
            </g>
          </g>
        </g>
        <g
           id="xtick_4">
          <g
             id="line2d_7">
            <path
               clip-path="url(#pf65174b20a)"
               d="M 223.21365,307.584 V 41.472"
               style="fill:none;stroke:#b0b0b0;stroke-width:0.8;stroke-linecap:square"
               id="path79" />
          </g>
          <g
             id="line2d_8">
            <g
               id="g84">
              <use
                 style="stroke:#000000;stroke-width:0.8"
                 x="223.21365"
                 xlink:href="#m34e410ffc7"
                 y="307.58401"
                 id="use82"
                 width="100%"
                 height="100%" />
            </g>
          </g>
          <g
             id="text_4">
            <!-- 300 -->
            <g
               transform="matrix(0.1,0,0,-0.1,213.6699,322.18244)"
               id="g96">
              <defs
                 id="defs88">
                <path
                   d="M 40.578125,39.3125 Q 47.65625,37.796875 51.625,33 q 3.984375,-4.78125 3.984375,-11.8125 0,-10.78125 -7.421875,-16.703125 -7.421875,-5.90625 -21.09375,-5.90625 -4.578125,0 -9.4375,0.90625 -4.859375,0.90625 -10.03125,2.71875 v 9.515625 q 4.09375,-2.390625 8.96875,-3.609375 4.890625,-1.21875 10.21875,-1.21875 9.265625,0 14.125,3.65625 4.859375,3.65625 4.859375,10.640625 0,6.453125 -4.515625,10.078125 -4.515625,3.640625 -12.5625,3.640625 h -8.5 v 8.109375 h 8.890625 q 7.265625,0 11.125,2.90625 3.859375,2.90625 3.859375,8.375 0,5.609375 -3.984375,8.609375 -3.96875,3.015625 -11.390625,3.015625 -4.0625,0 -8.703125,-0.890625 Q 15.375,64.15625 9.8125,62.3125 v 8.78125 q 5.625,1.5625 10.53125,2.34375 4.90625,0.78125 9.25,0.78125 11.234375,0 17.765625,-5.109375 6.546875,-5.09375 6.546875,-13.78125 0,-6.0625 -3.46875,-10.234375 -3.46875,-4.171875 -9.859375,-5.78125 z"
                   id="DejaVuSans-51" />
              </defs>
              <use
                 xlink:href="#DejaVuSans-51"
                 id="use90"
                 x="0"
                 y="0"
                 width="100%"
                 height="100%" />
              <use
                 x="63.623047"
                 xlink:href="#DejaVuSans-48"
                 id="use92"
                 y="0"
                 width="100%"
                 height="100%" />
              <use
                 x="127.24609"
                 xlink:href="#DejaVuSans-48"
                 id="use94"
                 y="0"
                 width="100%"
                 height="100%" />
            </g>
          </g>
        </g>
        <g
           id="xtick_5">
          <g
             id="line2d_9">
            <path
               clip-path="url(#pf65174b20a)"
               d="M 273.00729,307.584 V 41.472"
               style="fill:none;stroke:#b0b0b0;stroke-width:0.8;stroke-linecap:square"
               id="path100" />
          </g>
          <g
             id="line2d_10">
            <g
               id="g105">
              <use
                 style="stroke:#000000;stroke-width:0.8"
                 x="273.00729"
                 xlink:href="#m34e410ffc7"
                 y="307.58401"
                 id="use103"
                 width="100%"
                 height="100%" />
            </g>
          </g>
          <g
             id="text_5">
            <!-- 400 -->
            <g
               transform="matrix(0.1,0,0,-0.1,263.46354,322.18244)"
               id="g117">
              <defs
                 id="defs109">
                <path
                   d="M 37.796875,64.3125 12.890625,25.390625 h 24.90625 z m -2.59375,8.59375 h 12.40625 V 25.390625 h 10.40625 V 17.1875 H 47.609375 V 0 h -9.8125 V 17.1875 H 4.890625 v 9.515625 z"
                   id="DejaVuSans-52" />
              </defs>
              <use
                 xlink:href="#DejaVuSans-52"
                 id="use111"
                 x="0"
                 y="0"
                 width="100%"
                 height="100%" />
              <use
                 x="63.623047"
                 xlink:href="#DejaVuSans-48"
                 id="use113"
                 y="0"
                 width="100%"
                 height="100%" />
              <use
                 x="127.24609"
                 xlink:href="#DejaVuSans-48"
                 id="use115"
                 y="0"
                 width="100%"
                 height="100%" />
            </g>
          </g>
        </g>
        <g
           id="xtick_6">
          <g
             id="line2d_11">
            <path
               clip-path="url(#pf65174b20a)"
               d="M 322.80094,307.584 V 41.472"
               style="fill:none;stroke:#b0b0b0;stroke-width:0.8;stroke-linecap:square"
               id="path121" />
          </g>
          <g
             id="line2d_12">
            <g
               id="g126">
              <use
                 style="stroke:#000000;stroke-width:0.8"
                 x="322.80093"
                 xlink:href="#m34e410ffc7"
                 y="307.58401"
                 id="use124"
                 width="100%"
                 height="100%" />
            </g>
          </g>
          <g
             id="text_6">
            <!-- 500 -->
            <g
               transform="matrix(0.1,0,0,-0.1,313.25719,322.18244)"
               id="g138">
              <defs
                 id="defs130">
                <path
                   d="m 10.796875,72.90625 h 38.71875 v -8.3125 h -29.6875 V 46.734375 q 2.140625,0.734375 4.28125,1.09375 2.15625,0.359375 4.3125,0.359375 Q 40.625,48.1875 47.75,41.5 54.890625,34.8125 54.890625,23.390625 54.890625,11.625 47.5625,5.09375 40.234375,-1.421875 26.90625,-1.421875 q -4.59375,0 -9.359375,0.78125 -4.75,0.78125 -9.828125,2.34375 V 11.625 q 4.390625,-2.390625 9.078125,-3.5625 4.6875,-1.171875 9.90625,-1.171875 8.453125,0 13.375,4.4375 4.9375,4.4375 4.9375,12.0625 0,7.609375 -4.9375,12.046875 -4.921875,4.453125 -13.375,4.453125 -3.953125,0 -7.890625,-0.875 -3.921875,-0.875 -8.015625,-2.734375 z"
                   id="DejaVuSans-53" />
              </defs>
              <use
                 xlink:href="#DejaVuSans-53"
                 id="use132"
                 x="0"
                 y="0"
                 width="100%"
                 height="100%" />
              <use
                 x="63.623047"
                 xlink:href="#DejaVuSans-48"
                 id="use134"
                 y="0"
                 width="100%"
                 height="100%" />
              <use
                 x="127.24609"
                 xlink:href="#DejaVuSans-48"
                 id="use136"
                 y="0"
                 width="100%"
                 height="100%" />
            </g>
          </g>
        </g>
        <g
           id="xtick_7">
          <g
             id="line2d_13">
            <path
               clip-path="url(#pf65174b20a)"
               d="M 372.59458,307.584 V 41.472"
               style="fill:none;stroke:#b0b0b0;stroke-width:0.8;stroke-linecap:square"
               id="path142" />
          </g>
          <g
             id="line2d_14">
            <g
               id="g147">
              <use
                 style="stroke:#000000;stroke-width:0.8"
                 x="372.59457"
                 xlink:href="#m34e410ffc7"
                 y="307.58401"
                 id="use145"
                 width="100%"
                 height="100%" />
            </g>
          </g>
          <g
             id="text_7">
            <!-- 600 -->
            <g
               transform="matrix(0.1,0,0,-0.1,363.05083,322.18244)"
               id="g159">
              <defs
                 id="defs151">
                <path
                   d="m 33.015625,40.375 q -6.640625,0 -10.53125,-4.546875 -3.875,-4.53125 -3.875,-12.4375 0,-7.859375 3.875,-12.4375 3.890625,-4.5625 10.53125,-4.5625 6.640625,0 10.515625,4.5625 3.875,4.578125 3.875,12.4375 0,7.90625 -3.875,12.4375 Q 39.65625,40.375 33.015625,40.375 Z M 52.59375,71.296875 V 62.3125 q -3.71875,1.75 -7.5,2.671875 -3.78125,0.9375 -7.5,0.9375 -9.765625,0 -14.921875,-6.59375 -5.140625,-6.59375 -5.875,-19.921875 2.875,4.25 7.21875,6.515625 4.359375,2.265625 9.578125,2.265625 10.984375,0 17.359375,-6.671875 6.375,-6.65625 6.375,-18.125 0,-11.234375 -6.640625,-18.03125 -6.640625,-6.78125 -17.671875,-6.78125 -12.65625,0 -19.34375,9.6875 -6.6875,9.703125 -6.6875,28.109375 0,17.28125 8.203125,27.5625 8.203125,10.28125 22.015625,10.28125 3.71875,0 7.5,-0.734375 3.78125,-0.734375 7.890625,-2.1875 z"
                   id="DejaVuSans-54" />
              </defs>
              <use
                 xlink:href="#DejaVuSans-54"
                 id="use153"
                 x="0"
                 y="0"
                 width="100%"
                 height="100%" />
              <use
                 x="63.623047"
                 xlink:href="#DejaVuSans-48"
                 id="use155"
                 y="0"
                 width="100%"
                 height="100%" />
              <use
                 x="127.24609"
                 xlink:href="#DejaVuSans-48"
                 id="use157"
                 y="0"
                 width="100%"
                 height="100%" />
            </g>
          </g>
        </g>
        <g
           id="text_8">
          <!-- $iteration$ -->
          <g
             transform="matrix(0.1,0,0,-0.1,215.01,335.86056)"
             id="g190">
            <defs
               id="defs170">
              <path
                 d="m 18.3125,75.984375 h 8.984375 L 25.09375,64.59375 H 16.109375 Z M 14.203125,54.6875 H 23.1875 L 12.5,0 H 3.515625 Z"
                 id="DejaVuSans-Oblique-105" />
              <path
                 d="M 42.28125,54.6875 40.921875,47.703125 H 23 l -5.8125,-29.6875 q -0.296875,-1.65625 -0.4375,-2.78125 -0.140625,-1.125 -0.140625,-1.75 0,-3.125 1.875,-4.546875 1.875,-1.421875 6.03125,-1.421875 H 33.59375 L 32.078125,0 h -8.59375 q -8,0 -11.9375,3.125 Q 7.625,6.25 7.625,12.59375 q 0,1.125 0.140625,2.46875 0.140625,1.34375 0.4375,2.953125 l 5.8125,29.6875 h -7.625 L 7.8125,54.6875 h 7.46875 l 3.03125,15.53125 h 8.984375 L 24.3125,54.6875 Z"
                 id="DejaVuSans-Oblique-116" />
              <path
                 d="m 48.09375,32.234375 q 0.15625,0.78125 0.21875,1.609375 0.07813,0.828125 0.07813,1.65625 0,5.953125 -3.5,9.421875 -3.484375,3.46875 -9.484375,3.46875 -6.6875,0 -11.828125,-4.234375 -5.125,-4.21875 -7.75,-11.984375 z m 7.8125,-7.03125 H 14.109375 Q 13.8125,23.34375 13.71875,22.265625 13.625,21.1875 13.625,20.40625 q 0,-6.78125 4.171875,-10.5 4.171875,-3.703125 11.796875,-3.703125 5.859375,0 11.078125,1.3125 5.234375,1.328125 9.71875,3.859375 L 48.6875,2.484375 q -4.84375,-1.953125 -10,-2.921875 -5.140625,-0.984375 -10.46875,-0.984375 -11.375,0 -17.5,5.4375 -6.125,5.453125 -6.125,15.46875 0,8.546875 3.046875,15.890625 3.046875,7.34375 8.96875,13.109375 3.796875,3.609375 9.046875,5.5625 Q 30.90625,56 36.8125,56 q 9.28125,0 14.765625,-5.5625 5.5,-5.5625 5.5,-14.9375 0,-2.25 -0.296875,-4.8125 Q 56.5,28.125 55.90625,25.203125 Z"
                 id="DejaVuSans-Oblique-101" />
              <path
                 d="m 44.578125,46.390625 q -1.359375,0.734375 -3.125,1.125 -1.75,0.390625 -3.75,0.390625 -7.1875,0 -12.5625,-5.453125 -5.359375,-5.4375 -7.125,-14.578125 L 12.5,0 H 3.515625 l 10.6875,54.6875 H 23.1875 l -1.703125,-8.5 Q 25.046875,50.921875 30,53.453125 34.96875,56 40.578125,56 q 1.46875,0 2.875,-0.171875 1.421875,-0.15625 2.84375,-0.546875 z"
                 id="DejaVuSans-Oblique-114" />
              <path
                 d="M 53.71875,31.203125 47.609375,0 H 38.625 l 1.65625,8.296875 Q 36.328125,3.421875 31.265625,1 26.21875,-1.421875 20.015625,-1.421875 13.03125,-1.421875 8.5625,2.84375 4.109375,7.125 4.109375,13.8125 q 0,9.578125 7.640625,15.140625 7.640625,5.5625 21.0625,5.5625 h 12.5 l 0.484375,2.40625 q 0.109375,0.390625 0.15625,0.84375 Q 46,38.234375 46,39.203125 q 0,4.359375 -3.546875,6.765625 -3.53125,2.421875 -9.9375,2.421875 -4.390625,0 -9.015625,-1.125 -4.609375,-1.125 -9.484375,-3.375 l 1.5625,8.3125 q 5.078125,1.90625 9.9375,2.84375 Q 30.375,56 34.90625,56 q 9.671875,0 14.71875,-4.203125 5.0625,-4.1875 5.0625,-12.203125 0,-1.609375 -0.25,-3.78125 -0.234375,-2.171875 -0.71875,-4.609375 z M 44,27.484375 h -8.984375 q -11.046875,0 -16.34375,-2.953125 Q 13.375,21.578125 13.375,15.375 q 0,-4.296875 2.703125,-6.734375 2.71875,-2.4375 7.5,-2.4375 7.328125,0 12.796875,5.25 5.46875,5.25 7.234375,14.03125 z"
                 id="DejaVuSans-Oblique-97" />
              <path
                 d="m 25.390625,-1.421875 q -9.625,0 -15.21875,5.9375 -5.578125,5.9375 -5.578125,16.1875 0,5.953125 1.921875,12.125 1.9375,6.1875 5.015625,10.390625 Q 16.359375,49.75 22.3125,52.875 28.265625,56 35.796875,56 q 9.328125,0 15.0625,-5.8125 5.734375,-5.796875 5.734375,-15.171875 0,-6.5 -1.90625,-12.953125 Q 52.78125,15.625 49.703125,11.375 44.921875,4.828125 38.96875,1.703125 q -5.953125,-3.125 -13.578125,-3.125 z M 13.921875,21 q 0,-7.421875 3.09375,-11.109375 3.109375,-3.6875 9.40625,-3.6875 9.03125,0 14.953125,7.875 5.9375,7.890625 5.9375,20 0,7.078125 -3.171875,10.6875 -3.171875,3.625 -9.328125,3.625 -5.078125,0 -9.03125,-2.375 Q 21.828125,43.65625 18.703125,38.8125 16.40625,35.203125 15.15625,30.5625 13.921875,25.921875 13.921875,21 Z"
                 id="DejaVuSans-Oblique-111" />
              <path
                 d="M 55.71875,33.015625 49.3125,0 h -9.03125 l 6.40625,32.671875 q 0.4375,2.296875 0.671875,4.046875 0.25,1.765625 0.25,2.78125 0,4.109375 -2.59375,6.390625 Q 42.4375,48.1875 37.796875,48.1875 30.5625,48.1875 25.34375,43.375 20.125,38.578125 18.5,30.328125 L 12.5,0 H 3.515625 l 10.59375,54.6875 h 8.984375 l -1.796875,-8.59375 q 3.75,4.734375 9.015625,7.3125 Q 35.59375,56 41.40625,56 q 7.234375,0 11.203125,-3.90625 3.984375,-3.90625 3.984375,-10.984375 0,-1.75 -0.21875,-3.75 -0.21875,-2 -0.65625,-4.34375 z"
                 id="DejaVuSans-Oblique-110" />
            </defs>
            <use
               transform="translate(0,0.015625)"
               xlink:href="#DejaVuSans-Oblique-105"
               id="use172"
               x="0"
               y="0"
               width="100%"
               height="100%" />
            <use
               transform="translate(27.783203,0.015625)"
               xlink:href="#DejaVuSans-Oblique-116"
               id="use174"
               x="0"
               y="0"
               width="100%"
               height="100%" />
            <use
               transform="translate(66.992188,0.015625)"
               xlink:href="#DejaVuSans-Oblique-101"
               id="use176"
               x="0"
               y="0"
               width="100%"
               height="100%" />
            <use
               transform="translate(128.51562,0.015625)"
               xlink:href="#DejaVuSans-Oblique-114"
               id="use178"
               x="0"
               y="0"
               width="100%"
               height="100%" />
            <use
               transform="translate(169.62891,0.015625)"
               xlink:href="#DejaVuSans-Oblique-97"
               id="use180"
               x="0"
               y="0"
               width="100%"
               height="100%" />
            <use
               transform="translate(230.9082,0.015625)"
               xlink:href="#DejaVuSans-Oblique-116"
               id="use182"
               x="0"
               y="0"
               width="100%"
               height="100%" />
            <use
               transform="translate(270.11719,0.015625)"
               xlink:href="#DejaVuSans-Oblique-105"
               id="use184"
               x="0"
               y="0"
               width="100%"
               height="100%" />
            <use
               transform="translate(297.90039,0.015625)"
               xlink:href="#DejaVuSans-Oblique-111"
               id="use186"
               x="0"
               y="0"
               width="100%"
               height="100%" />
            <use
               transform="translate(359.08203,0.015625)"
               xlink:href="#DejaVuSans-Oblique-110"
               id="use188"
               x="0"
               y="0"
               width="100%"
               height="100%" />
          </g>
        </g>
      </g>
      <g
         id="matplotlib.axis_2">
        <g
           id="ytick_1">
          <g
             id="line2d_15">
            <path
               clip-path="url(#pf65174b20a)"
               d="M 57.6,295.48805 H 414.72"
               style="fill:none;stroke:#b0b0b0;stroke-width:0.8;stroke-linecap:square"
               id="path194" />
          </g>
          <g
             id="line2d_16">
            <defs
               id="defs198">
              <path
                 d="M 0,0 H -3.5"
                 id="m3c4b0f9f58"
                 style="stroke:#000000;stroke-width:0.8" />
            </defs>
            <g
               id="g202">
              <use
                 style="stroke:#000000;stroke-width:0.8"
                 x="57.599998"
                 xlink:href="#m3c4b0f9f58"
                 y="295.48807"
                 id="use200"
                 width="100%"
                 height="100%" />
            </g>
          </g>
          <g
             id="text_9">
            <!-- −4.0 -->
            <g
               transform="matrix(0.1,0,0,-0.1,26.317187,299.28727)"
               id="g217">
              <defs
                 id="defs207">
                <path
                   d="M 10.59375,35.5 H 73.1875 V 27.203125 H 10.59375 Z"
                   id="DejaVuSans-8722" />
                <path
                   d="M 10.6875,12.40625 H 21 V 0 H 10.6875 Z"
                   id="DejaVuSans-46" />
              </defs>
              <use
                 xlink:href="#DejaVuSans-8722"
                 id="use209"
                 x="0"
                 y="0"
                 width="100%"
                 height="100%" />
              <use
                 x="83.789062"
                 xlink:href="#DejaVuSans-52"
                 id="use211"
                 y="0"
                 width="100%"
                 height="100%" />
              <use
                 x="147.41211"
                 xlink:href="#DejaVuSans-46"
                 id="use213"
                 y="0"
                 width="100%"
                 height="100%" />
              <use
                 x="179.19922"
                 xlink:href="#DejaVuSans-48"
                 id="use215"
                 y="0"
                 width="100%"
                 height="100%" />
            </g>
          </g>
        </g>
        <g
           id="ytick_2">
          <g
             id="line2d_17">
            <path
               clip-path="url(#pf65174b20a)"
               d="M 57.6,252.91712 H 414.72"
               style="fill:none;stroke:#b0b0b0;stroke-width:0.8;stroke-linecap:square"
               id="path221" />
          </g>
          <g
             id="line2d_18">
            <g
               id="g226">
              <use
                 style="stroke:#000000;stroke-width:0.8"
                 x="57.599998"
                 xlink:href="#m3c4b0f9f58"
                 y="252.91711"
                 id="use224"
                 width="100%"
                 height="100%" />
            </g>
          </g>
          <g
             id="text_10">
            <!-- −3.5 -->
            <g
               transform="matrix(0.1,0,0,-0.1,26.317187,256.71634)"
               id="g237">
              <use
                 xlink:href="#DejaVuSans-8722"
                 id="use229"
                 x="0"
                 y="0"
                 width="100%"
                 height="100%" />
              <use
                 x="83.789062"
                 xlink:href="#DejaVuSans-51"
                 id="use231"
                 y="0"
                 width="100%"
                 height="100%" />
              <use
                 x="147.41211"
                 xlink:href="#DejaVuSans-46"
                 id="use233"
                 y="0"
                 width="100%"
                 height="100%" />
              <use
                 x="179.19922"
                 xlink:href="#DejaVuSans-53"
                 id="use235"
                 y="0"
                 width="100%"
                 height="100%" />
            </g>
          </g>
        </g>
        <g
           id="ytick_3">
          <g
             id="line2d_19">
            <path
               clip-path="url(#pf65174b20a)"
               d="M 57.6,210.34618 H 414.72"
               style="fill:none;stroke:#b0b0b0;stroke-width:0.8;stroke-linecap:square"
               id="path241" />
          </g>
          <g
             id="line2d_20">
            <g
               id="g246">
              <use
                 style="stroke:#000000;stroke-width:0.8"
                 x="57.599998"
                 xlink:href="#m3c4b0f9f58"
                 y="210.34618"
                 id="use244"
                 width="100%"
                 height="100%" />
            </g>
          </g>
          <g
             id="text_11">
            <!-- −3.0 -->
            <g
               transform="matrix(0.1,0,0,-0.1,26.317187,214.1454)"
               id="g257">
              <use
                 xlink:href="#DejaVuSans-8722"
                 id="use249"
                 x="0"
                 y="0"
                 width="100%"
                 height="100%" />
              <use
                 x="83.789062"
                 xlink:href="#DejaVuSans-51"
                 id="use251"
                 y="0"
                 width="100%"
                 height="100%" />
              <use
                 x="147.41211"
                 xlink:href="#DejaVuSans-46"
                 id="use253"
                 y="0"
                 width="100%"
                 height="100%" />
              <use
                 x="179.19922"
                 xlink:href="#DejaVuSans-48"
                 id="use255"
                 y="0"
                 width="100%"
                 height="100%" />
            </g>
          </g>
        </g>
        <g
           id="ytick_4">
          <g
             id="line2d_21">
            <path
               clip-path="url(#pf65174b20a)"
               d="M 57.6,167.77524 H 414.72"
               style="fill:none;stroke:#b0b0b0;stroke-width:0.8;stroke-linecap:square"
               id="path261" />
          </g>
          <g
             id="line2d_22">
            <g
               id="g266">
              <use
                 style="stroke:#000000;stroke-width:0.8"
                 x="57.599998"
                 xlink:href="#m3c4b0f9f58"
                 y="167.77524"
                 id="use264"
                 width="100%"
                 height="100%" />
            </g>
          </g>
          <g
             id="text_12">
            <!-- −2.5 -->
            <g
               transform="matrix(0.1,0,0,-0.1,26.317187,171.57446)"
               id="g277">
              <use
                 xlink:href="#DejaVuSans-8722"
                 id="use269"
                 x="0"
                 y="0"
                 width="100%"
                 height="100%" />
              <use
                 x="83.789062"
                 xlink:href="#DejaVuSans-50"
                 id="use271"
                 y="0"
                 width="100%"
                 height="100%" />
              <use
                 x="147.41211"
                 xlink:href="#DejaVuSans-46"
                 id="use273"
                 y="0"
                 width="100%"
                 height="100%" />
              <use
                 x="179.19922"
                 xlink:href="#DejaVuSans-53"
                 id="use275"
                 y="0"
                 width="100%"
                 height="100%" />
            </g>
          </g>
        </g>
        <g
           id="ytick_5">
          <g
             id="line2d_23">
            <path
               clip-path="url(#pf65174b20a)"
               d="M 57.6,125.2043 H 414.72"
               style="fill:none;stroke:#b0b0b0;stroke-width:0.8;stroke-linecap:square"
               id="path281" />
          </g>
          <g
             id="line2d_24">
            <g
               id="g286">
              <use
                 style="stroke:#000000;stroke-width:0.8"
                 x="57.599998"
                 xlink:href="#m3c4b0f9f58"
                 y="125.2043"
                 id="use284"
                 width="100%"
                 height="100%" />
            </g>
          </g>
          <g
             id="text_13">
            <!-- −2.0 -->
            <g
               transform="matrix(0.1,0,0,-0.1,26.317187,129.00352)"
               id="g297">
              <use
                 xlink:href="#DejaVuSans-8722"
                 id="use289"
                 x="0"
                 y="0"
                 width="100%"
                 height="100%" />
              <use
                 x="83.789062"
                 xlink:href="#DejaVuSans-50"
                 id="use291"
                 y="0"
                 width="100%"
                 height="100%" />
              <use
                 x="147.41211"
                 xlink:href="#DejaVuSans-46"
                 id="use293"
                 y="0"
                 width="100%"
                 height="100%" />
              <use
                 x="179.19922"
                 xlink:href="#DejaVuSans-48"
                 id="use295"
                 y="0"
                 width="100%"
                 height="100%" />
            </g>
          </g>
        </g>
        <g
           id="ytick_6">
          <g
             id="line2d_25">
            <path
               clip-path="url(#pf65174b20a)"
               d="M 57.6,82.633364 H 414.72"
               style="fill:none;stroke:#b0b0b0;stroke-width:0.8;stroke-linecap:square"
               id="path301" />
          </g>
          <g
             id="line2d_26">
            <g
               id="g306">
              <use
                 style="stroke:#000000;stroke-width:0.8"
                 x="57.599998"
                 xlink:href="#m3c4b0f9f58"
                 y="82.633362"
                 id="use304"
                 width="100%"
                 height="100%" />
            </g>
          </g>
          <g
             id="text_14">
            <!-- −1.5 -->
            <g
               transform="matrix(0.1,0,0,-0.1,26.317187,86.432583)"
               id="g317">
              <use
                 xlink:href="#DejaVuSans-8722"
                 id="use309"
                 x="0"
                 y="0"
                 width="100%"
                 height="100%" />
              <use
                 x="83.789062"
                 xlink:href="#DejaVuSans-49"
                 id="use311"
                 y="0"
                 width="100%"
                 height="100%" />
              <use
                 x="147.41211"
                 xlink:href="#DejaVuSans-46"
                 id="use313"
                 y="0"
                 width="100%"
                 height="100%" />
              <use
                 x="179.19922"
                 xlink:href="#DejaVuSans-53"
                 id="use315"
                 y="0"
                 width="100%"
                 height="100%" />
            </g>
          </g>
        </g>
        <g
           id="text_15">
          <!-- $\langle H_{\mathrm{MC}} \rangle$ -->
          <g
             transform="matrix(0,-0.1,-0.1,0,20.2375,187.828)"
             id="g338">
            <defs
               id="defs326">
              <path
                 d="M 8.9375,31.34375 22.703125,75.875 H 31 L 17.234375,31.34375 31,-13.1875 h -8.296875 z"
                 id="DejaVuSans-10216" />
              <path
                 d="M 16.890625,72.90625 H 26.8125 L 21,43.015625 h 35.78125 l 5.8125,29.890625 h 9.921875 L 58.296875,0 h -9.90625 l 6.78125,34.71875 H 19.390625 L 12.59375,0 H 2.6875 Z"
                 id="DejaVuSans-Oblique-72" />
              <path
                 d="M 9.8125,72.90625 H 24.515625 L 43.109375,23.296875 61.8125,72.90625 H 76.515625 V 0 h -9.625 v 64.015625 l -18.796875,-50 H 38.1875 l -18.796875,50 V 0 H 9.8125 Z"
                 id="DejaVuSans-77" />
              <path
                 d="M 64.40625,67.28125 V 56.890625 q -4.984375,4.640625 -10.625,6.921875 -5.640625,2.296875 -11.984375,2.296875 -12.5,0 -19.140625,-7.640625 -6.640625,-7.640625 -6.640625,-22.09375 0,-14.40625 6.640625,-22.046875 Q 29.296875,6.6875 41.796875,6.6875 q 6.34375,0 11.984375,2.296875 5.640625,2.296875 10.625,6.9375 V 5.609375 Q 59.234375,2.09375 53.4375,0.328125 q -5.78125,-1.75 -12.21875,-1.75 -16.5625,0 -26.09375,10.125 Q 5.609375,18.84375 5.609375,36.375 q 0,17.578125 9.515625,27.703125 9.53125,10.140625 26.09375,10.140625 6.53125,0 12.3125,-1.734375 5.796875,-1.734375 10.875,-5.203125 z"
                 id="DejaVuSans-67" />
              <path
                 d="M 30.078125,31.34375 16.3125,-13.1875 H 8.015625 L 21.78125,31.34375 8.015625,75.875 H 16.3125 Z"
                 id="DejaVuSans-10217" />
            </defs>
            <use
               transform="translate(0,0.125)"
               xlink:href="#DejaVuSans-10216"
               id="use328"
               x="0"
               y="0"
               width="100%"
               height="100%" />
            <use
               transform="translate(39.013672,0.125)"
               xlink:href="#DejaVuSans-Oblique-72"
               id="use330"
               x="0"
               y="0"
               width="100%"
               height="100%" />
            <use
               transform="matrix(0.7,0,0,0.7,114.20898,-16.28125)"
               xlink:href="#DejaVuSans-77"
               id="use332"
               x="0"
               y="0"
               width="100%"
               height="100%" />
            <use
               transform="matrix(0.7,0,0,0.7,174.60449,-16.28125)"
               xlink:href="#DejaVuSans-67"
               id="use334"
               x="0"
               y="0"
               width="100%"
               height="100%" />
            <use
               transform="translate(226.21582,0.125)"
               xlink:href="#DejaVuSans-10217"
               id="use336"
               x="0"
               y="0"
               width="100%"
               height="100%" />
          </g>
        </g>
      </g>
      <g
         id="line2d_27">
        <path
           clip-path="url(#pf65174b20a)"
           d="m 73.832727,180.42189 0.497937,-61.26319 0.497936,69.80643 0.497937,-82.63052 0.497936,70.03989 0.497936,-33.81992 0.497937,34.84626 0.497936,-30.91554 0.497937,2.95324 0.497936,52.20429 0.497936,-18.39681 0.497937,-83.327417 0.497936,150.169347 0.497937,-140.7243 0.497936,140.40907 0.497937,-145.60306 0.497936,91.70406 0.497936,-139.143349 0.497937,153.140259 0.497936,23.81257 0.497937,-29.38853 0.497936,14.50119 0.497936,-8.25482 0.497937,40.38499 0.497936,-59.78951 0.497937,64.72703 0.497936,-4.54013 0.497937,11.84548 0.497936,-68.04793 0.497936,28.03074 0.497937,-169.58371 0.497936,166.6023 0.497937,-6.88733 0.497936,11.367 0.497937,-86.90669 0.497936,129.34387 0.497936,-77.97219 0.497937,74.07335 0.497936,-78.31994 0.497937,67.54809 0.995872,12.69863 0.497937,-1.49864 0.497936,-39.00083 0.497937,41.1872 0.497936,-9.22241 0.497937,2.79551 0.497936,-53.15515 0.497936,51.42055 0.497937,10.13191 0.497936,-8.62271 0.497937,0.48703 0.497936,-8.85918 0.497939,16.05604 0.49793,-4.97949 0.49794,0.11981 0.49794,7.85545 0.49793,-2.16077 0.49794,6.19226 0.49794,0.22075 1.99174,-2.60102 0.49794,4.94774 0.49793,-0.9766 0.49794,-0.18437 0.49794,3.22785 0.49793,-1.89492 0.49794,8.05463 0.49794,-0.78253 0.49793,0.10381 0.49794,1.0892 0.49794,0.35796 0.49793,-0.25196 0.49794,0.086 0.49793,-3.72387 0.49794,4.27066 0.49794,-0.78296 0.49793,0.84208 0.49794,-0.16192 0.49794,-0.31221 0.49793,-2.5466 0.49794,2.51743 0.49794,-1.02 0.49793,1.14192 0.49794,-0.3595 0.49794,-0.006 0.49793,-0.30481 0.49794,0.912 0.49793,-0.39605 0.49794,0.87315 0.49794,0.0752 0.49793,0.86189 0.49794,0.26126 0.99587,-0.0941 0.49794,-0.45399 0.49794,1.26846 0.49793,-0.10871 0.49794,0.0805 0.49794,-0.18165 0.49793,0.56712 0.49794,-0.88473 0.49794,1.8544 0.49793,-0.58453 0.49794,-0.22359 0.49793,0.89178 0.49794,-0.0177 0.49794,-0.43311 0.49793,0.28396 0.49794,-1.11641 0.99587,1.7407 1.49381,-0.48093 0.49794,0.67877 0.49793,0.15312 0.49794,-0.40994 0.49794,0.82267 0.49793,0.3822 0.49794,-0.83961 0.49794,0.31423 0.49793,1.27226 0.49794,-0.16086 0.49794,0.0362 0.49793,-0.21256 0.49794,0.31889 0.49794,0.16982 0.99587,-0.64125 0.49793,0.55314 0.49794,-0.13887 0.99587,0.0347 0.49794,0.18092 0.49794,-0.91535 0.49793,1.04112 0.49794,0.0871 0.49794,-0.91003 0.49793,1.68955 0.49794,-0.97122 0.49793,0.9111 0.49794,0.20567 0.49794,0.0263 0.49793,0.29918 0.49794,-0.0679 0.49794,0.2965 0.49793,-0.27139 0.49794,0.35024 0.99587,0.056 0.49794,0.0109 0.49794,-0.62523 0.49793,0.59623 0.49794,-0.92808 0.49793,0.93552 0.49794,0.0195 0.49794,-0.11552 0.49793,-0.38626 0.49794,0.51239 0.49794,-0.87811 0.49793,0.7129 0.49794,0.325 0.49794,-0.11594 0.49793,0.18824 0.49794,-0.10943 0.49794,0.0455 0.49793,0.20058 0.49794,-0.29891 0.49793,0.33588 0.49794,0.12337 0.49794,-0.08 0.49793,0.15034 0.99588,-0.009 0.49793,-0.1996 3.48556,0.46115 1.49381,-0.12222 0.49793,0.14514 0.49794,-0.50781 0.49794,0.53392 0.99587,0.0728 0.99587,-0.0248 0.49794,-0.13967 0.49793,0.15972 0.49794,-0.14745 0.49794,0.0946 0.49793,-0.15258 0.49794,0.28113 0.49794,0.0537 0.49793,-0.16842 0.49794,0.19143 1.49381,-0.063 0.49794,-0.0687 0.49793,0.1159 0.49794,-0.13818 1.49381,0.23866 2.48968,0.007 0.49794,0.0151 0.49793,-0.0971 0.99588,0.12373 2.48968,-0.002 0.99587,0.0126 0.49794,-0.0335 0.49793,0.14336 1.99175,-5.7e-4 54.27507,0.22142 5.97524,0.008 25.39475,0.0119 70.20904,0.004 52.28332,3.1e-4 v 0"
           style="fill:none;stroke:#1f77b4;stroke-width:1.5;stroke-linecap:square"
           id="path342" />
      </g>
      <g
         id="line2d_28">
        <path
           clip-path="url(#pf65174b20a)"
           d="M 57.6,295.48805 H 414.72"
           style="fill:none;stroke:#ff7f0e;stroke-width:1.5;stroke-linecap:square"
           id="path345" />
      </g>
      <g
         id="patch_3">
        <path
           d="M 57.6,307.584 V 41.472"
           style="fill:none;stroke:#000000;stroke-width:0.8;stroke-linecap:square;stroke-linejoin:miter"
           id="path348" />
      </g>
      <g
         id="patch_4">
        <path
           d="M 414.72,307.584 V 41.472"
           style="fill:none;stroke:#000000;stroke-width:0.8;stroke-linecap:square;stroke-linejoin:miter"
           id="path351" />
      </g>
      <g
         id="patch_5">
        <path
           d="M 57.6,307.584 H 414.72"
           style="fill:none;stroke:#000000;stroke-width:0.8;stroke-linecap:square;stroke-linejoin:miter"
           id="path354" />
      </g>
      <g
         id="patch_6">
        <path
           d="M 57.6,41.472 H 414.72"
           style="fill:none;stroke:#000000;stroke-width:0.8;stroke-linecap:square;stroke-linejoin:miter"
           id="path357" />
      </g>
      <g
         id="legend_1" />
    </g>
  </g>
  <defs
     id="defs369">
    <clipPath
       id="pf65174b20a">
      <rect
         height="266.112"
         width="357.12"
         x="57.599998"
         y="41.472"
         id="rect366" />
    </clipPath>
  </defs>
</svg>
