<?xml version="1.0" encoding="UTF-8" standalone="no"?>
<svg
   xmlns:dc="http://purl.org/dc/elements/1.1/"
   xmlns:cc="http://creativecommons.org/ns#"
   xmlns:rdf="http://www.w3.org/1999/02/22-rdf-syntax-ns#"
   xmlns:svg="http://www.w3.org/2000/svg"
   xmlns="http://www.w3.org/2000/svg"
   xmlns:xlink="http://www.w3.org/1999/xlink"
   xmlns:sodipodi="http://sodipodi.sourceforge.net/DTD/sodipodi-0.dtd"
   xmlns:inkscape="http://www.inkscape.org/namespaces/inkscape"
   height="345.6pt"
   version="1.1"
   viewBox="0 0 460.8 345.6"
   width="460.8pt"
   id="svg426"
   sodipodi:docname="convergence_max_cut_vqe_noisy.svg"
   inkscape:version="1.0.1 (3bc2e813f5, 2020-09-07)">
  <sodipodi:namedview
     pagecolor="#ffffff"
     bordercolor="#666666"
     borderopacity="1"
     objecttolerance="10"
     gridtolerance="10"
     guidetolerance="10"
     inkscape:pageopacity="0"
     inkscape:pageshadow="2"
     inkscape:window-width="1920"
     inkscape:window-height="1042"
     id="namedview428"
     showgrid="false"
     inkscape:zoom="1.7013889"
     inkscape:cx="163.49387"
     inkscape:cy="230.4"
     inkscape:window-x="0"
     inkscape:window-y="18"
     inkscape:window-maximized="0"
     inkscape:current-layer="axes_1" />
  <metadata
     id="metadata2">
    <rdf:RDF>
      <cc:Work>
        <dc:type
           rdf:resource="http://purl.org/dc/dcmitype/StillImage" />
        <dc:date>2021-01-08T18:09:28.848032</dc:date>
        <dc:format>image/svg+xml</dc:format>
        <dc:creator>
          <cc:Agent>
            <dc:title>Matplotlib v3.3.3, https://matplotlib.org/</dc:title>
          </cc:Agent>
        </dc:creator>
      </cc:Work>
    </rdf:RDF>
  </metadata>
  <defs
     id="defs6">
    <style
       type="text/css"
       id="style4">*{stroke-linecap:butt;stroke-linejoin:round;}</style>
  </defs>
  <g
     id="figure_1">
    <g
       id="axes_1">
      <g
         id="PolyCollection_1">
        <path
           clip-path="url(#pbc089aef84)"
           d="M 73.832727 60.561084  L 73.832727 70.970745  L 74.866659 119.847588  L 75.900591 63.078211  L 76.934522 83.006446  L 77.968454 85.856413  L 79.002386 92.248378  L 80.036317 129.930234  L 81.070249 133.454351  L 82.104181 81.611768  L 83.138112 121.641223  L 84.172044 129.428532  L 85.205976 109.23545  L 86.239907 115.315456  L 87.273839 136.718936  L 88.307771 87.290117  L 89.341702 133.830806  L 90.375634 131.437421  L 91.409566 101.077727  L 92.443497 130.166287  L 93.477429 115.723228  L 94.511361 140.321384  L 95.545292 132.712297  L 96.579224 112.396117  L 97.613156 145.44789  L 98.647087 147.575792  L 99.681019 149.317818  L 100.714951 144.06497  L 101.748882 137.642776  L 102.782814 139.50211  L 103.816746 132.581388  L 104.850677 155.951009  L 105.884609 151.274125  L 106.918541 158.48495  L 107.952472 171.253388  L 108.986404 152.225638  L 110.020336 155.442916  L 111.054268 176.323683  L 112.088199 109.803107  L 113.122131 192.219722  L 114.156063 221.483258  L 115.189994 200.782502  L 116.223926 216.014897  L 117.257858 162.38991  L 118.291789 213.125882  L 119.325721 226.496907  L 120.359653 220.470194  L 121.393584 243.26073  L 122.427516 193.842139  L 123.461448 225.800573  L 124.495379 230.614844  L 125.529311 221.110742  L 126.563243 224.946453  L 127.597174 224.741952  L 128.631106 258.040353  L 129.665038 258.856636  L 130.698969 249.460392  L 131.732901 240.141043  L 132.766833 277.451897  L 133.800764 227.953396  L 134.834696 281.964108  L 135.868628 246.284153  L 136.902559 269.30064  L 137.936491 231.089342  L 138.970423 285.626872  L 140.004354 155.633641  L 141.038286 271.922844  L 142.072218 194.287822  L 143.106149 282.874604  L 144.140081 281.146173  L 145.174013 283.911826  L 146.207944 279.75236  L 147.241876 279.453844  L 148.275808 285.229559  L 149.309739 270.027032  L 150.343671 290.259953  L 151.377603 271.231463  L 152.411534 285.006933  L 153.445466 281.388629  L 154.479398 290.994229  L 155.513329 278.348779  L 156.547261 290.454443  L 157.581193 274.674083  L 158.615124 284.410609  L 159.649056 274.627811  L 160.682988 288.194987  L 161.71692 274.450607  L 162.750851 270.601332  L 163.784783 277.430169  L 164.818715 288.903884  L 165.852646 288.576505  L 166.886578 286.887682  L 167.92051 288.285129  L 168.954441 292.356823  L 169.988373 290.110944  L 171.022305 288.34352  L 172.056236 290.590215  L 173.090168 282.440957  L 174.1241 292.419234  L 175.158031 290.888039  L 176.191963 293.209011  L 177.225895 287.506505  L 178.259826 292.159079  L 179.293758 288.839269  L 180.32769 293.043626  L 181.361621 285.333055  L 182.395553 292.161321  L 183.429485 292.689036  L 184.463416 292.111875  L 185.497348 286.613208  L 186.53128 292.844574  L 187.565211 288.850556  L 188.599143 291.988446  L 189.633075 285.639907  L 190.667006 291.128657  L 191.700938 292.690676  L 192.73487 291.627106  L 193.768801 292.873926  L 194.802733 293.527176  L 195.836665 292.300454  L 196.870596 292.276175  L 197.904528 293.567511  L 198.93846 293.075055  L 199.972391 293.419971  L 201.006323 292.966139  L 202.040255 293.4055  L 203.074186 292.460368  L 204.108118 293.685382  L 205.14205 291.439532  L 206.175981 292.543831  L 207.209913 293.127869  L 208.243845 293.229637  L 209.277776 293.51967  L 210.311708 292.3697  L 211.34564 292.02293  L 212.379572 293.219332  L 213.413503 293.703381  L 214.447435 292.989878  L 215.481367 292.817724  L 216.515298 293.504613  L 217.54923 294.201919  L 218.583162 295.300894  L 219.617093 294.810922  L 220.651025 294.650155  L 221.684957 294.955988  L 222.718888 295.128824  L 223.75282 295.284059  L 224.786752 293.276641  L 225.820683 294.837911  L 226.854615 294.28982  L 227.888547 295.294666  L 228.922478 293.866629  L 229.95641 295.314787  L 230.990342 294.822213  L 232.024273 294.311165  L 233.058205 294.316718  L 234.092137 294.476387  L 235.126068 293.456398  L 236.16 294.627611  L 237.193932 293.651665  L 238.227863 295.300894  L 239.261795 294.812914  L 240.295727 294.659379  L 241.329658 295.305999  L 242.36359 294.842306  L 243.397522 294.834884  L 244.431453 295.313353  L 245.465385 293.812663  L 246.499317 294.791779  L 247.533248 294.67627  L 248.56718 294.669883  L 249.601112 294.650348  L 250.635043 294.823314  L 251.668975 295.148171  L 252.702907 294.825584  L 253.736838 294.813197  L 254.77077 294.790052  L 255.804702 295.145372  L 256.838633 294.992071  L 257.872565 295.316825  L 258.906497 294.506991  L 259.940428 294.663023  L 260.97436 294.812914  L 262.008292 295.292994  L 263.042224 295.306873  L 264.076155 294.851964  L 265.110087 295.310594  L 266.144019 294.996969  L 267.17795 295.482787  L 268.211882 294.785751  L 269.245814 295.31479  L 270.279745 294.834126  L 271.313677 294.996969  L 272.347609 294.831359  L 273.38154 295.154413  L 274.415472 294.994203  L 275.449404 295.310596  L 276.483335 295.325624  L 277.517267 295.316826  L 278.551199 294.998059  L 279.58513 294.993391  L 280.619062 294.797512  L 281.652994 295.327542  L 282.686925 295.482789  L 283.720857 295.314791  L 284.754789 294.996965  L 285.78872 295.310596  L 286.822652 295.484701  L 287.856584 294.979251  L 288.890515 294.834127  L 289.924447 295.47017  L 290.958379 294.996965  L 291.99231 295.310595  L 293.026242 295.327542  L 294.060174 294.996969  L 295.094105 295.482786  L 296.128037 295.332754  L 297.161969 295.482787  L 298.1959 295.312137  L 299.229832 295.316826  L 300.263764 295.330572  L 301.297695 295.316827  L 302.331627 295.313354  L 303.365559 294.99697  L 304.39949 295.327541  L 305.433422 295.467414  L 306.467354 295.487997  L 307.501285 294.996967  L 308.535217 295.316825  L 309.569149 295.470168  L 310.60308 295.484703  L 311.637012 295.155342  L 312.670944 295.467414  L 313.704876 295.316827  L 314.738807 295.482786  L 315.772739 295.470169  L 316.806671 295.306875  L 317.840602 295.482788  L 318.874534 295.482788  L 319.908466 295.482787  L 320.942397 295.316825  L 321.976329 295.482789  L 323.010261 294.996967  L 324.044192 295.482789  L 325.078124 295.470168  L 326.112056 295.482791  L 327.145987 295.470167  L 328.179919 295.482788  L 329.213851 295.32754  L 330.247782 295.487996  L 331.281714 295.484704  L 332.315646 295.470168  L 333.349577 295.484703  L 334.383509 295.466127  L 335.417441 295.464213  L 336.451372 295.487997  L 337.485304 295.47017  L 338.519236 295.484703  L 339.553167 295.327541  L 340.587099 295.484704  L 341.621031 295.484704  L 342.654962 295.484705  L 343.688894 295.482787  L 344.722826 295.488  L 345.756757 295.482788  L 346.790689 295.472084  L 347.824621 295.482788  L 348.858552 295.487998  L 349.892484 295.488  L 350.926416 295.484704  L 351.960347 295.482789  L 352.994279 295.472086  L 354.028211 295.482788  L 355.062142 295.487996  L 356.096074 295.482789  L 357.130006 295.472083  L 358.163937 295.482789  L 359.197869 295.45874  L 360.231801 295.484704  L 361.265732 295.472084  L 362.299664 295.487999  L 363.333596 295.472084  L 364.367528 295.484705  L 365.401459 295.472085  L 366.435391 295.484704  L 367.469323 295.482789  L 368.503254 295.487999  L 369.537186 295.48279  L 370.571118 295.487999  L 371.605049 295.48279  L 372.638981 295.472086  L 373.672913 295.484704  L 374.706844 295.472083  L 375.740776 295.482787  L 376.774708 295.484703  L 377.808639 295.472085  L 378.842571 295.487996  L 379.876503 295.487997  L 380.910434 295.472085  L 381.944366 295.487997  L 382.978298 295.487998  L 384.012229 295.487997  L 385.046161 295.487996  L 386.080093 295.472082  L 387.114024 295.466124  L 388.147956 295.487998  L 389.181888 295.487997  L 390.215819 295.487997  L 391.249751 295.472086  L 392.283683 295.487997  L 393.317614 295.487998  L 394.351546 295.487998  L 395.385478 295.458739  L 396.419409 295.487998  L 397.453341 295.487997  L 398.487273 295.487999  L 398.487273 292.485104  L 398.487273 292.485104  L 397.453341 292.485102  L 396.419409 292.485103  L 395.385478 292.449668  L 394.351546 292.485103  L 393.317614 292.485103  L 392.283683 292.485102  L 391.249751 292.466122  L 390.215819 292.485102  L 389.181888 292.485102  L 388.147956 292.485103  L 387.114024 292.458768  L 386.080093 292.466117  L 385.046161 292.485101  L 384.012229 292.485103  L 382.978298 292.485103  L 381.944366 292.485102  L 380.910434 292.466121  L 379.876503 292.485102  L 378.842571 292.485101  L 377.808639 292.466121  L 376.774708 292.481173  L 375.740776 292.478937  L 374.706844 292.466119  L 373.672913 292.481174  L 372.638981 292.466122  L 371.605049 292.47894  L 370.571118 292.485104  L 369.537186 292.478941  L 368.503254 292.485105  L 367.469323 292.478939  L 366.435391 292.481174  L 365.401459 292.466122  L 364.367528 292.481175  L 363.333596 292.46612  L 362.299664 292.485104  L 361.265732 292.46612  L 360.231801 292.481175  L 359.197869 292.44967  L 358.163937 292.478938  L 357.130006 292.466119  L 356.096074 292.478939  L 355.062142 292.485101  L 354.028211 292.478938  L 352.994279 292.466123  L 351.960347 292.478938  L 350.926416 292.481174  L 349.892484 292.485106  L 348.858552 292.485103  L 347.824621 292.478937  L 346.790689 292.46612  L 345.756757 292.478937  L 344.722826 292.485105  L 343.688894 292.478936  L 342.654962 292.481175  L 341.621031 292.481174  L 340.587099 292.481174  L 339.553167 292.29451  L 338.519236 292.481173  L 337.485304 292.463887  L 336.451372 292.485102  L 335.417441 292.456537  L 334.383509 292.458771  L 333.349577 292.481173  L 332.315646 292.463884  L 331.281714 292.481174  L 330.247782 292.485101  L 329.213851 292.29451  L 328.179919 292.478937  L 327.145987 292.463883  L 326.112056 292.478941  L 325.078124 292.463884  L 324.044192 292.478939  L 323.010261 291.896803  L 321.976329 292.478939  L 320.942397 292.281704  L 319.908466 292.478937  L 318.874534 292.478938  L 317.840602 292.478938  L 316.806671 292.263967  L 315.772739 292.463885  L 314.738807 292.478936  L 313.704876 292.281706  L 312.670944 292.460519  L 311.637012 292.083587  L 310.60308 292.481173  L 309.569149 292.463884  L 308.535217 292.281704  L 307.501285 291.896804  L 306.467354 292.485102  L 305.433422 292.460519  L 304.39949 292.29451  L 303.365559 291.896807  L 302.331627 292.277079  L 301.297695 292.281707  L 300.263764 292.292575  L 299.229832 292.281705  L 298.1959 292.276754  L 297.161969 292.478936  L 296.128037 292.300668  L 295.094105 292.478935  L 294.060174 291.896806  L 293.026242 292.294513  L 291.99231 292.273715  L 290.958379 291.896802  L 289.924447 292.463886  L 288.890515 291.697818  L 287.856584 291.902851  L 286.822652 292.481171  L 285.78872 292.273716  L 284.754789 291.896802  L 283.720857 292.273523  L 282.686925 292.478939  L 281.652994 292.294512  L 280.619062 291.668714  L 279.58513 291.906823  L 278.551199 291.905685  L 277.517267 292.281705  L 276.483335 292.292277  L 275.449404 292.273717  L 274.415472 291.89345  L 273.38154 292.082301  L 272.347609 291.694468  L 271.313677 291.896806  L 270.279745 291.697817  L 269.245814 292.273521  L 268.211882 291.681878  L 267.17795 292.478937  L 266.144019 291.896806  L 265.110087 292.273714  L 264.076155 291.725653  L 263.042224 292.263964  L 262.008292 292.267005  L 260.97436 291.680893  L 259.940428 291.53099  L 258.906497 291.32299  L 257.872565 292.281704  L 256.838633 291.884809  L 255.804702 292.085522  L 254.77077 291.659781  L 253.736838 291.714971  L 252.702907 291.700091  L 251.668975 292.074323  L 250.635043 291.691747  L 249.601112 291.515997  L 248.56718 291.504667  L 247.533248 291.511851  L 246.499317 291.672845  L 245.465385 290.549609  L 244.431453 292.277077  L 243.397522 291.713434  L 242.36359 291.716189  L 241.329658 292.262909  L 240.295727 291.520577  L 239.261795 291.680894  L 238.227863 292.262741  L 237.193932 290.374823  L 236.16 291.479618  L 235.126068 290.170932  L 234.092137 291.316617  L 233.058205 291.14656  L 232.024273 291.09398  L 230.990342 291.698434  L 229.95641 292.273518  L 228.922478 290.586314  L 227.888547 292.254756  L 226.854615 291.109202  L 225.820683 291.708973  L 224.786752 289.904167  L 223.75282 292.241684  L 222.718888 292.070826  L 221.684957 291.890563  L 220.651025 291.516718  L 219.617093 291.685099  L 218.583162 292.262741  L 217.54923 290.96571  L 216.515298 290.193985  L 215.481367 289.3447  L 214.447435 289.516176  L 213.413503 290.4177  L 212.379572 289.871926  L 211.34564 288.445404  L 210.311708 288.921122  L 209.277776 290.252586  L 208.243845 289.886048  L 207.209913 289.751054  L 206.175981 289.136853  L 205.14205 287.845344  L 204.108118 290.407896  L 203.074186 288.991682  L 202.040255 290.086605  L 201.006323 289.561662  L 199.972391 290.062523  L 198.93846 289.698839  L 197.904528 290.273192  L 196.870596 288.745912  L 195.836665 288.857023  L 194.802733 290.225961  L 193.768801 289.507814  L 192.73487 288.083786  L 191.700938 289.320411  L 190.667006 287.563589  L 189.633075 281.478029  L 188.599143 288.462846  L 187.565211 285.060278  L 186.53128 289.367896  L 185.497348 282.445147  L 184.463416 288.62495  L 183.429485 289.169694  L 182.395553 288.705378  L 181.361621 280.752979  L 180.32769 289.666349  L 179.293758 284.959285  L 178.259826 288.73551  L 177.225895 283.429219  L 176.191963 289.861545  L 175.158031 287.309934  L 174.1241 288.934084  L 173.090168 276.428526  L 172.056236 286.906265  L 171.022305 284.451056  L 169.988373 286.306365  L 168.954441 288.852669  L 167.92051 283.995738  L 166.886578 282.602045  L 165.852646 284.529378  L 164.818715 284.867889  L 163.784783 271.394966  L 162.750851 264.772873  L 161.71692 267.377403  L 160.682988 284.051927  L 159.649056 267.734464  L 158.615124 279.640883  L 157.581193 269.47486  L 156.547261 286.665622  L 155.513329 273.337774  L 154.479398 287.236007  L 153.445466 276.731286  L 152.411534 280.650796  L 151.377603 263.500763  L 150.343671 286.407376  L 149.309739 264.09207  L 148.275808 280.672257  L 147.241876 274.543781  L 146.207944 274.677342  L 145.174013 279.265776  L 144.140081 276.2437  L 143.106149 278.125775  L 142.072218 184.370217  L 141.038286 265.025882  L 140.004354 145.760262  L 138.970423 281.136705  L 137.936491 223.585864  L 136.902559 263.517223  L 135.868628 238.732821  L 134.834696 277.324491  L 133.800764 218.543457  L 132.766833 272.073237  L 131.732901 231.94541  L 130.698969 241.326869  L 129.665038 250.232431  L 128.631106 251.663757  L 127.597174 218.30847  L 126.563243 215.927124  L 125.529311 212.056861  L 124.495379 220.814235  L 123.461448 214.749156  L 122.427516 183.909125  L 121.393584 235.927238  L 120.359653 211.982638  L 119.325721 219.435984  L 118.291789 206.001934  L 117.257858 152.301592  L 116.223926 208.828068  L 115.189994 193.632083  L 114.156063 214.123799  L 113.122131 184.535604  L 112.088199 100.102441  L 111.054268 169.499337  L 110.020336 149.935145  L 108.986404 145.299871  L 107.952472 164.939734  L 106.918541 152.229184  L 105.884609 144.693954  L 104.850677 151.601651  L 103.816746 126.757142  L 102.782814 134.888886  L 101.748882 133.344372  L 100.714951 139.577998  L 99.681019 146.231006  L 98.647087 145.750115  L 97.613156 140.015815  L 96.579224 106.310574  L 95.545292 127.167452  L 94.511361 134.322432  L 93.477429 108.992991  L 92.443497 123.484049  L 91.409566 93.571318  L 90.375634 125.035728  L 89.341702 128.733142  L 88.307771 77.790921  L 87.273839 130.824505  L 86.239907 109.484925  L 85.205976 103.677306  L 84.172044 124.986436  L 83.138112 115.467496  L 82.104181 74.124678  L 81.070249 129.588072  L 80.036317 125.619408  L 79.002386 84.974093  L 77.968454 78.984493  L 76.934522 73.919822  L 75.900591 53.568  L 74.866659 112.636179  L 73.832727 60.561084  z "
           style="fill:#1f77b4;fill-opacity:0.5;"
           id="path14" />
      </g>
      <g
         id="matplotlib.axis_1">
        <g
           id="xtick_1">
          <g
             id="line2d_1">
            <path
               clip-path="url(#pbc089aef84)"
               d="M 73.832727 307.584  L 73.832727 41.472  "
               style="fill:none;stroke:#b0b0b0;stroke-linecap:square;stroke-width:0.8;"
               id="path17" />
          </g>
          <g
             id="line2d_2">
            <defs
               id="defs21">
              <path
                 d="M 0 0  L 0 3.5  "
                 id="ma8fa36fbd0"
                 style="stroke:#000000;stroke-width:0.8;" />
            </defs>
            <g
               id="g25">
              <use
                 style="stroke:#000000;stroke-width:0.8;"
                 x="73.832727"
                 xlink:href="#ma8fa36fbd0"
                 y="307.584"
                 id="use23" />
            </g>
          </g>
          <g
             id="text_1">
            <!-- 0 -->
            <g
               transform="translate(70.651477 322.182437)scale(0.1 -0.1)"
               id="g33">
              <defs
                 id="defs29">
                <path
                   d="M 31.78125 66.40625  Q 24.171875 66.40625 20.328125 58.90625  Q 16.5 51.421875 16.5 36.375  Q 16.5 21.390625 20.328125 13.890625  Q 24.171875 6.390625 31.78125 6.390625  Q 39.453125 6.390625 43.28125 13.890625  Q 47.125 21.390625 47.125 36.375  Q 47.125 51.421875 43.28125 58.90625  Q 39.453125 66.40625 31.78125 66.40625  z M 31.78125 74.21875  Q 44.046875 74.21875 50.515625 64.515625  Q 56.984375 54.828125 56.984375 36.375  Q 56.984375 17.96875 50.515625 8.265625  Q 44.046875 -1.421875 31.78125 -1.421875  Q 19.53125 -1.421875 13.0625 8.265625  Q 6.59375 17.96875 6.59375 36.375  Q 6.59375 54.828125 13.0625 64.515625  Q 19.53125 74.21875 31.78125 74.21875  z "
                   id="DejaVuSans-48" />
              </defs>
              <use
                 xlink:href="#DejaVuSans-48"
                 id="use31" />
            </g>
          </g>
        </g>
        <g
           id="xtick_2">
          <g
             id="line2d_3">
            <path
               clip-path="url(#pbc089aef84)"
               d="M 125.529311 307.584  L 125.529311 41.472  "
               style="fill:none;stroke:#b0b0b0;stroke-linecap:square;stroke-width:0.8;"
               id="path37" />
          </g>
          <g
             id="line2d_4">
            <g
               id="g42">
              <use
                 style="stroke:#000000;stroke-width:0.8;"
                 x="125.529311"
                 xlink:href="#ma8fa36fbd0"
                 y="307.584"
                 id="use40" />
            </g>
          </g>
          <g
             id="text_2">
            <!-- 50 -->
            <g
               transform="translate(119.166811 322.182437)scale(0.1 -0.1)"
               id="g52">
              <defs
                 id="defs46">
                <path
                   d="M 10.796875 72.90625  L 49.515625 72.90625  L 49.515625 64.59375  L 19.828125 64.59375  L 19.828125 46.734375  Q 21.96875 47.46875 24.109375 47.828125  Q 26.265625 48.1875 28.421875 48.1875  Q 40.625 48.1875 47.75 41.5  Q 54.890625 34.8125 54.890625 23.390625  Q 54.890625 11.625 47.5625 5.09375  Q 40.234375 -1.421875 26.90625 -1.421875  Q 22.3125 -1.421875 17.546875 -0.640625  Q 12.796875 0.140625 7.71875 1.703125  L 7.71875 11.625  Q 12.109375 9.234375 16.796875 8.0625  Q 21.484375 6.890625 26.703125 6.890625  Q 35.15625 6.890625 40.078125 11.328125  Q 45.015625 15.765625 45.015625 23.390625  Q 45.015625 31 40.078125 35.4375  Q 35.15625 39.890625 26.703125 39.890625  Q 22.75 39.890625 18.8125 39.015625  Q 14.890625 38.140625 10.796875 36.28125  z "
                   id="DejaVuSans-53" />
              </defs>
              <use
                 xlink:href="#DejaVuSans-53"
                 id="use48" />
              <use
                 x="63.623047"
                 xlink:href="#DejaVuSans-48"
                 id="use50" />
            </g>
          </g>
        </g>
        <g
           id="xtick_3">
          <g
             id="line2d_5">
            <path
               clip-path="url(#pbc089aef84)"
               d="M 177.225895 307.584  L 177.225895 41.472  "
               style="fill:none;stroke:#b0b0b0;stroke-linecap:square;stroke-width:0.8;"
               id="path56" />
          </g>
          <g
             id="line2d_6">
            <g
               id="g61">
              <use
                 style="stroke:#000000;stroke-width:0.8;"
                 x="177.225895"
                 xlink:href="#ma8fa36fbd0"
                 y="307.584"
                 id="use59" />
            </g>
          </g>
          <g
             id="text_3">
            <!-- 100 -->
            <g
               transform="translate(167.682145 322.182437)scale(0.1 -0.1)"
               id="g73">
              <defs
                 id="defs65">
                <path
                   d="M 12.40625 8.296875  L 28.515625 8.296875  L 28.515625 63.921875  L 10.984375 60.40625  L 10.984375 69.390625  L 28.421875 72.90625  L 38.28125 72.90625  L 38.28125 8.296875  L 54.390625 8.296875  L 54.390625 0  L 12.40625 0  z "
                   id="DejaVuSans-49" />
              </defs>
              <use
                 xlink:href="#DejaVuSans-49"
                 id="use67" />
              <use
                 x="63.623047"
                 xlink:href="#DejaVuSans-48"
                 id="use69" />
              <use
                 x="127.246094"
                 xlink:href="#DejaVuSans-48"
                 id="use71" />
            </g>
          </g>
        </g>
        <g
           id="xtick_4">
          <g
             id="line2d_7">
            <path
               clip-path="url(#pbc089aef84)"
               d="M 228.922478 307.584  L 228.922478 41.472  "
               style="fill:none;stroke:#b0b0b0;stroke-linecap:square;stroke-width:0.8;"
               id="path77" />
          </g>
          <g
             id="line2d_8">
            <g
               id="g82">
              <use
                 style="stroke:#000000;stroke-width:0.8;"
                 x="228.922478"
                 xlink:href="#ma8fa36fbd0"
                 y="307.584"
                 id="use80" />
            </g>
          </g>
          <g
             id="text_4">
            <!-- 150 -->
            <g
               transform="translate(219.378728 322.182437)scale(0.1 -0.1)"
               id="g91">
              <use
                 xlink:href="#DejaVuSans-49"
                 id="use85" />
              <use
                 x="63.623047"
                 xlink:href="#DejaVuSans-53"
                 id="use87" />
              <use
                 x="127.246094"
                 xlink:href="#DejaVuSans-48"
                 id="use89" />
            </g>
          </g>
        </g>
        <g
           id="xtick_5">
          <g
             id="line2d_9">
            <path
               clip-path="url(#pbc089aef84)"
               d="M 280.619062 307.584  L 280.619062 41.472  "
               style="fill:none;stroke:#b0b0b0;stroke-linecap:square;stroke-width:0.8;"
               id="path95" />
          </g>
          <g
             id="line2d_10">
            <g
               id="g100">
              <use
                 style="stroke:#000000;stroke-width:0.8;"
                 x="280.619062"
                 xlink:href="#ma8fa36fbd0"
                 y="307.584"
                 id="use98" />
            </g>
          </g>
          <g
             id="text_5">
            <!-- 200 -->
            <g
               transform="translate(271.075312 322.182437)scale(0.1 -0.1)"
               id="g112">
              <defs
                 id="defs104">
                <path
                   d="M 19.1875 8.296875  L 53.609375 8.296875  L 53.609375 0  L 7.328125 0  L 7.328125 8.296875  Q 12.9375 14.109375 22.625 23.890625  Q 32.328125 33.6875 34.8125 36.53125  Q 39.546875 41.84375 41.421875 45.53125  Q 43.3125 49.21875 43.3125 52.78125  Q 43.3125 58.59375 39.234375 62.25  Q 35.15625 65.921875 28.609375 65.921875  Q 23.96875 65.921875 18.8125 64.3125  Q 13.671875 62.703125 7.8125 59.421875  L 7.8125 69.390625  Q 13.765625 71.78125 18.9375 73  Q 24.125 74.21875 28.421875 74.21875  Q 39.75 74.21875 46.484375 68.546875  Q 53.21875 62.890625 53.21875 53.421875  Q 53.21875 48.921875 51.53125 44.890625  Q 49.859375 40.875 45.40625 35.40625  Q 44.1875 33.984375 37.640625 27.21875  Q 31.109375 20.453125 19.1875 8.296875  z "
                   id="DejaVuSans-50" />
              </defs>
              <use
                 xlink:href="#DejaVuSans-50"
                 id="use106" />
              <use
                 x="63.623047"
                 xlink:href="#DejaVuSans-48"
                 id="use108" />
              <use
                 x="127.246094"
                 xlink:href="#DejaVuSans-48"
                 id="use110" />
            </g>
          </g>
        </g>
        <g
           id="xtick_6">
          <g
             id="line2d_11">
            <path
               clip-path="url(#pbc089aef84)"
               d="M 332.315646 307.584  L 332.315646 41.472  "
               style="fill:none;stroke:#b0b0b0;stroke-linecap:square;stroke-width:0.8;"
               id="path116" />
          </g>
          <g
             id="line2d_12">
            <g
               id="g121">
              <use
                 style="stroke:#000000;stroke-width:0.8;"
                 x="332.315646"
                 xlink:href="#ma8fa36fbd0"
                 y="307.584"
                 id="use119" />
            </g>
          </g>
          <g
             id="text_6">
            <!-- 250 -->
            <g
               transform="translate(322.771896 322.182437)scale(0.1 -0.1)"
               id="g130">
              <use
                 xlink:href="#DejaVuSans-50"
                 id="use124" />
              <use
                 x="63.623047"
                 xlink:href="#DejaVuSans-53"
                 id="use126" />
              <use
                 x="127.246094"
                 xlink:href="#DejaVuSans-48"
                 id="use128" />
            </g>
          </g>
        </g>
        <g
           id="xtick_7">
          <g
             id="line2d_13">
            <path
               clip-path="url(#pbc089aef84)"
               d="M 384.012229 307.584  L 384.012229 41.472  "
               style="fill:none;stroke:#b0b0b0;stroke-linecap:square;stroke-width:0.8;"
               id="path134" />
          </g>
          <g
             id="line2d_14">
            <g
               id="g139">
              <use
                 style="stroke:#000000;stroke-width:0.8;"
                 x="384.012229"
                 xlink:href="#ma8fa36fbd0"
                 y="307.584"
                 id="use137" />
            </g>
          </g>
          <g
             id="text_7">
            <!-- 300 -->
            <g
               transform="translate(374.468479 322.182437)scale(0.1 -0.1)"
               id="g151">
              <defs
                 id="defs143">
                <path
                   d="M 40.578125 39.3125  Q 47.65625 37.796875 51.625 33  Q 55.609375 28.21875 55.609375 21.1875  Q 55.609375 10.40625 48.1875 4.484375  Q 40.765625 -1.421875 27.09375 -1.421875  Q 22.515625 -1.421875 17.65625 -0.515625  Q 12.796875 0.390625 7.625 2.203125  L 7.625 11.71875  Q 11.71875 9.328125 16.59375 8.109375  Q 21.484375 6.890625 26.8125 6.890625  Q 36.078125 6.890625 40.9375 10.546875  Q 45.796875 14.203125 45.796875 21.1875  Q 45.796875 27.640625 41.28125 31.265625  Q 36.765625 34.90625 28.71875 34.90625  L 20.21875 34.90625  L 20.21875 43.015625  L 29.109375 43.015625  Q 36.375 43.015625 40.234375 45.921875  Q 44.09375 48.828125 44.09375 54.296875  Q 44.09375 59.90625 40.109375 62.90625  Q 36.140625 65.921875 28.71875 65.921875  Q 24.65625 65.921875 20.015625 65.03125  Q 15.375 64.15625 9.8125 62.3125  L 9.8125 71.09375  Q 15.4375 72.65625 20.34375 73.4375  Q 25.25 74.21875 29.59375 74.21875  Q 40.828125 74.21875 47.359375 69.109375  Q 53.90625 64.015625 53.90625 55.328125  Q 53.90625 49.265625 50.4375 45.09375  Q 46.96875 40.921875 40.578125 39.3125  z "
                   id="DejaVuSans-51" />
              </defs>
              <use
                 xlink:href="#DejaVuSans-51"
                 id="use145" />
              <use
                 x="63.623047"
                 xlink:href="#DejaVuSans-48"
                 id="use147" />
              <use
                 x="127.246094"
                 xlink:href="#DejaVuSans-48"
                 id="use149" />
            </g>
          </g>
        </g>
        <g
           id="text_8">
          <!-- $iteration$ -->
          <g
             transform="translate(215.01 335.860562)scale(0.1 -0.1)"
             id="g182">
            <defs
               id="defs162">
              <path
                 d="M 18.3125 75.984375  L 27.296875 75.984375  L 25.09375 64.59375  L 16.109375 64.59375  z M 14.203125 54.6875  L 23.1875 54.6875  L 12.5 0  L 3.515625 0  z "
                 id="DejaVuSans-Oblique-105" />
              <path
                 d="M 42.28125 54.6875  L 40.921875 47.703125  L 23 47.703125  L 17.1875 18.015625  Q 16.890625 16.359375 16.75 15.234375  Q 16.609375 14.109375 16.609375 13.484375  Q 16.609375 10.359375 18.484375 8.9375  Q 20.359375 7.515625 24.515625 7.515625  L 33.59375 7.515625  L 32.078125 0  L 23.484375 0  Q 15.484375 0 11.546875 3.125  Q 7.625 6.25 7.625 12.59375  Q 7.625 13.71875 7.765625 15.0625  Q 7.90625 16.40625 8.203125 18.015625  L 14.015625 47.703125  L 6.390625 47.703125  L 7.8125 54.6875  L 15.28125 54.6875  L 18.3125 70.21875  L 27.296875 70.21875  L 24.3125 54.6875  z "
                 id="DejaVuSans-Oblique-116" />
              <path
                 d="M 48.09375 32.234375  Q 48.25 33.015625 48.3125 33.84375  Q 48.390625 34.671875 48.390625 35.5  Q 48.390625 41.453125 44.890625 44.921875  Q 41.40625 48.390625 35.40625 48.390625  Q 28.71875 48.390625 23.578125 44.15625  Q 18.453125 39.9375 15.828125 32.171875  z M 55.90625 25.203125  L 14.109375 25.203125  Q 13.8125 23.34375 13.71875 22.265625  Q 13.625 21.1875 13.625 20.40625  Q 13.625 13.625 17.796875 9.90625  Q 21.96875 6.203125 29.59375 6.203125  Q 35.453125 6.203125 40.671875 7.515625  Q 45.90625 8.84375 50.390625 11.375  L 48.6875 2.484375  Q 43.84375 0.53125 38.6875 -0.4375  Q 33.546875 -1.421875 28.21875 -1.421875  Q 16.84375 -1.421875 10.71875 4.015625  Q 4.59375 9.46875 4.59375 19.484375  Q 4.59375 28.03125 7.640625 35.375  Q 10.6875 42.71875 16.609375 48.484375  Q 20.40625 52.09375 25.65625 54.046875  Q 30.90625 56 36.8125 56  Q 46.09375 56 51.578125 50.4375  Q 57.078125 44.875 57.078125 35.5  Q 57.078125 33.25 56.78125 30.6875  Q 56.5 28.125 55.90625 25.203125  z "
                 id="DejaVuSans-Oblique-101" />
              <path
                 d="M 44.578125 46.390625  Q 43.21875 47.125 41.453125 47.515625  Q 39.703125 47.90625 37.703125 47.90625  Q 30.515625 47.90625 25.140625 42.453125  Q 19.78125 37.015625 18.015625 27.875  L 12.5 0  L 3.515625 0  L 14.203125 54.6875  L 23.1875 54.6875  L 21.484375 46.1875  Q 25.046875 50.921875 30 53.453125  Q 34.96875 56 40.578125 56  Q 42.046875 56 43.453125 55.828125  Q 44.875 55.671875 46.296875 55.28125  z "
                 id="DejaVuSans-Oblique-114" />
              <path
                 d="M 53.71875 31.203125  L 47.609375 0  L 38.625 0  L 40.28125 8.296875  Q 36.328125 3.421875 31.265625 1  Q 26.21875 -1.421875 20.015625 -1.421875  Q 13.03125 -1.421875 8.5625 2.84375  Q 4.109375 7.125 4.109375 13.8125  Q 4.109375 23.390625 11.75 28.953125  Q 19.390625 34.515625 32.8125 34.515625  L 45.3125 34.515625  L 45.796875 36.921875  Q 45.90625 37.3125 45.953125 37.765625  Q 46 38.234375 46 39.203125  Q 46 43.5625 42.453125 45.96875  Q 38.921875 48.390625 32.515625 48.390625  Q 28.125 48.390625 23.5 47.265625  Q 18.890625 46.140625 14.015625 43.890625  L 15.578125 52.203125  Q 20.65625 54.109375 25.515625 55.046875  Q 30.375 56 34.90625 56  Q 44.578125 56 49.625 51.796875  Q 54.6875 47.609375 54.6875 39.59375  Q 54.6875 37.984375 54.4375 35.8125  Q 54.203125 33.640625 53.71875 31.203125  z M 44 27.484375  L 35.015625 27.484375  Q 23.96875 27.484375 18.671875 24.53125  Q 13.375 21.578125 13.375 15.375  Q 13.375 11.078125 16.078125 8.640625  Q 18.796875 6.203125 23.578125 6.203125  Q 30.90625 6.203125 36.375 11.453125  Q 41.84375 16.703125 43.609375 25.484375  z "
                 id="DejaVuSans-Oblique-97" />
              <path
                 d="M 25.390625 -1.421875  Q 15.765625 -1.421875 10.171875 4.515625  Q 4.59375 10.453125 4.59375 20.703125  Q 4.59375 26.65625 6.515625 32.828125  Q 8.453125 39.015625 11.53125 43.21875  Q 16.359375 49.75 22.3125 52.875  Q 28.265625 56 35.796875 56  Q 45.125 56 50.859375 50.1875  Q 56.59375 44.390625 56.59375 35.015625  Q 56.59375 28.515625 54.6875 22.0625  Q 52.78125 15.625 49.703125 11.375  Q 44.921875 4.828125 38.96875 1.703125  Q 33.015625 -1.421875 25.390625 -1.421875  z M 13.921875 21  Q 13.921875 13.578125 17.015625 9.890625  Q 20.125 6.203125 26.421875 6.203125  Q 35.453125 6.203125 41.375 14.078125  Q 47.3125 21.96875 47.3125 34.078125  Q 47.3125 41.15625 44.140625 44.765625  Q 40.96875 48.390625 34.8125 48.390625  Q 29.734375 48.390625 25.78125 46.015625  Q 21.828125 43.65625 18.703125 38.8125  Q 16.40625 35.203125 15.15625 30.5625  Q 13.921875 25.921875 13.921875 21  z "
                 id="DejaVuSans-Oblique-111" />
              <path
                 d="M 55.71875 33.015625  L 49.3125 0  L 40.28125 0  L 46.6875 32.671875  Q 47.125 34.96875 47.359375 36.71875  Q 47.609375 38.484375 47.609375 39.5  Q 47.609375 43.609375 45.015625 45.890625  Q 42.4375 48.1875 37.796875 48.1875  Q 30.5625 48.1875 25.34375 43.375  Q 20.125 38.578125 18.5 30.328125  L 12.5 0  L 3.515625 0  L 14.109375 54.6875  L 23.09375 54.6875  L 21.296875 46.09375  Q 25.046875 50.828125 30.3125 53.40625  Q 35.59375 56 41.40625 56  Q 48.640625 56 52.609375 52.09375  Q 56.59375 48.1875 56.59375 41.109375  Q 56.59375 39.359375 56.375 37.359375  Q 56.15625 35.359375 55.71875 33.015625  z "
                 id="DejaVuSans-Oblique-110" />
            </defs>
            <use
               transform="translate(0 0.015625)"
               xlink:href="#DejaVuSans-Oblique-105"
               id="use164" />
            <use
               transform="translate(27.783203 0.015625)"
               xlink:href="#DejaVuSans-Oblique-116"
               id="use166" />
            <use
               transform="translate(66.992188 0.015625)"
               xlink:href="#DejaVuSans-Oblique-101"
               id="use168" />
            <use
               transform="translate(128.515625 0.015625)"
               xlink:href="#DejaVuSans-Oblique-114"
               id="use170" />
            <use
               transform="translate(169.628906 0.015625)"
               xlink:href="#DejaVuSans-Oblique-97"
               id="use172" />
            <use
               transform="translate(230.908203 0.015625)"
               xlink:href="#DejaVuSans-Oblique-116"
               id="use174" />
            <use
               transform="translate(270.117188 0.015625)"
               xlink:href="#DejaVuSans-Oblique-105"
               id="use176" />
            <use
               transform="translate(297.900391 0.015625)"
               xlink:href="#DejaVuSans-Oblique-111"
               id="use178" />
            <use
               transform="translate(359.082031 0.015625)"
               xlink:href="#DejaVuSans-Oblique-110"
               id="use180" />
          </g>
        </g>
      </g>
      <g
         id="matplotlib.axis_2">
        <g
           id="ytick_1">
          <g
             id="line2d_15">
            <path
               clip-path="url(#pbc089aef84)"
               d="M 57.6 301.680174  L 414.72 301.680174  "
               style="fill:none;stroke:#b0b0b0;stroke-linecap:square;stroke-width:0.8;"
               id="path186" />
          </g>
          <g
             id="line2d_16">
            <defs
               id="defs190">
              <path
                 d="M 0 0  L -3.5 0  "
                 id="mae5ec2512b"
                 style="stroke:#000000;stroke-width:0.8;" />
            </defs>
            <g
               id="g194">
              <use
                 style="stroke:#000000;stroke-width:0.8;"
                 x="57.6"
                 xlink:href="#mae5ec2512b"
                 y="301.680174"
                 id="use192" />
            </g>
          </g>
          <g
             id="text_9">
            <!-- −4.0 -->
            <g
               transform="translate(26.317187 305.479393)scale(0.1 -0.1)"
               id="g210">
              <defs
                 id="defs200">
                <path
                   d="M 10.59375 35.5  L 73.1875 35.5  L 73.1875 27.203125  L 10.59375 27.203125  z "
                   id="DejaVuSans-8722" />
                <path
                   d="M 37.796875 64.3125  L 12.890625 25.390625  L 37.796875 25.390625  z M 35.203125 72.90625  L 47.609375 72.90625  L 47.609375 25.390625  L 58.015625 25.390625  L 58.015625 17.1875  L 47.609375 17.1875  L 47.609375 0  L 37.796875 0  L 37.796875 17.1875  L 4.890625 17.1875  L 4.890625 26.703125  z "
                   id="DejaVuSans-52" />
                <path
                   d="M 10.6875 12.40625  L 21 12.40625  L 21 0  L 10.6875 0  z "
                   id="DejaVuSans-46" />
              </defs>
              <use
                 xlink:href="#DejaVuSans-8722"
                 id="use202" />
              <use
                 x="83.789062"
                 xlink:href="#DejaVuSans-52"
                 id="use204" />
              <use
                 x="147.412109"
                 xlink:href="#DejaVuSans-46"
                 id="use206" />
              <use
                 x="179.199219"
                 xlink:href="#DejaVuSans-48"
                 id="use208" />
            </g>
          </g>
        </g>
        <g
           id="ytick_2">
          <g
             id="line2d_17">
            <path
               clip-path="url(#pbc089aef84)"
               d="M 57.6 270.865963  L 414.72 270.865963  "
               style="fill:none;stroke:#b0b0b0;stroke-linecap:square;stroke-width:0.8;"
               id="path214" />
          </g>
          <g
             id="line2d_18">
            <g
               id="g219">
              <use
                 style="stroke:#000000;stroke-width:0.8;"
                 x="57.6"
                 xlink:href="#mae5ec2512b"
                 y="270.865963"
                 id="use217" />
            </g>
          </g>
          <g
             id="text_10">
            <!-- −3.8 -->
            <g
               transform="translate(26.317187 274.665182)scale(0.1 -0.1)"
               id="g233">
              <defs
                 id="defs223">
                <path
                   d="M 31.78125 34.625  Q 24.75 34.625 20.71875 30.859375  Q 16.703125 27.09375 16.703125 20.515625  Q 16.703125 13.921875 20.71875 10.15625  Q 24.75 6.390625 31.78125 6.390625  Q 38.8125 6.390625 42.859375 10.171875  Q 46.921875 13.96875 46.921875 20.515625  Q 46.921875 27.09375 42.890625 30.859375  Q 38.875 34.625 31.78125 34.625  z M 21.921875 38.8125  Q 15.578125 40.375 12.03125 44.71875  Q 8.5 49.078125 8.5 55.328125  Q 8.5 64.0625 14.71875 69.140625  Q 20.953125 74.21875 31.78125 74.21875  Q 42.671875 74.21875 48.875 69.140625  Q 55.078125 64.0625 55.078125 55.328125  Q 55.078125 49.078125 51.53125 44.71875  Q 48 40.375 41.703125 38.8125  Q 48.828125 37.15625 52.796875 32.3125  Q 56.78125 27.484375 56.78125 20.515625  Q 56.78125 9.90625 50.3125 4.234375  Q 43.84375 -1.421875 31.78125 -1.421875  Q 19.734375 -1.421875 13.25 4.234375  Q 6.78125 9.90625 6.78125 20.515625  Q 6.78125 27.484375 10.78125 32.3125  Q 14.796875 37.15625 21.921875 38.8125  z M 18.3125 54.390625  Q 18.3125 48.734375 21.84375 45.5625  Q 25.390625 42.390625 31.78125 42.390625  Q 38.140625 42.390625 41.71875 45.5625  Q 45.3125 48.734375 45.3125 54.390625  Q 45.3125 60.0625 41.71875 63.234375  Q 38.140625 66.40625 31.78125 66.40625  Q 25.390625 66.40625 21.84375 63.234375  Q 18.3125 60.0625 18.3125 54.390625  z "
                   id="DejaVuSans-56" />
              </defs>
              <use
                 xlink:href="#DejaVuSans-8722"
                 id="use225" />
              <use
                 x="83.789062"
                 xlink:href="#DejaVuSans-51"
                 id="use227" />
              <use
                 x="147.412109"
                 xlink:href="#DejaVuSans-46"
                 id="use229" />
              <use
                 x="179.199219"
                 xlink:href="#DejaVuSans-56"
                 id="use231" />
            </g>
          </g>
        </g>
        <g
           id="ytick_3">
          <g
             id="line2d_19">
            <path
               clip-path="url(#pbc089aef84)"
               d="M 57.6 240.051752  L 414.72 240.051752  "
               style="fill:none;stroke:#b0b0b0;stroke-linecap:square;stroke-width:0.8;"
               id="path237" />
          </g>
          <g
             id="line2d_20">
            <g
               id="g242">
              <use
                 style="stroke:#000000;stroke-width:0.8;"
                 x="57.6"
                 xlink:href="#mae5ec2512b"
                 y="240.051752"
                 id="use240" />
            </g>
          </g>
          <g
             id="text_11">
            <!-- −3.6 -->
            <g
               transform="translate(26.317187 243.850971)scale(0.1 -0.1)"
               id="g256">
              <defs
                 id="defs246">
                <path
                   d="M 33.015625 40.375  Q 26.375 40.375 22.484375 35.828125  Q 18.609375 31.296875 18.609375 23.390625  Q 18.609375 15.53125 22.484375 10.953125  Q 26.375 6.390625 33.015625 6.390625  Q 39.65625 6.390625 43.53125 10.953125  Q 47.40625 15.53125 47.40625 23.390625  Q 47.40625 31.296875 43.53125 35.828125  Q 39.65625 40.375 33.015625 40.375  z M 52.59375 71.296875  L 52.59375 62.3125  Q 48.875 64.0625 45.09375 64.984375  Q 41.3125 65.921875 37.59375 65.921875  Q 27.828125 65.921875 22.671875 59.328125  Q 17.53125 52.734375 16.796875 39.40625  Q 19.671875 43.65625 24.015625 45.921875  Q 28.375 48.1875 33.59375 48.1875  Q 44.578125 48.1875 50.953125 41.515625  Q 57.328125 34.859375 57.328125 23.390625  Q 57.328125 12.15625 50.6875 5.359375  Q 44.046875 -1.421875 33.015625 -1.421875  Q 20.359375 -1.421875 13.671875 8.265625  Q 6.984375 17.96875 6.984375 36.375  Q 6.984375 53.65625 15.1875 63.9375  Q 23.390625 74.21875 37.203125 74.21875  Q 40.921875 74.21875 44.703125 73.484375  Q 48.484375 72.75 52.59375 71.296875  z "
                   id="DejaVuSans-54" />
              </defs>
              <use
                 xlink:href="#DejaVuSans-8722"
                 id="use248" />
              <use
                 x="83.789062"
                 xlink:href="#DejaVuSans-51"
                 id="use250" />
              <use
                 x="147.412109"
                 xlink:href="#DejaVuSans-46"
                 id="use252" />
              <use
                 x="179.199219"
                 xlink:href="#DejaVuSans-54"
                 id="use254" />
            </g>
          </g>
        </g>
        <g
           id="ytick_4">
          <g
             id="line2d_21">
            <path
               clip-path="url(#pbc089aef84)"
               d="M 57.6 209.237541  L 414.72 209.237541  "
               style="fill:none;stroke:#b0b0b0;stroke-linecap:square;stroke-width:0.8;"
               id="path260" />
          </g>
          <g
             id="line2d_22">
            <g
               id="g265">
              <use
                 style="stroke:#000000;stroke-width:0.8;"
                 x="57.6"
                 xlink:href="#mae5ec2512b"
                 y="209.237541"
                 id="use263" />
            </g>
          </g>
          <g
             id="text_12">
            <!-- −3.4 -->
            <g
               transform="translate(26.317187 213.03676)scale(0.1 -0.1)"
               id="g276">
              <use
                 xlink:href="#DejaVuSans-8722"
                 id="use268" />
              <use
                 x="83.789062"
                 xlink:href="#DejaVuSans-51"
                 id="use270" />
              <use
                 x="147.412109"
                 xlink:href="#DejaVuSans-46"
                 id="use272" />
              <use
                 x="179.199219"
                 xlink:href="#DejaVuSans-52"
                 id="use274" />
            </g>
          </g>
        </g>
        <g
           id="ytick_5">
          <g
             id="line2d_23">
            <path
               clip-path="url(#pbc089aef84)"
               d="M 57.6 178.42333  L 414.72 178.42333  "
               style="fill:none;stroke:#b0b0b0;stroke-linecap:square;stroke-width:0.8;"
               id="path280" />
          </g>
          <g
             id="line2d_24">
            <g
               id="g285">
              <use
                 style="stroke:#000000;stroke-width:0.8;"
                 x="57.6"
                 xlink:href="#mae5ec2512b"
                 y="178.42333"
                 id="use283" />
            </g>
          </g>
          <g
             id="text_13">
            <!-- −3.2 -->
            <g
               transform="translate(26.317187 182.222548)scale(0.1 -0.1)"
               id="g296">
              <use
                 xlink:href="#DejaVuSans-8722"
                 id="use288" />
              <use
                 x="83.789062"
                 xlink:href="#DejaVuSans-51"
                 id="use290" />
              <use
                 x="147.412109"
                 xlink:href="#DejaVuSans-46"
                 id="use292" />
              <use
                 x="179.199219"
                 xlink:href="#DejaVuSans-50"
                 id="use294" />
            </g>
          </g>
        </g>
        <g
           id="ytick_6">
          <g
             id="line2d_25">
            <path
               clip-path="url(#pbc089aef84)"
               d="M 57.6 147.609118  L 414.72 147.609118  "
               style="fill:none;stroke:#b0b0b0;stroke-linecap:square;stroke-width:0.8;"
               id="path300" />
          </g>
          <g
             id="line2d_26">
            <g
               id="g305">
              <use
                 style="stroke:#000000;stroke-width:0.8;"
                 x="57.6"
                 xlink:href="#mae5ec2512b"
                 y="147.609118"
                 id="use303" />
            </g>
          </g>
          <g
             id="text_14">
            <!-- −3.0 -->
            <g
               transform="translate(26.317187 151.408337)scale(0.1 -0.1)"
               id="g316">
              <use
                 xlink:href="#DejaVuSans-8722"
                 id="use308" />
              <use
                 x="83.789062"
                 xlink:href="#DejaVuSans-51"
                 id="use310" />
              <use
                 x="147.412109"
                 xlink:href="#DejaVuSans-46"
                 id="use312" />
              <use
                 x="179.199219"
                 xlink:href="#DejaVuSans-48"
                 id="use314" />
            </g>
          </g>
        </g>
        <g
           id="ytick_7">
          <g
             id="line2d_27">
            <path
               clip-path="url(#pbc089aef84)"
               d="M 57.6 116.794907  L 414.72 116.794907  "
               style="fill:none;stroke:#b0b0b0;stroke-linecap:square;stroke-width:0.8;"
               id="path320" />
          </g>
          <g
             id="line2d_28">
            <g
               id="g325">
              <use
                 style="stroke:#000000;stroke-width:0.8;"
                 x="57.6"
                 xlink:href="#mae5ec2512b"
                 y="116.794907"
                 id="use323" />
            </g>
          </g>
          <g
             id="text_15">
            <!-- −2.8 -->
            <g
               transform="translate(26.317187 120.594126)scale(0.1 -0.1)"
               id="g336">
              <use
                 xlink:href="#DejaVuSans-8722"
                 id="use328" />
              <use
                 x="83.789062"
                 xlink:href="#DejaVuSans-50"
                 id="use330" />
              <use
                 x="147.412109"
                 xlink:href="#DejaVuSans-46"
                 id="use332" />
              <use
                 x="179.199219"
                 xlink:href="#DejaVuSans-56"
                 id="use334" />
            </g>
          </g>
        </g>
        <g
           id="ytick_8">
          <g
             id="line2d_29">
            <path
               clip-path="url(#pbc089aef84)"
               d="M 57.6 85.980696  L 414.72 85.980696  "
               style="fill:none;stroke:#b0b0b0;stroke-linecap:square;stroke-width:0.8;"
               id="path340" />
          </g>
          <g
             id="line2d_30">
            <g
               id="g345">
              <use
                 style="stroke:#000000;stroke-width:0.8;"
                 x="57.6"
                 xlink:href="#mae5ec2512b"
                 y="85.980696"
                 id="use343" />
            </g>
          </g>
          <g
             id="text_16">
            <!-- −2.6 -->
            <g
               transform="translate(26.317187 89.779915)scale(0.1 -0.1)"
               id="g356">
              <use
                 xlink:href="#DejaVuSans-8722"
                 id="use348" />
              <use
                 x="83.789062"
                 xlink:href="#DejaVuSans-50"
                 id="use350" />
              <use
                 x="147.412109"
                 xlink:href="#DejaVuSans-46"
                 id="use352" />
              <use
                 x="179.199219"
                 xlink:href="#DejaVuSans-54"
                 id="use354" />
            </g>
          </g>
        </g>
        <g
           id="ytick_9">
          <g
             id="line2d_31">
            <path
               clip-path="url(#pbc089aef84)"
               d="M 57.6 55.166485  L 414.72 55.166485  "
               style="fill:none;stroke:#b0b0b0;stroke-linecap:square;stroke-width:0.8;"
               id="path360" />
          </g>
          <g
             id="line2d_32">
            <g
               id="g365">
              <use
                 style="stroke:#000000;stroke-width:0.8;"
                 x="57.6"
                 xlink:href="#mae5ec2512b"
                 y="55.166485"
                 id="use363" />
            </g>
          </g>
          <g
             id="text_17">
            <!-- −2.4 -->
            <g
               transform="translate(26.317187 58.965704)scale(0.1 -0.1)"
               id="g376">
              <use
                 xlink:href="#DejaVuSans-8722"
                 id="use368" />
              <use
                 x="83.789062"
                 xlink:href="#DejaVuSans-50"
                 id="use370" />
              <use
                 x="147.412109"
                 xlink:href="#DejaVuSans-46"
                 id="use372" />
              <use
                 x="179.199219"
                 xlink:href="#DejaVuSans-52"
                 id="use374" />
            </g>
          </g>
        </g>
        <g
           id="text_18">
          <!-- $\langle H_{\mathrm{MC}} \rangle$ -->
          <g
             transform="translate(20.2375 187.828)rotate(-90)scale(0.1 -0.1)"
             id="g397">
            <defs
               id="defs385">
              <path
                 d="M 8.9375 31.34375  L 22.703125 75.875  L 31 75.875  L 17.234375 31.34375  L 31 -13.1875  L 22.703125 -13.1875  z "
                 id="DejaVuSans-10216" />
              <path
                 d="M 16.890625 72.90625  L 26.8125 72.90625  L 21 43.015625  L 56.78125 43.015625  L 62.59375 72.90625  L 72.515625 72.90625  L 58.296875 0  L 48.390625 0  L 55.171875 34.71875  L 19.390625 34.71875  L 12.59375 0  L 2.6875 0  z "
                 id="DejaVuSans-Oblique-72" />
              <path
                 d="M 9.8125 72.90625  L 24.515625 72.90625  L 43.109375 23.296875  L 61.8125 72.90625  L 76.515625 72.90625  L 76.515625 0  L 66.890625 0  L 66.890625 64.015625  L 48.09375 14.015625  L 38.1875 14.015625  L 19.390625 64.015625  L 19.390625 0  L 9.8125 0  z "
                 id="DejaVuSans-77" />
              <path
                 d="M 64.40625 67.28125  L 64.40625 56.890625  Q 59.421875 61.53125 53.78125 63.8125  Q 48.140625 66.109375 41.796875 66.109375  Q 29.296875 66.109375 22.65625 58.46875  Q 16.015625 50.828125 16.015625 36.375  Q 16.015625 21.96875 22.65625 14.328125  Q 29.296875 6.6875 41.796875 6.6875  Q 48.140625 6.6875 53.78125 8.984375  Q 59.421875 11.28125 64.40625 15.921875  L 64.40625 5.609375  Q 59.234375 2.09375 53.4375 0.328125  Q 47.65625 -1.421875 41.21875 -1.421875  Q 24.65625 -1.421875 15.125 8.703125  Q 5.609375 18.84375 5.609375 36.375  Q 5.609375 53.953125 15.125 64.078125  Q 24.65625 74.21875 41.21875 74.21875  Q 47.75 74.21875 53.53125 72.484375  Q 59.328125 70.75 64.40625 67.28125  z "
                 id="DejaVuSans-67" />
              <path
                 d="M 30.078125 31.34375  L 16.3125 -13.1875  L 8.015625 -13.1875  L 21.78125 31.34375  L 8.015625 75.875  L 16.3125 75.875  z "
                 id="DejaVuSans-10217" />
            </defs>
            <use
               transform="translate(0 0.125)"
               xlink:href="#DejaVuSans-10216"
               id="use387" />
            <use
               transform="translate(39.013672 0.125)"
               xlink:href="#DejaVuSans-Oblique-72"
               id="use389" />
            <use
               transform="translate(114.208984 -16.28125)scale(0.7)"
               xlink:href="#DejaVuSans-77"
               id="use391" />
            <use
               transform="translate(174.604492 -16.28125)scale(0.7)"
               xlink:href="#DejaVuSans-67"
               id="use393" />
            <use
               transform="translate(226.21582 0.125)"
               xlink:href="#DejaVuSans-10217"
               id="use395" />
          </g>
        </g>
      </g>
      <g
         id="line2d_33">
        <path
           clip-path="url(#pbc089aef84)"
           d="M 73.832727 65.765915  L 74.866659 116.241884  L 75.900591 58.323105  L 76.934522 78.463134  L 77.968454 82.420453  L 79.002386 88.611235  L 80.036317 127.774821  L 81.070249 131.521211  L 82.104181 77.868223  L 83.138112 118.55436  L 84.172044 127.207484  L 85.205976 106.456378  L 86.239907 112.400191  L 87.273839 133.771721  L 88.307771 82.540519  L 89.341702 131.281974  L 90.375634 128.236575  L 91.409566 97.324522  L 92.443497 126.825168  L 93.477429 112.35811  L 94.511361 137.321908  L 95.545292 129.939874  L 96.579224 109.353345  L 97.613156 142.731852  L 98.647087 146.662953  L 99.681019 147.774412  L 101.748882 135.493574  L 102.782814 137.195498  L 103.816746 129.669265  L 104.850677 153.77633  L 105.884609 147.98404  L 106.918541 155.357067  L 107.952472 168.096561  L 108.986404 148.762755  L 110.020336 152.68903  L 111.054268 172.91151  L 112.088199 104.952774  L 113.122131 188.377663  L 114.156063 217.803528  L 115.189994 197.207293  L 116.223926 212.421482  L 117.257858 157.345751  L 118.291789 209.563908  L 119.325721 222.966445  L 120.359653 216.226416  L 121.393584 239.593984  L 122.427516 188.875632  L 123.461448 220.274865  L 124.495379 225.71454  L 125.529311 216.583801  L 126.563243 220.436789  L 127.597174 221.525211  L 128.631106 254.852055  L 129.665038 254.544534  L 131.732901 236.043227  L 132.766833 274.762567  L 133.800764 223.248426  L 134.834696 279.6443  L 135.868628 242.508487  L 136.902559 266.408932  L 137.936491 227.337603  L 138.970423 283.381788  L 140.004354 150.696951  L 141.038286 268.474363  L 142.072218 189.329019  L 143.106149 280.500189  L 144.140081 278.694936  L 145.174013 281.588801  L 146.207944 277.214851  L 147.241876 276.998812  L 148.275808 282.950908  L 149.309739 267.059551  L 150.343671 288.333664  L 151.377603 267.366113  L 152.411534 282.828864  L 153.445466 279.059957  L 154.479398 289.115118  L 155.513329 275.843276  L 156.547261 288.560033  L 157.581193 272.074471  L 158.615124 282.025746  L 159.649056 271.181137  L 160.682988 286.123457  L 161.71692 270.914005  L 162.750851 267.687103  L 163.784783 274.412567  L 164.818715 286.885886  L 165.852646 286.552942  L 166.886578 284.744863  L 167.92051 286.140434  L 168.954441 290.604746  L 169.988373 288.208655  L 171.022305 286.397288  L 172.056236 288.74824  L 173.090168 279.434742  L 174.1241 290.676659  L 175.158031 289.098987  L 176.191963 291.535278  L 177.225895 285.467862  L 178.259826 290.447295  L 179.293758 286.899277  L 180.32769 291.354988  L 181.361621 283.043017  L 182.395553 290.433349  L 183.429485 290.929365  L 184.463416 290.368412  L 185.497348 284.529177  L 186.53128 291.106235  L 187.565211 286.955417  L 188.599143 290.225646  L 189.633075 283.558968  L 190.667006 289.346123  L 191.700938 291.005544  L 192.73487 289.855446  L 193.768801 291.19087  L 194.802733 291.876568  L 195.836665 290.578739  L 196.870596 290.511043  L 197.904528 291.920352  L 198.93846 291.386947  L 199.972391 291.741247  L 201.006323 291.263901  L 202.040255 291.746053  L 203.074186 290.726025  L 204.108118 292.046639  L 205.14205 289.642438  L 206.175981 290.840342  L 207.209913 291.439462  L 208.243845 291.557842  L 209.277776 291.886128  L 210.311708 290.645411  L 211.34564 290.234167  L 212.379572 291.545629  L 213.413503 292.060541  L 214.447435 291.253027  L 215.481367 291.081212  L 217.54923 292.583815  L 218.583162 293.781817  L 219.617093 293.24801  L 220.651025 293.083437  L 221.684957 293.423276  L 223.75282 293.762872  L 224.786752 291.590404  L 225.820683 293.273442  L 226.854615 292.699511  L 227.888547 293.774711  L 228.922478 292.226472  L 229.95641 293.794153  L 232.024273 292.702572  L 233.058205 292.731639  L 234.092137 292.896502  L 235.126068 291.813665  L 236.16 293.053615  L 237.193932 292.013244  L 238.227863 293.781818  L 239.261795 293.246904  L 240.295727 293.089978  L 241.329658 293.784454  L 242.36359 293.279247  L 243.397522 293.274159  L 244.431453 293.795215  L 245.465385 292.181136  L 246.499317 293.232312  L 247.533248 293.094061  L 249.601112 293.083172  L 250.635043 293.25753  L 251.668975 293.611247  L 252.702907 293.262838  L 254.77077 293.224916  L 255.804702 293.615447  L 256.838633 293.43844  L 257.872565 293.799264  L 258.906497 292.91499  L 260.97436 293.246903  L 262.008292 293.779999  L 263.042224 293.785418  L 264.076155 293.288808  L 265.110087 293.792154  L 266.144019 293.446887  L 267.17795 293.980862  L 268.211882 293.233814  L 269.245814 293.794155  L 270.279745 293.265971  L 271.313677 293.446887  L 272.347609 293.262914  L 273.38154 293.618357  L 274.415472 293.443826  L 275.449404 293.792157  L 277.517267 293.799265  L 278.551199 293.451872  L 279.58513 293.450107  L 280.619062 293.233113  L 281.652994 293.811027  L 282.686925 293.980864  L 283.720857 293.794157  L 284.754789 293.446883  L 285.78872 293.792156  L 286.822652 293.982936  L 287.856584 293.441051  L 288.890515 293.265972  L 289.924447 293.967028  L 290.958379 293.446884  L 291.99231 293.792155  L 293.026242 293.811028  L 294.060174 293.446887  L 295.094105 293.98086  L 296.128037 293.816711  L 297.161969 293.980862  L 298.1959 293.794445  L 302.331627 293.795216  L 303.365559 293.446889  L 304.39949 293.811025  L 305.433422 293.963966  L 306.467354 293.986549  L 307.501285 293.446886  L 308.535217 293.799264  L 309.569149 293.967026  L 310.60308 293.982938  L 311.637012 293.619464  L 312.670944 293.963967  L 313.704876 293.799267  L 314.738807 293.980861  L 315.772739 293.967027  L 316.806671 293.785421  L 317.840602 293.980863  L 319.908466 293.980862  L 320.942397 293.799265  L 321.976329 293.980864  L 323.010261 293.446885  L 324.044192 293.980864  L 332.315646 293.967026  L 338.519236 293.982938  L 339.553167 293.811025  L 340.587099 293.982939  L 398.487273 293.986551  L 398.487273 293.986551  "
           style="fill:none;stroke:#1f77b4;stroke-linecap:square;stroke-width:1.5;"
           id="path401" />
      </g>
      <g
         id="line2d_34">
        <path
           clip-path="url(#pbc089aef84)"
           d="M 57.6 301.680174  L 414.72 301.680174  "
           style="fill:none;stroke:#ff7f0e;stroke-linecap:square;stroke-width:1.5;"
           id="path404" />
      </g>
      <g
         id="patch_3">
        <path
           d="M 57.6 307.584  L 57.6 41.472  "
           style="fill:none;stroke:#000000;stroke-linecap:square;stroke-linejoin:miter;stroke-width:0.8;"
           id="path407" />
      </g>
      <g
         id="patch_4">
        <path
           d="M 414.72 307.584  L 414.72 41.472  "
           style="fill:none;stroke:#000000;stroke-linecap:square;stroke-linejoin:miter;stroke-width:0.8;"
           id="path410" />
      </g>
      <g
         id="patch_5">
        <path
           d="M 57.6 307.584  L 414.72 307.584  "
           style="fill:none;stroke:#000000;stroke-linecap:square;stroke-linejoin:miter;stroke-width:0.8;"
           id="path413" />
      </g>
      <g
         id="patch_6">
        <path
           d="M 57.6 41.472  L 414.72 41.472  "
           style="fill:none;stroke:#000000;stroke-linecap:square;stroke-linejoin:miter;stroke-width:0.8;"
           id="path416" />
      </g>
    </g>
  </g>
  <defs
     id="defs424">
    <clipPath
       id="pbc089aef84">
      <rect
         height="266.112"
         width="357.12"
         x="57.6"
         y="41.472"
         id="rect421" />
    </clipPath>
  </defs>
</svg>
