<?xml version="1.0" encoding="utf-8" standalone="no"?>
<!DOCTYPE svg PUBLIC "-//W3C//DTD SVG 1.1//EN"
  "http://www.w3.org/Graphics/SVG/1.1/DTD/svg11.dtd">
<!-- Created with matplotlib (https://matplotlib.org/) -->
<svg height="345.6pt" version="1.1" viewBox="0 0 460.8 345.6" width="460.8pt" xmlns="http://www.w3.org/2000/svg" xmlns:xlink="http://www.w3.org/1999/xlink">
 <metadata>
  <rdf:RDF xmlns:cc="http://creativecommons.org/ns#" xmlns:dc="http://purl.org/dc/elements/1.1/" xmlns:rdf="http://www.w3.org/1999/02/22-rdf-syntax-ns#">
   <cc:Work>
    <dc:type rdf:resource="http://purl.org/dc/dcmitype/StillImage"/>
    <dc:date>2021-01-08T18:00:37.464398</dc:date>
    <dc:format>image/svg+xml</dc:format>
    <dc:creator>
     <cc:Agent>
      <dc:title>Matplotlib v3.3.3, https://matplotlib.org/</dc:title>
     </cc:Agent>
    </dc:creator>
   </cc:Work>
  </rdf:RDF>
 </metadata>
 <defs>
  <style type="text/css">*{stroke-linecap:butt;stroke-linejoin:round;}</style>
 </defs>
 <g id="figure_1">
  <g id="patch_1">
   <path d="M 0 345.6
L 460.8 345.6
L 460.8 0
L 0 0
z
" style="fill:#ffffff;"/>
  </g>
  <g id="axes_1">
   <g id="patch_2">
    <path d="M 57.6 307.584
L 414.72 307.584
L 414.72 41.472
L 57.6 41.472
z
" style="fill:#ffffff;"/>
   </g>
   <g id="PolyCollection_1">
    <path clip-path="url(#pf65174b20a)" d="M 73.832727 180.421887
L 73.832727 180.421887
L 74.330664 119.158701
L 74.8286 188.965135
L 75.326537 106.334608
L 75.824473 176.374499
L 76.322409 142.554578
L 76.820346 177.400843
L 77.318282 146.485303
L 77.816219 149.438538
L 78.314155 201.64283
L 78.812091 183.246024
L 79.310028 99.918603
L 79.807964 250.087947
L 80.305901 109.363654
L 80.803837 249.772723
L 81.301774 104.169664
L 81.79971 195.873717
L 82.297646 56.730371
L 82.795583 209.870628
L 83.293519 233.6832
L 83.791456 204.294668
L 84.289392 218.795865
L 84.787328 210.541044
L 85.285265 250.926028
L 85.783201 191.136516
L 86.281138 255.863553
L 86.779074 251.323422
L 87.277011 263.168902
L 87.774947 195.120974
L 88.272883 223.151709
L 88.77082 53.568
L 89.268756 220.1703
L 89.766693 213.282973
L 90.264629 224.649974
L 90.762566 137.74328
L 91.260502 267.087146
L 91.758438 189.114959
L 92.256375 263.188314
L 92.754311 184.868372
L 93.252248 252.416459
L 93.750184 258.306533
L 94.24812 265.115085
L 94.746057 263.616446
L 95.243993 224.615617
L 95.74193 265.802819
L 96.239866 256.580414
L 96.737803 259.375925
L 97.235739 206.220767
L 97.733675 257.641322
L 98.231612 267.773228
L 98.729548 259.150523
L 99.227485 259.637549
L 99.725421 250.778373
L 100.223358 266.834412
L 100.721294 261.854922
L 101.21923 261.974733
L 101.717167 269.830176
L 102.215103 267.669406
L 102.71304 273.861672
L 103.210976 274.082415
L 103.708912 273.456217
L 104.206849 272.725715
L 104.704785 272.043997
L 105.202722 271.481404
L 105.700658 276.429145
L 106.198595 275.452536
L 106.696531 275.268166
L 107.194467 278.496023
L 107.692404 276.601098
L 108.19034 284.655727
L 108.688277 283.873203
L 109.186213 283.977011
L 109.684149 285.066215
L 110.182086 285.424171
L 110.680022 285.172208
L 111.177959 285.258215
L 111.675895 281.534337
L 112.173832 285.805003
L 112.671768 285.022035
L 113.169704 285.864123
L 113.667641 285.702195
L 114.165577 285.389994
L 114.663514 282.843387
L 115.16145 285.360822
L 115.659387 284.340822
L 116.157323 285.482739
L 116.655259 285.123236
L 117.153196 285.117659
L 117.651132 284.812854
L 118.149069 285.724849
L 118.647005 285.328802
L 119.144941 286.201947
L 119.642878 286.277126
L 120.140814 287.139023
L 120.638751 287.400278
L 121.136687 287.401092
L 121.634624 287.306159
L 122.13256 286.852172
L 122.630496 288.120628
L 123.128433 288.011917
L 123.626369 288.09237
L 124.124306 287.910716
L 124.622242 288.477845
L 125.120178 287.593115
L 125.618115 289.447507
L 126.116051 288.862985
L 126.613988 288.639388
L 127.111924 289.531168
L 127.609861 289.51348
L 128.107797 289.080375
L 128.605733 289.364326
L 129.10367 288.247918
L 129.601606 289.22512
L 130.099543 289.988618
L 130.597479 289.860282
L 131.095416 289.818412
L 131.593352 289.507694
L 132.091288 290.18646
L 132.589225 290.339581
L 133.087161 289.929642
L 133.585098 290.752315
L 134.083034 291.134513
L 134.58097 290.294898
L 135.078907 290.609127
L 135.576843 291.881394
L 136.07478 291.720528
L 136.572716 291.756753
L 137.070653 291.544185
L 137.568589 291.863084
L 138.066525 292.032897
L 138.564462 291.651521
L 139.062398 291.391651
L 139.560335 291.944787
L 140.058271 291.805915
L 140.556207 291.838641
L 141.054144 291.840619
L 141.55208 292.021542
L 142.050017 291.10619
L 142.547953 292.147312
L 143.04589 292.234421
L 143.543826 291.324395
L 144.041762 293.013936
L 144.539699 292.042719
L 145.037635 292.953816
L 145.535572 293.159491
L 146.033508 293.185774
L 146.531445 293.484946
L 147.029381 293.41701
L 147.527317 293.713506
L 148.025254 293.442121
L 148.52319 293.792364
L 149.021127 293.771407
L 149.519063 293.848326
L 150.016999 293.859185
L 150.514936 293.233959
L 151.012872 293.830192
L 151.510809 292.902113
L 152.008745 293.837629
L 152.506682 293.857157
L 153.004618 293.741637
L 153.502554 293.355383
L 154.000491 293.867775
L 154.498427 292.989661
L 154.996364 293.702559
L 155.4943 294.027564
L 155.992236 293.911621
L 156.490173 294.099859
L 156.988109 293.990425
L 157.486046 294.03594
L 157.983982 294.236519
L 158.481919 293.93761
L 158.979855 294.27349
L 159.477791 294.396859
L 159.975728 294.316884
L 160.473664 294.467219
L 160.971601 294.479355
L 161.469537 294.457863
L 161.967474 294.258261
L 162.46541 294.32551
L 162.963346 294.453506
L 163.461283 294.524236
L 163.959219 294.615513
L 164.457156 294.547164
L 164.955092 294.674246
L 165.453028 294.719413
L 165.950965 294.680812
L 166.448901 294.743809
L 166.946838 294.597192
L 167.444774 294.742327
L 167.942711 294.234517
L 168.440647 294.768437
L 168.938583 294.835763
L 169.43652 294.841206
L 169.934456 294.852266
L 170.432393 294.816425
L 170.930329 294.676748
L 171.428265 294.836473
L 171.926202 294.689017
L 172.424138 294.783585
L 172.922075 294.631009
L 173.420011 294.912143
L 173.917948 294.965875
L 174.415884 294.797451
L 174.91382 294.988878
L 175.411757 294.984414
L 175.909693 294.926127
L 176.40763 294.925923
L 176.905566 294.857185
L 177.403503 294.973085
L 177.901439 294.834908
L 178.399375 294.951242
L 178.897312 294.994156
L 179.395248 295.073567
L 179.893185 295.057291
L 180.391121 295.082251
L 180.889057 295.0719
L 181.386994 295.06033
L 181.88493 295.0804
L 182.382867 295.095543
L 182.880803 294.998491
L 183.37874 295.087707
L 183.876676 295.122221
L 184.374612 295.106471
L 184.872549 295.100228
L 185.370485 295.092038
L 185.868422 295.158556
L 186.366358 295.120296
L 186.864294 295.167006
L 187.362231 295.132923
L 187.860167 295.099412
L 188.358104 295.242765
L 188.85604 295.217659
L 189.353977 295.229427
L 189.851913 295.248614
L 190.349849 295.242201
L 190.847786 295.245239
L 191.345722 295.241424
L 191.843659 295.265004
L 192.341595 295.247973
L 192.839532 295.186954
L 193.337468 295.235625
L 193.835404 295.242754
L 194.333341 295.284606
L 194.831277 295.243384
L 195.329214 295.290878
L 195.82715 295.284429
L 196.325086 295.296057
L 196.823023 295.308562
L 197.320959 295.294889
L 197.818896 295.203393
L 198.316832 295.298427
L 198.814769 295.28306
L 199.312705 295.31842
L 199.810641 295.325568
L 200.308578 295.322215
L 200.806514 295.32248
L 201.304451 295.329076
L 201.802387 295.334238
L 202.300323 295.341711
L 202.79826 295.344017
L 203.296196 295.342892
L 203.794133 295.325035
L 204.292069 295.342934
L 204.790006 295.344922
L 205.287942 295.360281
L 205.785878 295.365365
L 206.283815 295.36692
L 206.781751 295.368554
L 207.279688 295.371636
L 207.777624 295.359945
L 208.275561 295.375178
L 208.773497 295.366699
L 209.271433 295.373959
L 209.76937 295.36223
L 210.267306 295.377969
L 210.765243 295.356541
L 211.263179 295.370334
L 211.761115 295.387978
L 212.259052 295.350555
L 212.756988 295.381251
L 213.254925 295.390034
L 213.752861 295.378359
L 214.250798 295.371532
L 214.748734 295.39498
L 215.24667 295.412704
L 215.744607 295.401805
L 216.242543 295.411061
L 216.74048 295.408128
L 217.238416 295.415555
L 217.736352 295.413895
L 218.234289 295.415621
L 218.732225 295.415854
L 219.230162 295.410618
L 219.728098 295.41471
L 220.226035 295.416268
L 220.723971 295.405662
L 221.221907 295.401895
L 221.719844 295.419109
L 222.21778 295.424057
L 222.715717 295.424066
L 223.213653 295.42442
L 223.71159 295.40795
L 224.209526 295.423268
L 224.707462 295.435051
L 225.205399 295.433946
L 225.703335 295.435804
L 226.201272 295.43661
L 226.699208 295.436008
L 227.197144 295.437479
L 227.695081 295.437998
L 228.193017 295.439266
L 228.690954 295.439178
L 229.18889 295.436244
L 229.686827 295.438245
L 230.184763 295.430451
L 230.682699 295.437018
L 231.180636 295.445707
L 231.678572 295.444474
L 232.176509 295.446038
L 232.674445 295.446551
L 233.172381 295.44647
L 233.670318 295.435361
L 234.168254 295.446098
L 234.666191 295.449865
L 235.164127 295.453554
L 235.662064 295.453941
L 236.16 295.454019
L 236.657936 295.451952
L 237.155873 295.452459
L 237.653809 295.453681
L 238.151746 295.449263
L 238.649682 295.453604
L 239.147619 295.455261
L 239.645555 295.450749
L 240.143491 295.461433
L 240.641428 295.463408
L 241.139364 295.462474
L 241.637301 295.46444
L 242.135237 295.464936
L 242.633173 295.464312
L 243.13111 295.464525
L 243.629046 295.464108
L 244.126983 295.463482
L 244.624919 295.463622
L 245.122856 295.455416
L 245.620792 295.464683
L 246.118728 295.466738
L 246.616665 295.464763
L 247.114601 295.467369
L 247.612538 295.466863
L 248.110474 295.461267
L 248.60841 295.466238
L 249.106347 295.461437
L 249.604283 295.466191
L 250.10222 295.473131
L 250.600156 295.471375
L 251.098093 295.473784
L 251.596029 295.473294
L 252.093965 295.472497
L 252.591902 295.472445
L 253.089838 295.473541
L 253.587775 295.474046
L 254.085711 295.474137
L 254.583648 295.47405
L 255.081584 295.473752
L 255.57952 295.474327
L 256.077457 295.47333
L 256.575393 295.475865
L 257.07333 295.474374
L 257.571266 295.475564
L 258.069202 295.476616
L 258.567139 295.47643
L 259.065075 295.476386
L 259.563012 295.475724
L 260.060948 295.477144
L 260.558885 295.476961
L 261.056821 295.477374
L 261.554757 295.476971
L 262.052694 295.477535
L 262.55063 295.477264
L 263.048567 295.477992
L 263.546503 295.477953
L 264.044439 295.478079
L 264.542376 295.4776
L 265.040312 295.477382
L 265.538249 295.477821
L 266.036185 295.479005
L 266.534122 295.478406
L 267.032058 295.476752
L 267.529994 295.480994
L 268.027931 295.480935
L 268.525867 295.481131
L 269.023804 295.481674
L 269.52174 295.481558
L 270.019677 295.48051
L 270.517613 295.481676
L 271.015549 295.481856
L 271.513486 295.481751
L 272.011422 295.48082
L 272.509359 295.481743
L 273.007295 295.482429
L 273.505231 295.482307
L 274.003168 295.482235
L 274.501104 295.482446
L 274.999041 295.4836
L 275.496977 295.483021
L 275.994914 295.483302
L 276.49285 295.484119
L 276.990786 295.484692
L 277.488723 295.483381
L 277.986659 295.484691
L 278.484596 295.484335
L 278.982532 295.484624
L 279.480468 295.484433
L 279.978405 295.484559
L 280.476341 295.484136
L 280.974278 295.484656
L 281.472214 295.484668
L 281.970151 295.484711
L 282.468087 295.485144
L 282.966023 295.485035
L 283.46396 295.484391
L 283.961896 295.485302
L 284.459833 295.485573
L 284.957769 295.485481
L 285.455706 295.485235
L 285.953642 295.486008
L 286.451578 295.485768
L 286.949515 295.48592
L 287.447451 295.486126
L 287.945388 295.486107
L 288.443324 295.486116
L 288.94126 295.486064
L 289.439197 295.485979
L 289.937133 295.486079
L 290.43507 295.485948
L 290.933006 295.486172
L 291.430943 295.486326
L 291.928879 295.486015
L 292.426815 295.486406
L 292.924752 295.486328
L 293.422688 295.486437
L 293.920625 295.485895
L 294.418561 295.48635
L 294.916497 295.48628
L 295.414434 295.486434
L 295.91237 295.486356
L 296.410307 295.486491
L 296.908243 295.486505
L 297.40618 295.48655
L 297.904116 295.486522
L 298.402052 295.48655
L 298.899989 295.486553
L 299.397925 295.486555
L 299.895862 295.486566
L 300.393798 295.486571
L 300.891735 295.486535
L 301.389671 295.486518
L 301.887607 295.486591
L 302.385544 295.486781
L 302.88348 295.486816
L 303.381417 295.486795
L 303.879353 295.486832
L 304.377289 295.486791
L 304.875226 295.486862
L 305.373162 295.486771
L 305.871099 295.486895
L 306.369035 295.486918
L 306.866972 295.486911
L 307.364908 295.487011
L 307.862844 295.487013
L 308.360781 295.486998
L 308.858717 295.48702
L 309.356654 295.487043
L 309.85459 295.487018
L 310.352526 295.48698
L 310.850463 295.487062
L 311.348399 295.48704
L 311.846336 295.487019
L 312.344272 295.487126
L 312.842209 295.487146
L 313.340145 295.487159
L 313.838081 295.48715
L 314.336018 295.487142
L 314.833954 295.48713
L 315.331891 295.487145
L 315.829827 295.487134
L 316.327764 295.487144
L 316.8257 295.487129
L 317.323636 295.487164
L 317.821573 295.487275
L 318.319509 295.487286
L 318.817446 295.487287
L 319.315382 295.4873
L 319.813318 295.487291
L 320.311255 295.487282
L 320.809191 295.487295
L 321.307128 295.487189
L 321.805064 295.487303
L 322.303001 295.487356
L 322.800937 295.487412
L 323.298873 295.487409
L 323.79681 295.48741
L 324.294746 295.487409
L 324.792683 295.487387
L 325.290619 295.487413
L 325.788555 295.487395
L 326.286492 295.487388
L 326.784428 295.487255
L 327.282365 295.487425
L 327.780301 295.487447
L 328.278238 295.487451
L 328.776174 295.487474
L 329.27411 295.487425
L 329.772047 295.487495
L 330.269983 295.487461
L 330.76792 295.487508
L 331.265856 295.487507
L 331.763793 295.487507
L 332.261729 295.487437
L 332.759665 295.487481
L 333.257602 295.487502
L 333.755538 295.487467
L 334.253475 295.48755
L 334.751411 295.487538
L 335.249347 295.487544
L 335.747284 295.487516
L 336.24522 295.487505
L 336.743157 295.48753
L 337.241093 295.487568
L 337.73903 295.487601
L 338.236966 295.48761
L 338.734902 295.487608
L 339.232839 295.487609
L 339.730775 295.487611
L 340.228712 295.4876
L 340.726648 295.487605
L 341.224584 295.487591
L 341.722521 295.487613
L 342.220457 295.487599
L 342.718394 295.4876
L 343.21633 295.487621
L 343.714267 295.487613
L 344.212203 295.487649
L 344.710139 295.487681
L 345.208076 295.487685
L 345.706012 295.487686
L 346.203949 295.487686
L 346.701885 295.487689
L 347.199822 295.487704
L 347.697758 295.487705
L 348.195694 295.487699
L 348.693631 295.487715
L 349.191567 295.487717
L 349.689504 295.487719
L 350.18744 295.487719
L 350.685376 295.487729
L 351.183313 295.487726
L 351.681249 295.487727
L 352.179186 295.48773
L 352.677122 295.487734
L 353.175059 295.487737
L 353.672995 295.48775
L 354.170931 295.48775
L 354.668868 295.487722
L 355.166804 295.487786
L 355.664741 295.487794
L 356.162677 295.487794
L 356.660613 295.487797
L 357.15855 295.487793
L 357.656486 295.487801
L 358.154423 295.487805
L 358.652359 295.487784
L 359.150296 295.487799
L 359.648232 295.487808
L 360.146168 295.4878
L 360.644105 295.487783
L 361.142041 295.487803
L 361.639978 295.487831
L 362.137914 295.48783
L 362.635851 295.487855
L 363.133787 295.48786
L 363.631723 295.487864
L 364.12966 295.487851
L 364.627596 295.487862
L 365.125533 295.487877
L 365.623469 295.487881
L 366.121405 295.48788
L 366.619342 295.487864
L 367.117278 295.487883
L 367.615215 295.487895
L 368.113151 295.487891
L 368.611088 295.487892
L 369.109024 295.487886
L 369.60696 295.487898
L 370.104897 295.487902
L 370.602833 295.487901
L 371.10077 295.487884
L 371.598706 295.487916
L 372.096642 295.48792
L 372.594579 295.487919
L 373.092515 295.487927
L 373.590452 295.487924
L 374.088388 295.487916
L 374.586325 295.487929
L 375.084261 295.487934
L 375.582197 295.487935
L 376.080134 295.487925
L 376.57807 295.487931
L 377.076007 295.487921
L 377.573943 295.487933
L 378.07188 295.487944
L 378.569816 295.487942
L 379.067752 295.48794
L 379.565689 295.487934
L 380.063625 295.487942
L 380.561562 295.487939
L 381.059498 295.48795
L 381.557434 295.487954
L 382.055371 295.487955
L 382.553307 295.487957
L 383.051244 295.487957
L 383.54918 295.487959
L 384.047117 295.487959
L 384.545053 295.487965
L 385.042989 295.487964
L 385.540926 295.487965
L 386.038862 295.487957
L 386.536799 295.487964
L 387.034735 295.487955
L 387.532672 295.487966
L 388.030608 295.487978
L 388.528544 295.487983
L 389.026481 295.487985
L 389.524417 295.487987
L 390.022354 295.48797
L 390.52029 295.487987
L 391.018226 295.488
L 391.516163 295.488
L 392.014099 295.487997
L 392.512036 295.487999
L 393.009972 295.488
L 393.507909 295.487989
L 394.005845 295.487998
L 394.503781 295.487994
L 395.001718 295.487999
L 395.499654 295.487998
L 395.997591 295.487999
L 396.495527 295.487985
L 396.993463 295.487999
L 397.4914 295.488
L 397.989336 295.487998
L 398.487273 295.487999
L 398.487273 295.487999
L 398.487273 295.487999
L 397.989336 295.487998
L 397.4914 295.488
L 396.993463 295.487999
L 396.495527 295.487985
L 395.997591 295.487999
L 395.499654 295.487998
L 395.001718 295.487999
L 394.503781 295.487994
L 394.005845 295.487998
L 393.507909 295.487989
L 393.009972 295.488
L 392.512036 295.487999
L 392.014099 295.487997
L 391.516163 295.488
L 391.018226 295.488
L 390.52029 295.487987
L 390.022354 295.48797
L 389.524417 295.487987
L 389.026481 295.487985
L 388.528544 295.487983
L 388.030608 295.487978
L 387.532672 295.487966
L 387.034735 295.487955
L 386.536799 295.487964
L 386.038862 295.487957
L 385.540926 295.487965
L 385.042989 295.487964
L 384.545053 295.487965
L 384.047117 295.487959
L 383.54918 295.487959
L 383.051244 295.487957
L 382.553307 295.487957
L 382.055371 295.487955
L 381.557434 295.487954
L 381.059498 295.48795
L 380.561562 295.487939
L 380.063625 295.487942
L 379.565689 295.487934
L 379.067752 295.48794
L 378.569816 295.487942
L 378.07188 295.487944
L 377.573943 295.487933
L 377.076007 295.487921
L 376.57807 295.487931
L 376.080134 295.487925
L 375.582197 295.487935
L 375.084261 295.487934
L 374.586325 295.487929
L 374.088388 295.487916
L 373.590452 295.487924
L 373.092515 295.487927
L 372.594579 295.487919
L 372.096642 295.48792
L 371.598706 295.487916
L 371.10077 295.487884
L 370.602833 295.487901
L 370.104897 295.487902
L 369.60696 295.487898
L 369.109024 295.487886
L 368.611088 295.487892
L 368.113151 295.487891
L 367.615215 295.487895
L 367.117278 295.487883
L 366.619342 295.487864
L 366.121405 295.48788
L 365.623469 295.487881
L 365.125533 295.487877
L 364.627596 295.487862
L 364.12966 295.487851
L 363.631723 295.487864
L 363.133787 295.48786
L 362.635851 295.487855
L 362.137914 295.48783
L 361.639978 295.487831
L 361.142041 295.487803
L 360.644105 295.487783
L 360.146168 295.4878
L 359.648232 295.487808
L 359.150296 295.487799
L 358.652359 295.487784
L 358.154423 295.487805
L 357.656486 295.487801
L 357.15855 295.487793
L 356.660613 295.487797
L 356.162677 295.487794
L 355.664741 295.487794
L 355.166804 295.487786
L 354.668868 295.487722
L 354.170931 295.48775
L 353.672995 295.48775
L 353.175059 295.487737
L 352.677122 295.487734
L 352.179186 295.48773
L 351.681249 295.487727
L 351.183313 295.487726
L 350.685376 295.487729
L 350.18744 295.487719
L 349.689504 295.487719
L 349.191567 295.487717
L 348.693631 295.487715
L 348.195694 295.487699
L 347.697758 295.487705
L 347.199822 295.487704
L 346.701885 295.487689
L 346.203949 295.487686
L 345.706012 295.487686
L 345.208076 295.487685
L 344.710139 295.487681
L 344.212203 295.487649
L 343.714267 295.487613
L 343.21633 295.487621
L 342.718394 295.4876
L 342.220457 295.487599
L 341.722521 295.487613
L 341.224584 295.487591
L 340.726648 295.487605
L 340.228712 295.4876
L 339.730775 295.487611
L 339.232839 295.487609
L 338.734902 295.487608
L 338.236966 295.48761
L 337.73903 295.487601
L 337.241093 295.487568
L 336.743157 295.48753
L 336.24522 295.487505
L 335.747284 295.487516
L 335.249347 295.487544
L 334.751411 295.487538
L 334.253475 295.48755
L 333.755538 295.487467
L 333.257602 295.487502
L 332.759665 295.487481
L 332.261729 295.487437
L 331.763793 295.487507
L 331.265856 295.487507
L 330.76792 295.487508
L 330.269983 295.487461
L 329.772047 295.487495
L 329.27411 295.487425
L 328.776174 295.487474
L 328.278238 295.487451
L 327.780301 295.487447
L 327.282365 295.487425
L 326.784428 295.487255
L 326.286492 295.487388
L 325.788555 295.487395
L 325.290619 295.487413
L 324.792683 295.487387
L 324.294746 295.487409
L 323.79681 295.48741
L 323.298873 295.487409
L 322.800937 295.487412
L 322.303001 295.487356
L 321.805064 295.487303
L 321.307128 295.487189
L 320.809191 295.487295
L 320.311255 295.487282
L 319.813318 295.487291
L 319.315382 295.4873
L 318.817446 295.487287
L 318.319509 295.487286
L 317.821573 295.487275
L 317.323636 295.487164
L 316.8257 295.487129
L 316.327764 295.487144
L 315.829827 295.487134
L 315.331891 295.487145
L 314.833954 295.48713
L 314.336018 295.487142
L 313.838081 295.48715
L 313.340145 295.487159
L 312.842209 295.487146
L 312.344272 295.487126
L 311.846336 295.487019
L 311.348399 295.48704
L 310.850463 295.487062
L 310.352526 295.48698
L 309.85459 295.487018
L 309.356654 295.487043
L 308.858717 295.48702
L 308.360781 295.486998
L 307.862844 295.487013
L 307.364908 295.487011
L 306.866972 295.486911
L 306.369035 295.486918
L 305.871099 295.486895
L 305.373162 295.486771
L 304.875226 295.486862
L 304.377289 295.486791
L 303.879353 295.486832
L 303.381417 295.486795
L 302.88348 295.486816
L 302.385544 295.486781
L 301.887607 295.486591
L 301.389671 295.486518
L 300.891735 295.486535
L 300.393798 295.486571
L 299.895862 295.486566
L 299.397925 295.486555
L 298.899989 295.486553
L 298.402052 295.48655
L 297.904116 295.486522
L 297.40618 295.48655
L 296.908243 295.486505
L 296.410307 295.486491
L 295.91237 295.486356
L 295.414434 295.486434
L 294.916497 295.48628
L 294.418561 295.48635
L 293.920625 295.485895
L 293.422688 295.486437
L 292.924752 295.486328
L 292.426815 295.486406
L 291.928879 295.486015
L 291.430943 295.486326
L 290.933006 295.486172
L 290.43507 295.485948
L 289.937133 295.486079
L 289.439197 295.485979
L 288.94126 295.486064
L 288.443324 295.486116
L 287.945388 295.486107
L 287.447451 295.486126
L 286.949515 295.48592
L 286.451578 295.485768
L 285.953642 295.486008
L 285.455706 295.485235
L 284.957769 295.485481
L 284.459833 295.485573
L 283.961896 295.485302
L 283.46396 295.484391
L 282.966023 295.485035
L 282.468087 295.485144
L 281.970151 295.484711
L 281.472214 295.484668
L 280.974278 295.484656
L 280.476341 295.484136
L 279.978405 295.484559
L 279.480468 295.484433
L 278.982532 295.484624
L 278.484596 295.484335
L 277.986659 295.484691
L 277.488723 295.483381
L 276.990786 295.484692
L 276.49285 295.484119
L 275.994914 295.483302
L 275.496977 295.483021
L 274.999041 295.4836
L 274.501104 295.482446
L 274.003168 295.482235
L 273.505231 295.482307
L 273.007295 295.482429
L 272.509359 295.481743
L 272.011422 295.48082
L 271.513486 295.481751
L 271.015549 295.481856
L 270.517613 295.481676
L 270.019677 295.48051
L 269.52174 295.481558
L 269.023804 295.481674
L 268.525867 295.481131
L 268.027931 295.480935
L 267.529994 295.480994
L 267.032058 295.476752
L 266.534122 295.478406
L 266.036185 295.479005
L 265.538249 295.477821
L 265.040312 295.477382
L 264.542376 295.4776
L 264.044439 295.478079
L 263.546503 295.477953
L 263.048567 295.477992
L 262.55063 295.477264
L 262.052694 295.477535
L 261.554757 295.476971
L 261.056821 295.477374
L 260.558885 295.476961
L 260.060948 295.477144
L 259.563012 295.475724
L 259.065075 295.476386
L 258.567139 295.47643
L 258.069202 295.476616
L 257.571266 295.475564
L 257.07333 295.474374
L 256.575393 295.475865
L 256.077457 295.47333
L 255.57952 295.474327
L 255.081584 295.473752
L 254.583648 295.47405
L 254.085711 295.474137
L 253.587775 295.474046
L 253.089838 295.473541
L 252.591902 295.472445
L 252.093965 295.472497
L 251.596029 295.473294
L 251.098093 295.473784
L 250.600156 295.471375
L 250.10222 295.473131
L 249.604283 295.466191
L 249.106347 295.461437
L 248.60841 295.466238
L 248.110474 295.461267
L 247.612538 295.466863
L 247.114601 295.467369
L 246.616665 295.464763
L 246.118728 295.466738
L 245.620792 295.464683
L 245.122856 295.455416
L 244.624919 295.463622
L 244.126983 295.463482
L 243.629046 295.464108
L 243.13111 295.464525
L 242.633173 295.464312
L 242.135237 295.464936
L 241.637301 295.46444
L 241.139364 295.462474
L 240.641428 295.463408
L 240.143491 295.461433
L 239.645555 295.450749
L 239.147619 295.455261
L 238.649682 295.453604
L 238.151746 295.449263
L 237.653809 295.453681
L 237.155873 295.452459
L 236.657936 295.451952
L 236.16 295.454019
L 235.662064 295.453941
L 235.164127 295.453554
L 234.666191 295.449865
L 234.168254 295.446098
L 233.670318 295.435361
L 233.172381 295.44647
L 232.674445 295.446551
L 232.176509 295.446038
L 231.678572 295.444474
L 231.180636 295.445707
L 230.682699 295.437018
L 230.184763 295.430451
L 229.686827 295.438245
L 229.18889 295.436244
L 228.690954 295.439178
L 228.193017 295.439266
L 227.695081 295.437998
L 227.197144 295.437479
L 226.699208 295.436008
L 226.201272 295.43661
L 225.703335 295.435804
L 225.205399 295.433946
L 224.707462 295.435051
L 224.209526 295.423268
L 223.71159 295.40795
L 223.213653 295.42442
L 222.715717 295.424066
L 222.21778 295.424057
L 221.719844 295.419109
L 221.221907 295.401895
L 220.723971 295.405662
L 220.226035 295.416268
L 219.728098 295.41471
L 219.230162 295.410618
L 218.732225 295.415854
L 218.234289 295.415621
L 217.736352 295.413895
L 217.238416 295.415555
L 216.74048 295.408128
L 216.242543 295.411061
L 215.744607 295.401805
L 215.24667 295.412704
L 214.748734 295.39498
L 214.250798 295.371532
L 213.752861 295.378359
L 213.254925 295.390034
L 212.756988 295.381251
L 212.259052 295.350555
L 211.761115 295.387978
L 211.263179 295.370334
L 210.765243 295.356541
L 210.267306 295.377969
L 209.76937 295.36223
L 209.271433 295.373959
L 208.773497 295.366699
L 208.275561 295.375178
L 207.777624 295.359945
L 207.279688 295.371636
L 206.781751 295.368554
L 206.283815 295.36692
L 205.785878 295.365365
L 205.287942 295.360281
L 204.790006 295.344922
L 204.292069 295.342934
L 203.794133 295.325035
L 203.296196 295.342892
L 202.79826 295.344017
L 202.300323 295.341711
L 201.802387 295.334238
L 201.304451 295.329076
L 200.806514 295.32248
L 200.308578 295.322215
L 199.810641 295.325568
L 199.312705 295.31842
L 198.814769 295.28306
L 198.316832 295.298427
L 197.818896 295.203393
L 197.320959 295.294889
L 196.823023 295.308562
L 196.325086 295.296057
L 195.82715 295.284429
L 195.329214 295.290878
L 194.831277 295.243384
L 194.333341 295.284606
L 193.835404 295.242754
L 193.337468 295.235625
L 192.839532 295.186954
L 192.341595 295.247973
L 191.843659 295.265004
L 191.345722 295.241424
L 190.847786 295.245239
L 190.349849 295.242201
L 189.851913 295.248614
L 189.353977 295.229427
L 188.85604 295.217659
L 188.358104 295.242765
L 187.860167 295.099412
L 187.362231 295.132923
L 186.864294 295.167006
L 186.366358 295.120296
L 185.868422 295.158556
L 185.370485 295.092038
L 184.872549 295.100228
L 184.374612 295.106471
L 183.876676 295.122221
L 183.37874 295.087707
L 182.880803 294.998491
L 182.382867 295.095543
L 181.88493 295.0804
L 181.386994 295.06033
L 180.889057 295.0719
L 180.391121 295.082251
L 179.893185 295.057291
L 179.395248 295.073567
L 178.897312 294.994156
L 178.399375 294.951242
L 177.901439 294.834908
L 177.403503 294.973085
L 176.905566 294.857185
L 176.40763 294.925923
L 175.909693 294.926127
L 175.411757 294.984414
L 174.91382 294.988878
L 174.415884 294.797451
L 173.917948 294.965875
L 173.420011 294.912143
L 172.922075 294.631009
L 172.424138 294.783585
L 171.926202 294.689017
L 171.428265 294.836473
L 170.930329 294.676748
L 170.432393 294.816425
L 169.934456 294.852266
L 169.43652 294.841206
L 168.938583 294.835763
L 168.440647 294.768437
L 167.942711 294.234517
L 167.444774 294.742327
L 166.946838 294.597192
L 166.448901 294.743809
L 165.950965 294.680812
L 165.453028 294.719413
L 164.955092 294.674246
L 164.457156 294.547164
L 163.959219 294.615513
L 163.461283 294.524236
L 162.963346 294.453506
L 162.46541 294.32551
L 161.967474 294.258261
L 161.469537 294.457863
L 160.971601 294.479355
L 160.473664 294.467219
L 159.975728 294.316884
L 159.477791 294.396859
L 158.979855 294.27349
L 158.481919 293.93761
L 157.983982 294.236519
L 157.486046 294.03594
L 156.988109 293.990425
L 156.490173 294.099859
L 155.992236 293.911621
L 155.4943 294.027564
L 154.996364 293.702559
L 154.498427 292.989661
L 154.000491 293.867775
L 153.502554 293.355383
L 153.004618 293.741637
L 152.506682 293.857157
L 152.008745 293.837629
L 151.510809 292.902113
L 151.012872 293.830192
L 150.514936 293.233959
L 150.016999 293.859185
L 149.519063 293.848326
L 149.021127 293.771407
L 148.52319 293.792364
L 148.025254 293.442121
L 147.527317 293.713506
L 147.029381 293.41701
L 146.531445 293.484946
L 146.033508 293.185774
L 145.535572 293.159491
L 145.037635 292.953816
L 144.539699 292.042719
L 144.041762 293.013936
L 143.543826 291.324395
L 143.04589 292.234421
L 142.547953 292.147312
L 142.050017 291.10619
L 141.55208 292.021542
L 141.054144 291.840619
L 140.556207 291.838641
L 140.058271 291.805915
L 139.560335 291.944787
L 139.062398 291.391651
L 138.564462 291.651521
L 138.066525 292.032897
L 137.568589 291.863084
L 137.070653 291.544185
L 136.572716 291.756753
L 136.07478 291.720528
L 135.576843 291.881394
L 135.078907 290.609127
L 134.58097 290.294898
L 134.083034 291.134513
L 133.585098 290.752315
L 133.087161 289.929642
L 132.589225 290.339581
L 132.091288 290.18646
L 131.593352 289.507694
L 131.095416 289.818412
L 130.597479 289.860282
L 130.099543 289.988618
L 129.601606 289.22512
L 129.10367 288.247918
L 128.605733 289.364326
L 128.107797 289.080375
L 127.609861 289.51348
L 127.111924 289.531168
L 126.613988 288.639388
L 126.116051 288.862985
L 125.618115 289.447507
L 125.120178 287.593115
L 124.622242 288.477845
L 124.124306 287.910716
L 123.626369 288.09237
L 123.128433 288.011917
L 122.630496 288.120628
L 122.13256 286.852172
L 121.634624 287.306159
L 121.136687 287.401092
L 120.638751 287.400278
L 120.140814 287.139023
L 119.642878 286.277126
L 119.144941 286.201947
L 118.647005 285.328802
L 118.149069 285.724849
L 117.651132 284.812854
L 117.153196 285.117659
L 116.655259 285.123236
L 116.157323 285.482739
L 115.659387 284.340822
L 115.16145 285.360822
L 114.663514 282.843387
L 114.165577 285.389994
L 113.667641 285.702195
L 113.169704 285.864123
L 112.671768 285.022035
L 112.173832 285.805003
L 111.675895 281.534337
L 111.177959 285.258215
L 110.680022 285.172208
L 110.182086 285.424171
L 109.684149 285.066215
L 109.186213 283.977011
L 108.688277 283.873203
L 108.19034 284.655727
L 107.692404 276.601098
L 107.194467 278.496023
L 106.696531 275.268166
L 106.198595 275.452536
L 105.700658 276.429145
L 105.202722 271.481404
L 104.704785 272.043997
L 104.206849 272.725715
L 103.708912 273.456217
L 103.210976 274.082415
L 102.71304 273.861672
L 102.215103 267.669406
L 101.717167 269.830176
L 101.21923 261.974733
L 100.721294 261.854922
L 100.223358 266.834412
L 99.725421 250.778373
L 99.227485 259.637549
L 98.729548 259.150523
L 98.231612 267.773228
L 97.733675 257.641322
L 97.235739 206.220767
L 96.737803 259.375925
L 96.239866 256.580414
L 95.74193 265.802819
L 95.243993 224.615617
L 94.746057 263.616446
L 94.24812 265.115085
L 93.750184 258.306533
L 93.252248 252.416459
L 92.754311 184.868372
L 92.256375 263.188314
L 91.758438 189.114959
L 91.260502 267.087146
L 90.762566 137.74328
L 90.264629 224.649974
L 89.766693 213.282973
L 89.268756 220.1703
L 88.77082 53.568
L 88.272883 223.151709
L 87.774947 195.120974
L 87.277011 263.168902
L 86.779074 251.323422
L 86.281138 255.863553
L 85.783201 191.136516
L 85.285265 250.926028
L 84.787328 210.541044
L 84.289392 218.795865
L 83.791456 204.294668
L 83.293519 233.6832
L 82.795583 209.870628
L 82.297646 56.730371
L 81.79971 195.873717
L 81.301774 104.169664
L 80.803837 249.772723
L 80.305901 109.363654
L 79.807964 250.087947
L 79.310028 99.918603
L 78.812091 183.246024
L 78.314155 201.64283
L 77.816219 149.438538
L 77.318282 146.485303
L 76.820346 177.400843
L 76.322409 142.554578
L 75.824473 176.374499
L 75.326537 106.334608
L 74.8286 188.965135
L 74.330664 119.158701
L 73.832727 180.421887
z
" style="fill:#1f77b4;fill-opacity:0.5;"/>
   </g>
   <g id="matplotlib.axis_1">
    <g id="xtick_1">
     <g id="line2d_1">
      <path clip-path="url(#pf65174b20a)" d="M 73.832727 307.584
L 73.832727 41.472
" style="fill:none;stroke:#b0b0b0;stroke-linecap:square;stroke-width:0.8;"/>
     </g>
     <g id="line2d_2">
      <defs>
       <path d="M 0 0
L 0 3.5
" id="m34e410ffc7" style="stroke:#000000;stroke-width:0.8;"/>
      </defs>
      <g>
       <use style="stroke:#000000;stroke-width:0.8;" x="73.832727" xlink:href="#m34e410ffc7" y="307.584"/>
      </g>
     </g>
     <g id="text_1">
      <!-- 0 -->
      <g transform="translate(70.651477 322.182437)scale(0.1 -0.1)">
       <defs>
        <path d="M 31.78125 66.40625
Q 24.171875 66.40625 20.328125 58.90625
Q 16.5 51.421875 16.5 36.375
Q 16.5 21.390625 20.328125 13.890625
Q 24.171875 6.390625 31.78125 6.390625
Q 39.453125 6.390625 43.28125 13.890625
Q 47.125 21.390625 47.125 36.375
Q 47.125 51.421875 43.28125 58.90625
Q 39.453125 66.40625 31.78125 66.40625
z
M 31.78125 74.21875
Q 44.046875 74.21875 50.515625 64.515625
Q 56.984375 54.828125 56.984375 36.375
Q 56.984375 17.96875 50.515625 8.265625
Q 44.046875 -1.421875 31.78125 -1.421875
Q 19.53125 -1.421875 13.0625 8.265625
Q 6.59375 17.96875 6.59375 36.375
Q 6.59375 54.828125 13.0625 64.515625
Q 19.53125 74.21875 31.78125 74.21875
z
" id="DejaVuSans-48"/>
       </defs>
       <use xlink:href="#DejaVuSans-48"/>
      </g>
     </g>
    </g>
    <g id="xtick_2">
     <g id="line2d_3">
      <path clip-path="url(#pf65174b20a)" d="M 123.626369 307.584
L 123.626369 41.472
" style="fill:none;stroke:#b0b0b0;stroke-linecap:square;stroke-width:0.8;"/>
     </g>
     <g id="line2d_4">
      <g>
       <use style="stroke:#000000;stroke-width:0.8;" x="123.626369" xlink:href="#m34e410ffc7" y="307.584"/>
      </g>
     </g>
     <g id="text_2">
      <!-- 100 -->
      <g transform="translate(114.082619 322.182437)scale(0.1 -0.1)">
       <defs>
        <path d="M 12.40625 8.296875
L 28.515625 8.296875
L 28.515625 63.921875
L 10.984375 60.40625
L 10.984375 69.390625
L 28.421875 72.90625
L 38.28125 72.90625
L 38.28125 8.296875
L 54.390625 8.296875
L 54.390625 0
L 12.40625 0
z
" id="DejaVuSans-49"/>
       </defs>
       <use xlink:href="#DejaVuSans-49"/>
       <use x="63.623047" xlink:href="#DejaVuSans-48"/>
       <use x="127.246094" xlink:href="#DejaVuSans-48"/>
      </g>
     </g>
    </g>
    <g id="xtick_3">
     <g id="line2d_5">
      <path clip-path="url(#pf65174b20a)" d="M 173.420011 307.584
L 173.420011 41.472
" style="fill:none;stroke:#b0b0b0;stroke-linecap:square;stroke-width:0.8;"/>
     </g>
     <g id="line2d_6">
      <g>
       <use style="stroke:#000000;stroke-width:0.8;" x="173.420011" xlink:href="#m34e410ffc7" y="307.584"/>
      </g>
     </g>
     <g id="text_3">
      <!-- 200 -->
      <g transform="translate(163.876261 322.182437)scale(0.1 -0.1)">
       <defs>
        <path d="M 19.1875 8.296875
L 53.609375 8.296875
L 53.609375 0
L 7.328125 0
L 7.328125 8.296875
Q 12.9375 14.109375 22.625 23.890625
Q 32.328125 33.6875 34.8125 36.53125
Q 39.546875 41.84375 41.421875 45.53125
Q 43.3125 49.21875 43.3125 52.78125
Q 43.3125 58.59375 39.234375 62.25
Q 35.15625 65.921875 28.609375 65.921875
Q 23.96875 65.921875 18.8125 64.3125
Q 13.671875 62.703125 7.8125 59.421875
L 7.8125 69.390625
Q 13.765625 71.78125 18.9375 73
Q 24.125 74.21875 28.421875 74.21875
Q 39.75 74.21875 46.484375 68.546875
Q 53.21875 62.890625 53.21875 53.421875
Q 53.21875 48.921875 51.53125 44.890625
Q 49.859375 40.875 45.40625 35.40625
Q 44.1875 33.984375 37.640625 27.21875
Q 31.109375 20.453125 19.1875 8.296875
z
" id="DejaVuSans-50"/>
       </defs>
       <use xlink:href="#DejaVuSans-50"/>
       <use x="63.623047" xlink:href="#DejaVuSans-48"/>
       <use x="127.246094" xlink:href="#DejaVuSans-48"/>
      </g>
     </g>
    </g>
    <g id="xtick_4">
     <g id="line2d_7">
      <path clip-path="url(#pf65174b20a)" d="M 223.213653 307.584
L 223.213653 41.472
" style="fill:none;stroke:#b0b0b0;stroke-linecap:square;stroke-width:0.8;"/>
     </g>
     <g id="line2d_8">
      <g>
       <use style="stroke:#000000;stroke-width:0.8;" x="223.213653" xlink:href="#m34e410ffc7" y="307.584"/>
      </g>
     </g>
     <g id="text_4">
      <!-- 300 -->
      <g transform="translate(213.669903 322.182437)scale(0.1 -0.1)">
       <defs>
        <path d="M 40.578125 39.3125
Q 47.65625 37.796875 51.625 33
Q 55.609375 28.21875 55.609375 21.1875
Q 55.609375 10.40625 48.1875 4.484375
Q 40.765625 -1.421875 27.09375 -1.421875
Q 22.515625 -1.421875 17.65625 -0.515625
Q 12.796875 0.390625 7.625 2.203125
L 7.625 11.71875
Q 11.71875 9.328125 16.59375 8.109375
Q 21.484375 6.890625 26.8125 6.890625
Q 36.078125 6.890625 40.9375 10.546875
Q 45.796875 14.203125 45.796875 21.1875
Q 45.796875 27.640625 41.28125 31.265625
Q 36.765625 34.90625 28.71875 34.90625
L 20.21875 34.90625
L 20.21875 43.015625
L 29.109375 43.015625
Q 36.375 43.015625 40.234375 45.921875
Q 44.09375 48.828125 44.09375 54.296875
Q 44.09375 59.90625 40.109375 62.90625
Q 36.140625 65.921875 28.71875 65.921875
Q 24.65625 65.921875 20.015625 65.03125
Q 15.375 64.15625 9.8125 62.3125
L 9.8125 71.09375
Q 15.4375 72.65625 20.34375 73.4375
Q 25.25 74.21875 29.59375 74.21875
Q 40.828125 74.21875 47.359375 69.109375
Q 53.90625 64.015625 53.90625 55.328125
Q 53.90625 49.265625 50.4375 45.09375
Q 46.96875 40.921875 40.578125 39.3125
z
" id="DejaVuSans-51"/>
       </defs>
       <use xlink:href="#DejaVuSans-51"/>
       <use x="63.623047" xlink:href="#DejaVuSans-48"/>
       <use x="127.246094" xlink:href="#DejaVuSans-48"/>
      </g>
     </g>
    </g>
    <g id="xtick_5">
     <g id="line2d_9">
      <path clip-path="url(#pf65174b20a)" d="M 273.007295 307.584
L 273.007295 41.472
" style="fill:none;stroke:#b0b0b0;stroke-linecap:square;stroke-width:0.8;"/>
     </g>
     <g id="line2d_10">
      <g>
       <use style="stroke:#000000;stroke-width:0.8;" x="273.007295" xlink:href="#m34e410ffc7" y="307.584"/>
      </g>
     </g>
     <g id="text_5">
      <!-- 400 -->
      <g transform="translate(263.463545 322.182437)scale(0.1 -0.1)">
       <defs>
        <path d="M 37.796875 64.3125
L 12.890625 25.390625
L 37.796875 25.390625
z
M 35.203125 72.90625
L 47.609375 72.90625
L 47.609375 25.390625
L 58.015625 25.390625
L 58.015625 17.1875
L 47.609375 17.1875
L 47.609375 0
L 37.796875 0
L 37.796875 17.1875
L 4.890625 17.1875
L 4.890625 26.703125
z
" id="DejaVuSans-52"/>
       </defs>
       <use xlink:href="#DejaVuSans-52"/>
       <use x="63.623047" xlink:href="#DejaVuSans-48"/>
       <use x="127.246094" xlink:href="#DejaVuSans-48"/>
      </g>
     </g>
    </g>
    <g id="xtick_6">
     <g id="line2d_11">
      <path clip-path="url(#pf65174b20a)" d="M 322.800937 307.584
L 322.800937 41.472
" style="fill:none;stroke:#b0b0b0;stroke-linecap:square;stroke-width:0.8;"/>
     </g>
     <g id="line2d_12">
      <g>
       <use style="stroke:#000000;stroke-width:0.8;" x="322.800937" xlink:href="#m34e410ffc7" y="307.584"/>
      </g>
     </g>
     <g id="text_6">
      <!-- 500 -->
      <g transform="translate(313.257187 322.182437)scale(0.1 -0.1)">
       <defs>
        <path d="M 10.796875 72.90625
L 49.515625 72.90625
L 49.515625 64.59375
L 19.828125 64.59375
L 19.828125 46.734375
Q 21.96875 47.46875 24.109375 47.828125
Q 26.265625 48.1875 28.421875 48.1875
Q 40.625 48.1875 47.75 41.5
Q 54.890625 34.8125 54.890625 23.390625
Q 54.890625 11.625 47.5625 5.09375
Q 40.234375 -1.421875 26.90625 -1.421875
Q 22.3125 -1.421875 17.546875 -0.640625
Q 12.796875 0.140625 7.71875 1.703125
L 7.71875 11.625
Q 12.109375 9.234375 16.796875 8.0625
Q 21.484375 6.890625 26.703125 6.890625
Q 35.15625 6.890625 40.078125 11.328125
Q 45.015625 15.765625 45.015625 23.390625
Q 45.015625 31 40.078125 35.4375
Q 35.15625 39.890625 26.703125 39.890625
Q 22.75 39.890625 18.8125 39.015625
Q 14.890625 38.140625 10.796875 36.28125
z
" id="DejaVuSans-53"/>
       </defs>
       <use xlink:href="#DejaVuSans-53"/>
       <use x="63.623047" xlink:href="#DejaVuSans-48"/>
       <use x="127.246094" xlink:href="#DejaVuSans-48"/>
      </g>
     </g>
    </g>
    <g id="xtick_7">
     <g id="line2d_13">
      <path clip-path="url(#pf65174b20a)" d="M 372.594579 307.584
L 372.594579 41.472
" style="fill:none;stroke:#b0b0b0;stroke-linecap:square;stroke-width:0.8;"/>
     </g>
     <g id="line2d_14">
      <g>
       <use style="stroke:#000000;stroke-width:0.8;" x="372.594579" xlink:href="#m34e410ffc7" y="307.584"/>
      </g>
     </g>
     <g id="text_7">
      <!-- 600 -->
      <g transform="translate(363.050829 322.182437)scale(0.1 -0.1)">
       <defs>
        <path d="M 33.015625 40.375
Q 26.375 40.375 22.484375 35.828125
Q 18.609375 31.296875 18.609375 23.390625
Q 18.609375 15.53125 22.484375 10.953125
Q 26.375 6.390625 33.015625 6.390625
Q 39.65625 6.390625 43.53125 10.953125
Q 47.40625 15.53125 47.40625 23.390625
Q 47.40625 31.296875 43.53125 35.828125
Q 39.65625 40.375 33.015625 40.375
z
M 52.59375 71.296875
L 52.59375 62.3125
Q 48.875 64.0625 45.09375 64.984375
Q 41.3125 65.921875 37.59375 65.921875
Q 27.828125 65.921875 22.671875 59.328125
Q 17.53125 52.734375 16.796875 39.40625
Q 19.671875 43.65625 24.015625 45.921875
Q 28.375 48.1875 33.59375 48.1875
Q 44.578125 48.1875 50.953125 41.515625
Q 57.328125 34.859375 57.328125 23.390625
Q 57.328125 12.15625 50.6875 5.359375
Q 44.046875 -1.421875 33.015625 -1.421875
Q 20.359375 -1.421875 13.671875 8.265625
Q 6.984375 17.96875 6.984375 36.375
Q 6.984375 53.65625 15.1875 63.9375
Q 23.390625 74.21875 37.203125 74.21875
Q 40.921875 74.21875 44.703125 73.484375
Q 48.484375 72.75 52.59375 71.296875
z
" id="DejaVuSans-54"/>
       </defs>
       <use xlink:href="#DejaVuSans-54"/>
       <use x="63.623047" xlink:href="#DejaVuSans-48"/>
       <use x="127.246094" xlink:href="#DejaVuSans-48"/>
      </g>
     </g>
    </g>
    <g id="text_8">
     <!-- $iteration$ -->
     <g transform="translate(215.01 335.860562)scale(0.1 -0.1)">
      <defs>
       <path d="M 18.3125 75.984375
L 27.296875 75.984375
L 25.09375 64.59375
L 16.109375 64.59375
z
M 14.203125 54.6875
L 23.1875 54.6875
L 12.5 0
L 3.515625 0
z
" id="DejaVuSans-Oblique-105"/>
       <path d="M 42.28125 54.6875
L 40.921875 47.703125
L 23 47.703125
L 17.1875 18.015625
Q 16.890625 16.359375 16.75 15.234375
Q 16.609375 14.109375 16.609375 13.484375
Q 16.609375 10.359375 18.484375 8.9375
Q 20.359375 7.515625 24.515625 7.515625
L 33.59375 7.515625
L 32.078125 0
L 23.484375 0
Q 15.484375 0 11.546875 3.125
Q 7.625 6.25 7.625 12.59375
Q 7.625 13.71875 7.765625 15.0625
Q 7.90625 16.40625 8.203125 18.015625
L 14.015625 47.703125
L 6.390625 47.703125
L 7.8125 54.6875
L 15.28125 54.6875
L 18.3125 70.21875
L 27.296875 70.21875
L 24.3125 54.6875
z
" id="DejaVuSans-Oblique-116"/>
       <path d="M 48.09375 32.234375
Q 48.25 33.015625 48.3125 33.84375
Q 48.390625 34.671875 48.390625 35.5
Q 48.390625 41.453125 44.890625 44.921875
Q 41.40625 48.390625 35.40625 48.390625
Q 28.71875 48.390625 23.578125 44.15625
Q 18.453125 39.9375 15.828125 32.171875
z
M 55.90625 25.203125
L 14.109375 25.203125
Q 13.8125 23.34375 13.71875 22.265625
Q 13.625 21.1875 13.625 20.40625
Q 13.625 13.625 17.796875 9.90625
Q 21.96875 6.203125 29.59375 6.203125
Q 35.453125 6.203125 40.671875 7.515625
Q 45.90625 8.84375 50.390625 11.375
L 48.6875 2.484375
Q 43.84375 0.53125 38.6875 -0.4375
Q 33.546875 -1.421875 28.21875 -1.421875
Q 16.84375 -1.421875 10.71875 4.015625
Q 4.59375 9.46875 4.59375 19.484375
Q 4.59375 28.03125 7.640625 35.375
Q 10.6875 42.71875 16.609375 48.484375
Q 20.40625 52.09375 25.65625 54.046875
Q 30.90625 56 36.8125 56
Q 46.09375 56 51.578125 50.4375
Q 57.078125 44.875 57.078125 35.5
Q 57.078125 33.25 56.78125 30.6875
Q 56.5 28.125 55.90625 25.203125
z
" id="DejaVuSans-Oblique-101"/>
       <path d="M 44.578125 46.390625
Q 43.21875 47.125 41.453125 47.515625
Q 39.703125 47.90625 37.703125 47.90625
Q 30.515625 47.90625 25.140625 42.453125
Q 19.78125 37.015625 18.015625 27.875
L 12.5 0
L 3.515625 0
L 14.203125 54.6875
L 23.1875 54.6875
L 21.484375 46.1875
Q 25.046875 50.921875 30 53.453125
Q 34.96875 56 40.578125 56
Q 42.046875 56 43.453125 55.828125
Q 44.875 55.671875 46.296875 55.28125
z
" id="DejaVuSans-Oblique-114"/>
       <path d="M 53.71875 31.203125
L 47.609375 0
L 38.625 0
L 40.28125 8.296875
Q 36.328125 3.421875 31.265625 1
Q 26.21875 -1.421875 20.015625 -1.421875
Q 13.03125 -1.421875 8.5625 2.84375
Q 4.109375 7.125 4.109375 13.8125
Q 4.109375 23.390625 11.75 28.953125
Q 19.390625 34.515625 32.8125 34.515625
L 45.3125 34.515625
L 45.796875 36.921875
Q 45.90625 37.3125 45.953125 37.765625
Q 46 38.234375 46 39.203125
Q 46 43.5625 42.453125 45.96875
Q 38.921875 48.390625 32.515625 48.390625
Q 28.125 48.390625 23.5 47.265625
Q 18.890625 46.140625 14.015625 43.890625
L 15.578125 52.203125
Q 20.65625 54.109375 25.515625 55.046875
Q 30.375 56 34.90625 56
Q 44.578125 56 49.625 51.796875
Q 54.6875 47.609375 54.6875 39.59375
Q 54.6875 37.984375 54.4375 35.8125
Q 54.203125 33.640625 53.71875 31.203125
z
M 44 27.484375
L 35.015625 27.484375
Q 23.96875 27.484375 18.671875 24.53125
Q 13.375 21.578125 13.375 15.375
Q 13.375 11.078125 16.078125 8.640625
Q 18.796875 6.203125 23.578125 6.203125
Q 30.90625 6.203125 36.375 11.453125
Q 41.84375 16.703125 43.609375 25.484375
z
" id="DejaVuSans-Oblique-97"/>
       <path d="M 25.390625 -1.421875
Q 15.765625 -1.421875 10.171875 4.515625
Q 4.59375 10.453125 4.59375 20.703125
Q 4.59375 26.65625 6.515625 32.828125
Q 8.453125 39.015625 11.53125 43.21875
Q 16.359375 49.75 22.3125 52.875
Q 28.265625 56 35.796875 56
Q 45.125 56 50.859375 50.1875
Q 56.59375 44.390625 56.59375 35.015625
Q 56.59375 28.515625 54.6875 22.0625
Q 52.78125 15.625 49.703125 11.375
Q 44.921875 4.828125 38.96875 1.703125
Q 33.015625 -1.421875 25.390625 -1.421875
z
M 13.921875 21
Q 13.921875 13.578125 17.015625 9.890625
Q 20.125 6.203125 26.421875 6.203125
Q 35.453125 6.203125 41.375 14.078125
Q 47.3125 21.96875 47.3125 34.078125
Q 47.3125 41.15625 44.140625 44.765625
Q 40.96875 48.390625 34.8125 48.390625
Q 29.734375 48.390625 25.78125 46.015625
Q 21.828125 43.65625 18.703125 38.8125
Q 16.40625 35.203125 15.15625 30.5625
Q 13.921875 25.921875 13.921875 21
z
" id="DejaVuSans-Oblique-111"/>
       <path d="M 55.71875 33.015625
L 49.3125 0
L 40.28125 0
L 46.6875 32.671875
Q 47.125 34.96875 47.359375 36.71875
Q 47.609375 38.484375 47.609375 39.5
Q 47.609375 43.609375 45.015625 45.890625
Q 42.4375 48.1875 37.796875 48.1875
Q 30.5625 48.1875 25.34375 43.375
Q 20.125 38.578125 18.5 30.328125
L 12.5 0
L 3.515625 0
L 14.109375 54.6875
L 23.09375 54.6875
L 21.296875 46.09375
Q 25.046875 50.828125 30.3125 53.40625
Q 35.59375 56 41.40625 56
Q 48.640625 56 52.609375 52.09375
Q 56.59375 48.1875 56.59375 41.109375
Q 56.59375 39.359375 56.375 37.359375
Q 56.15625 35.359375 55.71875 33.015625
z
" id="DejaVuSans-Oblique-110"/>
      </defs>
      <use transform="translate(0 0.015625)" xlink:href="#DejaVuSans-Oblique-105"/>
      <use transform="translate(27.783203 0.015625)" xlink:href="#DejaVuSans-Oblique-116"/>
      <use transform="translate(66.992188 0.015625)" xlink:href="#DejaVuSans-Oblique-101"/>
      <use transform="translate(128.515625 0.015625)" xlink:href="#DejaVuSans-Oblique-114"/>
      <use transform="translate(169.628906 0.015625)" xlink:href="#DejaVuSans-Oblique-97"/>
      <use transform="translate(230.908203 0.015625)" xlink:href="#DejaVuSans-Oblique-116"/>
      <use transform="translate(270.117188 0.015625)" xlink:href="#DejaVuSans-Oblique-105"/>
      <use transform="translate(297.900391 0.015625)" xlink:href="#DejaVuSans-Oblique-111"/>
      <use transform="translate(359.082031 0.015625)" xlink:href="#DejaVuSans-Oblique-110"/>
     </g>
    </g>
   </g>
   <g id="matplotlib.axis_2">
    <g id="ytick_1">
     <g id="line2d_15">
      <path clip-path="url(#pf65174b20a)" d="M 57.6 295.488055
L 414.72 295.488055
" style="fill:none;stroke:#b0b0b0;stroke-linecap:square;stroke-width:0.8;"/>
     </g>
     <g id="line2d_16">
      <defs>
       <path d="M 0 0
L -3.5 0
" id="m3c4b0f9f58" style="stroke:#000000;stroke-width:0.8;"/>
      </defs>
      <g>
       <use style="stroke:#000000;stroke-width:0.8;" x="57.6" xlink:href="#m3c4b0f9f58" y="295.488055"/>
      </g>
     </g>
     <g id="text_9">
      <!-- −4.0 -->
      <g transform="translate(26.317187 299.287274)scale(0.1 -0.1)">
       <defs>
        <path d="M 10.59375 35.5
L 73.1875 35.5
L 73.1875 27.203125
L 10.59375 27.203125
z
" id="DejaVuSans-8722"/>
        <path d="M 10.6875 12.40625
L 21 12.40625
L 21 0
L 10.6875 0
z
" id="DejaVuSans-46"/>
       </defs>
       <use xlink:href="#DejaVuSans-8722"/>
       <use x="83.789062" xlink:href="#DejaVuSans-52"/>
       <use x="147.412109" xlink:href="#DejaVuSans-46"/>
       <use x="179.199219" xlink:href="#DejaVuSans-48"/>
      </g>
     </g>
    </g>
    <g id="ytick_2">
     <g id="line2d_17">
      <path clip-path="url(#pf65174b20a)" d="M 57.6 252.917117
L 414.72 252.917117
" style="fill:none;stroke:#b0b0b0;stroke-linecap:square;stroke-width:0.8;"/>
     </g>
     <g id="line2d_18">
      <g>
       <use style="stroke:#000000;stroke-width:0.8;" x="57.6" xlink:href="#m3c4b0f9f58" y="252.917117"/>
      </g>
     </g>
     <g id="text_10">
      <!-- −3.5 -->
      <g transform="translate(26.317187 256.716335)scale(0.1 -0.1)">
       <use xlink:href="#DejaVuSans-8722"/>
       <use x="83.789062" xlink:href="#DejaVuSans-51"/>
       <use x="147.412109" xlink:href="#DejaVuSans-46"/>
       <use x="179.199219" xlink:href="#DejaVuSans-53"/>
      </g>
     </g>
    </g>
    <g id="ytick_3">
     <g id="line2d_19">
      <path clip-path="url(#pf65174b20a)" d="M 57.6 210.346179
L 414.72 210.346179
" style="fill:none;stroke:#b0b0b0;stroke-linecap:square;stroke-width:0.8;"/>
     </g>
     <g id="line2d_20">
      <g>
       <use style="stroke:#000000;stroke-width:0.8;" x="57.6" xlink:href="#m3c4b0f9f58" y="210.346179"/>
      </g>
     </g>
     <g id="text_11">
      <!-- −3.0 -->
      <g transform="translate(26.317187 214.145397)scale(0.1 -0.1)">
       <use xlink:href="#DejaVuSans-8722"/>
       <use x="83.789062" xlink:href="#DejaVuSans-51"/>
       <use x="147.412109" xlink:href="#DejaVuSans-46"/>
       <use x="179.199219" xlink:href="#DejaVuSans-48"/>
      </g>
     </g>
    </g>
    <g id="ytick_4">
     <g id="line2d_21">
      <path clip-path="url(#pf65174b20a)" d="M 57.6 167.775241
L 414.72 167.775241
" style="fill:none;stroke:#b0b0b0;stroke-linecap:square;stroke-width:0.8;"/>
     </g>
     <g id="line2d_22">
      <g>
       <use style="stroke:#000000;stroke-width:0.8;" x="57.6" xlink:href="#m3c4b0f9f58" y="167.775241"/>
      </g>
     </g>
     <g id="text_12">
      <!-- −2.5 -->
      <g transform="translate(26.317187 171.574459)scale(0.1 -0.1)">
       <use xlink:href="#DejaVuSans-8722"/>
       <use x="83.789062" xlink:href="#DejaVuSans-50"/>
       <use x="147.412109" xlink:href="#DejaVuSans-46"/>
       <use x="179.199219" xlink:href="#DejaVuSans-53"/>
      </g>
     </g>
    </g>
    <g id="ytick_5">
     <g id="line2d_23">
      <path clip-path="url(#pf65174b20a)" d="M 57.6 125.204302
L 414.72 125.204302
" style="fill:none;stroke:#b0b0b0;stroke-linecap:square;stroke-width:0.8;"/>
     </g>
     <g id="line2d_24">
      <g>
       <use style="stroke:#000000;stroke-width:0.8;" x="57.6" xlink:href="#m3c4b0f9f58" y="125.204302"/>
      </g>
     </g>
     <g id="text_13">
      <!-- −2.0 -->
      <g transform="translate(26.317187 129.003521)scale(0.1 -0.1)">
       <use xlink:href="#DejaVuSans-8722"/>
       <use x="83.789062" xlink:href="#DejaVuSans-50"/>
       <use x="147.412109" xlink:href="#DejaVuSans-46"/>
       <use x="179.199219" xlink:href="#DejaVuSans-48"/>
      </g>
     </g>
    </g>
    <g id="ytick_6">
     <g id="line2d_25">
      <path clip-path="url(#pf65174b20a)" d="M 57.6 82.633364
L 414.72 82.633364
" style="fill:none;stroke:#b0b0b0;stroke-linecap:square;stroke-width:0.8;"/>
     </g>
     <g id="line2d_26">
      <g>
       <use style="stroke:#000000;stroke-width:0.8;" x="57.6" xlink:href="#m3c4b0f9f58" y="82.633364"/>
      </g>
     </g>
     <g id="text_14">
      <!-- −1.5 -->
      <g transform="translate(26.317187 86.432583)scale(0.1 -0.1)">
       <use xlink:href="#DejaVuSans-8722"/>
       <use x="83.789062" xlink:href="#DejaVuSans-49"/>
       <use x="147.412109" xlink:href="#DejaVuSans-46"/>
       <use x="179.199219" xlink:href="#DejaVuSans-53"/>
      </g>
     </g>
    </g>
    <g id="text_15">
     <!-- $\langle H_{\mathrm{MC}} \rangle$ -->
     <g transform="translate(20.2375 187.828)rotate(-90)scale(0.1 -0.1)">
      <defs>
       <path d="M 8.9375 31.34375
L 22.703125 75.875
L 31 75.875
L 17.234375 31.34375
L 31 -13.1875
L 22.703125 -13.1875
z
" id="DejaVuSans-10216"/>
       <path d="M 16.890625 72.90625
L 26.8125 72.90625
L 21 43.015625
L 56.78125 43.015625
L 62.59375 72.90625
L 72.515625 72.90625
L 58.296875 0
L 48.390625 0
L 55.171875 34.71875
L 19.390625 34.71875
L 12.59375 0
L 2.6875 0
z
" id="DejaVuSans-Oblique-72"/>
       <path d="M 9.8125 72.90625
L 24.515625 72.90625
L 43.109375 23.296875
L 61.8125 72.90625
L 76.515625 72.90625
L 76.515625 0
L 66.890625 0
L 66.890625 64.015625
L 48.09375 14.015625
L 38.1875 14.015625
L 19.390625 64.015625
L 19.390625 0
L 9.8125 0
z
" id="DejaVuSans-77"/>
       <path d="M 64.40625 67.28125
L 64.40625 56.890625
Q 59.421875 61.53125 53.78125 63.8125
Q 48.140625 66.109375 41.796875 66.109375
Q 29.296875 66.109375 22.65625 58.46875
Q 16.015625 50.828125 16.015625 36.375
Q 16.015625 21.96875 22.65625 14.328125
Q 29.296875 6.6875 41.796875 6.6875
Q 48.140625 6.6875 53.78125 8.984375
Q 59.421875 11.28125 64.40625 15.921875
L 64.40625 5.609375
Q 59.234375 2.09375 53.4375 0.328125
Q 47.65625 -1.421875 41.21875 -1.421875
Q 24.65625 -1.421875 15.125 8.703125
Q 5.609375 18.84375 5.609375 36.375
Q 5.609375 53.953125 15.125 64.078125
Q 24.65625 74.21875 41.21875 74.21875
Q 47.75 74.21875 53.53125 72.484375
Q 59.328125 70.75 64.40625 67.28125
z
" id="DejaVuSans-67"/>
       <path d="M 30.078125 31.34375
L 16.3125 -13.1875
L 8.015625 -13.1875
L 21.78125 31.34375
L 8.015625 75.875
L 16.3125 75.875
z
" id="DejaVuSans-10217"/>
      </defs>
      <use transform="translate(0 0.125)" xlink:href="#DejaVuSans-10216"/>
      <use transform="translate(39.013672 0.125)" xlink:href="#DejaVuSans-Oblique-72"/>
      <use transform="translate(114.208984 -16.28125)scale(0.7)" xlink:href="#DejaVuSans-77"/>
      <use transform="translate(174.604492 -16.28125)scale(0.7)" xlink:href="#DejaVuSans-67"/>
      <use transform="translate(226.21582 0.125)" xlink:href="#DejaVuSans-10217"/>
     </g>
    </g>
   </g>
   <g id="line2d_27">
    <path clip-path="url(#pf65174b20a)" d="M 73.832727 180.421887
L 74.330664 119.158701
L 74.8286 188.965135
L 75.326537 106.334608
L 75.824473 176.374499
L 76.322409 142.554578
L 76.820346 177.400843
L 77.318282 146.485303
L 77.816219 149.438538
L 78.314155 201.64283
L 78.812091 183.246024
L 79.310028 99.918603
L 79.807964 250.087947
L 80.305901 109.363654
L 80.803837 249.772723
L 81.301774 104.169664
L 81.79971 195.873717
L 82.297646 56.730371
L 82.795583 209.870628
L 83.293519 233.6832
L 83.791456 204.294668
L 84.289392 218.795865
L 84.787328 210.541044
L 85.285265 250.926028
L 85.783201 191.136516
L 86.281138 255.863553
L 86.779074 251.323422
L 87.277011 263.168902
L 87.774947 195.120974
L 88.272883 223.151709
L 88.77082 53.568
L 89.268756 220.1703
L 89.766693 213.282973
L 90.264629 224.649974
L 90.762566 137.74328
L 91.260502 267.087146
L 91.758438 189.114959
L 92.256375 263.188314
L 92.754311 184.868372
L 93.252248 252.416459
L 94.24812 265.115085
L 94.746057 263.616446
L 95.243993 224.615617
L 95.74193 265.802819
L 96.239866 256.580414
L 96.737803 259.375925
L 97.235739 206.220767
L 97.733675 257.641322
L 98.231612 267.773228
L 98.729548 259.150523
L 99.227485 259.637549
L 99.725421 250.778373
L 100.223358 266.834412
L 100.721294 261.854922
L 101.21923 261.974733
L 101.717167 269.830176
L 102.215103 267.669406
L 102.71304 273.861672
L 103.210976 274.082415
L 105.202722 271.481404
L 105.700658 276.429145
L 106.198595 275.452536
L 106.696531 275.268166
L 107.194467 278.496023
L 107.692404 276.601098
L 108.19034 284.655727
L 108.688277 283.873203
L 109.186213 283.977011
L 109.684149 285.066215
L 110.182086 285.424171
L 110.680022 285.172208
L 111.177959 285.258215
L 111.675895 281.534337
L 112.173832 285.805003
L 112.671768 285.022035
L 113.169704 285.864123
L 113.667641 285.702195
L 114.165577 285.389994
L 114.663514 282.843387
L 115.16145 285.360822
L 115.659387 284.340822
L 116.157323 285.482739
L 116.655259 285.123236
L 117.153196 285.117659
L 117.651132 284.812854
L 118.149069 285.724849
L 118.647005 285.328802
L 119.144941 286.201947
L 119.642878 286.277126
L 120.140814 287.139023
L 120.638751 287.400278
L 121.634624 287.306159
L 122.13256 286.852172
L 122.630496 288.120628
L 123.128433 288.011917
L 123.626369 288.09237
L 124.124306 287.910716
L 124.622242 288.477845
L 125.120178 287.593115
L 125.618115 289.447507
L 126.116051 288.862985
L 126.613988 288.639388
L 127.111924 289.531168
L 127.609861 289.51348
L 128.107797 289.080375
L 128.605733 289.364326
L 129.10367 288.247918
L 130.099543 289.988618
L 131.593352 289.507694
L 132.091288 290.18646
L 132.589225 290.339581
L 133.087161 289.929642
L 133.585098 290.752315
L 134.083034 291.134513
L 134.58097 290.294898
L 135.078907 290.609127
L 135.576843 291.881394
L 136.07478 291.720528
L 136.572716 291.756753
L 137.070653 291.544185
L 137.568589 291.863084
L 138.066525 292.032897
L 139.062398 291.391651
L 139.560335 291.944787
L 140.058271 291.805915
L 141.054144 291.840619
L 141.55208 292.021542
L 142.050017 291.10619
L 142.547953 292.147312
L 143.04589 292.234421
L 143.543826 291.324395
L 144.041762 293.013936
L 144.539699 292.042719
L 145.037635 292.953816
L 145.535572 293.159491
L 146.033508 293.185774
L 146.531445 293.484946
L 147.029381 293.41701
L 147.527317 293.713506
L 148.025254 293.442121
L 148.52319 293.792364
L 149.519063 293.848326
L 150.016999 293.859185
L 150.514936 293.233959
L 151.012872 293.830192
L 151.510809 292.902113
L 152.008745 293.837629
L 152.506682 293.857157
L 153.004618 293.741637
L 153.502554 293.355383
L 154.000491 293.867775
L 154.498427 292.989661
L 154.996364 293.702559
L 155.4943 294.027564
L 155.992236 293.911621
L 156.490173 294.099859
L 156.988109 293.990425
L 157.486046 294.03594
L 157.983982 294.236519
L 158.481919 293.93761
L 158.979855 294.27349
L 159.477791 294.396859
L 159.975728 294.316884
L 160.473664 294.467219
L 161.469537 294.457863
L 161.967474 294.258261
L 165.453028 294.719413
L 166.946838 294.597192
L 167.444774 294.742327
L 167.942711 294.234517
L 168.440647 294.768437
L 169.43652 294.841206
L 170.432393 294.816425
L 170.930329 294.676748
L 171.428265 294.836473
L 171.926202 294.689017
L 172.424138 294.783585
L 172.922075 294.631009
L 173.420011 294.912143
L 173.917948 294.965875
L 174.415884 294.797451
L 174.91382 294.988878
L 176.40763 294.925923
L 176.905566 294.857185
L 177.403503 294.973085
L 177.901439 294.834908
L 179.395248 295.073567
L 181.88493 295.0804
L 182.382867 295.095543
L 182.880803 294.998491
L 183.876676 295.122221
L 186.366358 295.120296
L 187.362231 295.132923
L 187.860167 295.099412
L 188.358104 295.242765
L 190.349849 295.242201
L 244.624919 295.463622
L 250.600156 295.471375
L 275.994914 295.483302
L 346.203949 295.487686
L 398.487273 295.487999
L 398.487273 295.487999
" style="fill:none;stroke:#1f77b4;stroke-linecap:square;stroke-width:1.5;"/>
   </g>
   <g id="line2d_28">
    <path clip-path="url(#pf65174b20a)" d="M 57.6 295.488055
L 414.72 295.488055
" style="fill:none;stroke:#ff7f0e;stroke-linecap:square;stroke-width:1.5;"/>
   </g>
   <g id="patch_3">
    <path d="M 57.6 307.584
L 57.6 41.472
" style="fill:none;stroke:#000000;stroke-linecap:square;stroke-linejoin:miter;stroke-width:0.8;"/>
   </g>
   <g id="patch_4">
    <path d="M 414.72 307.584
L 414.72 41.472
" style="fill:none;stroke:#000000;stroke-linecap:square;stroke-linejoin:miter;stroke-width:0.8;"/>
   </g>
   <g id="patch_5">
    <path d="M 57.6 307.584
L 414.72 307.584
" style="fill:none;stroke:#000000;stroke-linecap:square;stroke-linejoin:miter;stroke-width:0.8;"/>
   </g>
   <g id="patch_6">
    <path d="M 57.6 41.472
L 414.72 41.472
" style="fill:none;stroke:#000000;stroke-linecap:square;stroke-linejoin:miter;stroke-width:0.8;"/>
   </g>
   <g id="legend_1">
    <g id="patch_7">
     <path d="M 403.72 54.472
L 407.72 54.472
Q 409.72 54.472 409.72 52.472
L 409.72 48.472
Q 409.72 46.472 407.72 46.472
L 403.72 46.472
Q 401.72 46.472 401.72 48.472
L 401.72 52.472
Q 401.72 54.472 403.72 54.472
z
" style="fill:#ffffff;opacity:0.8;stroke:#cccccc;stroke-linejoin:miter;"/>
    </g>
   </g>
  </g>
 </g>
 <defs>
  <clipPath id="pf65174b20a">
   <rect height="266.112" width="357.12" x="57.6" y="41.472"/>
  </clipPath>
 </defs>
</svg>
