<?xml version="1.0" encoding="UTF-8" standalone="no"?>
<svg
   xmlns:dc="http://purl.org/dc/elements/1.1/"
   xmlns:cc="http://creativecommons.org/ns#"
   xmlns:rdf="http://www.w3.org/1999/02/22-rdf-syntax-ns#"
   xmlns:svg="http://www.w3.org/2000/svg"
   xmlns="http://www.w3.org/2000/svg"
   xmlns:xlink="http://www.w3.org/1999/xlink"
   xmlns:sodipodi="http://sodipodi.sourceforge.net/DTD/sodipodi-0.dtd"
   xmlns:inkscape="http://www.inkscape.org/namespaces/inkscape"
   height="294.9292pt"
   version="1.1"
   viewBox="0 0 402.48249 294.92919"
   width="402.48248pt"
   id="svg426"
   sodipodi:docname="convergence_max_cut_vqe_noisy.svg"
   inkscape:version="1.0.1 (3bc2e813f5, 2020-09-07)">
  <sodipodi:namedview
     pagecolor="#ffffff"
     bordercolor="#666666"
     borderopacity="1"
     objecttolerance="10"
     gridtolerance="10"
     guidetolerance="10"
     inkscape:pageopacity="0"
     inkscape:pageshadow="2"
     inkscape:window-width="1920"
     inkscape:window-height="1042"
     id="namedview428"
     showgrid="false"
     inkscape:zoom="1.7013889"
     inkscape:cx="146.64387"
     inkscape:cy="175.63733"
     inkscape:window-x="0"
     inkscape:window-y="18"
     inkscape:window-maximized="0"
     inkscape:current-layer="axes_1"
     inkscape:document-rotation="0" />
  <metadata
     id="metadata2">
    <rdf:RDF>
      <cc:Work>
        <dc:type
           rdf:resource="http://purl.org/dc/dcmitype/StillImage" />
        <dc:date>2021-01-08T18:09:28.848032</dc:date>
        <dc:format>image/svg+xml</dc:format>
        <dc:creator>
          <cc:Agent>
            <dc:title>Matplotlib v3.3.3, https://matplotlib.org/</dc:title>
          </cc:Agent>
        </dc:creator>
      </cc:Work>
    </rdf:RDF>
  </metadata>
  <defs
     id="defs6">
    <style
       type="text/css"
       id="style4">*{stroke-linecap:butt;stroke-linejoin:round;}</style>
  </defs>
  <g
     id="figure_1"
     transform="translate(-12.6375,-41.072)">
    <g
       id="axes_1">
      <g
         id="PolyCollection_1">
        <path
           clip-path="url(#pbc089aef84)"
           d="m 73.832727,60.561084 v 10.409661 l 1.033932,48.876845 1.033932,-56.769379 1.033931,19.928235 1.033932,2.849967 1.033932,6.391965 1.033931,37.681852 1.033932,3.52412 1.033932,-51.842582 1.033931,40.029452 1.033932,7.78731 1.033932,-20.19308 1.033931,6.08001 1.033932,21.40348 1.033932,-49.428823 1.033931,46.540693 1.033932,-2.39339 1.033932,-30.35969 1.033931,29.08856 1.033932,-14.44306 1.033932,24.59815 1.033931,-7.60908 1.033932,-20.31618 1.033932,33.05177 1.033931,2.1279 1.033932,1.74203 1.033931,-5.25285 1.03393,-6.42219 1.03393,1.85933 1.03394,-6.92072 1.03393,23.36962 1.03393,-4.67689 1.03393,7.21083 1.03393,12.76844 1.03393,-19.02775 1.03394,3.21728 1.03393,20.88076 1.03393,-66.52057 1.03393,82.41661 1.03393,29.26354 1.03393,-20.70076 1.03394,15.2324 1.03393,-53.62499 1.03393,50.73597 1.03393,13.37103 1.03393,-6.02672 1.03393,22.79054 1.03394,-49.41859 1.03393,31.95843 1.03393,4.81427 1.03393,-9.5041 1.03393,3.83571 1.03393,-0.2045 1.03394,33.2984 1.03393,0.81629 1.03393,-9.39625 1.03393,-9.31935 1.03393,37.31086 1.03393,-49.4985 1.03394,54.01071 1.03393,-35.67996 1.03393,23.01649 1.03393,-38.2113 1.03393,54.53753 1.03393,-129.99323 1.03394,116.2892 1.03393,-77.63502 1.03393,88.58678 1.03393,-1.72843 1.03393,2.76566 1.03393,-4.15947 1.03394,-0.29852 1.03393,5.77572 1.03393,-15.20253 1.03393,20.23292 1.03393,-19.02849 1.03393,13.77547 1.03394,-3.6183 1.03393,9.6056 1.03393,-12.64545 1.03393,12.10566 1.03393,-15.78036 1.03393,9.73653 1.03394,-9.7828 1.03393,13.56718 1.03393,-13.74438 1.03393,-3.84928 1.03393,6.82884 1.03393,11.47371 1.03394,-0.32738 1.03393,-1.68882 1.03393,1.39745 1.03393,4.07169 1.03393,-2.24588 1.03393,-1.76742 1.03394,2.24669 1.03393,-8.14925 1.03393,9.97827 1.03393,-1.53119 1.03393,2.32097 1.03393,-5.70251 1.03394,4.65258 1.03393,-3.31981 1.03393,4.20436 1.03393,-7.71058 1.03393,6.82827 1.03393,0.52772 1.03394,-0.57717 1.03393,-5.49866 1.03393,6.23136 1.03393,-3.99401 1.03393,3.13789 1.03393,-6.34854 1.03394,5.48875 1.03393,1.56202 1.03393,-1.06357 1.03393,1.24682 1.03393,0.65325 1.03393,-1.22673 1.03394,-0.0243 1.03393,1.29133 1.03393,-0.49245 1.03393,0.34491 1.03393,-0.45383 1.03393,0.43936 1.03394,-0.94513 1.03393,1.22501 1.03393,-2.24585 1.03393,1.1043 1.03393,0.58404 1.03393,0.10177 1.03394,0.29003 1.03393,-1.14997 1.03393,-0.34677 1.03393,1.1964 1.03393,0.48405 1.03394,-0.7135 1.03393,-0.17216 1.03393,0.68689 1.03393,0.69731 1.03393,1.09897 1.03393,-0.48997 1.03393,-0.16077 1.03394,0.30584 1.03393,0.17283 1.03393,0.15524 1.03393,-2.00742 1.03393,1.56127 1.03393,-0.54809 1.03394,1.00485 1.03393,-1.42804 1.03393,1.44816 1.03393,-0.49258 1.03393,-0.51104 1.03393,0.006 1.03394,0.15967 1.03393,-1.01999 1.03393,1.17121 1.03393,-0.97595 1.03393,1.64923 1.03393,-0.48798 1.03394,-0.15353 1.03393,0.64662 1.03393,-0.46369 1.03393,-0.007 1.03393,0.47847 1.03393,-1.50069 1.03394,0.97912 1.03393,-0.11551 1.03393,-0.006 1.03393,-0.0195 1.03393,0.17296 1.03393,0.32486 1.03394,-0.32259 1.03393,-0.0124 1.03393,-0.0231 1.03393,0.35532 1.03393,-0.1533 1.03393,0.32475 1.03394,-0.80983 1.03393,0.15603 1.03393,0.14989 1.03393,0.48008 1.03393,0.0139 1.03394,-0.45491 1.03393,0.45863 1.03393,-0.31362 1.03393,0.48582 1.03393,-0.69704 1.03393,0.52904 1.03393,-0.48066 1.03394,0.16284 1.03393,-0.16561 1.03393,0.32305 1.03393,-0.16021 1.03393,0.3164 1.03393,0.015 1.03394,-0.009 1.03393,-0.31877 1.03393,-0.005 1.03393,-0.19588 1.03393,0.53003 1.03393,0.15525 1.03394,-0.168 1.03393,-0.31783 1.03393,0.31364 1.03393,0.1741 1.03393,-0.50545 1.03393,-0.14512 1.03394,0.63604 1.03393,-0.47321 1.03393,0.31363 1.03393,0.017 1.03393,-0.33057 1.03394,0.48582 1.03393,-0.15004 1.03393,0.15004 1.03393,-0.17065 1.03393,0.005 1.03393,0.0137 1.03393,-0.0137 1.03394,-0.003 1.03393,-0.31638 1.03393,0.33057 1.03393,0.13987 1.03393,0.0206 1.03393,-0.49103 1.03394,0.31985 1.03393,0.15335 1.03393,0.0145 1.03393,-0.32936 1.03393,0.31207 1.03394,-0.15058 1.03393,0.16596 1.03393,-0.0126 1.03393,-0.1633 1.03393,0.17592 h 1.03393 1.03394 l 1.03393,-0.16597 1.03393,0.16597 1.03393,-0.48582 1.03393,0.48582 1.03393,-0.0126 1.03394,0.0126 1.03393,-0.0126 1.03393,0.0126 1.03393,-0.15525 1.03393,0.16046 1.03393,-0.003 1.03394,-0.0145 1.03393,0.0145 1.03393,-0.0186 1.03393,-0.002 1.03393,0.0238 1.03393,-0.0178 1.03394,0.0145 1.03393,-0.15716 1.03393,0.15716 h 1.03393 l 1.03393,1e-5 1.03393,-0.002 1.03394,0.005 1.03393,-0.005 1.03393,-0.0107 1.03393,0.0107 1.03393,0.005 h 1.03393 l 1.03394,-0.003 1.03393,-0.002 1.03393,-0.0107 1.03393,0.0107 1.03393,0.005 1.03393,-0.005 1.03394,-0.0107 1.03393,0.0107 1.03393,-0.0241 1.03393,0.026 1.03393,-0.0126 1.03393,0.0159 1.03394,-0.0159 1.03393,0.0126 1.03393,-0.0126 1.03393,0.0126 1.03393,-0.002 1.03393,0.005 1.03394,-0.005 1.03393,0.005 1.03393,-0.005 1.03393,-0.0107 1.03393,0.0126 1.03393,-0.0126 1.03394,0.0107 1.03393,0.002 1.03393,-0.0126 1.03393,0.0159 h 1.03393 l 1.03393,-0.0159 1.03394,0.0159 h 1.03393 1.03393 1.03393 l 1.03393,-0.0159 1.03393,-0.006 1.03394,0.0219 h 1.03393 1.03393 l 1.03393,-0.0159 1.03393,0.0159 h 1.03393 1.03394 l 1.03393,-0.0293 1.03393,0.0293 h 1.03393 1.03393 v -3.0029 0 h -1.03393 -1.03393 l -1.03393,-0.0354 -1.03393,0.0354 h -1.03394 -1.03393 l -1.03393,-0.019 -1.03393,0.019 h -1.03393 -1.03393 l -1.03394,-0.0263 -1.03393,0.007 -1.03393,0.019 h -1.03393 -1.03393 -1.03393 l -1.03394,-0.019 -1.03393,0.019 h -1.03393 l -1.03393,-0.019 -1.03393,0.0151 -1.03393,-0.002 -1.03394,-0.0128 -1.03393,0.0151 -1.03393,-0.0151 -1.03393,0.0128 -1.03393,0.006 -1.03393,-0.006 -1.03394,0.006 -1.03393,-0.006 -1.03393,0.002 -1.03393,-0.0151 -1.03393,0.0151 -1.03393,-0.0151 -1.03394,0.019 -1.03393,-0.019 -1.03393,0.0151 -1.03393,-0.0315 -1.03393,0.0293 -1.03393,-0.0128 -1.03394,0.0128 -1.03393,0.006 -1.03393,-0.006 -1.03393,-0.0128 -1.03393,0.0128 -1.03393,0.002 -1.03394,0.004 -1.03393,-10e-6 -1.03393,-0.006 -1.03393,-0.0128 -1.03393,0.0128 -1.03393,0.006 -1.03394,-0.006 -1.03393,0.002 h -1.03393 -1.03393 l -1.03393,-0.18666 -1.03393,0.18666 -1.03394,-0.0173 -1.03393,0.0212 -1.03393,-0.0286 -1.03393,0.002 -1.03393,0.0224 -1.03393,-0.0173 -1.03394,0.0173 -1.03393,0.004 -1.03393,-0.19059 -1.03393,0.18443 -1.03393,-0.0151 -1.03393,0.0151 -1.03394,-0.0151 -1.03393,0.0151 -1.03393,-0.58214 -1.03393,0.58214 -1.03393,-0.19724 -1.03393,0.19724 h -1.03394 -1.03393 l -1.03393,-0.21497 -1.03393,0.19991 -1.03393,0.0151 -1.03393,-0.19723 -1.03394,0.17881 -1.03393,-0.37693 -1.03393,0.39758 -1.03393,-0.0173 -1.03393,-0.18218 -1.03394,-0.3849 -1.03393,0.5883 -1.03393,-0.0246 -1.03393,-0.16601 -1.03393,-0.3977 -1.03393,0.38027 -1.03394,0.005 -1.03393,0.0109 -1.03393,-0.0109 -1.03393,-0.005 -1.03393,0.20219 -1.03393,-0.17827 -1.03393,0.17826 -1.03394,-0.58212 -1.03393,0.3977 -1.03393,-0.0208 -1.03393,-0.37691 -1.03393,0.56709 -1.03394,-0.76607 -1.03393,0.20503 -1.03393,0.57832 -1.03393,-0.20745 -1.03393,-0.37692 -1.03393,0.37672 -1.03394,0.20542 -1.03393,-0.18443 -1.03393,-0.6258 -1.03393,0.23811 -1.03393,-0.001 -1.03393,0.37602 -1.03394,0.0106 -1.03393,-0.0186 -1.03393,-0.38027 -1.03393,0.18885 -1.03393,-0.38783 -1.03393,0.20234 -1.03394,-0.19899 -1.03393,0.5757 -1.03393,-0.59164 -1.03393,0.79706 -1.03393,-0.58213 -1.03393,0.3769 -1.03393,-0.54806 -1.03394,0.53831 -1.03393,0.003 -1.03393,-0.58611 -1.03393,-0.1499 -1.03393,-0.208 -1.03394,0.95871 -1.03393,-0.39689 -1.03393,0.20071 -1.03393,-0.42574 -1.03393,0.0552 -1.03393,-0.0149 -1.03394,0.37423 -1.03393,-0.38257 -1.03393,-0.17575 -1.03393,-0.0113 -1.03393,0.007 -1.03393,0.16099 -1.03394,-1.12323 -1.03393,1.72747 -1.03393,-0.56365 -1.03393,0.003 -1.03393,0.54672 -1.03393,-0.74233 -1.03394,0.16031 -1.03393,0.58185 -1.03393,-1.88792 -1.03393,1.1048 -1.03393,-1.30869 -1.03393,1.14569 -1.03394,-0.17006 -1.03393,-0.0526 -1.03393,0.60445 -1.03393,0.57509 -1.03393,-1.68721 -1.03393,1.66845 -1.03394,-1.14556 -1.03393,0.59977 -1.03393,-1.8048 -1.03393,2.33751 -1.03393,-0.17085 -1.03393,-0.18027 -1.03394,-0.37384 -1.03393,0.16838 -1.03393,0.57764 -1.03393,-1.29703 -1.03393,-0.77173 -1.03393,-0.84928 -1.03393,0.17148 -1.03394,0.90152 -1.03393,-0.54577 -1.03393,-1.42653 -1.03393,0.47572 -1.03393,1.33147 -1.03394,-0.36654 -1.03393,-0.135 -1.03393,-0.6142 -1.03393,-1.29151 -1.03393,2.56256 -1.03393,-1.41622 -1.03394,1.09493 -1.03393,-0.52495 -1.03393,0.50086 -1.03393,-0.36368 -1.03393,0.57435 -1.03393,-1.52728 -1.03394,0.11111 -1.03393,1.36894 -1.03393,-0.71815 -1.03393,-1.42402 -1.03393,1.23662 -1.03393,-1.75682 -1.03394,-6.08556 -1.03393,6.98482 -1.03393,-3.40257 -1.03393,4.30762 -1.03393,-6.92275 -1.03393,6.1798 -1.03394,0.54474 -1.03393,-0.46431 -1.03393,-7.9524 -1.03393,8.91337 -1.03393,-4.70706 -1.03393,3.77622 -1.03394,-5.30629 -1.03393,6.43232 -1.03393,-2.55161 -1.03393,1.62415 -1.03393,-12.50555 -1.03393,10.47774 -1.03394,-2.45521 -1.03393,1.85531 -1.03393,2.5463 -1.03393,-4.85693 -1.03393,-1.3937 -1.03393,1.92734 -1.03394,0.33851 -1.03393,-13.47292 -1.03393,-6.6221 -1.03393,2.60453 -1.03393,16.67453 -1.03393,-16.31747 -1.03394,11.90642 -1.03393,-10.16602 -1.03393,17.19076 -1.03393,-13.32785 -1.03393,13.89824 -1.03393,-10.50472 -1.03394,3.91951 -1.03393,-17.15004 -1.03393,22.90662 -1.03393,-22.31531 -1.03393,16.58019 -1.03393,-6.12848 -1.03394,0.13356 -1.03393,4.58844 -1.03393,-3.02208 -1.03393,1.88207 -1.03393,-93.75555 -1.03393,80.65566 -1.03394,-119.26562 -1.03393,135.37644 -1.03393,-57.55084 -1.03393,39.93136 -1.03393,-24.7844 -1.03393,38.59167 -1.03394,-58.78103 -1.03393,53.52978 -1.03393,-40.12783 -1.03393,9.38146 -1.03393,8.90556 -1.03393,1.43133 -1.03394,-33.35529 -1.03393,-2.38135 -1.03393,-3.87026 -1.03393,8.75737 -1.03393,-6.06507 -1.03393,-30.84004 -1.03394,52.01812 -1.03393,-23.9446 -1.03393,7.45334 -1.03393,-13.43405 -1.03393,-53.70034 -1.03393,56.52648 -1.03394,-15.19599 -1.03393,20.49172 -1.03393,-29.5882 -1.03393,-84.43316 -1.03393,69.3969 -1.03393,-19.5642 -1.03394,-4.63527 -1.03393,19.63986 -1.03393,-12.71055 -1.03393,-7.53523 -1.03393,6.9077 -1.03393,-24.84451 -1.03394,8.13175 -1.03393,-1.54452 -1.03393,6.23363 -1.033931,6.65301 -1.033932,-0.4809 -1.033931,-5.7343 -1.033932,-33.70524 -1.033932,20.85688 -1.033931,7.15498 -1.033932,-25.32944 -1.033932,14.49106 -1.033931,-29.912732 -1.033932,31.464412 -1.033932,3.69741 -1.033931,-50.942219 -1.033932,53.033579 -1.033932,-21.33957 -1.033931,-5.80762 -1.033932,21.30913 -1.033932,-9.51894 -1.033931,-41.342822 -1.033932,55.463392 -1.033932,-3.96866 -1.033931,-40.645317 -1.033932,-5.9896 L 76.934522,73.919822 75.900591,53.568 74.866659,112.63618 Z"
           style="fill:#1f77b4;fill-opacity:0.5"
           id="path14" />
      </g>
      <g
         id="matplotlib.axis_1">
        <g
           id="xtick_1">
          <g
             id="line2d_1">
            <path
               clip-path="url(#pbc089aef84)"
               d="M 73.832727,307.584 V 41.472"
               style="fill:none;stroke:#b0b0b0;stroke-width:0.8;stroke-linecap:square"
               id="path17" />
          </g>
          <g
             id="line2d_2">
            <defs
               id="defs21">
              <path
                 d="M 0,0 V 3.5"
                 id="ma8fa36fbd0"
                 style="stroke:#000000;stroke-width:0.8" />
            </defs>
            <g
               id="g25">
              <use
                 style="stroke:#000000;stroke-width:0.8"
                 x="73.832726"
                 xlink:href="#ma8fa36fbd0"
                 y="307.58401"
                 id="use23"
                 width="100%"
                 height="100%" />
            </g>
          </g>
          <g
             id="text_1">
            <!-- 0 -->
            <g
               transform="matrix(0.1,0,0,-0.1,70.651477,322.18244)"
               id="g33">
              <defs
                 id="defs29">
                <path
                   d="m 31.78125,66.40625 q -7.609375,0 -11.453125,-7.5 Q 16.5,51.421875 16.5,36.375 q 0,-14.984375 3.828125,-22.484375 3.84375,-7.5 11.453125,-7.5 7.671875,0 11.5,7.5 3.84375,7.5 3.84375,22.484375 0,15.046875 -3.84375,22.53125 -3.828125,7.5 -11.5,7.5 z m 0,7.8125 q 12.265625,0 18.734375,-9.703125 6.46875,-9.6875 6.46875,-28.140625 0,-18.40625 -6.46875,-28.109375 -6.46875,-9.6875 -18.734375,-9.6875 -12.25,0 -18.71875,9.6875 Q 6.59375,17.96875 6.59375,36.375 q 0,18.453125 6.46875,28.140625 6.46875,9.703125 18.71875,9.703125 z"
                   id="DejaVuSans-48" />
              </defs>
              <use
                 xlink:href="#DejaVuSans-48"
                 id="use31"
                 x="0"
                 y="0"
                 width="100%"
                 height="100%" />
            </g>
          </g>
        </g>
        <g
           id="xtick_2">
          <g
             id="line2d_3">
            <path
               clip-path="url(#pbc089aef84)"
               d="M 125.52931,307.584 V 41.472"
               style="fill:none;stroke:#b0b0b0;stroke-width:0.8;stroke-linecap:square"
               id="path37" />
          </g>
          <g
             id="line2d_4">
            <g
               id="g42">
              <use
                 style="stroke:#000000;stroke-width:0.8"
                 x="125.52931"
                 xlink:href="#ma8fa36fbd0"
                 y="307.58401"
                 id="use40"
                 width="100%"
                 height="100%" />
            </g>
          </g>
          <g
             id="text_2">
            <!-- 50 -->
            <g
               transform="matrix(0.1,0,0,-0.1,119.16681,322.18244)"
               id="g52">
              <defs
                 id="defs46">
                <path
                   d="m 10.796875,72.90625 h 38.71875 v -8.3125 h -29.6875 V 46.734375 q 2.140625,0.734375 4.28125,1.09375 2.15625,0.359375 4.3125,0.359375 Q 40.625,48.1875 47.75,41.5 54.890625,34.8125 54.890625,23.390625 54.890625,11.625 47.5625,5.09375 40.234375,-1.421875 26.90625,-1.421875 q -4.59375,0 -9.359375,0.78125 -4.75,0.78125 -9.828125,2.34375 V 11.625 q 4.390625,-2.390625 9.078125,-3.5625 4.6875,-1.171875 9.90625,-1.171875 8.453125,0 13.375,4.4375 4.9375,4.4375 4.9375,12.0625 0,7.609375 -4.9375,12.046875 -4.921875,4.453125 -13.375,4.453125 -3.953125,0 -7.890625,-0.875 -3.921875,-0.875 -8.015625,-2.734375 z"
                   id="DejaVuSans-53" />
              </defs>
              <use
                 xlink:href="#DejaVuSans-53"
                 id="use48"
                 x="0"
                 y="0"
                 width="100%"
                 height="100%" />
              <use
                 x="63.623047"
                 xlink:href="#DejaVuSans-48"
                 id="use50"
                 y="0"
                 width="100%"
                 height="100%" />
            </g>
          </g>
        </g>
        <g
           id="xtick_3">
          <g
             id="line2d_5">
            <path
               clip-path="url(#pbc089aef84)"
               d="M 177.22589,307.584 V 41.472"
               style="fill:none;stroke:#b0b0b0;stroke-width:0.8;stroke-linecap:square"
               id="path56" />
          </g>
          <g
             id="line2d_6">
            <g
               id="g61">
              <use
                 style="stroke:#000000;stroke-width:0.8"
                 x="177.22589"
                 xlink:href="#ma8fa36fbd0"
                 y="307.58401"
                 id="use59"
                 width="100%"
                 height="100%" />
            </g>
          </g>
          <g
             id="text_3">
            <!-- 100 -->
            <g
               transform="matrix(0.1,0,0,-0.1,167.68214,322.18244)"
               id="g73">
              <defs
                 id="defs65">
                <path
                   d="m 12.40625,8.296875 h 16.109375 v 55.625 L 10.984375,60.40625 v 8.984375 l 17.4375,3.515625 H 38.28125 V 8.296875 H 54.390625 V 0 H 12.40625 Z"
                   id="DejaVuSans-49" />
              </defs>
              <use
                 xlink:href="#DejaVuSans-49"
                 id="use67"
                 x="0"
                 y="0"
                 width="100%"
                 height="100%" />
              <use
                 x="63.623047"
                 xlink:href="#DejaVuSans-48"
                 id="use69"
                 y="0"
                 width="100%"
                 height="100%" />
              <use
                 x="127.24609"
                 xlink:href="#DejaVuSans-48"
                 id="use71"
                 y="0"
                 width="100%"
                 height="100%" />
            </g>
          </g>
        </g>
        <g
           id="xtick_4">
          <g
             id="line2d_7">
            <path
               clip-path="url(#pbc089aef84)"
               d="M 228.92248,307.584 V 41.472"
               style="fill:none;stroke:#b0b0b0;stroke-width:0.8;stroke-linecap:square"
               id="path77" />
          </g>
          <g
             id="line2d_8">
            <g
               id="g82">
              <use
                 style="stroke:#000000;stroke-width:0.8"
                 x="228.92249"
                 xlink:href="#ma8fa36fbd0"
                 y="307.58401"
                 id="use80"
                 width="100%"
                 height="100%" />
            </g>
          </g>
          <g
             id="text_4">
            <!-- 150 -->
            <g
               transform="matrix(0.1,0,0,-0.1,219.37873,322.18244)"
               id="g91">
              <use
                 xlink:href="#DejaVuSans-49"
                 id="use85"
                 x="0"
                 y="0"
                 width="100%"
                 height="100%" />
              <use
                 x="63.623047"
                 xlink:href="#DejaVuSans-53"
                 id="use87"
                 y="0"
                 width="100%"
                 height="100%" />
              <use
                 x="127.24609"
                 xlink:href="#DejaVuSans-48"
                 id="use89"
                 y="0"
                 width="100%"
                 height="100%" />
            </g>
          </g>
        </g>
        <g
           id="xtick_5">
          <g
             id="line2d_9">
            <path
               clip-path="url(#pbc089aef84)"
               d="M 280.61906,307.584 V 41.472"
               style="fill:none;stroke:#b0b0b0;stroke-width:0.8;stroke-linecap:square"
               id="path95" />
          </g>
          <g
             id="line2d_10">
            <g
               id="g100">
              <use
                 style="stroke:#000000;stroke-width:0.8"
                 x="280.61905"
                 xlink:href="#ma8fa36fbd0"
                 y="307.58401"
                 id="use98"
                 width="100%"
                 height="100%" />
            </g>
          </g>
          <g
             id="text_5">
            <!-- 200 -->
            <g
               transform="matrix(0.1,0,0,-0.1,271.07531,322.18244)"
               id="g112">
              <defs
                 id="defs104">
                <path
                   d="M 19.1875,8.296875 H 53.609375 V 0 H 7.328125 v 8.296875 q 5.609375,5.8125 15.296875,15.59375 9.703125,9.796875 12.1875,12.640625 4.734375,5.3125 6.609375,9 1.890625,3.6875 1.890625,7.25 0,5.8125 -4.078125,9.46875 -4.078125,3.671875 -10.625,3.671875 -4.640625,0 -9.796875,-1.609375 -5.140625,-1.609375 -11,-4.890625 v 9.96875 Q 13.765625,71.78125 18.9375,73 q 5.1875,1.21875 9.484375,1.21875 11.328125,0 18.0625,-5.671875 6.734375,-5.65625 6.734375,-15.125 0,-4.5 -1.6875,-8.53125 Q 49.859375,40.875 45.40625,35.40625 44.1875,33.984375 37.640625,27.21875 31.109375,20.453125 19.1875,8.296875 Z"
                   id="DejaVuSans-50" />
              </defs>
              <use
                 xlink:href="#DejaVuSans-50"
                 id="use106"
                 x="0"
                 y="0"
                 width="100%"
                 height="100%" />
              <use
                 x="63.623047"
                 xlink:href="#DejaVuSans-48"
                 id="use108"
                 y="0"
                 width="100%"
                 height="100%" />
              <use
                 x="127.24609"
                 xlink:href="#DejaVuSans-48"
                 id="use110"
                 y="0"
                 width="100%"
                 height="100%" />
            </g>
          </g>
        </g>
        <g
           id="xtick_6">
          <g
             id="line2d_11">
            <path
               clip-path="url(#pbc089aef84)"
               d="M 332.31565,307.584 V 41.472"
               style="fill:none;stroke:#b0b0b0;stroke-width:0.8;stroke-linecap:square"
               id="path116" />
          </g>
          <g
             id="line2d_12">
            <g
               id="g121">
              <use
                 style="stroke:#000000;stroke-width:0.8"
                 x="332.31564"
                 xlink:href="#ma8fa36fbd0"
                 y="307.58401"
                 id="use119"
                 width="100%"
                 height="100%" />
            </g>
          </g>
          <g
             id="text_6">
            <!-- 250 -->
            <g
               transform="matrix(0.1,0,0,-0.1,322.7719,322.18244)"
               id="g130">
              <use
                 xlink:href="#DejaVuSans-50"
                 id="use124"
                 x="0"
                 y="0"
                 width="100%"
                 height="100%" />
              <use
                 x="63.623047"
                 xlink:href="#DejaVuSans-53"
                 id="use126"
                 y="0"
                 width="100%"
                 height="100%" />
              <use
                 x="127.24609"
                 xlink:href="#DejaVuSans-48"
                 id="use128"
                 y="0"
                 width="100%"
                 height="100%" />
            </g>
          </g>
        </g>
        <g
           id="xtick_7">
          <g
             id="line2d_13">
            <path
               clip-path="url(#pbc089aef84)"
               d="M 384.01223,307.584 V 41.472"
               style="fill:none;stroke:#b0b0b0;stroke-width:0.8;stroke-linecap:square"
               id="path134" />
          </g>
          <g
             id="line2d_14">
            <g
               id="g139">
              <use
                 style="stroke:#000000;stroke-width:0.8"
                 x="384.01224"
                 xlink:href="#ma8fa36fbd0"
                 y="307.58401"
                 id="use137"
                 width="100%"
                 height="100%" />
            </g>
          </g>
          <g
             id="text_7">
            <!-- 300 -->
            <g
               transform="matrix(0.1,0,0,-0.1,374.46848,322.18244)"
               id="g151">
              <defs
                 id="defs143">
                <path
                   d="M 40.578125,39.3125 Q 47.65625,37.796875 51.625,33 q 3.984375,-4.78125 3.984375,-11.8125 0,-10.78125 -7.421875,-16.703125 -7.421875,-5.90625 -21.09375,-5.90625 -4.578125,0 -9.4375,0.90625 -4.859375,0.90625 -10.03125,2.71875 v 9.515625 q 4.09375,-2.390625 8.96875,-3.609375 4.890625,-1.21875 10.21875,-1.21875 9.265625,0 14.125,3.65625 4.859375,3.65625 4.859375,10.640625 0,6.453125 -4.515625,10.078125 -4.515625,3.640625 -12.5625,3.640625 h -8.5 v 8.109375 h 8.890625 q 7.265625,0 11.125,2.90625 3.859375,2.90625 3.859375,8.375 0,5.609375 -3.984375,8.609375 -3.96875,3.015625 -11.390625,3.015625 -4.0625,0 -8.703125,-0.890625 Q 15.375,64.15625 9.8125,62.3125 v 8.78125 q 5.625,1.5625 10.53125,2.34375 4.90625,0.78125 9.25,0.78125 11.234375,0 17.765625,-5.109375 6.546875,-5.09375 6.546875,-13.78125 0,-6.0625 -3.46875,-10.234375 -3.46875,-4.171875 -9.859375,-5.78125 z"
                   id="DejaVuSans-51" />
              </defs>
              <use
                 xlink:href="#DejaVuSans-51"
                 id="use145"
                 x="0"
                 y="0"
                 width="100%"
                 height="100%" />
              <use
                 x="63.623047"
                 xlink:href="#DejaVuSans-48"
                 id="use147"
                 y="0"
                 width="100%"
                 height="100%" />
              <use
                 x="127.24609"
                 xlink:href="#DejaVuSans-48"
                 id="use149"
                 y="0"
                 width="100%"
                 height="100%" />
            </g>
          </g>
        </g>
        <g
           id="text_8">
          <!-- $iteration$ -->
          <g
             transform="matrix(0.1,0,0,-0.1,215.01,335.86056)"
             id="g182">
            <defs
               id="defs162">
              <path
                 d="m 18.3125,75.984375 h 8.984375 L 25.09375,64.59375 H 16.109375 Z M 14.203125,54.6875 H 23.1875 L 12.5,0 H 3.515625 Z"
                 id="DejaVuSans-Oblique-105" />
              <path
                 d="M 42.28125,54.6875 40.921875,47.703125 H 23 l -5.8125,-29.6875 q -0.296875,-1.65625 -0.4375,-2.78125 -0.140625,-1.125 -0.140625,-1.75 0,-3.125 1.875,-4.546875 1.875,-1.421875 6.03125,-1.421875 H 33.59375 L 32.078125,0 h -8.59375 q -8,0 -11.9375,3.125 Q 7.625,6.25 7.625,12.59375 q 0,1.125 0.140625,2.46875 0.140625,1.34375 0.4375,2.953125 l 5.8125,29.6875 h -7.625 L 7.8125,54.6875 h 7.46875 l 3.03125,15.53125 h 8.984375 L 24.3125,54.6875 Z"
                 id="DejaVuSans-Oblique-116" />
              <path
                 d="m 48.09375,32.234375 q 0.15625,0.78125 0.21875,1.609375 0.07813,0.828125 0.07813,1.65625 0,5.953125 -3.5,9.421875 -3.484375,3.46875 -9.484375,3.46875 -6.6875,0 -11.828125,-4.234375 -5.125,-4.21875 -7.75,-11.984375 z m 7.8125,-7.03125 H 14.109375 Q 13.8125,23.34375 13.71875,22.265625 13.625,21.1875 13.625,20.40625 q 0,-6.78125 4.171875,-10.5 4.171875,-3.703125 11.796875,-3.703125 5.859375,0 11.078125,1.3125 5.234375,1.328125 9.71875,3.859375 L 48.6875,2.484375 q -4.84375,-1.953125 -10,-2.921875 -5.140625,-0.984375 -10.46875,-0.984375 -11.375,0 -17.5,5.4375 -6.125,5.453125 -6.125,15.46875 0,8.546875 3.046875,15.890625 3.046875,7.34375 8.96875,13.109375 3.796875,3.609375 9.046875,5.5625 Q 30.90625,56 36.8125,56 q 9.28125,0 14.765625,-5.5625 5.5,-5.5625 5.5,-14.9375 0,-2.25 -0.296875,-4.8125 Q 56.5,28.125 55.90625,25.203125 Z"
                 id="DejaVuSans-Oblique-101" />
              <path
                 d="m 44.578125,46.390625 q -1.359375,0.734375 -3.125,1.125 -1.75,0.390625 -3.75,0.390625 -7.1875,0 -12.5625,-5.453125 -5.359375,-5.4375 -7.125,-14.578125 L 12.5,0 H 3.515625 l 10.6875,54.6875 H 23.1875 l -1.703125,-8.5 Q 25.046875,50.921875 30,53.453125 34.96875,56 40.578125,56 q 1.46875,0 2.875,-0.171875 1.421875,-0.15625 2.84375,-0.546875 z"
                 id="DejaVuSans-Oblique-114" />
              <path
                 d="M 53.71875,31.203125 47.609375,0 H 38.625 l 1.65625,8.296875 Q 36.328125,3.421875 31.265625,1 26.21875,-1.421875 20.015625,-1.421875 13.03125,-1.421875 8.5625,2.84375 4.109375,7.125 4.109375,13.8125 q 0,9.578125 7.640625,15.140625 7.640625,5.5625 21.0625,5.5625 h 12.5 l 0.484375,2.40625 q 0.109375,0.390625 0.15625,0.84375 Q 46,38.234375 46,39.203125 q 0,4.359375 -3.546875,6.765625 -3.53125,2.421875 -9.9375,2.421875 -4.390625,0 -9.015625,-1.125 -4.609375,-1.125 -9.484375,-3.375 l 1.5625,8.3125 q 5.078125,1.90625 9.9375,2.84375 Q 30.375,56 34.90625,56 q 9.671875,0 14.71875,-4.203125 5.0625,-4.1875 5.0625,-12.203125 0,-1.609375 -0.25,-3.78125 -0.234375,-2.171875 -0.71875,-4.609375 z M 44,27.484375 h -8.984375 q -11.046875,0 -16.34375,-2.953125 Q 13.375,21.578125 13.375,15.375 q 0,-4.296875 2.703125,-6.734375 2.71875,-2.4375 7.5,-2.4375 7.328125,0 12.796875,5.25 5.46875,5.25 7.234375,14.03125 z"
                 id="DejaVuSans-Oblique-97" />
              <path
                 d="m 25.390625,-1.421875 q -9.625,0 -15.21875,5.9375 -5.578125,5.9375 -5.578125,16.1875 0,5.953125 1.921875,12.125 1.9375,6.1875 5.015625,10.390625 Q 16.359375,49.75 22.3125,52.875 28.265625,56 35.796875,56 q 9.328125,0 15.0625,-5.8125 5.734375,-5.796875 5.734375,-15.171875 0,-6.5 -1.90625,-12.953125 Q 52.78125,15.625 49.703125,11.375 44.921875,4.828125 38.96875,1.703125 q -5.953125,-3.125 -13.578125,-3.125 z M 13.921875,21 q 0,-7.421875 3.09375,-11.109375 3.109375,-3.6875 9.40625,-3.6875 9.03125,0 14.953125,7.875 5.9375,7.890625 5.9375,20 0,7.078125 -3.171875,10.6875 -3.171875,3.625 -9.328125,3.625 -5.078125,0 -9.03125,-2.375 Q 21.828125,43.65625 18.703125,38.8125 16.40625,35.203125 15.15625,30.5625 13.921875,25.921875 13.921875,21 Z"
                 id="DejaVuSans-Oblique-111" />
              <path
                 d="M 55.71875,33.015625 49.3125,0 h -9.03125 l 6.40625,32.671875 q 0.4375,2.296875 0.671875,4.046875 0.25,1.765625 0.25,2.78125 0,4.109375 -2.59375,6.390625 Q 42.4375,48.1875 37.796875,48.1875 30.5625,48.1875 25.34375,43.375 20.125,38.578125 18.5,30.328125 L 12.5,0 H 3.515625 l 10.59375,54.6875 h 8.984375 l -1.796875,-8.59375 q 3.75,4.734375 9.015625,7.3125 Q 35.59375,56 41.40625,56 q 7.234375,0 11.203125,-3.90625 3.984375,-3.90625 3.984375,-10.984375 0,-1.75 -0.21875,-3.75 -0.21875,-2 -0.65625,-4.34375 z"
                 id="DejaVuSans-Oblique-110" />
            </defs>
            <use
               transform="translate(0,0.015625)"
               xlink:href="#DejaVuSans-Oblique-105"
               id="use164"
               x="0"
               y="0"
               width="100%"
               height="100%" />
            <use
               transform="translate(27.783203,0.015625)"
               xlink:href="#DejaVuSans-Oblique-116"
               id="use166"
               x="0"
               y="0"
               width="100%"
               height="100%" />
            <use
               transform="translate(66.992188,0.015625)"
               xlink:href="#DejaVuSans-Oblique-101"
               id="use168"
               x="0"
               y="0"
               width="100%"
               height="100%" />
            <use
               transform="translate(128.51562,0.015625)"
               xlink:href="#DejaVuSans-Oblique-114"
               id="use170"
               x="0"
               y="0"
               width="100%"
               height="100%" />
            <use
               transform="translate(169.62891,0.015625)"
               xlink:href="#DejaVuSans-Oblique-97"
               id="use172"
               x="0"
               y="0"
               width="100%"
               height="100%" />
            <use
               transform="translate(230.9082,0.015625)"
               xlink:href="#DejaVuSans-Oblique-116"
               id="use174"
               x="0"
               y="0"
               width="100%"
               height="100%" />
            <use
               transform="translate(270.11719,0.015625)"
               xlink:href="#DejaVuSans-Oblique-105"
               id="use176"
               x="0"
               y="0"
               width="100%"
               height="100%" />
            <use
               transform="translate(297.90039,0.015625)"
               xlink:href="#DejaVuSans-Oblique-111"
               id="use178"
               x="0"
               y="0"
               width="100%"
               height="100%" />
            <use
               transform="translate(359.08203,0.015625)"
               xlink:href="#DejaVuSans-Oblique-110"
               id="use180"
               x="0"
               y="0"
               width="100%"
               height="100%" />
          </g>
        </g>
      </g>
      <g
         id="matplotlib.axis_2">
        <g
           id="ytick_1">
          <g
             id="line2d_15">
            <path
               clip-path="url(#pbc089aef84)"
               d="M 57.6,301.68017 H 414.72"
               style="fill:none;stroke:#b0b0b0;stroke-width:0.8;stroke-linecap:square"
               id="path186" />
          </g>
          <g
             id="line2d_16">
            <defs
               id="defs190">
              <path
                 d="M 0,0 H -3.5"
                 id="mae5ec2512b"
                 style="stroke:#000000;stroke-width:0.8" />
            </defs>
            <g
               id="g194">
              <use
                 style="stroke:#000000;stroke-width:0.8"
                 x="57.599998"
                 xlink:href="#mae5ec2512b"
                 y="301.68018"
                 id="use192"
                 width="100%"
                 height="100%" />
            </g>
          </g>
          <g
             id="text_9">
            <!-- −4.0 -->
            <g
               transform="matrix(0.1,0,0,-0.1,26.317187,305.47939)"
               id="g210">
              <defs
                 id="defs200">
                <path
                   d="M 10.59375,35.5 H 73.1875 V 27.203125 H 10.59375 Z"
                   id="DejaVuSans-8722" />
                <path
                   d="M 37.796875,64.3125 12.890625,25.390625 h 24.90625 z m -2.59375,8.59375 h 12.40625 V 25.390625 h 10.40625 V 17.1875 H 47.609375 V 0 h -9.8125 V 17.1875 H 4.890625 v 9.515625 z"
                   id="DejaVuSans-52" />
                <path
                   d="M 10.6875,12.40625 H 21 V 0 H 10.6875 Z"
                   id="DejaVuSans-46" />
              </defs>
              <use
                 xlink:href="#DejaVuSans-8722"
                 id="use202"
                 x="0"
                 y="0"
                 width="100%"
                 height="100%" />
              <use
                 x="83.789062"
                 xlink:href="#DejaVuSans-52"
                 id="use204"
                 y="0"
                 width="100%"
                 height="100%" />
              <use
                 x="147.41211"
                 xlink:href="#DejaVuSans-46"
                 id="use206"
                 y="0"
                 width="100%"
                 height="100%" />
              <use
                 x="179.19922"
                 xlink:href="#DejaVuSans-48"
                 id="use208"
                 y="0"
                 width="100%"
                 height="100%" />
            </g>
          </g>
        </g>
        <g
           id="ytick_2">
          <g
             id="line2d_17">
            <path
               clip-path="url(#pbc089aef84)"
               d="M 57.6,270.86596 H 414.72"
               style="fill:none;stroke:#b0b0b0;stroke-width:0.8;stroke-linecap:square"
               id="path214" />
          </g>
          <g
             id="line2d_18">
            <g
               id="g219">
              <use
                 style="stroke:#000000;stroke-width:0.8"
                 x="57.599998"
                 xlink:href="#mae5ec2512b"
                 y="270.86597"
                 id="use217"
                 width="100%"
                 height="100%" />
            </g>
          </g>
          <g
             id="text_10">
            <!-- −3.8 -->
            <g
               transform="matrix(0.1,0,0,-0.1,26.317187,274.66518)"
               id="g233">
              <defs
                 id="defs223">
                <path
                   d="m 31.78125,34.625 q -7.03125,0 -11.0625,-3.765625 -4.015625,-3.765625 -4.015625,-10.34375 0,-6.59375 4.015625,-10.359375 4.03125,-3.765625 11.0625,-3.765625 7.03125,0 11.078125,3.78125 4.0625,3.796875 4.0625,10.34375 0,6.578125 -4.03125,10.34375 Q 38.875,34.625 31.78125,34.625 Z m -9.859375,4.1875 Q 15.578125,40.375 12.03125,44.71875 8.5,49.078125 8.5,55.328125 q 0,8.734375 6.21875,13.8125 6.234375,5.078125 17.0625,5.078125 10.890625,0 17.09375,-5.078125 6.203125,-5.078125 6.203125,-13.8125 0,-6.25 -3.546875,-10.609375 Q 48,40.375 41.703125,38.8125 q 7.125,-1.65625 11.09375,-6.5 3.984375,-4.828125 3.984375,-11.796875 0,-10.609375 -6.46875,-16.28125 -6.46875,-5.65625 -18.53125,-5.65625 -12.046875,0 -18.53125,5.65625 -6.46875,5.671875 -6.46875,16.28125 0,6.96875 4,11.796875 4.015625,4.84375 11.140625,6.5 z M 18.3125,54.390625 q 0,-5.65625 3.53125,-8.828125 3.546875,-3.171875 9.9375,-3.171875 6.359375,0 9.9375,3.171875 3.59375,3.171875 3.59375,8.828125 0,5.671875 -3.59375,8.84375 -3.578125,3.171875 -9.9375,3.171875 -6.390625,0 -9.9375,-3.171875 Q 18.3125,60.0625 18.3125,54.390625 Z"
                   id="DejaVuSans-56" />
              </defs>
              <use
                 xlink:href="#DejaVuSans-8722"
                 id="use225"
                 x="0"
                 y="0"
                 width="100%"
                 height="100%" />
              <use
                 x="83.789062"
                 xlink:href="#DejaVuSans-51"
                 id="use227"
                 y="0"
                 width="100%"
                 height="100%" />
              <use
                 x="147.41211"
                 xlink:href="#DejaVuSans-46"
                 id="use229"
                 y="0"
                 width="100%"
                 height="100%" />
              <use
                 x="179.19922"
                 xlink:href="#DejaVuSans-56"
                 id="use231"
                 y="0"
                 width="100%"
                 height="100%" />
            </g>
          </g>
        </g>
        <g
           id="ytick_3">
          <g
             id="line2d_19">
            <path
               clip-path="url(#pbc089aef84)"
               d="M 57.6,240.05175 H 414.72"
               style="fill:none;stroke:#b0b0b0;stroke-width:0.8;stroke-linecap:square"
               id="path237" />
          </g>
          <g
             id="line2d_20">
            <g
               id="g242">
              <use
                 style="stroke:#000000;stroke-width:0.8"
                 x="57.599998"
                 xlink:href="#mae5ec2512b"
                 y="240.05176"
                 id="use240"
                 width="100%"
                 height="100%" />
            </g>
          </g>
          <g
             id="text_11">
            <!-- −3.6 -->
            <g
               transform="matrix(0.1,0,0,-0.1,26.317187,243.85097)"
               id="g256">
              <defs
                 id="defs246">
                <path
                   d="m 33.015625,40.375 q -6.640625,0 -10.53125,-4.546875 -3.875,-4.53125 -3.875,-12.4375 0,-7.859375 3.875,-12.4375 3.890625,-4.5625 10.53125,-4.5625 6.640625,0 10.515625,4.5625 3.875,4.578125 3.875,12.4375 0,7.90625 -3.875,12.4375 Q 39.65625,40.375 33.015625,40.375 Z M 52.59375,71.296875 V 62.3125 q -3.71875,1.75 -7.5,2.671875 -3.78125,0.9375 -7.5,0.9375 -9.765625,0 -14.921875,-6.59375 -5.140625,-6.59375 -5.875,-19.921875 2.875,4.25 7.21875,6.515625 4.359375,2.265625 9.578125,2.265625 10.984375,0 17.359375,-6.671875 6.375,-6.65625 6.375,-18.125 0,-11.234375 -6.640625,-18.03125 -6.640625,-6.78125 -17.671875,-6.78125 -12.65625,0 -19.34375,9.6875 -6.6875,9.703125 -6.6875,28.109375 0,17.28125 8.203125,27.5625 8.203125,10.28125 22.015625,10.28125 3.71875,0 7.5,-0.734375 3.78125,-0.734375 7.890625,-2.1875 z"
                   id="DejaVuSans-54" />
              </defs>
              <use
                 xlink:href="#DejaVuSans-8722"
                 id="use248"
                 x="0"
                 y="0"
                 width="100%"
                 height="100%" />
              <use
                 x="83.789062"
                 xlink:href="#DejaVuSans-51"
                 id="use250"
                 y="0"
                 width="100%"
                 height="100%" />
              <use
                 x="147.41211"
                 xlink:href="#DejaVuSans-46"
                 id="use252"
                 y="0"
                 width="100%"
                 height="100%" />
              <use
                 x="179.19922"
                 xlink:href="#DejaVuSans-54"
                 id="use254"
                 y="0"
                 width="100%"
                 height="100%" />
            </g>
          </g>
        </g>
        <g
           id="ytick_4">
          <g
             id="line2d_21">
            <path
               clip-path="url(#pbc089aef84)"
               d="M 57.6,209.23754 H 414.72"
               style="fill:none;stroke:#b0b0b0;stroke-width:0.8;stroke-linecap:square"
               id="path260" />
          </g>
          <g
             id="line2d_22">
            <g
               id="g265">
              <use
                 style="stroke:#000000;stroke-width:0.8"
                 x="57.599998"
                 xlink:href="#mae5ec2512b"
                 y="209.23753"
                 id="use263"
                 width="100%"
                 height="100%" />
            </g>
          </g>
          <g
             id="text_12">
            <!-- −3.4 -->
            <g
               transform="matrix(0.1,0,0,-0.1,26.317187,213.03676)"
               id="g276">
              <use
                 xlink:href="#DejaVuSans-8722"
                 id="use268"
                 x="0"
                 y="0"
                 width="100%"
                 height="100%" />
              <use
                 x="83.789062"
                 xlink:href="#DejaVuSans-51"
                 id="use270"
                 y="0"
                 width="100%"
                 height="100%" />
              <use
                 x="147.41211"
                 xlink:href="#DejaVuSans-46"
                 id="use272"
                 y="0"
                 width="100%"
                 height="100%" />
              <use
                 x="179.19922"
                 xlink:href="#DejaVuSans-52"
                 id="use274"
                 y="0"
                 width="100%"
                 height="100%" />
            </g>
          </g>
        </g>
        <g
           id="ytick_5">
          <g
             id="line2d_23">
            <path
               clip-path="url(#pbc089aef84)"
               d="M 57.6,178.42333 H 414.72"
               style="fill:none;stroke:#b0b0b0;stroke-width:0.8;stroke-linecap:square"
               id="path280" />
          </g>
          <g
             id="line2d_24">
            <g
               id="g285">
              <use
                 style="stroke:#000000;stroke-width:0.8"
                 x="57.599998"
                 xlink:href="#mae5ec2512b"
                 y="178.42332"
                 id="use283"
                 width="100%"
                 height="100%" />
            </g>
          </g>
          <g
             id="text_13">
            <!-- −3.2 -->
            <g
               transform="matrix(0.1,0,0,-0.1,26.317187,182.22255)"
               id="g296">
              <use
                 xlink:href="#DejaVuSans-8722"
                 id="use288"
                 x="0"
                 y="0"
                 width="100%"
                 height="100%" />
              <use
                 x="83.789062"
                 xlink:href="#DejaVuSans-51"
                 id="use290"
                 y="0"
                 width="100%"
                 height="100%" />
              <use
                 x="147.41211"
                 xlink:href="#DejaVuSans-46"
                 id="use292"
                 y="0"
                 width="100%"
                 height="100%" />
              <use
                 x="179.19922"
                 xlink:href="#DejaVuSans-50"
                 id="use294"
                 y="0"
                 width="100%"
                 height="100%" />
            </g>
          </g>
        </g>
        <g
           id="ytick_6">
          <g
             id="line2d_25">
            <path
               clip-path="url(#pbc089aef84)"
               d="M 57.6,147.60912 H 414.72"
               style="fill:none;stroke:#b0b0b0;stroke-width:0.8;stroke-linecap:square"
               id="path300" />
          </g>
          <g
             id="line2d_26">
            <g
               id="g305">
              <use
                 style="stroke:#000000;stroke-width:0.8"
                 x="57.599998"
                 xlink:href="#mae5ec2512b"
                 y="147.60912"
                 id="use303"
                 width="100%"
                 height="100%" />
            </g>
          </g>
          <g
             id="text_14">
            <!-- −3.0 -->
            <g
               transform="matrix(0.1,0,0,-0.1,26.317187,151.40834)"
               id="g316">
              <use
                 xlink:href="#DejaVuSans-8722"
                 id="use308"
                 x="0"
                 y="0"
                 width="100%"
                 height="100%" />
              <use
                 x="83.789062"
                 xlink:href="#DejaVuSans-51"
                 id="use310"
                 y="0"
                 width="100%"
                 height="100%" />
              <use
                 x="147.41211"
                 xlink:href="#DejaVuSans-46"
                 id="use312"
                 y="0"
                 width="100%"
                 height="100%" />
              <use
                 x="179.19922"
                 xlink:href="#DejaVuSans-48"
                 id="use314"
                 y="0"
                 width="100%"
                 height="100%" />
            </g>
          </g>
        </g>
        <g
           id="ytick_7">
          <g
             id="line2d_27">
            <path
               clip-path="url(#pbc089aef84)"
               d="M 57.6,116.79491 H 414.72"
               style="fill:none;stroke:#b0b0b0;stroke-width:0.8;stroke-linecap:square"
               id="path320" />
          </g>
          <g
             id="line2d_28">
            <g
               id="g325">
              <use
                 style="stroke:#000000;stroke-width:0.8"
                 x="57.599998"
                 xlink:href="#mae5ec2512b"
                 y="116.79491"
                 id="use323"
                 width="100%"
                 height="100%" />
            </g>
          </g>
          <g
             id="text_15">
            <!-- −2.8 -->
            <g
               transform="matrix(0.1,0,0,-0.1,26.317187,120.59413)"
               id="g336">
              <use
                 xlink:href="#DejaVuSans-8722"
                 id="use328"
                 x="0"
                 y="0"
                 width="100%"
                 height="100%" />
              <use
                 x="83.789062"
                 xlink:href="#DejaVuSans-50"
                 id="use330"
                 y="0"
                 width="100%"
                 height="100%" />
              <use
                 x="147.41211"
                 xlink:href="#DejaVuSans-46"
                 id="use332"
                 y="0"
                 width="100%"
                 height="100%" />
              <use
                 x="179.19922"
                 xlink:href="#DejaVuSans-56"
                 id="use334"
                 y="0"
                 width="100%"
                 height="100%" />
            </g>
          </g>
        </g>
        <g
           id="ytick_8">
          <g
             id="line2d_29">
            <path
               clip-path="url(#pbc089aef84)"
               d="M 57.6,85.980696 H 414.72"
               style="fill:none;stroke:#b0b0b0;stroke-width:0.8;stroke-linecap:square"
               id="path340" />
          </g>
          <g
             id="line2d_30">
            <g
               id="g345">
              <use
                 style="stroke:#000000;stroke-width:0.8"
                 x="57.599998"
                 xlink:href="#mae5ec2512b"
                 y="85.980698"
                 id="use343"
                 width="100%"
                 height="100%" />
            </g>
          </g>
          <g
             id="text_16">
            <!-- −2.6 -->
            <g
               transform="matrix(0.1,0,0,-0.1,26.317187,89.779915)"
               id="g356">
              <use
                 xlink:href="#DejaVuSans-8722"
                 id="use348"
                 x="0"
                 y="0"
                 width="100%"
                 height="100%" />
              <use
                 x="83.789062"
                 xlink:href="#DejaVuSans-50"
                 id="use350"
                 y="0"
                 width="100%"
                 height="100%" />
              <use
                 x="147.41211"
                 xlink:href="#DejaVuSans-46"
                 id="use352"
                 y="0"
                 width="100%"
                 height="100%" />
              <use
                 x="179.19922"
                 xlink:href="#DejaVuSans-54"
                 id="use354"
                 y="0"
                 width="100%"
                 height="100%" />
            </g>
          </g>
        </g>
        <g
           id="ytick_9">
          <g
             id="line2d_31">
            <path
               clip-path="url(#pbc089aef84)"
               d="M 57.6,55.166485 H 414.72"
               style="fill:none;stroke:#b0b0b0;stroke-width:0.8;stroke-linecap:square"
               id="path360" />
          </g>
          <g
             id="line2d_32">
            <g
               id="g365">
              <use
                 style="stroke:#000000;stroke-width:0.8"
                 x="57.599998"
                 xlink:href="#mae5ec2512b"
                 y="55.166485"
                 id="use363"
                 width="100%"
                 height="100%" />
            </g>
          </g>
          <g
             id="text_17">
            <!-- −2.4 -->
            <g
               transform="matrix(0.1,0,0,-0.1,26.317187,58.965704)"
               id="g376">
              <use
                 xlink:href="#DejaVuSans-8722"
                 id="use368"
                 x="0"
                 y="0"
                 width="100%"
                 height="100%" />
              <use
                 x="83.789062"
                 xlink:href="#DejaVuSans-50"
                 id="use370"
                 y="0"
                 width="100%"
                 height="100%" />
              <use
                 x="147.41211"
                 xlink:href="#DejaVuSans-46"
                 id="use372"
                 y="0"
                 width="100%"
                 height="100%" />
              <use
                 x="179.19922"
                 xlink:href="#DejaVuSans-52"
                 id="use374"
                 y="0"
                 width="100%"
                 height="100%" />
            </g>
          </g>
        </g>
        <g
           id="text_18">
          <!-- $\langle H_{\mathrm{MC}} \rangle$ -->
          <g
             transform="matrix(0,-0.1,-0.1,0,20.2375,187.828)"
             id="g397">
            <defs
               id="defs385">
              <path
                 d="M 8.9375,31.34375 22.703125,75.875 H 31 L 17.234375,31.34375 31,-13.1875 h -8.296875 z"
                 id="DejaVuSans-10216" />
              <path
                 d="M 16.890625,72.90625 H 26.8125 L 21,43.015625 h 35.78125 l 5.8125,29.890625 h 9.921875 L 58.296875,0 h -9.90625 l 6.78125,34.71875 H 19.390625 L 12.59375,0 H 2.6875 Z"
                 id="DejaVuSans-Oblique-72" />
              <path
                 d="M 9.8125,72.90625 H 24.515625 L 43.109375,23.296875 61.8125,72.90625 H 76.515625 V 0 h -9.625 v 64.015625 l -18.796875,-50 H 38.1875 l -18.796875,50 V 0 H 9.8125 Z"
                 id="DejaVuSans-77" />
              <path
                 d="M 64.40625,67.28125 V 56.890625 q -4.984375,4.640625 -10.625,6.921875 -5.640625,2.296875 -11.984375,2.296875 -12.5,0 -19.140625,-7.640625 -6.640625,-7.640625 -6.640625,-22.09375 0,-14.40625 6.640625,-22.046875 Q 29.296875,6.6875 41.796875,6.6875 q 6.34375,0 11.984375,2.296875 5.640625,2.296875 10.625,6.9375 V 5.609375 Q 59.234375,2.09375 53.4375,0.328125 q -5.78125,-1.75 -12.21875,-1.75 -16.5625,0 -26.09375,10.125 Q 5.609375,18.84375 5.609375,36.375 q 0,17.578125 9.515625,27.703125 9.53125,10.140625 26.09375,10.140625 6.53125,0 12.3125,-1.734375 5.796875,-1.734375 10.875,-5.203125 z"
                 id="DejaVuSans-67" />
              <path
                 d="M 30.078125,31.34375 16.3125,-13.1875 H 8.015625 L 21.78125,31.34375 8.015625,75.875 H 16.3125 Z"
                 id="DejaVuSans-10217" />
            </defs>
            <use
               transform="translate(0,0.125)"
               xlink:href="#DejaVuSans-10216"
               id="use387"
               x="0"
               y="0"
               width="100%"
               height="100%" />
            <use
               transform="translate(39.013672,0.125)"
               xlink:href="#DejaVuSans-Oblique-72"
               id="use389"
               x="0"
               y="0"
               width="100%"
               height="100%" />
            <use
               transform="matrix(0.7,0,0,0.7,114.20898,-16.28125)"
               xlink:href="#DejaVuSans-77"
               id="use391"
               x="0"
               y="0"
               width="100%"
               height="100%" />
            <use
               transform="matrix(0.7,0,0,0.7,174.60449,-16.28125)"
               xlink:href="#DejaVuSans-67"
               id="use393"
               x="0"
               y="0"
               width="100%"
               height="100%" />
            <use
               transform="translate(226.21582,0.125)"
               xlink:href="#DejaVuSans-10217"
               id="use395"
               x="0"
               y="0"
               width="100%"
               height="100%" />
          </g>
        </g>
      </g>
      <g
         id="line2d_33">
        <path
           clip-path="url(#pbc089aef84)"
           d="m 73.832727,65.765915 1.033932,50.475965 1.033932,-57.918775 1.033931,20.140029 1.033932,3.957319 1.033932,6.190782 1.033931,39.163585 1.033932,3.74639 1.033932,-53.652987 1.033931,40.686137 1.033932,8.65312 1.033932,-20.7511 1.033931,5.94381 1.033932,21.37153 1.033932,-51.231201 1.033931,48.741451 1.033932,-3.0454 1.033932,-30.912048 1.033931,29.500648 1.033932,-14.46706 1.033932,24.9638 1.033931,-7.38204 1.033932,-20.58652 1.033932,33.3785 1.033931,3.9311 1.033932,1.11146 2.067861,-12.28084 1.03393,1.70193 1.03394,-7.52624 1.03393,24.10707 1.03393,-5.79229 1.03393,7.37303 1.03393,12.73949 1.03393,-19.33381 1.03394,3.92628 1.03393,20.22248 1.03393,-67.95874 1.03393,83.42489 1.03393,29.42587 1.03393,-20.59624 1.03394,15.21419 1.03393,-55.07573 1.03393,52.21816 1.03393,13.40253 1.03393,-6.74002 1.03393,23.36756 1.03394,-50.71835 1.03393,31.39923 1.03393,5.43968 1.03393,-9.13074 1.03393,3.85299 1.03393,1.08842 1.03394,33.32684 1.03393,-0.30752 2.06786,-18.5013 1.03393,38.71934 1.03393,-51.51414 1.03394,56.39587 1.03393,-37.13581 1.03393,23.90044 1.03393,-39.07133 1.03393,56.04419 1.03393,-132.68484 1.03394,117.77741 1.03393,-79.14534 1.03393,91.17117 1.03393,-1.80525 1.03393,2.89386 1.03393,-4.37395 1.03394,-0.21604 1.03393,5.9521 1.03393,-15.89136 1.03393,21.27411 1.03393,-20.96755 1.03393,15.46275 1.03394,-3.7689 1.03393,10.05516 1.03393,-13.27184 1.03393,12.71675 1.03393,-16.48556 1.03393,9.95128 1.03394,-10.84461 1.03393,14.94232 1.03393,-15.20946 1.03393,-3.2269 1.03393,6.72547 1.03393,12.47332 1.03394,-0.33295 1.03393,-1.80808 1.03393,1.39557 1.03393,4.46432 1.03393,-2.39609 1.03393,-1.81137 1.03394,2.35095 1.03393,-9.3135 1.03393,11.24192 1.03393,-1.57767 1.03393,2.43629 1.03393,-6.06742 1.03394,4.97943 1.03393,-3.54801 1.03393,4.45571 1.03393,-8.31197 1.03393,7.39033 1.03393,0.49602 1.03394,-0.56096 1.03393,-5.83923 1.03393,6.57706 1.03393,-4.15082 1.03393,3.27023 1.03393,-6.66668 1.03394,5.78715 1.03393,1.65942 1.03393,-1.15009 1.03393,1.33542 1.03393,0.6857 1.03393,-1.29783 1.03394,-0.0677 1.03393,1.40931 1.03393,-0.5334 1.03393,0.3543 1.03393,-0.47735 1.03393,0.48215 1.03394,-1.02003 1.03393,1.32062 1.03393,-2.4042 1.03393,1.1979 1.03393,0.59912 1.03393,0.11838 1.03394,0.32829 1.03393,-1.24072 1.03393,-0.41124 1.03393,1.31146 1.03393,0.51491 1.03394,-0.80751 1.03393,-0.17182 2.06786,1.50261 1.03393,1.198 1.03393,-0.53381 1.03393,-0.16457 1.03394,0.33984 2.06786,0.33959 1.03393,-2.17247 1.03393,1.68304 1.03393,-0.57393 1.03394,1.0752 1.03393,-1.54824 1.03393,1.56768 2.06786,-1.09158 1.03393,0.0291 1.03394,0.16486 1.03393,-1.08283 1.03393,1.23994 1.03393,-1.04037 1.03393,1.76858 1.03393,-0.53492 1.03394,-0.15692 1.03393,0.69447 1.03393,-0.5052 1.03393,-0.005 1.03393,0.52105 1.03393,-1.61407 1.03394,1.05117 1.03393,-0.13825 2.06786,-0.0109 1.03393,0.17436 1.03393,0.35372 1.03394,-0.34841 2.06786,-0.0379 1.03393,0.39053 1.03393,-0.17701 1.03393,0.36082 1.03394,-0.88427 2.06786,0.33191 1.03393,0.5331 1.03393,0.005 1.03394,-0.49661 1.03393,0.50334 1.03393,-0.34526 1.03393,0.53397 1.03393,-0.74705 1.03393,0.56034 1.03393,-0.52818 1.03394,0.18092 1.03393,-0.18398 1.03393,0.35545 1.03393,-0.17453 1.03393,0.34833 2.06787,0.007 1.03393,-0.34739 1.03393,-0.002 1.03393,-0.217 1.03393,0.57792 1.03393,0.16983 1.03394,-0.1867 1.03393,-0.34728 1.03393,0.34528 1.03393,0.19078 1.03393,-0.54189 1.03393,-0.17508 1.03394,0.70106 1.03393,-0.52015 1.03393,0.34527 1.03393,0.0189 1.03393,-0.36414 1.03394,0.53397 1.03393,-0.16415 1.03393,0.16415 1.03393,-0.18642 4.13573,7.8e-4 1.03393,-0.34833 1.03393,0.36413 1.03393,0.15295 1.03393,0.0226 1.03393,-0.53966 1.03394,0.35237 1.03393,0.16777 1.03393,0.0159 1.03393,-0.36348 1.03393,0.34451 1.03394,-0.1647 1.03393,0.18159 1.03393,-0.0138 1.03393,-0.18161 1.03393,0.19544 h 2.06787 l 1.03393,-0.1816 1.03393,0.1816 1.03393,-0.53398 1.03393,0.53398 8.27146,-0.0138 6.20359,0.0159 1.03393,-0.17192 1.03393,0.17192 57.90017,0.004 v 0"
           style="fill:none;stroke:#1f77b4;stroke-width:1.5;stroke-linecap:square"
           id="path401" />
      </g>
      <g
         id="line2d_34">
        <path
           clip-path="url(#pbc089aef84)"
           d="M 57.6,301.68017 H 414.72"
           style="fill:none;stroke:#ff7f0e;stroke-width:1.5;stroke-linecap:square"
           id="path404" />
      </g>
      <g
         id="patch_3">
        <path
           d="M 57.6,307.584 V 41.472"
           style="fill:none;stroke:#000000;stroke-width:0.8;stroke-linecap:square;stroke-linejoin:miter"
           id="path407" />
      </g>
      <g
         id="patch_4">
        <path
           d="M 414.72,307.584 V 41.472"
           style="fill:none;stroke:#000000;stroke-width:0.8;stroke-linecap:square;stroke-linejoin:miter"
           id="path410" />
      </g>
      <g
         id="patch_5">
        <path
           d="M 57.6,307.584 H 414.72"
           style="fill:none;stroke:#000000;stroke-width:0.8;stroke-linecap:square;stroke-linejoin:miter"
           id="path413" />
      </g>
      <g
         id="patch_6">
        <path
           d="M 57.6,41.472 H 414.72"
           style="fill:none;stroke:#000000;stroke-width:0.8;stroke-linecap:square;stroke-linejoin:miter"
           id="path416" />
      </g>
    </g>
  </g>
  <defs
     id="defs424">
    <clipPath
       id="pbc089aef84">
      <rect
         height="266.112"
         width="357.12"
         x="57.599998"
         y="41.472"
         id="rect421" />
    </clipPath>
  </defs>
</svg>
