<?xml version="1.0" encoding="utf-8" standalone="no"?>
<!DOCTYPE svg PUBLIC "-//W3C//DTD SVG 1.1//EN"
  "http://www.w3.org/Graphics/SVG/1.1/DTD/svg11.dtd">
<!-- Created with matplotlib (https://matplotlib.org/) -->
<svg height="345.6pt" version="1.1" viewBox="0 0 460.8 345.6" width="460.8pt" xmlns="http://www.w3.org/2000/svg" xmlns:xlink="http://www.w3.org/1999/xlink">
 <metadata>
  <rdf:RDF xmlns:cc="http://creativecommons.org/ns#" xmlns:dc="http://purl.org/dc/elements/1.1/" xmlns:rdf="http://www.w3.org/1999/02/22-rdf-syntax-ns#">
   <cc:Work>
    <dc:type rdf:resource="http://purl.org/dc/dcmitype/StillImage"/>
    <dc:date>2021-01-08T18:09:21.517331</dc:date>
    <dc:format>image/svg+xml</dc:format>
    <dc:creator>
     <cc:Agent>
      <dc:title>Matplotlib v3.3.3, https://matplotlib.org/</dc:title>
     </cc:Agent>
    </dc:creator>
   </cc:Work>
  </rdf:RDF>
 </metadata>
 <defs>
  <style type="text/css">*{stroke-linecap:butt;stroke-linejoin:round;}</style>
 </defs>
 <g id="figure_1">
  <g id="patch_1">
   <path d="M 0 345.6
L 460.8 345.6
L 460.8 0
L 0 0
z
" style="fill:#ffffff;"/>
  </g>
  <g id="axes_1">
   <g id="patch_2">
    <path d="M 57.6 307.584
L 414.72 307.584
L 414.72 41.472
L 57.6 41.472
z
" style="fill:#ffffff;"/>
   </g>
   <g id="PolyCollection_1">
    <path clip-path="url(#pc7e62475c1)" d="M 73.832727 53.568
L 73.832727 65.311562
L 75.550476 95.84983
L 77.268225 113.408538
L 78.985974 125.667187
L 80.703723 73.209836
L 82.421472 98.511249
L 84.139221 71.248557
L 85.85697 108.448025
L 87.574719 110.482195
L 89.292468 69.986847
L 91.010216 121.561443
L 92.727965 122.193688
L 94.445714 92.929377
L 96.163463 98.558145
L 97.881212 102.194839
L 99.598961 118.481483
L 101.31671 77.110823
L 103.034459 103.427989
L 104.752208 103.082411
L 106.469957 121.380593
L 108.187706 120.214936
L 109.905455 123.679252
L 111.623203 100.095219
L 113.340952 122.905921
L 115.058701 122.694223
L 116.77645 120.291967
L 118.494199 126.028836
L 120.211948 122.893232
L 121.929697 118.814005
L 123.647446 105.031369
L 125.365195 125.775671
L 127.082944 115.029969
L 128.800693 119.428336
L 130.518442 121.3971
L 132.23619 119.624312
L 133.953939 127.542925
L 135.671688 123.086521
L 137.389437 108.468239
L 139.107186 109.0343
L 140.824935 137.410533
L 142.542684 100.121555
L 144.260433 141.914999
L 145.978182 112.687009
L 147.695931 137.661611
L 149.41368 140.158309
L 151.131429 132.498676
L 152.849177 136.434741
L 154.566926 142.300907
L 156.284675 142.510947
L 158.002424 146.398201
L 159.720173 141.617505
L 161.437922 144.235824
L 163.155671 144.672656
L 164.87342 143.12012
L 166.591169 141.197034
L 168.308918 136.614956
L 170.026667 141.057759
L 171.744416 140.10516
L 173.462165 143.135843
L 175.179913 153.543493
L 176.897662 139.439491
L 178.615411 151.139923
L 180.33316 151.194103
L 182.050909 154.137351
L 183.768658 155.999607
L 185.486407 155.604878
L 187.204156 149.115192
L 188.921905 158.466134
L 190.639654 155.957906
L 192.357403 160.9422
L 194.075152 160.769095
L 195.7929 158.572179
L 197.510649 160.204893
L 199.228398 156.229941
L 200.946147 160.003246
L 202.663896 157.922157
L 204.381645 161.732677
L 206.099394 163.279003
L 207.817143 163.68005
L 209.534892 162.291889
L 211.252641 163.441998
L 212.97039 162.424925
L 214.688139 161.501503
L 216.405887 161.279873
L 218.123636 161.486139
L 219.841385 159.574368
L 221.559134 162.467861
L 223.276883 163.512733
L 224.994632 161.249293
L 226.712381 162.311772
L 228.43013 161.153871
L 230.147879 163.33306
L 231.865628 161.493301
L 233.583377 162.976701
L 235.301126 162.845797
L 237.018874 163.515752
L 238.736623 163.241628
L 240.454372 162.285583
L 242.172121 164.127986
L 243.88987 163.034638
L 245.607619 163.26271
L 247.325368 162.716589
L 249.043117 163.256687
L 250.760866 162.643047
L 252.478615 162.959717
L 254.196364 163.116943
L 255.914113 163.048469
L 257.631861 163.978069
L 259.34961 162.028321
L 261.067359 163.494641
L 262.785108 163.412482
L 264.502857 164.063179
L 266.220606 162.859984
L 267.938355 162.606759
L 269.656104 163.451752
L 271.373853 163.343806
L 273.091602 162.650421
L 274.809351 163.863097
L 276.5271 163.23889
L 278.244848 163.567405
L 279.962597 164.120054
L 281.680346 163.718454
L 283.398095 163.839404
L 285.115844 163.805104
L 286.833593 163.812407
L 288.551342 163.514558
L 290.269091 163.417638
L 291.98684 163.395538
L 293.704589 163.397807
L 295.422338 164.134495
L 297.140087 164.121478
L 298.857835 163.718454
L 300.575584 164.134495
L 302.293333 164.134495
L 304.011082 164.134495
L 305.728831 163.815327
L 307.44658 163.485228
L 309.164329 163.815327
L 310.882078 163.825816
L 312.599827 164.134495
L 314.317576 164.126562
L 316.035325 163.412253
L 317.753074 163.699829
L 319.470823 163.815327
L 321.188571 164.134495
L 322.90632 164.127987
L 324.624069 164.134495
L 326.341818 164.134495
L 328.059567 163.80442
L 329.777316 164.134495
L 331.495065 164.127987
L 333.212814 164.134495
L 334.930563 164.268449
L 336.648312 164.26845
L 338.366061 163.833803
L 340.08381 164.26845
L 341.801558 163.815327
L 343.519307 163.949291
L 345.237056 164.26845
L 346.954805 164.26845
L 348.672554 164.134495
L 350.390303 164.26845
L 352.108052 164.268449
L 353.825801 164.26845
L 355.54355 164.26845
L 357.261299 163.833803
L 358.979048 164.268449
L 360.696797 164.134495
L 362.414545 164.26845
L 364.132294 164.268449
L 365.850043 164.268449
L 367.567792 163.949291
L 369.285541 164.26845
L 371.00329 164.26845
L 372.721039 164.268449
L 374.438788 164.134495
L 376.156537 164.134495
L 377.874286 164.26845
L 379.592035 164.268449
L 381.309784 164.268449
L 383.027532 164.26845
L 384.745281 164.26845
L 386.46303 164.268449
L 388.180779 164.268449
L 389.898528 164.26845
L 391.616277 164.268449
L 393.334026 164.26845
L 395.051775 164.26845
L 396.769524 164.26845
L 398.487273 164.268449
L 398.487273 155.511938
L 398.487273 155.511938
L 396.769524 155.511938
L 395.051775 155.511938
L 393.334026 155.511938
L 391.616277 155.511938
L 389.898528 155.511938
L 388.180779 155.511938
L 386.46303 155.511938
L 384.745281 155.511938
L 383.027532 155.511938
L 381.309784 155.511938
L 379.592035 155.511938
L 377.874286 155.511938
L 376.156537 155.375907
L 374.438788 155.375906
L 372.721039 155.511938
L 371.00329 155.511939
L 369.285541 155.511938
L 367.567792 155.19346
L 365.850043 155.511938
L 364.132294 155.511938
L 362.414545 155.511939
L 360.696797 155.375906
L 358.979048 155.511938
L 357.261299 155.034051
L 355.54355 155.511938
L 353.825801 155.511938
L 352.108052 155.511938
L 350.390303 155.511938
L 348.672554 155.375906
L 346.954805 155.511938
L 345.237056 155.511938
L 343.519307 155.19346
L 341.801558 155.057438
L 340.08381 155.511938
L 338.366061 155.034051
L 336.648312 155.511938
L 334.930563 155.511938
L 333.212814 155.375907
L 331.495065 155.368109
L 329.777316 155.375907
L 328.059567 155.044855
L 326.341818 155.375906
L 324.624069 155.375906
L 322.90632 155.368109
L 321.188571 155.375907
L 319.470823 155.057438
L 317.753074 154.898038
L 316.035325 154.611478
L 314.317576 155.368488
L 312.599827 155.375906
L 310.882078 155.026376
L 309.164329 155.057438
L 307.44658 154.726411
L 305.728831 155.057438
L 304.011082 155.375907
L 302.293333 155.375906
L 300.575584 155.375907
L 298.857835 154.919727
L 297.140087 155.360312
L 295.422338 155.375906
L 293.704589 154.596266
L 291.98684 154.595559
L 290.269091 154.577996
L 288.551342 154.715348
L 286.833593 155.05253
L 285.115844 155.043907
L 283.398095 155.040153
L 281.680346 154.919727
L 279.962597 155.36069
L 278.244848 154.730065
L 276.5271 154.397974
L 274.809351 155.056937
L 273.091602 153.797456
L 271.373853 154.542993
L 269.656104 154.57577
L 267.938355 153.782883
L 266.220606 153.989778
L 264.502857 155.347687
L 262.785108 154.566729
L 261.067359 154.733706
L 259.34961 153.169867
L 257.631861 155.219717
L 255.914113 154.227224
L 254.196364 154.315827
L 252.478615 154.034494
L 250.760866 153.851973
L 249.043117 154.493713
L 247.325368 153.932304
L 245.607619 154.463982
L 243.88987 154.130069
L 242.172121 155.368109
L 240.454372 153.414933
L 238.736623 154.400418
L 237.018874 154.697435
L 235.301126 154.042729
L 233.583377 154.189267
L 231.865628 152.550777
L 230.147879 154.567775
L 228.43013 152.311204
L 226.712381 153.487896
L 224.994632 152.273163
L 223.276883 154.801133
L 221.559134 153.611768
L 219.841385 150.385361
L 218.123636 152.645087
L 216.405887 152.471662
L 214.688139 152.634064
L 212.97039 153.778039
L 211.252641 154.595666
L 209.534892 153.373696
L 207.817143 154.880059
L 206.099394 154.48278
L 204.381645 152.81482
L 202.663896 148.951999
L 200.946147 151.131863
L 199.228398 147.232902
L 197.510649 151.303674
L 195.7929 149.612094
L 194.075152 151.973622
L 192.357403 152.18081
L 190.639654 146.875138
L 188.921905 149.529169
L 187.204156 139.635241
L 185.486407 146.420171
L 183.768658 146.965859
L 182.050909 145.412927
L 180.33316 142.349243
L 178.615411 142.426579
L 176.897662 130.668762
L 175.179913 144.79218
L 173.462165 133.946557
L 171.744416 130.92523
L 170.026667 132.005902
L 168.308918 126.959398
L 166.591169 132.340708
L 164.87342 134.286363
L 163.155671 135.624233
L 161.437922 135.343302
L 159.720173 132.621232
L 158.002424 137.709237
L 156.284675 134.016526
L 154.566926 133.327838
L 152.849177 127.691189
L 151.131429 124.302444
L 149.41368 131.656923
L 147.695931 128.994563
L 145.978182 102.079275
L 144.260433 133.397444
L 142.542684 89.871106
L 140.824935 128.64608
L 139.107186 99.146841
L 137.389437 98.777141
L 135.671688 113.701033
L 133.953939 118.48632
L 132.23619 111.573431
L 130.518442 112.962601
L 128.800693 111.372442
L 127.082944 106.465133
L 125.365195 117.744329
L 123.647446 96.066403
L 121.929697 110.884877
L 120.211948 114.716515
L 118.494199 118.218018
L 116.77645 111.880891
L 115.058701 114.707548
L 113.340952 115.002162
L 111.623203 90.154253
L 109.905455 115.74528
L 108.187706 112.063324
L 106.469957 113.165088
L 104.752208 93.059201
L 103.034459 92.668858
L 101.31671 65.703731
L 99.598961 110.112918
L 97.881212 92.848008
L 96.163463 88.744718
L 94.445714 82.508273
L 92.727965 111.030345
L 91.010216 112.29888
L 89.292468 59.157434
L 87.574719 101.86409
L 85.85697 99.658751
L 84.139221 60.735664
L 82.421472 89.927788
L 80.703723 63.159123
L 78.985974 117.837198
L 77.268225 104.509017
L 75.550476 85.875816
L 73.832727 53.568
z
" style="fill:#1f77b4;fill-opacity:0.5;"/>
   </g>
   <g id="matplotlib.axis_1">
    <g id="xtick_1">
     <g id="line2d_1">
      <path clip-path="url(#pc7e62475c1)" d="M 73.832727 307.584
L 73.832727 41.472
" style="fill:none;stroke:#b0b0b0;stroke-linecap:square;stroke-width:0.8;"/>
     </g>
     <g id="line2d_2">
      <defs>
       <path d="M 0 0
L 0 3.5
" id="m0cd2d819ae" style="stroke:#000000;stroke-width:0.8;"/>
      </defs>
      <g>
       <use style="stroke:#000000;stroke-width:0.8;" x="73.832727" xlink:href="#m0cd2d819ae" y="307.584"/>
      </g>
     </g>
     <g id="text_1">
      <!-- 0 -->
      <g transform="translate(70.651477 322.182437)scale(0.1 -0.1)">
       <defs>
        <path d="M 31.78125 66.40625
Q 24.171875 66.40625 20.328125 58.90625
Q 16.5 51.421875 16.5 36.375
Q 16.5 21.390625 20.328125 13.890625
Q 24.171875 6.390625 31.78125 6.390625
Q 39.453125 6.390625 43.28125 13.890625
Q 47.125 21.390625 47.125 36.375
Q 47.125 51.421875 43.28125 58.90625
Q 39.453125 66.40625 31.78125 66.40625
z
M 31.78125 74.21875
Q 44.046875 74.21875 50.515625 64.515625
Q 56.984375 54.828125 56.984375 36.375
Q 56.984375 17.96875 50.515625 8.265625
Q 44.046875 -1.421875 31.78125 -1.421875
Q 19.53125 -1.421875 13.0625 8.265625
Q 6.59375 17.96875 6.59375 36.375
Q 6.59375 54.828125 13.0625 64.515625
Q 19.53125 74.21875 31.78125 74.21875
z
" id="DejaVuSans-48"/>
       </defs>
       <use xlink:href="#DejaVuSans-48"/>
      </g>
     </g>
    </g>
    <g id="xtick_2">
     <g id="line2d_3">
      <path clip-path="url(#pc7e62475c1)" d="M 116.77645 307.584
L 116.77645 41.472
" style="fill:none;stroke:#b0b0b0;stroke-linecap:square;stroke-width:0.8;"/>
     </g>
     <g id="line2d_4">
      <g>
       <use style="stroke:#000000;stroke-width:0.8;" x="116.77645" xlink:href="#m0cd2d819ae" y="307.584"/>
      </g>
     </g>
     <g id="text_2">
      <!-- 25 -->
      <g transform="translate(110.41395 322.182437)scale(0.1 -0.1)">
       <defs>
        <path d="M 19.1875 8.296875
L 53.609375 8.296875
L 53.609375 0
L 7.328125 0
L 7.328125 8.296875
Q 12.9375 14.109375 22.625 23.890625
Q 32.328125 33.6875 34.8125 36.53125
Q 39.546875 41.84375 41.421875 45.53125
Q 43.3125 49.21875 43.3125 52.78125
Q 43.3125 58.59375 39.234375 62.25
Q 35.15625 65.921875 28.609375 65.921875
Q 23.96875 65.921875 18.8125 64.3125
Q 13.671875 62.703125 7.8125 59.421875
L 7.8125 69.390625
Q 13.765625 71.78125 18.9375 73
Q 24.125 74.21875 28.421875 74.21875
Q 39.75 74.21875 46.484375 68.546875
Q 53.21875 62.890625 53.21875 53.421875
Q 53.21875 48.921875 51.53125 44.890625
Q 49.859375 40.875 45.40625 35.40625
Q 44.1875 33.984375 37.640625 27.21875
Q 31.109375 20.453125 19.1875 8.296875
z
" id="DejaVuSans-50"/>
        <path d="M 10.796875 72.90625
L 49.515625 72.90625
L 49.515625 64.59375
L 19.828125 64.59375
L 19.828125 46.734375
Q 21.96875 47.46875 24.109375 47.828125
Q 26.265625 48.1875 28.421875 48.1875
Q 40.625 48.1875 47.75 41.5
Q 54.890625 34.8125 54.890625 23.390625
Q 54.890625 11.625 47.5625 5.09375
Q 40.234375 -1.421875 26.90625 -1.421875
Q 22.3125 -1.421875 17.546875 -0.640625
Q 12.796875 0.140625 7.71875 1.703125
L 7.71875 11.625
Q 12.109375 9.234375 16.796875 8.0625
Q 21.484375 6.890625 26.703125 6.890625
Q 35.15625 6.890625 40.078125 11.328125
Q 45.015625 15.765625 45.015625 23.390625
Q 45.015625 31 40.078125 35.4375
Q 35.15625 39.890625 26.703125 39.890625
Q 22.75 39.890625 18.8125 39.015625
Q 14.890625 38.140625 10.796875 36.28125
z
" id="DejaVuSans-53"/>
       </defs>
       <use xlink:href="#DejaVuSans-50"/>
       <use x="63.623047" xlink:href="#DejaVuSans-53"/>
      </g>
     </g>
    </g>
    <g id="xtick_3">
     <g id="line2d_5">
      <path clip-path="url(#pc7e62475c1)" d="M 159.720173 307.584
L 159.720173 41.472
" style="fill:none;stroke:#b0b0b0;stroke-linecap:square;stroke-width:0.8;"/>
     </g>
     <g id="line2d_6">
      <g>
       <use style="stroke:#000000;stroke-width:0.8;" x="159.720173" xlink:href="#m0cd2d819ae" y="307.584"/>
      </g>
     </g>
     <g id="text_3">
      <!-- 50 -->
      <g transform="translate(153.357673 322.182437)scale(0.1 -0.1)">
       <use xlink:href="#DejaVuSans-53"/>
       <use x="63.623047" xlink:href="#DejaVuSans-48"/>
      </g>
     </g>
    </g>
    <g id="xtick_4">
     <g id="line2d_7">
      <path clip-path="url(#pc7e62475c1)" d="M 202.663896 307.584
L 202.663896 41.472
" style="fill:none;stroke:#b0b0b0;stroke-linecap:square;stroke-width:0.8;"/>
     </g>
     <g id="line2d_8">
      <g>
       <use style="stroke:#000000;stroke-width:0.8;" x="202.663896" xlink:href="#m0cd2d819ae" y="307.584"/>
      </g>
     </g>
     <g id="text_4">
      <!-- 75 -->
      <g transform="translate(196.301396 322.182437)scale(0.1 -0.1)">
       <defs>
        <path d="M 8.203125 72.90625
L 55.078125 72.90625
L 55.078125 68.703125
L 28.609375 0
L 18.3125 0
L 43.21875 64.59375
L 8.203125 64.59375
z
" id="DejaVuSans-55"/>
       </defs>
       <use xlink:href="#DejaVuSans-55"/>
       <use x="63.623047" xlink:href="#DejaVuSans-53"/>
      </g>
     </g>
    </g>
    <g id="xtick_5">
     <g id="line2d_9">
      <path clip-path="url(#pc7e62475c1)" d="M 245.607619 307.584
L 245.607619 41.472
" style="fill:none;stroke:#b0b0b0;stroke-linecap:square;stroke-width:0.8;"/>
     </g>
     <g id="line2d_10">
      <g>
       <use style="stroke:#000000;stroke-width:0.8;" x="245.607619" xlink:href="#m0cd2d819ae" y="307.584"/>
      </g>
     </g>
     <g id="text_5">
      <!-- 100 -->
      <g transform="translate(236.063869 322.182437)scale(0.1 -0.1)">
       <defs>
        <path d="M 12.40625 8.296875
L 28.515625 8.296875
L 28.515625 63.921875
L 10.984375 60.40625
L 10.984375 69.390625
L 28.421875 72.90625
L 38.28125 72.90625
L 38.28125 8.296875
L 54.390625 8.296875
L 54.390625 0
L 12.40625 0
z
" id="DejaVuSans-49"/>
       </defs>
       <use xlink:href="#DejaVuSans-49"/>
       <use x="63.623047" xlink:href="#DejaVuSans-48"/>
       <use x="127.246094" xlink:href="#DejaVuSans-48"/>
      </g>
     </g>
    </g>
    <g id="xtick_6">
     <g id="line2d_11">
      <path clip-path="url(#pc7e62475c1)" d="M 288.551342 307.584
L 288.551342 41.472
" style="fill:none;stroke:#b0b0b0;stroke-linecap:square;stroke-width:0.8;"/>
     </g>
     <g id="line2d_12">
      <g>
       <use style="stroke:#000000;stroke-width:0.8;" x="288.551342" xlink:href="#m0cd2d819ae" y="307.584"/>
      </g>
     </g>
     <g id="text_6">
      <!-- 125 -->
      <g transform="translate(279.007592 322.182437)scale(0.1 -0.1)">
       <use xlink:href="#DejaVuSans-49"/>
       <use x="63.623047" xlink:href="#DejaVuSans-50"/>
       <use x="127.246094" xlink:href="#DejaVuSans-53"/>
      </g>
     </g>
    </g>
    <g id="xtick_7">
     <g id="line2d_13">
      <path clip-path="url(#pc7e62475c1)" d="M 331.495065 307.584
L 331.495065 41.472
" style="fill:none;stroke:#b0b0b0;stroke-linecap:square;stroke-width:0.8;"/>
     </g>
     <g id="line2d_14">
      <g>
       <use style="stroke:#000000;stroke-width:0.8;" x="331.495065" xlink:href="#m0cd2d819ae" y="307.584"/>
      </g>
     </g>
     <g id="text_7">
      <!-- 150 -->
      <g transform="translate(321.951315 322.182437)scale(0.1 -0.1)">
       <use xlink:href="#DejaVuSans-49"/>
       <use x="63.623047" xlink:href="#DejaVuSans-53"/>
       <use x="127.246094" xlink:href="#DejaVuSans-48"/>
      </g>
     </g>
    </g>
    <g id="xtick_8">
     <g id="line2d_15">
      <path clip-path="url(#pc7e62475c1)" d="M 374.438788 307.584
L 374.438788 41.472
" style="fill:none;stroke:#b0b0b0;stroke-linecap:square;stroke-width:0.8;"/>
     </g>
     <g id="line2d_16">
      <g>
       <use style="stroke:#000000;stroke-width:0.8;" x="374.438788" xlink:href="#m0cd2d819ae" y="307.584"/>
      </g>
     </g>
     <g id="text_8">
      <!-- 175 -->
      <g transform="translate(364.895038 322.182437)scale(0.1 -0.1)">
       <use xlink:href="#DejaVuSans-49"/>
       <use x="63.623047" xlink:href="#DejaVuSans-55"/>
       <use x="127.246094" xlink:href="#DejaVuSans-53"/>
      </g>
     </g>
    </g>
    <g id="text_9">
     <!-- $iteration$ -->
     <g transform="translate(215.01 335.860562)scale(0.1 -0.1)">
      <defs>
       <path d="M 18.3125 75.984375
L 27.296875 75.984375
L 25.09375 64.59375
L 16.109375 64.59375
z
M 14.203125 54.6875
L 23.1875 54.6875
L 12.5 0
L 3.515625 0
z
" id="DejaVuSans-Oblique-105"/>
       <path d="M 42.28125 54.6875
L 40.921875 47.703125
L 23 47.703125
L 17.1875 18.015625
Q 16.890625 16.359375 16.75 15.234375
Q 16.609375 14.109375 16.609375 13.484375
Q 16.609375 10.359375 18.484375 8.9375
Q 20.359375 7.515625 24.515625 7.515625
L 33.59375 7.515625
L 32.078125 0
L 23.484375 0
Q 15.484375 0 11.546875 3.125
Q 7.625 6.25 7.625 12.59375
Q 7.625 13.71875 7.765625 15.0625
Q 7.90625 16.40625 8.203125 18.015625
L 14.015625 47.703125
L 6.390625 47.703125
L 7.8125 54.6875
L 15.28125 54.6875
L 18.3125 70.21875
L 27.296875 70.21875
L 24.3125 54.6875
z
" id="DejaVuSans-Oblique-116"/>
       <path d="M 48.09375 32.234375
Q 48.25 33.015625 48.3125 33.84375
Q 48.390625 34.671875 48.390625 35.5
Q 48.390625 41.453125 44.890625 44.921875
Q 41.40625 48.390625 35.40625 48.390625
Q 28.71875 48.390625 23.578125 44.15625
Q 18.453125 39.9375 15.828125 32.171875
z
M 55.90625 25.203125
L 14.109375 25.203125
Q 13.8125 23.34375 13.71875 22.265625
Q 13.625 21.1875 13.625 20.40625
Q 13.625 13.625 17.796875 9.90625
Q 21.96875 6.203125 29.59375 6.203125
Q 35.453125 6.203125 40.671875 7.515625
Q 45.90625 8.84375 50.390625 11.375
L 48.6875 2.484375
Q 43.84375 0.53125 38.6875 -0.4375
Q 33.546875 -1.421875 28.21875 -1.421875
Q 16.84375 -1.421875 10.71875 4.015625
Q 4.59375 9.46875 4.59375 19.484375
Q 4.59375 28.03125 7.640625 35.375
Q 10.6875 42.71875 16.609375 48.484375
Q 20.40625 52.09375 25.65625 54.046875
Q 30.90625 56 36.8125 56
Q 46.09375 56 51.578125 50.4375
Q 57.078125 44.875 57.078125 35.5
Q 57.078125 33.25 56.78125 30.6875
Q 56.5 28.125 55.90625 25.203125
z
" id="DejaVuSans-Oblique-101"/>
       <path d="M 44.578125 46.390625
Q 43.21875 47.125 41.453125 47.515625
Q 39.703125 47.90625 37.703125 47.90625
Q 30.515625 47.90625 25.140625 42.453125
Q 19.78125 37.015625 18.015625 27.875
L 12.5 0
L 3.515625 0
L 14.203125 54.6875
L 23.1875 54.6875
L 21.484375 46.1875
Q 25.046875 50.921875 30 53.453125
Q 34.96875 56 40.578125 56
Q 42.046875 56 43.453125 55.828125
Q 44.875 55.671875 46.296875 55.28125
z
" id="DejaVuSans-Oblique-114"/>
       <path d="M 53.71875 31.203125
L 47.609375 0
L 38.625 0
L 40.28125 8.296875
Q 36.328125 3.421875 31.265625 1
Q 26.21875 -1.421875 20.015625 -1.421875
Q 13.03125 -1.421875 8.5625 2.84375
Q 4.109375 7.125 4.109375 13.8125
Q 4.109375 23.390625 11.75 28.953125
Q 19.390625 34.515625 32.8125 34.515625
L 45.3125 34.515625
L 45.796875 36.921875
Q 45.90625 37.3125 45.953125 37.765625
Q 46 38.234375 46 39.203125
Q 46 43.5625 42.453125 45.96875
Q 38.921875 48.390625 32.515625 48.390625
Q 28.125 48.390625 23.5 47.265625
Q 18.890625 46.140625 14.015625 43.890625
L 15.578125 52.203125
Q 20.65625 54.109375 25.515625 55.046875
Q 30.375 56 34.90625 56
Q 44.578125 56 49.625 51.796875
Q 54.6875 47.609375 54.6875 39.59375
Q 54.6875 37.984375 54.4375 35.8125
Q 54.203125 33.640625 53.71875 31.203125
z
M 44 27.484375
L 35.015625 27.484375
Q 23.96875 27.484375 18.671875 24.53125
Q 13.375 21.578125 13.375 15.375
Q 13.375 11.078125 16.078125 8.640625
Q 18.796875 6.203125 23.578125 6.203125
Q 30.90625 6.203125 36.375 11.453125
Q 41.84375 16.703125 43.609375 25.484375
z
" id="DejaVuSans-Oblique-97"/>
       <path d="M 25.390625 -1.421875
Q 15.765625 -1.421875 10.171875 4.515625
Q 4.59375 10.453125 4.59375 20.703125
Q 4.59375 26.65625 6.515625 32.828125
Q 8.453125 39.015625 11.53125 43.21875
Q 16.359375 49.75 22.3125 52.875
Q 28.265625 56 35.796875 56
Q 45.125 56 50.859375 50.1875
Q 56.59375 44.390625 56.59375 35.015625
Q 56.59375 28.515625 54.6875 22.0625
Q 52.78125 15.625 49.703125 11.375
Q 44.921875 4.828125 38.96875 1.703125
Q 33.015625 -1.421875 25.390625 -1.421875
z
M 13.921875 21
Q 13.921875 13.578125 17.015625 9.890625
Q 20.125 6.203125 26.421875 6.203125
Q 35.453125 6.203125 41.375 14.078125
Q 47.3125 21.96875 47.3125 34.078125
Q 47.3125 41.15625 44.140625 44.765625
Q 40.96875 48.390625 34.8125 48.390625
Q 29.734375 48.390625 25.78125 46.015625
Q 21.828125 43.65625 18.703125 38.8125
Q 16.40625 35.203125 15.15625 30.5625
Q 13.921875 25.921875 13.921875 21
z
" id="DejaVuSans-Oblique-111"/>
       <path d="M 55.71875 33.015625
L 49.3125 0
L 40.28125 0
L 46.6875 32.671875
Q 47.125 34.96875 47.359375 36.71875
Q 47.609375 38.484375 47.609375 39.5
Q 47.609375 43.609375 45.015625 45.890625
Q 42.4375 48.1875 37.796875 48.1875
Q 30.5625 48.1875 25.34375 43.375
Q 20.125 38.578125 18.5 30.328125
L 12.5 0
L 3.515625 0
L 14.109375 54.6875
L 23.09375 54.6875
L 21.296875 46.09375
Q 25.046875 50.828125 30.3125 53.40625
Q 35.59375 56 41.40625 56
Q 48.640625 56 52.609375 52.09375
Q 56.59375 48.1875 56.59375 41.109375
Q 56.59375 39.359375 56.375 37.359375
Q 56.15625 35.359375 55.71875 33.015625
z
" id="DejaVuSans-Oblique-110"/>
      </defs>
      <use transform="translate(0 0.015625)" xlink:href="#DejaVuSans-Oblique-105"/>
      <use transform="translate(27.783203 0.015625)" xlink:href="#DejaVuSans-Oblique-116"/>
      <use transform="translate(66.992188 0.015625)" xlink:href="#DejaVuSans-Oblique-101"/>
      <use transform="translate(128.515625 0.015625)" xlink:href="#DejaVuSans-Oblique-114"/>
      <use transform="translate(169.628906 0.015625)" xlink:href="#DejaVuSans-Oblique-97"/>
      <use transform="translate(230.908203 0.015625)" xlink:href="#DejaVuSans-Oblique-116"/>
      <use transform="translate(270.117188 0.015625)" xlink:href="#DejaVuSans-Oblique-105"/>
      <use transform="translate(297.900391 0.015625)" xlink:href="#DejaVuSans-Oblique-111"/>
      <use transform="translate(359.082031 0.015625)" xlink:href="#DejaVuSans-Oblique-110"/>
     </g>
    </g>
   </g>
   <g id="matplotlib.axis_2">
    <g id="ytick_1">
     <g id="line2d_17">
      <path clip-path="url(#pc7e62475c1)" d="M 57.6 295.488
L 414.72 295.488
" style="fill:none;stroke:#b0b0b0;stroke-linecap:square;stroke-width:0.8;"/>
     </g>
     <g id="line2d_18">
      <defs>
       <path d="M 0 0
L -3.5 0
" id="m74c15f6f76" style="stroke:#000000;stroke-width:0.8;"/>
      </defs>
      <g>
       <use style="stroke:#000000;stroke-width:0.8;" x="57.6" xlink:href="#m74c15f6f76" y="295.488"/>
      </g>
     </g>
     <g id="text_10">
      <!-- −4.00 -->
      <g transform="translate(19.954687 299.287219)scale(0.1 -0.1)">
       <defs>
        <path d="M 10.59375 35.5
L 73.1875 35.5
L 73.1875 27.203125
L 10.59375 27.203125
z
" id="DejaVuSans-8722"/>
        <path d="M 37.796875 64.3125
L 12.890625 25.390625
L 37.796875 25.390625
z
M 35.203125 72.90625
L 47.609375 72.90625
L 47.609375 25.390625
L 58.015625 25.390625
L 58.015625 17.1875
L 47.609375 17.1875
L 47.609375 0
L 37.796875 0
L 37.796875 17.1875
L 4.890625 17.1875
L 4.890625 26.703125
z
" id="DejaVuSans-52"/>
        <path d="M 10.6875 12.40625
L 21 12.40625
L 21 0
L 10.6875 0
z
" id="DejaVuSans-46"/>
       </defs>
       <use xlink:href="#DejaVuSans-8722"/>
       <use x="83.789062" xlink:href="#DejaVuSans-52"/>
       <use x="147.412109" xlink:href="#DejaVuSans-46"/>
       <use x="179.199219" xlink:href="#DejaVuSans-48"/>
       <use x="242.822266" xlink:href="#DejaVuSans-48"/>
      </g>
     </g>
    </g>
    <g id="ytick_2">
     <g id="line2d_19">
      <path clip-path="url(#pc7e62475c1)" d="M 57.6 261.397607
L 414.72 261.397607
" style="fill:none;stroke:#b0b0b0;stroke-linecap:square;stroke-width:0.8;"/>
     </g>
     <g id="line2d_20">
      <g>
       <use style="stroke:#000000;stroke-width:0.8;" x="57.6" xlink:href="#m74c15f6f76" y="261.397607"/>
      </g>
     </g>
     <g id="text_11">
      <!-- −3.75 -->
      <g transform="translate(19.954687 265.196825)scale(0.1 -0.1)">
       <defs>
        <path d="M 40.578125 39.3125
Q 47.65625 37.796875 51.625 33
Q 55.609375 28.21875 55.609375 21.1875
Q 55.609375 10.40625 48.1875 4.484375
Q 40.765625 -1.421875 27.09375 -1.421875
Q 22.515625 -1.421875 17.65625 -0.515625
Q 12.796875 0.390625 7.625 2.203125
L 7.625 11.71875
Q 11.71875 9.328125 16.59375 8.109375
Q 21.484375 6.890625 26.8125 6.890625
Q 36.078125 6.890625 40.9375 10.546875
Q 45.796875 14.203125 45.796875 21.1875
Q 45.796875 27.640625 41.28125 31.265625
Q 36.765625 34.90625 28.71875 34.90625
L 20.21875 34.90625
L 20.21875 43.015625
L 29.109375 43.015625
Q 36.375 43.015625 40.234375 45.921875
Q 44.09375 48.828125 44.09375 54.296875
Q 44.09375 59.90625 40.109375 62.90625
Q 36.140625 65.921875 28.71875 65.921875
Q 24.65625 65.921875 20.015625 65.03125
Q 15.375 64.15625 9.8125 62.3125
L 9.8125 71.09375
Q 15.4375 72.65625 20.34375 73.4375
Q 25.25 74.21875 29.59375 74.21875
Q 40.828125 74.21875 47.359375 69.109375
Q 53.90625 64.015625 53.90625 55.328125
Q 53.90625 49.265625 50.4375 45.09375
Q 46.96875 40.921875 40.578125 39.3125
z
" id="DejaVuSans-51"/>
       </defs>
       <use xlink:href="#DejaVuSans-8722"/>
       <use x="83.789062" xlink:href="#DejaVuSans-51"/>
       <use x="147.412109" xlink:href="#DejaVuSans-46"/>
       <use x="179.199219" xlink:href="#DejaVuSans-55"/>
       <use x="242.822266" xlink:href="#DejaVuSans-53"/>
      </g>
     </g>
    </g>
    <g id="ytick_3">
     <g id="line2d_21">
      <path clip-path="url(#pc7e62475c1)" d="M 57.6 227.307213
L 414.72 227.307213
" style="fill:none;stroke:#b0b0b0;stroke-linecap:square;stroke-width:0.8;"/>
     </g>
     <g id="line2d_22">
      <g>
       <use style="stroke:#000000;stroke-width:0.8;" x="57.6" xlink:href="#m74c15f6f76" y="227.307213"/>
      </g>
     </g>
     <g id="text_12">
      <!-- −3.50 -->
      <g transform="translate(19.954687 231.106432)scale(0.1 -0.1)">
       <use xlink:href="#DejaVuSans-8722"/>
       <use x="83.789062" xlink:href="#DejaVuSans-51"/>
       <use x="147.412109" xlink:href="#DejaVuSans-46"/>
       <use x="179.199219" xlink:href="#DejaVuSans-53"/>
       <use x="242.822266" xlink:href="#DejaVuSans-48"/>
      </g>
     </g>
    </g>
    <g id="ytick_4">
     <g id="line2d_23">
      <path clip-path="url(#pc7e62475c1)" d="M 57.6 193.21682
L 414.72 193.21682
" style="fill:none;stroke:#b0b0b0;stroke-linecap:square;stroke-width:0.8;"/>
     </g>
     <g id="line2d_24">
      <g>
       <use style="stroke:#000000;stroke-width:0.8;" x="57.6" xlink:href="#m74c15f6f76" y="193.21682"/>
      </g>
     </g>
     <g id="text_13">
      <!-- −3.25 -->
      <g transform="translate(19.954687 197.016038)scale(0.1 -0.1)">
       <use xlink:href="#DejaVuSans-8722"/>
       <use x="83.789062" xlink:href="#DejaVuSans-51"/>
       <use x="147.412109" xlink:href="#DejaVuSans-46"/>
       <use x="179.199219" xlink:href="#DejaVuSans-50"/>
       <use x="242.822266" xlink:href="#DejaVuSans-53"/>
      </g>
     </g>
    </g>
    <g id="ytick_5">
     <g id="line2d_25">
      <path clip-path="url(#pc7e62475c1)" d="M 57.6 159.126426
L 414.72 159.126426
" style="fill:none;stroke:#b0b0b0;stroke-linecap:square;stroke-width:0.8;"/>
     </g>
     <g id="line2d_26">
      <g>
       <use style="stroke:#000000;stroke-width:0.8;" x="57.6" xlink:href="#m74c15f6f76" y="159.126426"/>
      </g>
     </g>
     <g id="text_14">
      <!-- −3.00 -->
      <g transform="translate(19.954687 162.925645)scale(0.1 -0.1)">
       <use xlink:href="#DejaVuSans-8722"/>
       <use x="83.789062" xlink:href="#DejaVuSans-51"/>
       <use x="147.412109" xlink:href="#DejaVuSans-46"/>
       <use x="179.199219" xlink:href="#DejaVuSans-48"/>
       <use x="242.822266" xlink:href="#DejaVuSans-48"/>
      </g>
     </g>
    </g>
    <g id="ytick_6">
     <g id="line2d_27">
      <path clip-path="url(#pc7e62475c1)" d="M 57.6 125.036033
L 414.72 125.036033
" style="fill:none;stroke:#b0b0b0;stroke-linecap:square;stroke-width:0.8;"/>
     </g>
     <g id="line2d_28">
      <g>
       <use style="stroke:#000000;stroke-width:0.8;" x="57.6" xlink:href="#m74c15f6f76" y="125.036033"/>
      </g>
     </g>
     <g id="text_15">
      <!-- −2.75 -->
      <g transform="translate(19.954687 128.835252)scale(0.1 -0.1)">
       <use xlink:href="#DejaVuSans-8722"/>
       <use x="83.789062" xlink:href="#DejaVuSans-50"/>
       <use x="147.412109" xlink:href="#DejaVuSans-46"/>
       <use x="179.199219" xlink:href="#DejaVuSans-55"/>
       <use x="242.822266" xlink:href="#DejaVuSans-53"/>
      </g>
     </g>
    </g>
    <g id="ytick_7">
     <g id="line2d_29">
      <path clip-path="url(#pc7e62475c1)" d="M 57.6 90.945639
L 414.72 90.945639
" style="fill:none;stroke:#b0b0b0;stroke-linecap:square;stroke-width:0.8;"/>
     </g>
     <g id="line2d_30">
      <g>
       <use style="stroke:#000000;stroke-width:0.8;" x="57.6" xlink:href="#m74c15f6f76" y="90.945639"/>
      </g>
     </g>
     <g id="text_16">
      <!-- −2.50 -->
      <g transform="translate(19.954687 94.744858)scale(0.1 -0.1)">
       <use xlink:href="#DejaVuSans-8722"/>
       <use x="83.789062" xlink:href="#DejaVuSans-50"/>
       <use x="147.412109" xlink:href="#DejaVuSans-46"/>
       <use x="179.199219" xlink:href="#DejaVuSans-53"/>
       <use x="242.822266" xlink:href="#DejaVuSans-48"/>
      </g>
     </g>
    </g>
    <g id="ytick_8">
     <g id="line2d_31">
      <path clip-path="url(#pc7e62475c1)" d="M 57.6 56.855246
L 414.72 56.855246
" style="fill:none;stroke:#b0b0b0;stroke-linecap:square;stroke-width:0.8;"/>
     </g>
     <g id="line2d_32">
      <g>
       <use style="stroke:#000000;stroke-width:0.8;" x="57.6" xlink:href="#m74c15f6f76" y="56.855246"/>
      </g>
     </g>
     <g id="text_17">
      <!-- −2.25 -->
      <g transform="translate(19.954687 60.654465)scale(0.1 -0.1)">
       <use xlink:href="#DejaVuSans-8722"/>
       <use x="83.789062" xlink:href="#DejaVuSans-50"/>
       <use x="147.412109" xlink:href="#DejaVuSans-46"/>
       <use x="179.199219" xlink:href="#DejaVuSans-50"/>
       <use x="242.822266" xlink:href="#DejaVuSans-53"/>
      </g>
     </g>
    </g>
    <g id="text_18">
     <!-- $\langle H_{\mathrm{MC}} \rangle$ -->
     <g transform="translate(13.875 187.828)rotate(-90)scale(0.1 -0.1)">
      <defs>
       <path d="M 8.9375 31.34375
L 22.703125 75.875
L 31 75.875
L 17.234375 31.34375
L 31 -13.1875
L 22.703125 -13.1875
z
" id="DejaVuSans-10216"/>
       <path d="M 16.890625 72.90625
L 26.8125 72.90625
L 21 43.015625
L 56.78125 43.015625
L 62.59375 72.90625
L 72.515625 72.90625
L 58.296875 0
L 48.390625 0
L 55.171875 34.71875
L 19.390625 34.71875
L 12.59375 0
L 2.6875 0
z
" id="DejaVuSans-Oblique-72"/>
       <path d="M 9.8125 72.90625
L 24.515625 72.90625
L 43.109375 23.296875
L 61.8125 72.90625
L 76.515625 72.90625
L 76.515625 0
L 66.890625 0
L 66.890625 64.015625
L 48.09375 14.015625
L 38.1875 14.015625
L 19.390625 64.015625
L 19.390625 0
L 9.8125 0
z
" id="DejaVuSans-77"/>
       <path d="M 64.40625 67.28125
L 64.40625 56.890625
Q 59.421875 61.53125 53.78125 63.8125
Q 48.140625 66.109375 41.796875 66.109375
Q 29.296875 66.109375 22.65625 58.46875
Q 16.015625 50.828125 16.015625 36.375
Q 16.015625 21.96875 22.65625 14.328125
Q 29.296875 6.6875 41.796875 6.6875
Q 48.140625 6.6875 53.78125 8.984375
Q 59.421875 11.28125 64.40625 15.921875
L 64.40625 5.609375
Q 59.234375 2.09375 53.4375 0.328125
Q 47.65625 -1.421875 41.21875 -1.421875
Q 24.65625 -1.421875 15.125 8.703125
Q 5.609375 18.84375 5.609375 36.375
Q 5.609375 53.953125 15.125 64.078125
Q 24.65625 74.21875 41.21875 74.21875
Q 47.75 74.21875 53.53125 72.484375
Q 59.328125 70.75 64.40625 67.28125
z
" id="DejaVuSans-67"/>
       <path d="M 30.078125 31.34375
L 16.3125 -13.1875
L 8.015625 -13.1875
L 21.78125 31.34375
L 8.015625 75.875
L 16.3125 75.875
z
" id="DejaVuSans-10217"/>
      </defs>
      <use transform="translate(0 0.125)" xlink:href="#DejaVuSans-10216"/>
      <use transform="translate(39.013672 0.125)" xlink:href="#DejaVuSans-Oblique-72"/>
      <use transform="translate(114.208984 -16.28125)scale(0.7)" xlink:href="#DejaVuSans-77"/>
      <use transform="translate(174.604492 -16.28125)scale(0.7)" xlink:href="#DejaVuSans-67"/>
      <use transform="translate(226.21582 0.125)" xlink:href="#DejaVuSans-10217"/>
     </g>
    </g>
   </g>
   <g id="line2d_33">
    <path clip-path="url(#pc7e62475c1)" d="M 73.832727 59.439781
L 75.550476 90.862823
L 77.268225 108.958777
L 78.985974 121.752192
L 80.703723 68.184479
L 82.421472 94.219518
L 84.139221 65.992111
L 85.85697 104.053388
L 87.574719 106.173143
L 89.292468 64.572141
L 91.010216 116.930161
L 92.727965 116.612017
L 94.445714 87.718825
L 96.163463 93.651432
L 97.881212 97.521424
L 99.598961 114.297201
L 101.31671 71.407277
L 103.034459 98.048423
L 104.752208 98.070806
L 106.469957 117.272841
L 108.187706 116.13913
L 109.905455 119.712266
L 111.623203 95.124736
L 113.340952 118.954041
L 115.058701 118.700885
L 116.77645 116.086429
L 118.494199 122.123427
L 120.211948 118.804874
L 121.929697 114.849441
L 123.647446 100.548886
L 125.365195 121.76
L 127.082944 110.747551
L 128.800693 115.400389
L 130.518442 117.179851
L 132.23619 115.598872
L 133.953939 123.014623
L 135.671688 118.393777
L 137.389437 103.62269
L 139.107186 104.09057
L 140.824935 133.028307
L 142.542684 94.99633
L 144.260433 137.656222
L 145.978182 107.383142
L 147.695931 133.328087
L 149.41368 135.907616
L 151.131429 128.40056
L 152.849177 132.062965
L 154.566926 137.814372
L 156.284675 138.263736
L 158.002424 142.053719
L 159.720173 137.119369
L 161.437922 139.789563
L 163.155671 140.148445
L 164.87342 138.703242
L 166.591169 136.768871
L 168.308918 131.787177
L 170.026667 136.531831
L 171.744416 135.515195
L 173.462165 138.5412
L 175.179913 149.167836
L 176.897662 135.054126
L 178.615411 146.783251
L 180.33316 146.771673
L 182.050909 149.775139
L 183.768658 151.482733
L 185.486407 151.012524
L 187.204156 144.375216
L 188.921905 153.997652
L 190.639654 151.416522
L 192.357403 156.561505
L 194.075152 156.371359
L 195.7929 154.092137
L 197.510649 155.754284
L 199.228398 151.731422
L 200.946147 155.567555
L 202.663896 153.437078
L 204.381645 157.273749
L 206.099394 158.880891
L 207.817143 159.280054
L 209.534892 157.832793
L 211.252641 159.018832
L 214.688139 157.067783
L 216.405887 156.875768
L 218.123636 157.065613
L 219.841385 154.979865
L 221.559134 158.039814
L 223.276883 159.156933
L 224.994632 156.761228
L 226.712381 157.899834
L 228.43013 156.732538
L 230.147879 158.950417
L 231.865628 157.022039
L 233.583377 158.582984
L 235.301126 158.444263
L 237.018874 159.106593
L 238.736623 158.821023
L 240.454372 157.850258
L 242.172121 159.748048
L 243.88987 158.582353
L 245.607619 158.863346
L 247.325368 158.324447
L 249.043117 158.8752
L 250.760866 158.24751
L 254.196364 158.716385
L 255.914113 158.637846
L 257.631861 159.598893
L 259.34961 157.599094
L 261.067359 159.114173
L 262.785108 158.989605
L 264.502857 159.705433
L 266.220606 158.424881
L 267.938355 158.194821
L 269.656104 159.013761
L 271.373853 158.943399
L 273.091602 158.223939
L 274.809351 159.460017
L 276.5271 158.818432
L 278.244848 159.148735
L 279.962597 159.740372
L 281.680346 159.319091
L 283.398095 159.439778
L 286.833593 159.432469
L 288.551342 159.114953
L 290.269091 158.997817
L 293.704589 158.997037
L 295.422338 159.755201
L 297.140087 159.740895
L 298.857835 159.319091
L 300.575584 159.755201
L 304.011082 159.755201
L 307.44658 159.105819
L 309.164329 159.436382
L 310.882078 159.426096
L 312.599827 159.755201
L 314.317576 159.747525
L 316.035325 159.011865
L 317.753074 159.298934
L 319.470823 159.436382
L 321.188571 159.755201
L 326.341818 159.755201
L 328.059567 159.424637
L 329.777316 159.755201
L 333.212814 159.755201
L 334.930563 159.890194
L 336.648312 159.890194
L 338.366061 159.433927
L 340.08381 159.890194
L 341.801558 159.436383
L 343.519307 159.571376
L 345.237056 159.890194
L 346.954805 159.890194
L 348.672554 159.7552
L 350.390303 159.890194
L 355.54355 159.890194
L 357.261299 159.433927
L 358.979048 159.890194
L 360.696797 159.7552
L 362.414545 159.890194
L 365.850043 159.890194
L 367.567792 159.571376
L 369.285541 159.890194
L 372.721039 159.890194
L 374.438788 159.755201
L 376.156537 159.755201
L 377.874286 159.890194
L 398.487273 159.890193
L 398.487273 159.890193
" style="fill:none;stroke:#1f77b4;stroke-linecap:square;stroke-width:1.5;"/>
   </g>
   <g id="line2d_34">
    <path clip-path="url(#pc7e62475c1)" d="M 57.6 295.488
L 414.72 295.488
" style="fill:none;stroke:#ff7f0e;stroke-linecap:square;stroke-width:1.5;"/>
   </g>
   <g id="patch_3">
    <path d="M 57.6 307.584
L 57.6 41.472
" style="fill:none;stroke:#000000;stroke-linecap:square;stroke-linejoin:miter;stroke-width:0.8;"/>
   </g>
   <g id="patch_4">
    <path d="M 414.72 307.584
L 414.72 41.472
" style="fill:none;stroke:#000000;stroke-linecap:square;stroke-linejoin:miter;stroke-width:0.8;"/>
   </g>
   <g id="patch_5">
    <path d="M 57.6 307.584
L 414.72 307.584
" style="fill:none;stroke:#000000;stroke-linecap:square;stroke-linejoin:miter;stroke-width:0.8;"/>
   </g>
   <g id="patch_6">
    <path d="M 57.6 41.472
L 414.72 41.472
" style="fill:none;stroke:#000000;stroke-linecap:square;stroke-linejoin:miter;stroke-width:0.8;"/>
   </g>
  </g>
 </g>
 <defs>
  <clipPath id="pc7e62475c1">
   <rect height="266.112" width="357.12" x="57.6" y="41.472"/>
  </clipPath>
 </defs>
</svg>
