<?xml version="1.0" encoding="UTF-8" standalone="no"?>
<svg
   xmlns:dc="http://purl.org/dc/elements/1.1/"
   xmlns:cc="http://creativecommons.org/ns#"
   xmlns:rdf="http://www.w3.org/1999/02/22-rdf-syntax-ns#"
   xmlns:svg="http://www.w3.org/2000/svg"
   xmlns="http://www.w3.org/2000/svg"
   xmlns:xlink="http://www.w3.org/1999/xlink"
   xmlns:sodipodi="http://sodipodi.sourceforge.net/DTD/sodipodi-0.dtd"
   xmlns:inkscape="http://www.inkscape.org/namespaces/inkscape"
   height="345.6pt"
   version="1.1"
   viewBox="0 0 460.8 345.6"
   width="460.8pt"
   id="svg494"
   sodipodi:docname="eigenstate_max_cut_vqe_noisy.svg"
   inkscape:version="1.0.1 (3bc2e813f5, 2020-09-07)">
  <sodipodi:namedview
     pagecolor="#ffffff"
     bordercolor="#666666"
     borderopacity="1"
     objecttolerance="10"
     gridtolerance="10"
     guidetolerance="10"
     inkscape:pageopacity="0"
     inkscape:pageshadow="2"
     inkscape:window-width="1920"
     inkscape:window-height="1042"
     id="namedview496"
     showgrid="false"
     inkscape:zoom="1.7013889"
     inkscape:cx="163.49387"
     inkscape:cy="230.4"
     inkscape:window-x="0"
     inkscape:window-y="18"
     inkscape:window-maximized="0"
     inkscape:current-layer="axes_1" />
  <metadata
     id="metadata2">
    <rdf:RDF>
      <cc:Work>
        <dc:type
           rdf:resource="http://purl.org/dc/dcmitype/StillImage" />
        <dc:date>2021-01-11T18:23:00.003936</dc:date>
        <dc:format>image/svg+xml</dc:format>
        <dc:creator>
          <cc:Agent>
            <dc:title>Matplotlib v3.3.3, https://matplotlib.org/</dc:title>
          </cc:Agent>
        </dc:creator>
      </cc:Work>
    </rdf:RDF>
  </metadata>
  <defs
     id="defs6">
    <style
       type="text/css"
       id="style4">*{stroke-linecap:butt;stroke-linejoin:round;}</style>
  </defs>
  <g
     id="figure_1">
    <g
       id="axes_1">
      <g
         id="patch_3">
        <path
           clip-path="url(#pb1a31a5f9e)"
           d="M 73.832727 307.584  L 103.346777 307.584  L 103.346777 307.584  L 73.832727 307.584  z "
           style="fill:#1f77b4;"
           id="path14" />
      </g>
      <g
         id="patch_4">
        <path
           clip-path="url(#pb1a31a5f9e)"
           d="M 110.725289 307.584  L 140.239339 307.584  L 140.239339 307.584  L 110.725289 307.584  z "
           style="fill:#1f77b4;"
           id="path17" />
      </g>
      <g
         id="patch_5">
        <path
           clip-path="url(#pb1a31a5f9e)"
           d="M 147.617851 307.584  L 177.131901 307.584  L 177.131901 54.144  L 147.617851 54.144  z "
           style="fill:#1f77b4;"
           id="path20" />
      </g>
      <g
         id="patch_6">
        <path
           clip-path="url(#pb1a31a5f9e)"
           d="M 184.510413 307.584  L 214.024463 307.584  L 214.024463 296.774472  L 184.510413 296.774472  z "
           style="fill:#1f77b4;"
           id="path23" />
      </g>
      <g
         id="patch_7">
        <path
           clip-path="url(#pb1a31a5f9e)"
           d="M 221.402975 307.584  L 250.917025 307.584  L 250.917025 306.376209  L 221.402975 306.376209  z "
           style="fill:#1f77b4;"
           id="path26" />
      </g>
      <g
         id="patch_8">
        <path
           clip-path="url(#pb1a31a5f9e)"
           d="M 258.295537 307.584  L 287.809587 307.584  L 287.809587 193.844689  L 258.295537 193.844689  z "
           style="fill:#1f77b4;"
           id="path29" />
      </g>
      <g
         id="patch_9">
        <path
           clip-path="url(#pb1a31a5f9e)"
           d="M 295.188099 307.584  L 324.702149 307.584  L 324.702149 307.584  L 295.188099 307.584  z "
           style="fill:#1f77b4;"
           id="path32" />
      </g>
      <g
         id="patch_10">
        <path
           clip-path="url(#pb1a31a5f9e)"
           d="M 332.080661 307.584  L 361.594711 307.584  L 361.594711 307.584  L 332.080661 307.584  z "
           style="fill:#1f77b4;"
           id="path35" />
      </g>
      <g
         id="patch_11">
        <path
           clip-path="url(#pb1a31a5f9e)"
           d="M 368.973223 307.584  L 398.487273 307.584  L 398.487273 307.584  L 368.973223 307.584  z "
           style="fill:#1f77b4;"
           id="path38" />
      </g>
      <g
         id="matplotlib.axis_1">
        <g
           id="xtick_1">
          <g
             id="line2d_1">
            <path
               clip-path="url(#pb1a31a5f9e)"
               d="M 88.589752 307.584  L 88.589752 41.472  "
               style="fill:none;stroke:#b0b0b0;stroke-linecap:square;stroke-width:0.8;"
               id="path41" />
          </g>
          <g
             id="line2d_2">
            <defs
               id="defs45">
              <path
                 d="M 0 0  L 0 3.5  "
                 id="m3fb5c09191"
                 style="stroke:#000000;stroke-width:0.8;" />
            </defs>
            <g
               id="g49">
              <use
                 style="stroke:#000000;stroke-width:0.8;"
                 x="88.589752"
                 xlink:href="#m3fb5c09191"
                 y="307.584"
                 id="use47" />
            </g>
          </g>
          <g
             id="text_1">
            <!-- $|0010\rangle$ -->
            <g
               transform="translate(91.239752 347.384)rotate(-90)scale(0.1 -0.1)"
               id="g70">
              <defs
                 id="defs56">
                <path
                   d="M 21 76.421875  L 21 -23.578125  L 12.703125 -23.578125  L 12.703125 76.421875  z "
                   id="DejaVuSans-124" />
                <path
                   d="M 31.78125 66.40625  Q 24.171875 66.40625 20.328125 58.90625  Q 16.5 51.421875 16.5 36.375  Q 16.5 21.390625 20.328125 13.890625  Q 24.171875 6.390625 31.78125 6.390625  Q 39.453125 6.390625 43.28125 13.890625  Q 47.125 21.390625 47.125 36.375  Q 47.125 51.421875 43.28125 58.90625  Q 39.453125 66.40625 31.78125 66.40625  z M 31.78125 74.21875  Q 44.046875 74.21875 50.515625 64.515625  Q 56.984375 54.828125 56.984375 36.375  Q 56.984375 17.96875 50.515625 8.265625  Q 44.046875 -1.421875 31.78125 -1.421875  Q 19.53125 -1.421875 13.0625 8.265625  Q 6.59375 17.96875 6.59375 36.375  Q 6.59375 54.828125 13.0625 64.515625  Q 19.53125 74.21875 31.78125 74.21875  z "
                   id="DejaVuSans-48" />
                <path
                   d="M 12.40625 8.296875  L 28.515625 8.296875  L 28.515625 63.921875  L 10.984375 60.40625  L 10.984375 69.390625  L 28.421875 72.90625  L 38.28125 72.90625  L 38.28125 8.296875  L 54.390625 8.296875  L 54.390625 0  L 12.40625 0  z "
                   id="DejaVuSans-49" />
                <path
                   d="M 30.078125 31.34375  L 16.3125 -13.1875  L 8.015625 -13.1875  L 21.78125 31.34375  L 8.015625 75.875  L 16.3125 75.875  z "
                   id="DejaVuSans-10217" />
              </defs>
              <use
                 transform="translate(0 0.578125)"
                 xlink:href="#DejaVuSans-124"
                 id="use58" />
              <use
                 transform="translate(33.691406 0.578125)"
                 xlink:href="#DejaVuSans-48"
                 id="use60" />
              <use
                 transform="translate(97.314453 0.578125)"
                 xlink:href="#DejaVuSans-48"
                 id="use62" />
              <use
                 transform="translate(160.9375 0.578125)"
                 xlink:href="#DejaVuSans-49"
                 id="use64" />
              <use
                 transform="translate(224.560547 0.578125)"
                 xlink:href="#DejaVuSans-48"
                 id="use66" />
              <use
                 transform="translate(288.183594 0.578125)"
                 xlink:href="#DejaVuSans-10217"
                 id="use68" />
            </g>
          </g>
        </g>
        <g
           id="xtick_2">
          <g
             id="line2d_3">
            <path
               clip-path="url(#pb1a31a5f9e)"
               d="M 125.482314 307.584  L 125.482314 41.472  "
               style="fill:none;stroke:#b0b0b0;stroke-linecap:square;stroke-width:0.8;"
               id="path74" />
          </g>
          <g
             id="line2d_4">
            <g
               id="g79">
              <use
                 style="stroke:#000000;stroke-width:0.8;"
                 x="125.482314"
                 xlink:href="#m3fb5c09191"
                 y="307.584"
                 id="use77" />
            </g>
          </g>
          <g
             id="text_2">
            <!-- $|0011\rangle$ -->
            <g
               transform="translate(128.132314 347.384)rotate(-90)scale(0.1 -0.1)"
               id="g94">
              <use
                 transform="translate(0 0.578125)"
                 xlink:href="#DejaVuSans-124"
                 id="use82" />
              <use
                 transform="translate(33.691406 0.578125)"
                 xlink:href="#DejaVuSans-48"
                 id="use84" />
              <use
                 transform="translate(97.314453 0.578125)"
                 xlink:href="#DejaVuSans-48"
                 id="use86" />
              <use
                 transform="translate(160.9375 0.578125)"
                 xlink:href="#DejaVuSans-49"
                 id="use88" />
              <use
                 transform="translate(224.560547 0.578125)"
                 xlink:href="#DejaVuSans-49"
                 id="use90" />
              <use
                 transform="translate(288.183594 0.578125)"
                 xlink:href="#DejaVuSans-10217"
                 id="use92" />
            </g>
          </g>
        </g>
        <g
           id="xtick_3">
          <g
             id="line2d_5">
            <path
               clip-path="url(#pb1a31a5f9e)"
               d="M 162.374876 307.584  L 162.374876 41.472  "
               style="fill:none;stroke:#b0b0b0;stroke-linecap:square;stroke-width:0.8;"
               id="path98" />
          </g>
          <g
             id="line2d_6">
            <g
               id="g103">
              <use
                 style="stroke:#000000;stroke-width:0.8;"
                 x="162.374876"
                 xlink:href="#m3fb5c09191"
                 y="307.584"
                 id="use101" />
            </g>
          </g>
          <g
             id="text_3">
            <!-- $|0110\rangle$ -->
            <g
               transform="translate(165.024876 347.384)rotate(-90)scale(0.1 -0.1)"
               id="g118">
              <use
                 transform="translate(0 0.578125)"
                 xlink:href="#DejaVuSans-124"
                 id="use106" />
              <use
                 transform="translate(33.691406 0.578125)"
                 xlink:href="#DejaVuSans-48"
                 id="use108" />
              <use
                 transform="translate(97.314453 0.578125)"
                 xlink:href="#DejaVuSans-49"
                 id="use110" />
              <use
                 transform="translate(160.9375 0.578125)"
                 xlink:href="#DejaVuSans-49"
                 id="use112" />
              <use
                 transform="translate(224.560547 0.578125)"
                 xlink:href="#DejaVuSans-48"
                 id="use114" />
              <use
                 transform="translate(288.183594 0.578125)"
                 xlink:href="#DejaVuSans-10217"
                 id="use116" />
            </g>
          </g>
        </g>
        <g
           id="xtick_4">
          <g
             id="line2d_7">
            <path
               clip-path="url(#pb1a31a5f9e)"
               d="M 199.267438 307.584  L 199.267438 41.472  "
               style="fill:none;stroke:#b0b0b0;stroke-linecap:square;stroke-width:0.8;"
               id="path122" />
          </g>
          <g
             id="line2d_8">
            <g
               id="g127">
              <use
                 style="stroke:#000000;stroke-width:0.8;"
                 x="199.267438"
                 xlink:href="#m3fb5c09191"
                 y="307.584"
                 id="use125" />
            </g>
          </g>
          <g
             id="text_4">
            <!-- $|0111\rangle$ -->
            <g
               transform="translate(201.917438 347.384)rotate(-90)scale(0.1 -0.1)"
               id="g142">
              <use
                 transform="translate(0 0.578125)"
                 xlink:href="#DejaVuSans-124"
                 id="use130" />
              <use
                 transform="translate(33.691406 0.578125)"
                 xlink:href="#DejaVuSans-48"
                 id="use132" />
              <use
                 transform="translate(97.314453 0.578125)"
                 xlink:href="#DejaVuSans-49"
                 id="use134" />
              <use
                 transform="translate(160.9375 0.578125)"
                 xlink:href="#DejaVuSans-49"
                 id="use136" />
              <use
                 transform="translate(224.560547 0.578125)"
                 xlink:href="#DejaVuSans-49"
                 id="use138" />
              <use
                 transform="translate(288.183594 0.578125)"
                 xlink:href="#DejaVuSans-10217"
                 id="use140" />
            </g>
          </g>
        </g>
        <g
           id="xtick_5">
          <g
             id="line2d_9">
            <path
               clip-path="url(#pb1a31a5f9e)"
               d="M 236.16 307.584  L 236.16 41.472  "
               style="fill:none;stroke:#b0b0b0;stroke-linecap:square;stroke-width:0.8;"
               id="path146" />
          </g>
          <g
             id="line2d_10">
            <g
               id="g151">
              <use
                 style="stroke:#000000;stroke-width:0.8;"
                 x="236.16"
                 xlink:href="#m3fb5c09191"
                 y="307.584"
                 id="use149" />
            </g>
          </g>
          <g
             id="text_5">
            <!-- $|1000\rangle$ -->
            <g
               transform="translate(238.81 347.384)rotate(-90)scale(0.1 -0.1)"
               id="g166">
              <use
                 transform="translate(0 0.578125)"
                 xlink:href="#DejaVuSans-124"
                 id="use154" />
              <use
                 transform="translate(33.691406 0.578125)"
                 xlink:href="#DejaVuSans-49"
                 id="use156" />
              <use
                 transform="translate(97.314453 0.578125)"
                 xlink:href="#DejaVuSans-48"
                 id="use158" />
              <use
                 transform="translate(160.9375 0.578125)"
                 xlink:href="#DejaVuSans-48"
                 id="use160" />
              <use
                 transform="translate(224.560547 0.578125)"
                 xlink:href="#DejaVuSans-48"
                 id="use162" />
              <use
                 transform="translate(288.183594 0.578125)"
                 xlink:href="#DejaVuSans-10217"
                 id="use164" />
            </g>
          </g>
        </g>
        <g
           id="xtick_6">
          <g
             id="line2d_11">
            <path
               clip-path="url(#pb1a31a5f9e)"
               d="M 273.052562 307.584  L 273.052562 41.472  "
               style="fill:none;stroke:#b0b0b0;stroke-linecap:square;stroke-width:0.8;"
               id="path170" />
          </g>
          <g
             id="line2d_12">
            <g
               id="g175">
              <use
                 style="stroke:#000000;stroke-width:0.8;"
                 x="273.052562"
                 xlink:href="#m3fb5c09191"
                 y="307.584"
                 id="use173" />
            </g>
          </g>
          <g
             id="text_6">
            <!-- $|1001\rangle$ -->
            <g
               transform="translate(275.702562 347.384)rotate(-90)scale(0.1 -0.1)"
               id="g190">
              <use
                 transform="translate(0 0.578125)"
                 xlink:href="#DejaVuSans-124"
                 id="use178" />
              <use
                 transform="translate(33.691406 0.578125)"
                 xlink:href="#DejaVuSans-49"
                 id="use180" />
              <use
                 transform="translate(97.314453 0.578125)"
                 xlink:href="#DejaVuSans-48"
                 id="use182" />
              <use
                 transform="translate(160.9375 0.578125)"
                 xlink:href="#DejaVuSans-48"
                 id="use184" />
              <use
                 transform="translate(224.560547 0.578125)"
                 xlink:href="#DejaVuSans-49"
                 id="use186" />
              <use
                 transform="translate(288.183594 0.578125)"
                 xlink:href="#DejaVuSans-10217"
                 id="use188" />
            </g>
          </g>
        </g>
        <g
           id="xtick_7">
          <g
             id="line2d_13">
            <path
               clip-path="url(#pb1a31a5f9e)"
               d="M 309.945124 307.584  L 309.945124 41.472  "
               style="fill:none;stroke:#b0b0b0;stroke-linecap:square;stroke-width:0.8;"
               id="path194" />
          </g>
          <g
             id="line2d_14">
            <g
               id="g199">
              <use
                 style="stroke:#000000;stroke-width:0.8;"
                 x="309.945124"
                 xlink:href="#m3fb5c09191"
                 y="307.584"
                 id="use197" />
            </g>
          </g>
          <g
             id="text_7">
            <!-- $|1010\rangle$ -->
            <g
               transform="translate(312.595124 347.384)rotate(-90)scale(0.1 -0.1)"
               id="g214">
              <use
                 transform="translate(0 0.578125)"
                 xlink:href="#DejaVuSans-124"
                 id="use202" />
              <use
                 transform="translate(33.691406 0.578125)"
                 xlink:href="#DejaVuSans-49"
                 id="use204" />
              <use
                 transform="translate(97.314453 0.578125)"
                 xlink:href="#DejaVuSans-48"
                 id="use206" />
              <use
                 transform="translate(160.9375 0.578125)"
                 xlink:href="#DejaVuSans-49"
                 id="use208" />
              <use
                 transform="translate(224.560547 0.578125)"
                 xlink:href="#DejaVuSans-48"
                 id="use210" />
              <use
                 transform="translate(288.183594 0.578125)"
                 xlink:href="#DejaVuSans-10217"
                 id="use212" />
            </g>
          </g>
        </g>
        <g
           id="xtick_8">
          <g
             id="line2d_15">
            <path
               clip-path="url(#pb1a31a5f9e)"
               d="M 346.837686 307.584  L 346.837686 41.472  "
               style="fill:none;stroke:#b0b0b0;stroke-linecap:square;stroke-width:0.8;"
               id="path218" />
          </g>
          <g
             id="line2d_16">
            <g
               id="g223">
              <use
                 style="stroke:#000000;stroke-width:0.8;"
                 x="346.837686"
                 xlink:href="#m3fb5c09191"
                 y="307.584"
                 id="use221" />
            </g>
          </g>
          <g
             id="text_8">
            <!-- $|1101\rangle$ -->
            <g
               transform="translate(349.487686 347.384)rotate(-90)scale(0.1 -0.1)"
               id="g238">
              <use
                 transform="translate(0 0.578125)"
                 xlink:href="#DejaVuSans-124"
                 id="use226" />
              <use
                 transform="translate(33.691406 0.578125)"
                 xlink:href="#DejaVuSans-49"
                 id="use228" />
              <use
                 transform="translate(97.314453 0.578125)"
                 xlink:href="#DejaVuSans-49"
                 id="use230" />
              <use
                 transform="translate(160.9375 0.578125)"
                 xlink:href="#DejaVuSans-48"
                 id="use232" />
              <use
                 transform="translate(224.560547 0.578125)"
                 xlink:href="#DejaVuSans-49"
                 id="use234" />
              <use
                 transform="translate(288.183594 0.578125)"
                 xlink:href="#DejaVuSans-10217"
                 id="use236" />
            </g>
          </g>
        </g>
        <g
           id="xtick_9">
          <g
             id="line2d_17">
            <path
               clip-path="url(#pb1a31a5f9e)"
               d="M 383.730248 307.584  L 383.730248 41.472  "
               style="fill:none;stroke:#b0b0b0;stroke-linecap:square;stroke-width:0.8;"
               id="path242" />
          </g>
          <g
             id="line2d_18">
            <g
               id="g247">
              <use
                 style="stroke:#000000;stroke-width:0.8;"
                 x="383.730248"
                 xlink:href="#m3fb5c09191"
                 y="307.584"
                 id="use245" />
            </g>
          </g>
          <g
             id="text_9">
            <!-- $|1110\rangle$ -->
            <g
               transform="translate(386.380248 347.384)rotate(-90)scale(0.1 -0.1)"
               id="g262">
              <use
                 transform="translate(0 0.578125)"
                 xlink:href="#DejaVuSans-124"
                 id="use250" />
              <use
                 transform="translate(33.691406 0.578125)"
                 xlink:href="#DejaVuSans-49"
                 id="use252" />
              <use
                 transform="translate(97.314453 0.578125)"
                 xlink:href="#DejaVuSans-49"
                 id="use254" />
              <use
                 transform="translate(160.9375 0.578125)"
                 xlink:href="#DejaVuSans-49"
                 id="use256" />
              <use
                 transform="translate(224.560547 0.578125)"
                 xlink:href="#DejaVuSans-48"
                 id="use258" />
              <use
                 transform="translate(288.183594 0.578125)"
                 xlink:href="#DejaVuSans-10217"
                 id="use260" />
            </g>
          </g>
        </g>
      </g>
      <g
         id="matplotlib.axis_2">
        <g
           id="ytick_1">
          <g
             id="line2d_19">
            <path
               clip-path="url(#pb1a31a5f9e)"
               d="M 57.6 307.584  L 414.72 307.584  "
               style="fill:none;stroke:#b0b0b0;stroke-linecap:square;stroke-width:0.8;"
               id="path267" />
          </g>
          <g
             id="line2d_20">
            <defs
               id="defs271">
              <path
                 d="M 0 0  L -3.5 0  "
                 id="m8162b0219d"
                 style="stroke:#000000;stroke-width:0.8;" />
            </defs>
            <g
               id="g275">
              <use
                 style="stroke:#000000;stroke-width:0.8;"
                 x="57.6"
                 xlink:href="#m8162b0219d"
                 y="307.584"
                 id="use273" />
            </g>
          </g>
          <g
             id="text_10">
            <!-- 0 -->
            <g
               transform="translate(44.2375 311.383219)scale(0.1 -0.1)"
               id="g280">
              <use
                 xlink:href="#DejaVuSans-48"
                 id="use278" />
            </g>
          </g>
        </g>
        <g
           id="ytick_2">
          <g
             id="line2d_21">
            <path
               clip-path="url(#pb1a31a5f9e)"
               d="M 57.6 270.553079  L 414.72 270.553079  "
               style="fill:none;stroke:#b0b0b0;stroke-linecap:square;stroke-width:0.8;"
               id="path284" />
          </g>
          <g
             id="line2d_22">
            <g
               id="g289">
              <use
                 style="stroke:#000000;stroke-width:0.8;"
                 x="57.6"
                 xlink:href="#m8162b0219d"
                 y="270.553079"
                 id="use287" />
            </g>
          </g>
          <g
             id="text_11">
            <!-- 100 -->
            <g
               transform="translate(31.5125 274.352298)scale(0.1 -0.1)"
               id="g298">
              <use
                 xlink:href="#DejaVuSans-49"
                 id="use292" />
              <use
                 x="63.623047"
                 xlink:href="#DejaVuSans-48"
                 id="use294" />
              <use
                 x="127.246094"
                 xlink:href="#DejaVuSans-48"
                 id="use296" />
            </g>
          </g>
        </g>
        <g
           id="ytick_3">
          <g
             id="line2d_23">
            <path
               clip-path="url(#pb1a31a5f9e)"
               d="M 57.6 233.522158  L 414.72 233.522158  "
               style="fill:none;stroke:#b0b0b0;stroke-linecap:square;stroke-width:0.8;"
               id="path302" />
          </g>
          <g
             id="line2d_24">
            <g
               id="g307">
              <use
                 style="stroke:#000000;stroke-width:0.8;"
                 x="57.6"
                 xlink:href="#m8162b0219d"
                 y="233.522158"
                 id="use305" />
            </g>
          </g>
          <g
             id="text_12">
            <!-- 200 -->
            <g
               transform="translate(31.5125 237.321377)scale(0.1 -0.1)"
               id="g319">
              <defs
                 id="defs311">
                <path
                   d="M 19.1875 8.296875  L 53.609375 8.296875  L 53.609375 0  L 7.328125 0  L 7.328125 8.296875  Q 12.9375 14.109375 22.625 23.890625  Q 32.328125 33.6875 34.8125 36.53125  Q 39.546875 41.84375 41.421875 45.53125  Q 43.3125 49.21875 43.3125 52.78125  Q 43.3125 58.59375 39.234375 62.25  Q 35.15625 65.921875 28.609375 65.921875  Q 23.96875 65.921875 18.8125 64.3125  Q 13.671875 62.703125 7.8125 59.421875  L 7.8125 69.390625  Q 13.765625 71.78125 18.9375 73  Q 24.125 74.21875 28.421875 74.21875  Q 39.75 74.21875 46.484375 68.546875  Q 53.21875 62.890625 53.21875 53.421875  Q 53.21875 48.921875 51.53125 44.890625  Q 49.859375 40.875 45.40625 35.40625  Q 44.1875 33.984375 37.640625 27.21875  Q 31.109375 20.453125 19.1875 8.296875  z "
                   id="DejaVuSans-50" />
              </defs>
              <use
                 xlink:href="#DejaVuSans-50"
                 id="use313" />
              <use
                 x="63.623047"
                 xlink:href="#DejaVuSans-48"
                 id="use315" />
              <use
                 x="127.246094"
                 xlink:href="#DejaVuSans-48"
                 id="use317" />
            </g>
          </g>
        </g>
        <g
           id="ytick_4">
          <g
             id="line2d_25">
            <path
               clip-path="url(#pb1a31a5f9e)"
               d="M 57.6 196.491237  L 414.72 196.491237  "
               style="fill:none;stroke:#b0b0b0;stroke-linecap:square;stroke-width:0.8;"
               id="path323" />
          </g>
          <g
             id="line2d_26">
            <g
               id="g328">
              <use
                 style="stroke:#000000;stroke-width:0.8;"
                 x="57.6"
                 xlink:href="#m8162b0219d"
                 y="196.491237"
                 id="use326" />
            </g>
          </g>
          <g
             id="text_13">
            <!-- 300 -->
            <g
               transform="translate(31.5125 200.290456)scale(0.1 -0.1)"
               id="g340">
              <defs
                 id="defs332">
                <path
                   d="M 40.578125 39.3125  Q 47.65625 37.796875 51.625 33  Q 55.609375 28.21875 55.609375 21.1875  Q 55.609375 10.40625 48.1875 4.484375  Q 40.765625 -1.421875 27.09375 -1.421875  Q 22.515625 -1.421875 17.65625 -0.515625  Q 12.796875 0.390625 7.625 2.203125  L 7.625 11.71875  Q 11.71875 9.328125 16.59375 8.109375  Q 21.484375 6.890625 26.8125 6.890625  Q 36.078125 6.890625 40.9375 10.546875  Q 45.796875 14.203125 45.796875 21.1875  Q 45.796875 27.640625 41.28125 31.265625  Q 36.765625 34.90625 28.71875 34.90625  L 20.21875 34.90625  L 20.21875 43.015625  L 29.109375 43.015625  Q 36.375 43.015625 40.234375 45.921875  Q 44.09375 48.828125 44.09375 54.296875  Q 44.09375 59.90625 40.109375 62.90625  Q 36.140625 65.921875 28.71875 65.921875  Q 24.65625 65.921875 20.015625 65.03125  Q 15.375 64.15625 9.8125 62.3125  L 9.8125 71.09375  Q 15.4375 72.65625 20.34375 73.4375  Q 25.25 74.21875 29.59375 74.21875  Q 40.828125 74.21875 47.359375 69.109375  Q 53.90625 64.015625 53.90625 55.328125  Q 53.90625 49.265625 50.4375 45.09375  Q 46.96875 40.921875 40.578125 39.3125  z "
                   id="DejaVuSans-51" />
              </defs>
              <use
                 xlink:href="#DejaVuSans-51"
                 id="use334" />
              <use
                 x="63.623047"
                 xlink:href="#DejaVuSans-48"
                 id="use336" />
              <use
                 x="127.246094"
                 xlink:href="#DejaVuSans-48"
                 id="use338" />
            </g>
          </g>
        </g>
        <g
           id="ytick_5">
          <g
             id="line2d_27">
            <path
               clip-path="url(#pb1a31a5f9e)"
               d="M 57.6 159.460316  L 414.72 159.460316  "
               style="fill:none;stroke:#b0b0b0;stroke-linecap:square;stroke-width:0.8;"
               id="path344" />
          </g>
          <g
             id="line2d_28">
            <g
               id="g349">
              <use
                 style="stroke:#000000;stroke-width:0.8;"
                 x="57.6"
                 xlink:href="#m8162b0219d"
                 y="159.460316"
                 id="use347" />
            </g>
          </g>
          <g
             id="text_14">
            <!-- 400 -->
            <g
               transform="translate(31.5125 163.259535)scale(0.1 -0.1)"
               id="g361">
              <defs
                 id="defs353">
                <path
                   d="M 37.796875 64.3125  L 12.890625 25.390625  L 37.796875 25.390625  z M 35.203125 72.90625  L 47.609375 72.90625  L 47.609375 25.390625  L 58.015625 25.390625  L 58.015625 17.1875  L 47.609375 17.1875  L 47.609375 0  L 37.796875 0  L 37.796875 17.1875  L 4.890625 17.1875  L 4.890625 26.703125  z "
                   id="DejaVuSans-52" />
              </defs>
              <use
                 xlink:href="#DejaVuSans-52"
                 id="use355" />
              <use
                 x="63.623047"
                 xlink:href="#DejaVuSans-48"
                 id="use357" />
              <use
                 x="127.246094"
                 xlink:href="#DejaVuSans-48"
                 id="use359" />
            </g>
          </g>
        </g>
        <g
           id="ytick_6">
          <g
             id="line2d_29">
            <path
               clip-path="url(#pb1a31a5f9e)"
               d="M 57.6 122.429395  L 414.72 122.429395  "
               style="fill:none;stroke:#b0b0b0;stroke-linecap:square;stroke-width:0.8;"
               id="path365" />
          </g>
          <g
             id="line2d_30">
            <g
               id="g370">
              <use
                 style="stroke:#000000;stroke-width:0.8;"
                 x="57.6"
                 xlink:href="#m8162b0219d"
                 y="122.429395"
                 id="use368" />
            </g>
          </g>
          <g
             id="text_15">
            <!-- 500 -->
            <g
               transform="translate(31.5125 126.228614)scale(0.1 -0.1)"
               id="g382">
              <defs
                 id="defs374">
                <path
                   d="M 10.796875 72.90625  L 49.515625 72.90625  L 49.515625 64.59375  L 19.828125 64.59375  L 19.828125 46.734375  Q 21.96875 47.46875 24.109375 47.828125  Q 26.265625 48.1875 28.421875 48.1875  Q 40.625 48.1875 47.75 41.5  Q 54.890625 34.8125 54.890625 23.390625  Q 54.890625 11.625 47.5625 5.09375  Q 40.234375 -1.421875 26.90625 -1.421875  Q 22.3125 -1.421875 17.546875 -0.640625  Q 12.796875 0.140625 7.71875 1.703125  L 7.71875 11.625  Q 12.109375 9.234375 16.796875 8.0625  Q 21.484375 6.890625 26.703125 6.890625  Q 35.15625 6.890625 40.078125 11.328125  Q 45.015625 15.765625 45.015625 23.390625  Q 45.015625 31 40.078125 35.4375  Q 35.15625 39.890625 26.703125 39.890625  Q 22.75 39.890625 18.8125 39.015625  Q 14.890625 38.140625 10.796875 36.28125  z "
                   id="DejaVuSans-53" />
              </defs>
              <use
                 xlink:href="#DejaVuSans-53"
                 id="use376" />
              <use
                 x="63.623047"
                 xlink:href="#DejaVuSans-48"
                 id="use378" />
              <use
                 x="127.246094"
                 xlink:href="#DejaVuSans-48"
                 id="use380" />
            </g>
          </g>
        </g>
        <g
           id="ytick_7">
          <g
             id="line2d_31">
            <path
               clip-path="url(#pb1a31a5f9e)"
               d="M 57.6 85.398475  L 414.72 85.398475  "
               style="fill:none;stroke:#b0b0b0;stroke-linecap:square;stroke-width:0.8;"
               id="path386" />
          </g>
          <g
             id="line2d_32">
            <g
               id="g391">
              <use
                 style="stroke:#000000;stroke-width:0.8;"
                 x="57.6"
                 xlink:href="#m8162b0219d"
                 y="85.398475"
                 id="use389" />
            </g>
          </g>
          <g
             id="text_16">
            <!-- 600 -->
            <g
               transform="translate(31.5125 89.197693)scale(0.1 -0.1)"
               id="g403">
              <defs
                 id="defs395">
                <path
                   d="M 33.015625 40.375  Q 26.375 40.375 22.484375 35.828125  Q 18.609375 31.296875 18.609375 23.390625  Q 18.609375 15.53125 22.484375 10.953125  Q 26.375 6.390625 33.015625 6.390625  Q 39.65625 6.390625 43.53125 10.953125  Q 47.40625 15.53125 47.40625 23.390625  Q 47.40625 31.296875 43.53125 35.828125  Q 39.65625 40.375 33.015625 40.375  z M 52.59375 71.296875  L 52.59375 62.3125  Q 48.875 64.0625 45.09375 64.984375  Q 41.3125 65.921875 37.59375 65.921875  Q 27.828125 65.921875 22.671875 59.328125  Q 17.53125 52.734375 16.796875 39.40625  Q 19.671875 43.65625 24.015625 45.921875  Q 28.375 48.1875 33.59375 48.1875  Q 44.578125 48.1875 50.953125 41.515625  Q 57.328125 34.859375 57.328125 23.390625  Q 57.328125 12.15625 50.6875 5.359375  Q 44.046875 -1.421875 33.015625 -1.421875  Q 20.359375 -1.421875 13.671875 8.265625  Q 6.984375 17.96875 6.984375 36.375  Q 6.984375 53.65625 15.1875 63.9375  Q 23.390625 74.21875 37.203125 74.21875  Q 40.921875 74.21875 44.703125 73.484375  Q 48.484375 72.75 52.59375 71.296875  z "
                   id="DejaVuSans-54" />
              </defs>
              <use
                 xlink:href="#DejaVuSans-54"
                 id="use397" />
              <use
                 x="63.623047"
                 xlink:href="#DejaVuSans-48"
                 id="use399" />
              <use
                 x="127.246094"
                 xlink:href="#DejaVuSans-48"
                 id="use401" />
            </g>
          </g>
        </g>
        <g
           id="ytick_8">
          <g
             id="line2d_33">
            <path
               clip-path="url(#pb1a31a5f9e)"
               d="M 57.6 48.367554  L 414.72 48.367554  "
               style="fill:none;stroke:#b0b0b0;stroke-linecap:square;stroke-width:0.8;"
               id="path407" />
          </g>
          <g
             id="line2d_34">
            <g
               id="g412">
              <use
                 style="stroke:#000000;stroke-width:0.8;"
                 x="57.6"
                 xlink:href="#m8162b0219d"
                 y="48.367554"
                 id="use410" />
            </g>
          </g>
          <g
             id="text_17">
            <!-- 700 -->
            <g
               transform="translate(31.5125 52.166772)scale(0.1 -0.1)"
               id="g424">
              <defs
                 id="defs416">
                <path
                   d="M 8.203125 72.90625  L 55.078125 72.90625  L 55.078125 68.703125  L 28.609375 0  L 18.3125 0  L 43.21875 64.59375  L 8.203125 64.59375  z "
                   id="DejaVuSans-55" />
              </defs>
              <use
                 xlink:href="#DejaVuSans-55"
                 id="use418" />
              <use
                 x="63.623047"
                 xlink:href="#DejaVuSans-48"
                 id="use420" />
              <use
                 x="127.246094"
                 xlink:href="#DejaVuSans-48"
                 id="use422" />
            </g>
          </g>
        </g>
        <g
           id="text_18">
          <!-- count for state -->
          <g
             transform="translate(25.432812 211.353)rotate(-90)scale(0.1 -0.1)"
             id="g471">
            <defs
               id="defs439">
              <path
                 d="M 48.78125 52.59375  L 48.78125 44.1875  Q 44.96875 46.296875 41.140625 47.34375  Q 37.3125 48.390625 33.40625 48.390625  Q 24.65625 48.390625 19.8125 42.84375  Q 14.984375 37.3125 14.984375 27.296875  Q 14.984375 17.28125 19.8125 11.734375  Q 24.65625 6.203125 33.40625 6.203125  Q 37.3125 6.203125 41.140625 7.25  Q 44.96875 8.296875 48.78125 10.40625  L 48.78125 2.09375  Q 45.015625 0.34375 40.984375 -0.53125  Q 36.96875 -1.421875 32.421875 -1.421875  Q 20.0625 -1.421875 12.78125 6.34375  Q 5.515625 14.109375 5.515625 27.296875  Q 5.515625 40.671875 12.859375 48.328125  Q 20.21875 56 33.015625 56  Q 37.15625 56 41.109375 55.140625  Q 45.0625 54.296875 48.78125 52.59375  z "
                 id="DejaVuSans-99" />
              <path
                 d="M 30.609375 48.390625  Q 23.390625 48.390625 19.1875 42.75  Q 14.984375 37.109375 14.984375 27.296875  Q 14.984375 17.484375 19.15625 11.84375  Q 23.34375 6.203125 30.609375 6.203125  Q 37.796875 6.203125 41.984375 11.859375  Q 46.1875 17.53125 46.1875 27.296875  Q 46.1875 37.015625 41.984375 42.703125  Q 37.796875 48.390625 30.609375 48.390625  z M 30.609375 56  Q 42.328125 56 49.015625 48.375  Q 55.71875 40.765625 55.71875 27.296875  Q 55.71875 13.875 49.015625 6.21875  Q 42.328125 -1.421875 30.609375 -1.421875  Q 18.84375 -1.421875 12.171875 6.21875  Q 5.515625 13.875 5.515625 27.296875  Q 5.515625 40.765625 12.171875 48.375  Q 18.84375 56 30.609375 56  z "
                 id="DejaVuSans-111" />
              <path
                 d="M 8.5 21.578125  L 8.5 54.6875  L 17.484375 54.6875  L 17.484375 21.921875  Q 17.484375 14.15625 20.5 10.265625  Q 23.53125 6.390625 29.59375 6.390625  Q 36.859375 6.390625 41.078125 11.03125  Q 45.3125 15.671875 45.3125 23.6875  L 45.3125 54.6875  L 54.296875 54.6875  L 54.296875 0  L 45.3125 0  L 45.3125 8.40625  Q 42.046875 3.421875 37.71875 1  Q 33.40625 -1.421875 27.6875 -1.421875  Q 18.265625 -1.421875 13.375 4.4375  Q 8.5 10.296875 8.5 21.578125  z M 31.109375 56  z "
                 id="DejaVuSans-117" />
              <path
                 d="M 54.890625 33.015625  L 54.890625 0  L 45.90625 0  L 45.90625 32.71875  Q 45.90625 40.484375 42.875 44.328125  Q 39.84375 48.1875 33.796875 48.1875  Q 26.515625 48.1875 22.3125 43.546875  Q 18.109375 38.921875 18.109375 30.90625  L 18.109375 0  L 9.078125 0  L 9.078125 54.6875  L 18.109375 54.6875  L 18.109375 46.1875  Q 21.34375 51.125 25.703125 53.5625  Q 30.078125 56 35.796875 56  Q 45.21875 56 50.046875 50.171875  Q 54.890625 44.34375 54.890625 33.015625  z "
                 id="DejaVuSans-110" />
              <path
                 d="M 18.3125 70.21875  L 18.3125 54.6875  L 36.8125 54.6875  L 36.8125 47.703125  L 18.3125 47.703125  L 18.3125 18.015625  Q 18.3125 11.328125 20.140625 9.421875  Q 21.96875 7.515625 27.59375 7.515625  L 36.8125 7.515625  L 36.8125 0  L 27.59375 0  Q 17.1875 0 13.234375 3.875  Q 9.28125 7.765625 9.28125 18.015625  L 9.28125 47.703125  L 2.6875 47.703125  L 2.6875 54.6875  L 9.28125 54.6875  L 9.28125 70.21875  z "
                 id="DejaVuSans-116" />
              <path
                 id="DejaVuSans-32" />
              <path
                 d="M 37.109375 75.984375  L 37.109375 68.5  L 28.515625 68.5  Q 23.6875 68.5 21.796875 66.546875  Q 19.921875 64.59375 19.921875 59.515625  L 19.921875 54.6875  L 34.71875 54.6875  L 34.71875 47.703125  L 19.921875 47.703125  L 19.921875 0  L 10.890625 0  L 10.890625 47.703125  L 2.296875 47.703125  L 2.296875 54.6875  L 10.890625 54.6875  L 10.890625 58.5  Q 10.890625 67.625 15.140625 71.796875  Q 19.390625 75.984375 28.609375 75.984375  z "
                 id="DejaVuSans-102" />
              <path
                 d="M 41.109375 46.296875  Q 39.59375 47.171875 37.8125 47.578125  Q 36.03125 48 33.890625 48  Q 26.265625 48 22.1875 43.046875  Q 18.109375 38.09375 18.109375 28.8125  L 18.109375 0  L 9.078125 0  L 9.078125 54.6875  L 18.109375 54.6875  L 18.109375 46.1875  Q 20.953125 51.171875 25.484375 53.578125  Q 30.03125 56 36.53125 56  Q 37.453125 56 38.578125 55.875  Q 39.703125 55.765625 41.0625 55.515625  z "
                 id="DejaVuSans-114" />
              <path
                 d="M 44.28125 53.078125  L 44.28125 44.578125  Q 40.484375 46.53125 36.375 47.5  Q 32.28125 48.484375 27.875 48.484375  Q 21.1875 48.484375 17.84375 46.4375  Q 14.5 44.390625 14.5 40.28125  Q 14.5 37.15625 16.890625 35.375  Q 19.28125 33.59375 26.515625 31.984375  L 29.59375 31.296875  Q 39.15625 29.25 43.1875 25.515625  Q 47.21875 21.78125 47.21875 15.09375  Q 47.21875 7.46875 41.1875 3.015625  Q 35.15625 -1.421875 24.609375 -1.421875  Q 20.21875 -1.421875 15.453125 -0.5625  Q 10.6875 0.296875 5.421875 2  L 5.421875 11.28125  Q 10.40625 8.6875 15.234375 7.390625  Q 20.0625 6.109375 24.8125 6.109375  Q 31.15625 6.109375 34.5625 8.28125  Q 37.984375 10.453125 37.984375 14.40625  Q 37.984375 18.0625 35.515625 20.015625  Q 33.0625 21.96875 24.703125 23.78125  L 21.578125 24.515625  Q 13.234375 26.265625 9.515625 29.90625  Q 5.8125 33.546875 5.8125 39.890625  Q 5.8125 47.609375 11.28125 51.796875  Q 16.75 56 26.8125 56  Q 31.78125 56 36.171875 55.265625  Q 40.578125 54.546875 44.28125 53.078125  z "
                 id="DejaVuSans-115" />
              <path
                 d="M 34.28125 27.484375  Q 23.390625 27.484375 19.1875 25  Q 14.984375 22.515625 14.984375 16.5  Q 14.984375 11.71875 18.140625 8.90625  Q 21.296875 6.109375 26.703125 6.109375  Q 34.1875 6.109375 38.703125 11.40625  Q 43.21875 16.703125 43.21875 25.484375  L 43.21875 27.484375  z M 52.203125 31.203125  L 52.203125 0  L 43.21875 0  L 43.21875 8.296875  Q 40.140625 3.328125 35.546875 0.953125  Q 30.953125 -1.421875 24.3125 -1.421875  Q 15.921875 -1.421875 10.953125 3.296875  Q 6 8.015625 6 15.921875  Q 6 25.140625 12.171875 29.828125  Q 18.359375 34.515625 30.609375 34.515625  L 43.21875 34.515625  L 43.21875 35.40625  Q 43.21875 41.609375 39.140625 45  Q 35.0625 48.390625 27.6875 48.390625  Q 23 48.390625 18.546875 47.265625  Q 14.109375 46.140625 10.015625 43.890625  L 10.015625 52.203125  Q 14.9375 54.109375 19.578125 55.046875  Q 24.21875 56 28.609375 56  Q 40.484375 56 46.34375 49.84375  Q 52.203125 43.703125 52.203125 31.203125  z "
                 id="DejaVuSans-97" />
              <path
                 d="M 56.203125 29.59375  L 56.203125 25.203125  L 14.890625 25.203125  Q 15.484375 15.921875 20.484375 11.0625  Q 25.484375 6.203125 34.421875 6.203125  Q 39.59375 6.203125 44.453125 7.46875  Q 49.3125 8.734375 54.109375 11.28125  L 54.109375 2.78125  Q 49.265625 0.734375 44.1875 -0.34375  Q 39.109375 -1.421875 33.890625 -1.421875  Q 20.796875 -1.421875 13.15625 6.1875  Q 5.515625 13.8125 5.515625 26.8125  Q 5.515625 40.234375 12.765625 48.109375  Q 20.015625 56 32.328125 56  Q 43.359375 56 49.78125 48.890625  Q 56.203125 41.796875 56.203125 29.59375  z M 47.21875 32.234375  Q 47.125 39.59375 43.09375 43.984375  Q 39.0625 48.390625 32.421875 48.390625  Q 24.90625 48.390625 20.390625 44.140625  Q 15.875 39.890625 15.1875 32.171875  z "
                 id="DejaVuSans-101" />
            </defs>
            <use
               xlink:href="#DejaVuSans-99"
               id="use441" />
            <use
               x="54.980469"
               xlink:href="#DejaVuSans-111"
               id="use443" />
            <use
               x="116.162109"
               xlink:href="#DejaVuSans-117"
               id="use445" />
            <use
               x="179.541016"
               xlink:href="#DejaVuSans-110"
               id="use447" />
            <use
               x="242.919922"
               xlink:href="#DejaVuSans-116"
               id="use449" />
            <use
               x="282.128906"
               xlink:href="#DejaVuSans-32"
               id="use451" />
            <use
               x="313.916016"
               xlink:href="#DejaVuSans-102"
               id="use453" />
            <use
               x="349.121094"
               xlink:href="#DejaVuSans-111"
               id="use455" />
            <use
               x="410.302734"
               xlink:href="#DejaVuSans-114"
               id="use457" />
            <use
               x="451.416016"
               xlink:href="#DejaVuSans-32"
               id="use459" />
            <use
               x="483.203125"
               xlink:href="#DejaVuSans-115"
               id="use461" />
            <use
               x="535.302734"
               xlink:href="#DejaVuSans-116"
               id="use463" />
            <use
               x="574.511719"
               xlink:href="#DejaVuSans-97"
               id="use465" />
            <use
               x="635.791016"
               xlink:href="#DejaVuSans-116"
               id="use467" />
            <use
               x="675"
               xlink:href="#DejaVuSans-101"
               id="use469" />
          </g>
        </g>
      </g>
      <g
         id="patch_12">
        <path
           d="M 57.6 307.584  L 57.6 41.472  "
           style="fill:none;stroke:#000000;stroke-linecap:square;stroke-linejoin:miter;stroke-width:0.8;"
           id="path475" />
      </g>
      <g
         id="patch_13">
        <path
           d="M 414.72 307.584  L 414.72 41.472  "
           style="fill:none;stroke:#000000;stroke-linecap:square;stroke-linejoin:miter;stroke-width:0.8;"
           id="path478" />
      </g>
      <g
         id="patch_14">
        <path
           d="M 57.6 307.584  L 414.72 307.584  "
           style="fill:none;stroke:#000000;stroke-linecap:square;stroke-linejoin:miter;stroke-width:0.8;"
           id="path481" />
      </g>
      <g
         id="patch_15">
        <path
           d="M 57.6 41.472  L 414.72 41.472  "
           style="fill:none;stroke:#000000;stroke-linecap:square;stroke-linejoin:miter;stroke-width:0.8;"
           id="path484" />
      </g>
    </g>
  </g>
  <defs
     id="defs492">
    <clipPath
       id="pb1a31a5f9e">
      <rect
         height="266.112"
         width="357.12"
         x="57.6"
         y="41.472"
         id="rect489" />
    </clipPath>
  </defs>
</svg>
